<svg id="Layer_1" xmlns="http://www.w3.org/2000/svg" viewBox="0 0 1440 1080"><style>.st0{fill:#cbd5de}.st1{fill:#26282a}.st2{fill:#fff}.st3{fill:#e6a144}.st4{fill:#c84c44}.st5{fill:#f3c848}.st6{fill:#000105}.st7{fill:#535456}.st8{opacity:.94;fill:#fff;enable-background:new}.st9{fill:#7e7f80}.st10,.st11{enable-background:new}.st11{opacity:.8;fill:#000105}.st12{fill:#8a9aa5}.st13{fill:#b5c3d1}.st14{fill:#55915d}.st15{fill:#4c6eae}.st16{opacity:.8;enable-background:new}.st17{fill:#e4e8ee}.st18{fill:#a9ce96}</style><path class="st0" d="M0 64h1440v1016H0z"/><path class="st1" d="M0 0h1440v64H0z"/><path class="st2" d="M80 21.5c-7.5 0-11.5 5.2-11.5 11.5S72.4 44.6 80 44.6c7.7 0 11.5-5.2 11.5-11.5s-4-11.6-11.5-11.6zm0 18.6c-4.1 0-6.3-3.1-6.3-7s2.1-7 6.3-7 6.3 3.1 6.3 7-2.2 7-6.3 7zM65.2 29.5c0-5.6-3.1-7.6-10-7.6h-10v22.2h5.2v-6.8h4.5l5.2 6.8h6l-5.9-7.5c3.4-1 5-3.3 5-7.1zm-10.8 3.4h-4.1v-6.3h4.4c3 0 5.2-.1 5.2 3.1.1 3.2-2.5 3.2-5.5 3.2zM148.4 21.9h-4.2L135 44.2h5.2l1.7-4.2h8.9l1.7 4.2h5.2l-9.3-22.3zm-4.8 14l2.7-6.6 2.7 6.6h-5.4zM105.6 30.8c-4.1-1-5.2-1.5-5.2-3 0-1.1 1.1-2 3.1-2 4.4 0 7 1.4 7 1.4l2-4.1s-3-1.7-9-1.7c-4.9 0-8.4 2.7-8.4 6.8 0 4.5 3.1 5.8 7.9 6.9 3.9 1 4.8 1.5 4.8 2.8 0 1.4-1.3 2.2-3.5 2.2-4.4 0-8.2-2-8.2-2l-1.8 4.2s3.4 2.1 9.8 2.1c5.2 0 8.7-2.5 8.7-7 .4-3.8-2.4-5.3-7.2-6.6zM135.7 26.4l2-4.5h-20.3l-2.2 4.5h8.4v17.8h5.2V26.4z"/><path class="st3" d="M39.9 26.4v-4.5H28.7l-1 4.5z"/><path class="st2" d="M33 39.5l-.9 4.7h7.8v-4.7z"/><path class="st4" d="M21.9 35.3h18v-4.5h-17z"/><path class="st2" d="M693.4 20.7v24.6h-5.1V25.7l-5.3 3.4-2.2-3.5 8.2-4.9h4.4zM714 23.5c1.5 2.2 2.2 5.3 2.2 9.6s-.7 7.3-2.2 9.6-3.8 3.4-6.7 3.4c-3 0-5.2-1.1-6.8-3.4-1.5-2.2-2.2-5.3-2.2-9.6s.7-7.3 2.2-9.6c1.5-2.3 3.8-3.2 6.8-3.2 2.9-.1 5.1 1.1 6.7 3.2zm-8.9 1.4c-.6.6-1 1.5-1.1 2.8-.3 1.3-.4 3.1-.4 5.2 0 2.2.1 3.9.4 5.2.3 1.3.7 2.2 1.1 2.8.6.6 1.3.8 2.1.8s1.5-.3 2.1-.8 1-1.5 1.3-2.8.4-3.1.4-5.3-.1-4.1-.4-5.3c-.3-1.3-.7-2.2-1.3-2.8s-1.3-.8-2.1-.8c-.8.1-1.5.4-2.1 1zM725.3 24.3c.6.6.8 1.4.8 2.3 0 .8-.3 1.5-.8 2.2-.6.6-1.4 1-2.2 1-.8 0-1.5-.3-2.2-1-.6-.6-.8-1.4-.8-2.2 0-.8.3-1.5.8-2.3.6-.6 1.4-.8 2.2-.8.8 0 1.7.3 2.2.8zm0 12.8c.6.6.8 1.4.8 2.2s-.3 1.5-.8 2.2c-.6.6-1.4 1-2.2 1-.8 0-1.5-.3-2.2-1-.6-.6-.8-1.4-.8-2.2s.3-1.5.8-2.2c.6-.6 1.4-.8 2.2-.8.8 0 1.7.3 2.2.8zM741.9 21.1c1.3.6 2.1 1.3 2.7 2.2.6 1 1 2 1 3.2 0 1.5-.4 2.7-1.3 3.7-.8 1-2 1.7-3.5 2.1 1.7.1 3 .7 4.1 1.8 1 1 1.5 2.4 1.5 4.2 0 1.4-.4 2.7-1.1 3.8s-1.8 2.1-3.1 2.7c-1.4.7-3.1 1-4.9 1-3.5 0-6.2-1.3-8.2-3.7l2.8-2.7c.8.8 1.7 1.4 2.4 1.8.8.4 1.7.6 2.7.6 1.3 0 2.2-.3 3-1s1.1-1.7 1.1-2.8c0-1.3-.4-2.2-1.1-2.8s-1.8-.8-3.2-.8h-2l.6-3.7h1.4c1.1 0 2.1-.3 2.7-.8.7-.6 1-1.4 1-2.5 0-1-.3-1.7-1-2.2-.6-.6-1.4-.8-2.5-.8-1 0-1.8.1-2.5.6-.8.3-1.5.8-2.2 1.5l-2.5-2.8c2.2-2.1 4.9-3.2 8-3.2 1.5-.3 2.9 0 4.1.6zM764 24.5h-9.1v5.6c1.1-.6 2.4-.8 3.7-.8 1.4 0 2.5.3 3.7 1 1.1.6 1.8 1.5 2.5 2.8.6 1.3.8 2.7.8 4.2 0 1.7-.4 3.2-1.1 4.5-.8 1.3-1.8 2.2-3.2 3.1-1.4.7-3.1 1.1-4.9 1.1-3.1 0-5.8-1.1-8-3.5l3-2.7c1.4 1.5 3 2.4 4.9 2.4 1.4 0 2.4-.4 3.1-1.3s1.1-2 1.1-3.5c0-3-1.3-4.4-3.7-4.4-.6 0-1 0-1.5.1-.4.1-1 .4-1.5.7H750v-13h14.6l-.6 3.7z"/><path class="st5" d="M1416.1 52.2h-97.6c-3 0-5.2-2.4-5.2-5.2V19.1c0-3 2.4-5.2 5.2-5.2h97.6c3 0 5.2 2.4 5.2 5.2V47c.1 2.9-2.3 5.2-5.2 5.2z"/><path class="st6" d="M1350.8 38.1v-5.2h-4.2v5.2h-2.2V26.4h2.2V31h4.2v-4.6h2.2v11.7h-2.2zM1362.5 36.4c.1.1.3.3.6.4l-.4 1.4c-.6 0-1-.1-1.3-.4-.3-.1-.6-.6-.7-1-.3.4-.7.8-1.1 1-.4.3-1 .3-1.5.3-.8 0-1.5-.3-2.1-.7-.6-.6-.8-1.1-.8-2 0-1 .3-1.7 1.1-2.2.7-.6 1.7-.7 3-.7h1.1v-.6c0-.6-.1-1-.4-1.3-.3-.3-.7-.3-1.3-.3-.7 0-1.4.1-2.4.4l-.6-1.4c1.1-.4 2.2-.7 3.2-.7 2.2 0 3.4 1 3.4 3.1v3.8c.1.5.1.8.2.9zm-2.2-.8v-1.8h-.8c-1.4 0-2.1.6-2.1 1.5 0 .4.1.7.3 1 .1.3.6.4 1 .4.6 0 1.1-.3 1.6-1.1zM1370 29.5c.7.4 1 1 1 1.8 0 .6-.1 1-.4 1.3-.3.3-.8.6-1.4.7.8.1 1.4.4 1.8.7.4.3.6.8.6 1.4 0 1-.4 1.7-1.1 2.1-.7.4-1.7.7-2.8.7-1.4 0-2.5-.4-3.5-1.1l1.1-1.3c.4.3.8.4 1.1.6.3.1.8.1 1.3.1 1.3 0 1.8-.4 1.8-1.3s-.7-1.3-2-1.3h-1.3l.1-1.5h1c.6 0 1-.1 1.3-.3s.4-.6.4-.8c0-.4-.1-.7-.4-.8s-.6-.3-1.1-.3c-.4 0-.8 0-1.1.1-.3.1-.7.3-1 .6l-1-1.3c.4-.3 1-.6 1.5-.8.6-.1 1.1-.3 1.8-.3.9.3 1.6.6 2.3 1zM1380 36.4c.1.1.3.3.6.4l-.4 1.4c-.6 0-1-.1-1.3-.4-.3-.1-.6-.6-.7-1-.3.4-.7.8-1.1 1-.4.3-1 .3-1.5.3-.8 0-1.5-.3-2.1-.7-.6-.6-.8-1.1-.8-2 0-1 .3-1.7 1.1-2.2.7-.6 1.7-.7 3-.7h1.1v-.6c0-.6-.1-1-.4-1.3-.3-.3-.7-.3-1.3-.3-.7 0-1.4.1-2.4.4l-.6-1.4c1.1-.4 2.2-.7 3.2-.7 2.2 0 3.4 1 3.4 3.1v3.8c0 .5.2.8.2.9zm-2.3-.8v-1.8h-.8c-1.4 0-2.1.6-2.1 1.5 0 .4.1.7.3 1 .1.3.6.4 1 .4.6 0 1.2-.3 1.6-1.1zM1390.2 36.4v4.4h-1.5l-.3-2.7h-5.3l-.3 2.7h-1.5v-4.4h.6c.3-.1.4-.3.6-.6.1-.3.3-.6.4-1.1.1-.6.3-1.4.3-2.4l.3-3.1h6v7.3h.8v-.1zm-3.1-5.7h-2l-.1 1.4c-.1 1-.1 1.7-.3 2.2-.1.6-.3 1-.4 1.3-.1.3-.4.6-.8.8h3.7v-5.7z"/><circle class="st7" cx="1276.3" cy="33" r="18.8"/><path class="st8" d="M1276.3 37.5c3.7 0 6.5-3.5 6.5-7.9s-1-7.9-6.5-7.9-6.5 3.4-6.5 7.7c0 4.6 3 8.1 6.5 8.1zM1276.3 51.9c4.8 0 9-1.7 12.4-4.6-.3-6-1.8-6.5-8.7-7.7 0 0-1.1 1.4-3.5 1.4s-3.5-1.4-3.5-1.4c-7 1.3-8.4 1.8-8.7 7.9 3.2 2.7 7.4 4.4 12 4.4z"/><path class="st5" d="M187.7 27.7c.8.6 1.1 1.5 1.1 2.7 0 1.3-.4 2.2-1.3 2.8s-2 1-3.2 1H183v4.2h-1.5V26.7h3.1c1.2.2 2.3.4 3.1 1zm-1.2 4.6c.4-.4.7-1 .7-2 0-.8-.3-1.4-.7-1.8-.4-.4-1.1-.6-2.1-.6H183v4.8h1.4c.8.2 1.5.1 2.1-.4zM197.2 34.6h-5.6c0 1 .3 1.7.7 2.1.4.4 1 .7 1.7.7.4 0 .8 0 1.1-.1.4-.1.7-.3 1.1-.6l.7 1c-1 .7-2 1.1-3.1 1.1-1.3 0-2.2-.4-3-1.3s-1-2-1-3.4c0-1 .1-1.7.4-2.4.3-.7.7-1.3 1.3-1.7.6-.4 1.3-.6 2-.6 1.1 0 2.1.4 2.7 1.1.6.8 1 1.8 1 3.2v.9zm-1.6-1.3c0-.8-.1-1.5-.6-2-.3-.4-.8-.7-1.5-.7-1.3 0-2 1-2.1 2.8l4.2-.1zM209.4 29.5l-2.2 4.2 2.5 4.8H208l-2.1-4.1h-1.1v4.1h-1.5v-4.1h-1.1l-2.1 4.1h-1.7l2.5-4.8-2.2-4.2h1.7l1.8 3.7h1.1v-3.7h1.5v3.7h1.3l1.8-3.7h1.5zM218.5 38.4H217v-4.1-2c0-.6.1-1 .1-1.3l-3.8 7.2h-1.8v-8.7h1.5V35.4c0 .7-.1 1-.1 1.3l3.7-7h1.8v8.7h.1zM230.5 38.4H229l-.4-4.2c0-.4-.1-1-.1-1.4v-1.7l-2 6.5H225l-1.8-6.3v3.1l-.3 4.2h-1.5l.8-8.9h2l1.7 6.3 2-6.3h2.1l.5 8.7zM244.3 29.5l-2.7 4.1 3 4.8h-1.8l-2.5-4.1h-1.1v4.1h-1.5v-8.9h1.5V33h1.1l2.3-3.5h1.7zM252.3 37.1c.1.1.3.3.6.4l-.4 1.1c-.4 0-.8-.1-1.1-.4-.3-.1-.4-.6-.6-1-.6.8-1.5 1.3-2.7 1.3-.8 0-1.5-.3-2.1-.7-.6-.4-.7-1.1-.7-2 0-1 .3-1.7 1-2.1.7-.6 1.7-.7 3-.7h1.4v-.7c0-.6-.1-1.1-.4-1.4-.3-.3-.7-.4-1.4-.4s-1.4.1-2.4.4l-.4-1.1c1.1-.4 2.1-.6 3.1-.6s1.8.3 2.4.7c.6.6.8 1.3.8 2.3v4.1c-.3.4-.3.7-.1.8zm-1.7-1V34h-1.1c-1.7 0-2.5.6-2.5 1.8 0 .6.1 1 .4 1.3.3.3.7.4 1.1.4.8 0 1.5-.5 2.1-1.4zM260 29.5c.4.1.8.4 1.3.7l-.7 1c-.3-.3-.6-.4-1-.6-.4-.1-.6-.1-1-.1-.7 0-1.3.3-1.7.8s-.6 1.4-.6 2.5.1 2 .6 2.5 1 .8 1.7.8c.3 0 .7 0 1-.1.3-.1.6-.3 1-.6l.7 1c-.8.7-1.7 1-2.7 1-1.3 0-2.1-.4-2.8-1.3-.7-.8-1-2-1-3.4 0-1 .1-1.8.4-2.5s.7-1.3 1.4-1.7c.6-.4 1.3-.6 2.1-.6.3.5.8.5 1.3.6zM267.8 29.5c.4.1.8.4 1.3.7l-.7 1c-.3-.3-.6-.4-1-.6-.4-.1-.6-.1-1-.1-.7 0-1.3.3-1.7.8s-.6 1.4-.6 2.5.1 2 .6 2.5 1 .8 1.7.8c.3 0 .7 0 1-.1.3-.1.6-.3 1-.6l.7 1c-.8.7-1.7 1-2.7 1-1.3 0-2.1-.4-2.8-1.3s-1-2-1-3.4c0-1 .1-1.8.4-2.5s.7-1.3 1.4-1.7c.6-.4 1.3-.6 2.1-.6.3.5.7.5 1.3.6zM278 38.4h-1.5v-4.1-2c0-.6.1-1 .1-1.3l-3.8 7.2H271v-8.7h1.5V35.4c0 .7-.1 1-.1 1.3l3.7-7h1.8v8.7h.1zM287.7 30.5c.6.8.8 2 .8 3.4s-.3 2.5-.8 3.4c-.6.8-1.4 1.3-2.5 1.3-1 0-1.8-.3-2.4-1v4.2l-1.5.1V29.5h1.3l.1 1.3c.3-.4.7-.8 1.1-1 .4-.3 1-.4 1.4-.4 1.3 0 2.1.4 2.5 1.1zm-.8 3.5c0-2.2-.7-3.4-2-3.4-.4 0-.8.1-1.3.4-.4.3-.7.6-1 1v4.4l.8.8c.3.1.7.3 1.1.3 1.7-.1 2.4-1.2 2.4-3.5zM297.3 37.1c.1.1.3.3.6.4l-.4 1.1c-.4 0-.8-.1-1.1-.4-.3-.1-.4-.6-.6-1-.6.8-1.5 1.3-2.7 1.3-.8 0-1.5-.3-2.1-.7-.6-.4-.7-1.1-.7-2 0-1 .3-1.7 1-2.1.7-.6 1.7-.7 3-.7h1.4v-.7c0-.6-.1-1.1-.4-1.4s-.7-.4-1.4-.4-1.4.1-2.4.4l-.4-1.1c1.1-.4 2.1-.6 3.1-.6s1.8.3 2.4.7c.6.6.8 1.3.8 2.3v4.1c-.4.4-.3.7-.1.8zm-1.8-1V34h-1.1c-1.7 0-2.5.6-2.5 1.8 0 .6.1 1 .4 1.3s.7.4 1.1.4c.9 0 1.6-.5 2.1-1.4z"/><path class="st9" d="M1171.8 19.7l-2.7 4.5 3 5.1h-1.5l-2.5-4.5h-1.3v4.5h-1.3v-9.6h1.3v4.1h1.3l2.4-4.1h1.3zM1178.6 28.3c.1.1.3.3.4.3l-.3.8c-.4 0-.7-.1-1-.3-.3-.1-.4-.4-.6-.8-.6.7-1.3 1.1-2.2 1.1-.7 0-1.3-.1-1.7-.6s-.6-1-.6-1.5c0-.8.3-1.4.8-1.8.6-.4 1.4-.6 2.4-.6h1.1v-.6c0-.6-.1-.8-.4-1.1s-.7-.3-1.1-.3c-.6 0-1.3.1-2 .4l-.3-1c1-.3 1.8-.6 2.5-.6.8 0 1.5.3 2 .7.4.4.7 1 .7 1.8v3.4c.1.4.3.5.3.7zm-1.4-.9v-1.7h-1c-1.4 0-2.1.6-2.1 1.5 0 .4.1.7.3 1 .3.3.6.3 1 .3.8 0 1.4-.4 1.8-1.1zM1185 21.9c.4.1.7.3 1 .6l-.6.8c-.3-.1-.6-.3-.7-.4-.3-.1-.6-.1-.8-.1-.6 0-1.1.3-1.4.7-.3.4-.6 1.1-.6 2.1s.1 1.7.4 2.1c.3.4.8.7 1.4.7.3 0 .6 0 .8-.1.3-.1.6-.3.8-.4l.6.8c-.7.6-1.4.8-2.2.8-1 0-1.8-.3-2.4-1-.6-.7-.8-1.5-.8-2.8 0-.8.1-1.4.4-2.1.3-.6.6-1 1.1-1.4.4-.3 1-.4 1.7-.4.5 0 .9.1 1.3.1zM1191.4 21.9c.4.1.7.3 1 .6l-.6.8c-.3-.1-.6-.3-.7-.4-.3-.1-.6-.1-.8-.1-.6 0-1.1.3-1.4.7-.3.4-.6 1.1-.6 2.1s.1 1.7.4 2.1c.3.4.8.7 1.4.7.3 0 .6 0 .8-.1.3-.1.6-.3.8-.4l.6.8c-.7.6-1.4.8-2.2.8-1 0-1.8-.3-2.4-1-.6-.7-.8-1.5-.8-2.8 0-.8.1-1.4.4-2.1.3-.6.6-1 1.1-1.4.4-.3 1-.4 1.7-.4.6 0 1 .1 1.3.1zM1200 29.4h-1.3V26v-1.5c0-.6.1-.8.1-1l-3.1 5.9h-1.5v-7.3h1.3v4.7c0 .6 0 .8-.1 1l3.1-5.9h1.5v7.5zM1208.1 22.8c.4.7.7 1.7.7 2.8 0 1.1-.3 2.1-.7 2.8-.6.7-1.3 1.1-2.1 1.1s-1.4-.3-2-.8v3.5l-1.3.1V21.9h1.1l.1 1c.3-.4.6-.7 1-.8.4-.1.8-.3 1.3-.3.8 0 1.5.3 1.9 1zm-.7 2.8c0-1.8-.6-2.8-1.7-2.8-.4 0-.7.1-1 .3-.3.3-.6.4-.8.8v3.7c.1.3.4.6.7.7.3.1.6.3 1 .3 1.1-.2 1.8-1 1.8-3zM1221.5 29.4h-1.3v-4.6c0-1.1 0-2.2.1-3.5l-3.9 8.2h-1.7v-9.7h1.3v4.6c0 1.3 0 2.5-.1 3.5l3.9-8.2h1.7v9.7zM1229.9 27.1c0 .8-.3 1.4-.8 1.7-.6.4-1.3.6-2.2.6h-2.7v-7.3c.8-.1 1.7-.3 2.4-.3 1 0 1.7.1 2.1.6.6.3.8.8.8 1.5 0 .4-.1.7-.4 1-.3.3-.6.4-1.1.6 1.3 0 1.9.5 1.9 1.6zm-4.4-4.2V25h1.4c.4 0 .8-.1 1-.3.1-.1.4-.4.4-.8s-.1-.7-.4-.8c-.3-.1-.7-.3-1.3-.3-.4 0-.8 0-1.1.1zm2.7 5.2c.3-.1.4-.6.4-1s-.1-.7-.4-.8-.7-.3-1.3-.3h-1.4v2.4h1.4c.5 0 .9-.1 1.3-.3zM1237.1 28.3c.1.1.3.3.4.3l-.3.8c-.4 0-.7-.1-1-.3-.3-.1-.4-.4-.6-.8-.6.7-1.3 1.1-2.2 1.1-.7 0-1.3-.1-1.7-.6-.4-.4-.6-1-.6-1.5 0-.8.3-1.4.8-1.8.6-.4 1.4-.6 2.4-.6h1.1v-.6c0-.6-.1-.8-.4-1.1s-.7-.3-1.1-.3c-.6 0-1.3.1-2 .4l-.3-1c1-.3 1.8-.6 2.5-.6.8 0 1.5.3 2 .7.4.4.7 1 .7 1.8v3.4c.1.4.1.5.3.7zm-1.4-.9v-1.7h-1c-1.4 0-2.1.6-2.1 1.5 0 .4.1.7.3 1 .3.3.6.3 1 .3.8 0 1.3-.4 1.8-1.1zM1244 29.4v-3.2h-3.1v3.2h-1.3v-7.3h1.3v3.1h3.1v-3.1h1.3v7.3h-1.3zM1095.9 36.6c.4.1.8.4 1.3.7l-.7.8c-.6-.4-1.3-.7-1.8-.7-.8 0-1.4.3-2 1-.4.6-.7 1.5-.7 3 0 1.3.3 2.2.7 3 .4.7 1.1 1 2 1 .4 0 .7 0 1.1-.1.3-.1.7-.3 1-.6l.7.8c-.3.3-.7.6-1.1.7-.4.1-1 .3-1.5.3-.8 0-1.5-.1-2.1-.6-.6-.4-1.1-1-1.4-1.7s-.6-1.7-.6-2.7c0-1 .1-2 .6-2.7.4-.7.8-1.3 1.4-1.7.6-.4 1.3-.6 2-.6.2-.2.7-.1 1.1.1zM1106 46.1h-1.3l-.3-3.5v-1.3-1.4l-1.7 5.3h-1.3l-1.5-5.3v2.7l-.3 3.5h-1.4l.7-7.3h1.7l1.4 5.3 1.5-5.3h1.7l.8 7.3zM1113.8 42.9h-4.6c0 .8.3 1.4.6 1.8.4.4.8.6 1.4.6.4 0 .7 0 1-.1.3-.1.6-.3 1-.4l.6.7c-.8.6-1.7 1-2.5 1-1 0-1.8-.3-2.4-1s-.8-1.5-.8-2.8c0-.7.1-1.4.4-2s.6-1.1 1.1-1.4c.4-.3 1-.6 1.7-.6 1 0 1.7.3 2.2 1s.8 1.5.8 2.7c-.5.1-.5.4-.5.5zm-1.3-1c0-.7-.1-1.3-.4-1.7-.3-.4-.7-.6-1.3-.6-1.1 0-1.7.8-1.7 2.4l3.4-.1zM1120.2 46.1v-3.2h-3.1v3.2h-1.3v-7.3h1.3v3.1h3.1v-3.1h1.3v7.3h-1.3zM1129.2 45.1c.1.1.3.3.4.3l-.3.8c-.4 0-.7-.1-1-.3-.3-.1-.4-.4-.6-.8-.6.7-1.3 1.1-2.2 1.1-.7 0-1.3-.1-1.7-.6-.4-.4-.6-1-.6-1.5 0-.8.3-1.4.8-1.8.6-.4 1.4-.6 2.4-.6h1.1v-.6c0-.6-.1-.8-.4-1.1s-.7-.3-1.1-.3c-.6 0-1.3.1-2 .4l-.3-1c1-.3 1.8-.6 2.5-.6.8 0 1.5.3 2 .7.4.4.7 1 .7 1.8v3.4c.2.3.3.6.3.7zm-1.4-.9v-1.7h-1c-1.4 0-2.1.6-2.1 1.5 0 .4.1.7.3 1 .3.3.6.3 1 .3.8.1 1.4-.3 1.8-1.1zM1132.7 39.5c.1.1.3.4.3.7s-.1.6-.3.7-.4.3-.7.3-.6-.1-.7-.3-.3-.4-.3-.7.1-.6.3-.7.4-.3.7-.3.6.2.7.3zm0 5.2c.1.1.3.4.3.7 0 .3-.1.6-.3.7-.1.1-.4.3-.7.3s-.6-.1-.7-.3c-.1-.1-.3-.4-.3-.7 0-.3.1-.6.3-.7s.4-.3.7-.3c.3 0 .6 0 .7.3zM1142.2 37c.4.3.7.6 1 1s.3.8.3 1.3c0 .6-.1 1.1-.4 1.7-.3.6-.7 1.1-1.1 1.7-.6.6-1.4 1.4-2.4 2.5h4.2l-.1 1.1h-5.5v-1c1.3-1.3 2.1-2.2 2.7-2.8s.8-1.1 1.1-1.5c.3-.4.3-1 .3-1.4s-.1-.8-.4-1.1-.7-.4-1.1-.4-.7.1-1 .3-.6.4-1 .8l-.8-.7c.4-.4.8-.8 1.3-1.1s1-.3 1.5-.3c.5-.4.9-.4 1.4-.1zM1155.2 46.1h-1.3v-3.4-1.5c0-.6.1-.8.1-1l-3.1 5.9h-1.5v-7.3h1.3v4.9c0 .6 0 .8-.1 1l3.1-5.9h1.5v7.3zM1165.2 39.1c.4.3.8.7 1.1 1.4.3.6.4 1.3.4 2s-.1 1.4-.4 2c-.3.6-.6 1-1.1 1.4-.4.3-1 .6-1.7.6-.8 0-1.5-.3-2.1-1-.6-.6-.8-1.4-1-2.5h-1.3v3.2h-1.3v-7.3h1.3V42h1.3c.1-1 .4-1.7 1-2.4s1.3-.8 2.1-.8c.7-.1 1.3 0 1.7.3zm-.3 5.5c.3-.4.4-1.1.4-2.1 0-.8-.1-1.5-.4-2.1-.3-.4-.7-.7-1.3-.7-1.1 0-1.8 1-1.8 2.8 0 .8.1 1.5.4 2.1.3.4.7.7 1.3.7.7 0 1.2-.3 1.4-.7zM1174.1 38.8v7.3h-1.3v-6.3h-2.2l-.1 2.5c-.1 1-.1 1.7-.3 2.3-.1.6-.3.8-.6 1.1s-.7.4-1.3.7l-.3-1c.3-.1.6-.3.7-.4.1-.1.3-.4.3-.8s.1-1 .1-2l.3-3.4h4.7zM1181.8 38.8v7.3h-1.3v-2.8h-1.5l-1.5 2.8h-1.4l1.8-3.1c-.8-.4-1.3-1.1-1.3-2 0-.7.3-1.3.8-1.7.6-.4 1.3-.6 2.2-.6l2.2.1zm-1.3 3.5v-2.5h-1.1c-.6 0-1 .1-1.3.3s-.4.6-.4 1 .1.8.4 1 .7.3 1.3.3l1.1-.1zM1191.5 37c.4.3.7.6 1 1s.3.8.3 1.3c0 .6-.1 1.1-.4 1.7s-.7 1.1-1.1 1.7c-.6.6-1.4 1.4-2.4 2.5h4.2l-.1 1.1h-5.5v-1c1.3-1.3 2.1-2.2 2.7-2.8.6-.6.8-1.1 1.1-1.5.3-.4.3-1 .3-1.4s-.1-.8-.4-1.1-.7-.4-1.1-.4-.7.1-1 .3-.6.4-1 .8l-.8-.7c.4-.4.8-.8 1.3-1.1s1-.3 1.5-.3c.6-.4 1-.4 1.4-.1zM1200.1 37.8c.6.8.8 2 .8 3.7 0 1.5-.3 2.8-.8 3.7-.6.8-1.3 1.3-2.4 1.3-1 0-1.8-.4-2.4-1.3-.6-.8-.8-2-.8-3.7 0-1.5.3-2.8.8-3.7s1.3-1.3 2.4-1.3c1 .2 1.8.6 2.4 1.3zm-3.8.7c-.3.6-.4 1.5-.4 3s.1 2.2.4 3c.3.6.7.8 1.4.8.6 0 1-.3 1.4-.8.3-.6.4-1.5.4-3 0-1.3-.1-2.2-.4-3-.3-.6-.7-.8-1.4-.8-.6 0-1 .3-1.4.8zM1205.7 36.8v9.4h-1.3v-8l-2.2 1.3-.6-.8 3-1.8h1.1zM1214.4 43.6c0 .6-.1 1-.4 1.4s-.7.7-1.1 1c-.6.3-1 .3-1.7.3s-1.1-.1-1.7-.3c-.6-.1-.8-.6-1.1-1s-.4-.8-.4-1.4.1-1.1.4-1.4c.3-.4.7-.7 1.4-1-.6-.3-.8-.6-1.1-1-.3-.4-.4-.8-.4-1.3 0-.6.1-1 .4-1.3.3-.4.6-.7 1-.8.4-.1.8-.3 1.4-.3.4 0 1 .1 1.4.3.4.1.8.4 1.1.8.3.4.4.8.4 1.3 0 .4-.1.8-.4 1.3-.3.3-.7.7-1.3.8 1.4.6 2.1 1.5 2.1 2.6zm-1.8 1.3c.3-.3.6-.7.6-1.1 0-.3 0-.6-.1-.8-.1-.3-.3-.4-.6-.6s-.7-.3-1.3-.6l-.3-.1c-.4.3-.8.6-1 .8-.3.3-.3.7-.3 1.3s.1.8.6 1.3c.3.3.8.4 1.4.4.2-.2.6-.4 1-.6zm-2.5-6.9c-.3.3-.4.6-.4 1.1 0 .4.1.8.4 1 .3.3.7.4 1.3.7l.3.1c.4-.3.7-.6.8-.7.1-.3.3-.6.3-1s-.1-.8-.4-1c-.3-.3-.7-.4-1.1-.4-.7-.1-.9-.1-1.2.2zM1223.3 36.8v9.4h-1.3v-8l-2.2 1.3-.6-.8 3-1.8h1.1zM1229.2 36.8v9.4h-1.3v-8l-2.2 1.3-.6-.8 3-1.8h1.1zM1233 39.5c.1.1.3.4.3.7s-.1.6-.3.7-.4.3-.7.3-.6-.1-.7-.3-.3-.4-.3-.7.1-.6.3-.7c.1-.1.4-.3.7-.3s.6.2.7.3zm0 5.2c.1.1.3.4.3.7 0 .3-.1.6-.3.7-.1.1-.4.3-.7.3s-.6-.1-.7-.3c-.1-.1-.3-.4-.3-.7 0-.3.1-.6.3-.7.1-.1.4-.3.7-.3.3 0 .6 0 .7.3zM1238.1 36.8v9.4h-1.3v-8l-2.2 1.3-.6-.8 3-1.8h1.1zM1245.4 37.8h-3.7v2.8c.4-.3 1-.4 1.5-.4.8 0 1.4.3 2 .8.4.6.7 1.3.7 2.1 0 .6-.1 1.1-.4 1.7-.3.4-.7.8-1.1 1.1-.4.3-1.1.4-1.7.4s-1.1-.1-1.5-.3c-.4-.1-.8-.6-1.3-.8l.7-.7c.3.3.6.6 1 .7.3.1.7.3 1.1.3.6 0 1.1-.1 1.4-.6.3-.4.6-.8.6-1.5s-.1-1.1-.4-1.5c-.3-.3-.7-.4-1.3-.4-.3 0-.4 0-.7.1-.1 0-.4.1-.7.3h-1v-4.8h5.1l-.3.7z"/><path class="st2" d="M964.1 141.6H225.4v-52c0-6.6-5.3-11.8-11.8-11.8H30.5c-6.6 0-11.8 5.3-11.8 11.8v955.3c0 9 7.3 16.2 16.2 16.2h929.2c9 0 16.2-7.2 16.2-16V157.8c0-9-7.3-16.2-16.2-16.2z"/><g class="st10"><path class="st6" d="M70.1 117.4v-6.1h-4.8v6.1h-2.6v-13.6h2.6v5.5h4.8v-5.5h2.6v13.6h-2.6zM84.3 113h-6.5c.1 1 .3 1.7.8 2.2.4.4 1 .6 1.8.6.5 0 .9-.1 1.3-.2.4-.2.8-.4 1.3-.7l1 1.4c-1.2.9-2.4 1.4-3.9 1.4-1.6 0-2.8-.5-3.7-1.5-.9-1-1.3-2.3-1.3-4 0-1.1.2-2 .6-2.9.4-.8.9-1.5 1.6-2 .7-.5 1.5-.7 2.5-.7 1.5 0 2.6.5 3.4 1.4.8.9 1.2 2.2 1.2 3.9 0 .2-.1.6-.1 1.1zm-2.4-1.7c0-1.8-.7-2.7-2-2.7-.6 0-1.1.2-1.4.7-.3.5-.6 1.2-.6 2.2H82v-.2zM99.4 108.2c.9 1 1.3 2.3 1.3 4 0 1.1-.2 2.1-.6 2.9-.4.8-1 1.5-1.7 1.9-.7.5-1.6.7-2.6.7-1.5 0-2.7-.5-3.6-1.5-.9-1-1.3-2.3-1.3-4 0-1.1.2-2 .6-2.9.4-.8 1-1.5 1.7-1.9.7-.5 1.6-.7 2.6-.7 1.5 0 2.7.5 3.6 1.5zm-5.9 4c0 1.2.2 2.1.6 2.7.4.6.9.9 1.7.9.7 0 1.3-.3 1.7-.9.4-.6.6-1.5.6-2.7 0-1.2-.2-2.1-.6-2.7-.4-.6-.9-.9-1.7-.9-1.5 0-2.3 1.2-2.3 3.6zM109 117.4V109h-3.5v8.5H103V107h8.5v10.4H109zM122.8 107v10.4h-2.5v-8.5h-2.5l-.3 2.8c-.1 1.5-.3 2.6-.5 3.3-.2.7-.5 1.3-.9 1.7-.4.4-1.1.7-2 .9l-.6-1.9c.4-.2.7-.4.9-.6.2-.2.3-.6.4-1.1.1-.5.2-1.3.3-2.5l.4-4.5h7.3zM133.7 115.6c.1.2.3.3.6.4l-.5 1.7c-.6-.1-1.1-.2-1.4-.4-.4-.2-.7-.6-.9-1.1-.4.5-.8.9-1.3 1.2-.5.3-1.1.4-1.8.4-1 0-1.9-.3-2.5-.9-.6-.6-.9-1.4-.9-2.3 0-1.1.4-2 1.2-2.6.8-.6 2-.9 3.5-.9h1.3v-.6c0-.7-.2-1.1-.5-1.4s-.8-.4-1.5-.4c-.8 0-1.7.2-2.8.6l-.6-1.7c1.3-.5 2.6-.7 3.8-.7 2.7 0 4 1.2 4 3.6v4.4c.2.2.2.5.3.7zm-2.6-1v-2.1h-1c-1.6 0-2.4.6-2.4 1.8 0 .5.1.9.4 1.2.2.3.6.4 1.1.4.7 0 1.4-.4 1.9-1.3zM144.4 107v10.4h-2.5v-4.1c-.4.3-.8.6-1.4.8-.5.2-1.1.3-1.6.3-1 0-1.7-.3-2.2-.8-.5-.6-.7-1.3-.7-2.3V107h2.5v3.9c0 .6.1 1 .3 1.2.2.2.6.4 1 .4s.8-.1 1.2-.2c.4-.2.7-.4 1-.6V107h2.4zM155.9 113h-6.5c.1 1 .3 1.7.8 2.2.4.4 1 .6 1.8.6.5 0 .9-.1 1.3-.2.4-.2.8-.4 1.3-.7l1 1.4c-1.2.9-2.4 1.4-3.9 1.4-1.6 0-2.8-.5-3.7-1.5-.9-1-1.3-2.3-1.3-4 0-1.1.2-2 .6-2.9.4-.8.9-1.5 1.6-2 .7-.5 1.5-.7 2.5-.7 1.5 0 2.6.5 3.4 1.4.8.9 1.2 2.2 1.2 3.9 0 .2 0 .6-.1 1.1zm-2.4-1.7c0-1.8-.7-2.7-2-2.7-.6 0-1.1.2-1.4.7-.3.5-.6 1.2-.6 2.2h4.1v-.2zM164.3 117.4V113h-3.5v4.4h-2.5V107h2.5v4.2h3.5V107h2.5v10.4h-2.5zM176.8 111.2c.7.6 1.1 1.5 1.1 2.6 0 1.2-.4 2.1-1.2 2.7-.8.6-1.8.9-3.1.9h-3.8V107h2.5v3.3h.8c1.7 0 2.9.3 3.7.9zm-1.5 2.6c0-.6-.2-1.1-.5-1.4-.3-.3-.9-.4-1.6-.4h-.8v3.7h1c1.2 0 1.9-.6 1.9-1.9zm3.8-6.8h2.5v10.4h-2.5V107z"/></g><path class="st11" d="M446.2 141.6H239.5v-52c0-6.5 5.2-11.8 11.8-11.8h183.1c6.5 0 11.8 5.2 11.8 11.8v52z"/><g class="st10"><path class="st2" d="M305.2 104.4c.9.6 1.6 1.4 2.1 2.4.5 1.1.7 2.3.7 3.8s-.2 2.8-.7 3.8c-.5 1.1-1.2 1.9-2.1 2.4-.9.6-1.9.8-3.1.8-1.2 0-2.3-.3-3.2-.8-.9-.6-1.6-1.4-2.1-2.4-.5-1.1-.7-2.3-.7-3.8s.2-2.7.7-3.8c.5-1.1 1.2-1.9 2.1-2.5.9-.6 2-.8 3.2-.8 1.2 0 2.2.3 3.1.9zm-5.5 2.4c-.6.8-.8 2.1-.8 3.9 0 3.4 1.1 5.1 3.2 5.1 1 0 1.8-.4 2.4-1.2.5-.8.8-2.1.8-3.9 0-1.8-.3-3.1-.8-3.9-.5-.8-1.3-1.2-2.4-1.2-1.1-.1-1.9.3-2.4 1.2zM316.4 117.4V109h-3.5v8.5h-2.5V107h8.5v10.4h-2.5zM330.2 107v10.4h-2.5v-8.5h-2.5l-.3 2.8c-.1 1.5-.3 2.6-.5 3.3-.2.7-.5 1.3-.9 1.7-.4.4-1.1.7-2 .9l-.6-1.9c.4-.2.7-.4.9-.6.2-.2.3-.6.4-1.1.1-.5.2-1.3.3-2.5l.4-4.5h7.3zM341.1 115.6c.1.2.3.3.6.4l-.5 1.7c-.6-.1-1.1-.2-1.4-.4-.4-.2-.7-.6-.9-1.1-.4.5-.8.9-1.3 1.2-.5.3-1.1.4-1.8.4-1 0-1.9-.3-2.5-.9-.6-.6-.9-1.4-.9-2.3 0-1.1.4-2 1.2-2.6.8-.6 2-.9 3.5-.9h1.3v-.6c0-.7-.2-1.1-.5-1.4-.3-.3-.8-.4-1.5-.4-.8 0-1.7.2-2.8.6l-.6-1.7c1.3-.5 2.6-.7 3.8-.7 2.7 0 4 1.2 4 3.6v4.4c.1.2.2.5.3.7zm-2.7-1v-2.1h-1c-1.6 0-2.4.6-2.4 1.8 0 .5.1.9.4 1.2.2.3.6.4 1.1.4.8 0 1.4-.4 1.9-1.3zM351.8 107v10.4h-2.5v-4.1c-.4.3-.8.6-1.4.8-.5.2-1.1.3-1.6.3-1 0-1.7-.3-2.2-.8-.5-.6-.7-1.3-.7-2.3V107h2.5v3.9c0 .6.1 1 .3 1.2.2.2.6.4 1 .4s.8-.1 1.2-.2c.4-.2.7-.4 1-.6V107h2.4zM363.3 113h-6.5c.1 1 .3 1.7.8 2.2.4.4 1 .6 1.8.6.5 0 .9-.1 1.3-.2.4-.2.8-.4 1.3-.7l1 1.4c-1.2.9-2.4 1.4-3.9 1.4-1.6 0-2.8-.5-3.7-1.5-.9-1-1.3-2.3-1.3-4 0-1.1.2-2 .6-2.9.4-.8.9-1.5 1.6-2 .7-.5 1.5-.7 2.5-.7 1.5 0 2.6.5 3.4 1.4.8.9 1.2 2.2 1.2 3.9-.1.2-.1.6-.1 1.1zm-2.5-1.7c0-1.8-.7-2.7-2-2.7-.6 0-1.1.2-1.4.7-.3.5-.6 1.2-.6 2.2h4.1v-.2zM371.6 117.4V113h-3.5v4.4h-2.5V107h2.5v4.2h3.5V107h2.5v10.4h-2.5zM384.1 111.2c.7.6 1.1 1.5 1.1 2.6 0 1.2-.4 2.1-1.2 2.7-.8.6-1.8.9-3.1.9h-3.8V107h2.5v3.3h.8c1.8 0 3 .3 3.7.9zm-1.5 2.6c0-.6-.2-1.1-.5-1.4-.3-.3-.9-.4-1.6-.4h-.8v3.7h1c1.3 0 1.9-.6 1.9-1.9zm3.8-6.8h2.5v10.4h-2.5V107z"/></g><path class="st11" d="M667 141.6H460.3v-52c0-6.5 5.2-11.8 11.8-11.8h183.1c6.5 0 11.8 5.2 11.8 11.8v52z"/><g class="st10"><path class="st2" d="M558 111.2c.6.5.9 1.3.9 2.3 0 1.4-.5 2.4-1.5 3-1 .6-2.4.9-4.2.9h-4.1v-13.6h3.6c3.8 0 5.6 1.2 5.6 3.5 0 .8-.2 1.5-.7 2-.5.5-1.1.8-1.8 1 .9.1 1.6.4 2.2.9zm-6.3-5.5v3.7h1.6c.7 0 1.3-.2 1.7-.5.4-.3.6-.8.6-1.4 0-.7-.2-1.1-.7-1.4-.4-.3-1.1-.4-2.1-.4h-1.1zm3.7 9.4c.5-.3.8-.8.8-1.6s-.2-1.3-.7-1.7c-.5-.3-1.1-.5-2-.5h-1.8v4.3h1.5c.9-.1 1.7-.3 2.2-.5zM567.1 107c.5.2 1.1.5 1.5.9l-1.1 1.5c-.4-.3-.7-.5-1-.6-.3-.1-.7-.2-1.1-.2-1.6 0-2.3 1.2-2.3 3.6 0 1.2.2 2.1.6 2.6.4.5 1 .8 1.7.8.4 0 .7-.1 1-.2.3-.1.7-.3 1.1-.6l1.1 1.6c-1 .8-2.1 1.2-3.4 1.2-1 0-1.9-.2-2.6-.7-.7-.4-1.3-1.1-1.7-1.9-.4-.8-.6-1.8-.6-2.9 0-1.1.2-2.1.6-2.9.4-.8 1-1.5 1.7-2s1.6-.7 2.6-.7c.7.2 1.3.3 1.9.5zM578.5 113H572c.1 1 .3 1.7.8 2.2.4.4 1 .6 1.8.6.5 0 .9-.1 1.3-.2.4-.2.8-.4 1.3-.7l1 1.4c-1.2.9-2.4 1.4-3.9 1.4-1.6 0-2.8-.5-3.7-1.5-.9-1-1.3-2.3-1.3-4 0-1.1.2-2 .6-2.9.4-.8.9-1.5 1.6-2 .7-.5 1.5-.7 2.5-.7 1.5 0 2.6.5 3.4 1.4.8.9 1.2 2.2 1.2 3.9 0 .2 0 .6-.1 1.1zm-2.4-1.7c0-1.8-.7-2.7-2-2.7-.6 0-1.1.2-1.4.7-.3.5-.6 1.2-.6 2.2h4.1v-.2z"/></g><g><path class="st12" d="M1019 944.7l-.4 3.1h-5.3v17.3h-3.9v-17.3h-5.5v-3.1h15.1zM1032.5 958.5h-9.8c.1 1.5.6 2.5 1.1 3.2.7.7 1.5 1 2.7 1 .7 0 1.4-.1 2-.3.6-.3 1.3-.6 2-1l1.5 2.1c-1.7 1.4-3.7 2.1-5.8 2.1-2.4 0-4.2-.7-5.5-2.2-1.3-1.4-2-3.4-2-5.9 0-1.5.3-3.1.8-4.4.6-1.3 1.4-2.2 2.4-3 1-.7 2.2-1.1 3.7-1.1 2.2 0 3.9.7 5.1 2.1 1.3 1.4 1.8 3.4 1.8 5.8.1.3.1.8 0 1.6zm-3.7-2.7c0-2.7-1-4.1-3.1-4.1-1 0-1.7.3-2.1 1-.6.7-.8 1.8-1 3.2h6.2v-.1zM1048.9 949.5l-4.4 7.2 4.9 8.4h-4.2l-3.8-6.9h-1.7v6.9h-3.8v-15.6h3.8v6.2h1.8l3.7-6.2h3.7zM1059.3 965.3c-.6 2-1.5 3.4-2.8 4.5s-3.1 1.7-5.2 1.8l-.4-2.8c1-.1 1.8-.4 2.5-.7.6-.3 1.1-.7 1.5-1.1.4-.4.7-1.1 1-1.8h-1.3l-4.9-15.6h4.1l3.4 13.1 3.5-13.1h3.9l-5.3 15.7zM1085.5 962.3h2.4v7.6h-2.8l-.6-4.6h-17.9v-15.6h3.7v12.8h4.1v-12.8h3.4v12.8h4.1v-12.8h3.7v12.6zM1102.1 962.3c.1.3.4.6.8.7l-.8 2.5c-.8-.1-1.5-.3-2.1-.7-.6-.4-1-.8-1.3-1.7-.6.8-1.1 1.4-2 1.7-.8.4-1.7.6-2.7.6-1.5 0-2.8-.4-3.7-1.3-.8-.8-1.4-2.1-1.4-3.5 0-1.7.6-3 1.8-3.9 1.3-.8 3-1.4 5.2-1.4h2v-.8c0-1-.3-1.7-.7-2.1-.4-.4-1.3-.6-2.2-.6-1.1 0-2.5.3-4.1.8l-.8-2.5c2-.7 3.8-1.1 5.6-1.1 3.9 0 6 1.8 6 5.3v6.6c.1.7.2 1.1.4 1.4zm-4-1.4v-3.1h-1.5c-2.4 0-3.7.8-3.7 2.7 0 .7.1 1.3.6 1.7.4.4 1 .6 1.7.6 1.1.1 2.2-.6 2.9-1.9zM1118.2 949.5v15.6h-3.8v-5.8h-2.7l-3.1 5.8h-4.1l3.7-6.6c-.8-.4-1.4-1-2-1.7-.4-.7-.7-1.5-.7-2.5 0-1.5.6-2.8 1.8-3.7 1.1-.8 2.8-1.3 5.1-1.3h5.8v.2zm-3.7 7.5v-5h-1.8c-2 0-3 .8-3 2.4 0 .8.3 1.4.7 1.8.4.4 1.1.6 2.1.6h2v.2zM1139.2 949.5c.8.3 1.5.7 2.2 1.4l-1.7 2.2c-.6-.4-1-.7-1.5-.8-.6-.1-1-.3-1.7-.3-2.4 0-3.5 1.8-3.5 5.3 0 1.8.3 3.1 1 3.9.6.8 1.4 1.3 2.5 1.3.6 0 1.1-.1 1.5-.3.4-.1 1-.4 1.7-.8l1.7 2.4c-1.4 1.3-3.1 1.8-5.1 1.8-1.5 0-2.8-.3-3.9-1s-2-1.5-2.5-2.8-.8-2.7-.8-4.4c0-1.7.3-3.1.8-4.4.6-1.3 1.4-2.2 2.5-3s2.4-1 3.9-1c1.2.1 2.1.2 2.9.5zM1160.6 965.1h-3.7l-.6-6.5c-.1-1-.1-2-.1-3.1v-2.7l-3 10.5h-3.2l-2.8-10.5c0 1.1.1 2.1.1 3.1v2.7l-.4 6.5h-3.7l1.4-15.6h4.6l2.5 10.5 2.8-10.5h4.6l1.5 15.6zM1176.8 958.5h-9.8c.1 1.5.6 2.5 1.1 3.2.7.7 1.5 1 2.7 1 .7 0 1.4-.1 2-.3.6-.3 1.3-.6 2-1l1.5 2.1c-1.7 1.4-3.7 2.1-5.8 2.1-2.4 0-4.2-.7-5.5-2.2-1.3-1.4-2-3.4-2-5.9 0-1.5.3-3.1.8-4.4.6-1.3 1.4-2.2 2.4-3s2.2-1.1 3.7-1.1c2.2 0 3.9.7 5.1 2.1 1.3 1.4 1.8 3.4 1.8 5.8.1.3.1.8 0 1.6zm-3.7-2.7c0-2.7-1-4.1-3.1-4.1-1 0-1.7.3-2.1 1-.6.7-.8 1.8-1 3.2h6.2v-.1zM1189.4 965.1v-6.5h-5.3v6.5h-3.8v-15.6h3.8v6.2h5.3v-6.2h3.8v15.6h-3.8zM1209.5 962.3c.1.3.4.6.8.7l-.8 2.5c-.8-.1-1.5-.3-2.1-.7-.6-.4-1-.8-1.3-1.7-.6.8-1.1 1.4-2 1.7-.8.4-1.7.6-2.7.6-1.5 0-2.8-.4-3.7-1.3-.8-.8-1.4-2.1-1.4-3.5 0-1.7.6-3 1.8-3.9 1.3-.8 3-1.4 5.2-1.4h2v-.8c0-1-.3-1.7-.7-2.1-.4-.4-1.3-.6-2.2-.6-1.1 0-2.5.3-4.1.8l-.8-2.5c2-.7 3.8-1.1 5.6-1.1 3.9 0 6 1.8 6 5.3v6.6c.1.7.3 1.1.4 1.4zm-4.1-1.4v-3.1h-1.5c-2.4 0-3.7.8-3.7 2.7 0 .7.1 1.3.6 1.7.4.4 1 .6 1.7.6 1.3.1 2.2-.6 2.9-1.9z"/></g><path class="st5" d="M1405.4 979.9h-194.2v73.7h194.2c6.9 0 12.7-5.6 12.7-12.7v-48.5c-.2-6.9-5.8-12.5-12.7-12.5z"/><path class="st2" d="M1017 979.9c-6.9 0-12.7 5.6-12.7 12.7v48.5c0 6.9 5.6 12.7 12.7 12.7h194.2V980H1017v-.1z"/><g><path class="st13" d="M1061.9 1005.5c1.4.8 2.4 2.1 3.2 3.8.8 1.7 1.1 3.7 1.1 5.9s-.4 4.2-1.1 5.9-1.8 3-3.2 3.8c-1.4.8-3 1.3-4.9 1.3-1.8 0-3.5-.4-4.9-1.3s-2.4-2.1-3.2-3.8c-.7-1.7-1.1-3.7-1.1-5.9s.4-4.2 1.1-5.9c.7-1.7 1.8-3 3.2-3.8 1.4-.8 3-1.3 4.9-1.3 1.9 0 3.5.4 4.9 1.3zm-8.6 3.8c-.8 1.3-1.3 3.2-1.3 6 0 5.2 1.7 7.9 4.9 7.9 1.7 0 2.8-.6 3.7-1.8.8-1.3 1.3-3.2 1.3-6 0-2.7-.4-4.8-1.3-6-.8-1.3-2.1-1.8-3.7-1.8-1.5-.3-2.8.4-3.6 1.7zM1081.7 1009.7l-.4 3h-4.6v13.1h-3.9v-13.1h-4.9v-3h13.8zM1097.3 1009.7l-4.5 7.5 5.1 8.6h-4.2l-3.9-7.2h-1.7v7.2h-3.9v-16h3.9v6.3h1.8l3.8-6.3h3.6zM1112.9 1011.4c1 1.5 1.4 3.5 1.4 6.2 0 1.7-.3 3.1-.7 4.4-.6 1.3-1.3 2.2-2.2 3-1 .7-2.1 1.1-3.4 1.1-1.7 0-3.1-.6-4.1-1.8v7.5l-3.9.4v-22.4h3.4l.3 2c.6-.8 1.4-1.4 2.1-1.8.8-.4 1.7-.6 2.5-.6 2.2-.3 3.8.6 4.6 2zm-2.5 6.3c0-2-.3-3.4-.7-4.2-.6-.8-1.3-1.3-2.2-1.3-.7 0-1.3.1-1.8.6-.6.4-1 1-1.4 1.5v7.2c.7 1.1 1.7 1.7 3 1.7 1.9 0 3.1-1.8 3.1-5.5zM1128.9 1016.2c1.1 1 1.7 2.2 1.7 4.1 0 1.8-.6 3.2-1.8 4.1-1.3 1-2.8 1.4-4.8 1.4h-5.8v-16h3.9v5.1h1.3c2.6-.2 4.4.3 5.5 1.3zm-2.4 3.9c0-1-.3-1.7-.7-2.1-.4-.4-1.3-.7-2.5-.7h-1.1v5.6h1.5c1.9.1 2.8-.8 2.8-2.8zm6-10.4h3.9v16h-3.9v-16zM1152.8 1009.7l-.4 3h-4.6v13.1h-3.9v-13.1h-4.9v-3h13.8zM1166.1 1016.2c1.1 1 1.7 2.2 1.7 4.1 0 1.8-.6 3.2-1.8 4.1-1.3 1-2.8 1.4-4.8 1.4h-6v-16h3.9v5.1h1.5c2.5-.2 4.3.3 5.5 1.3zm-2.4 3.9c0-1-.3-1.7-.7-2.1-.4-.4-1.3-.7-2.5-.7h-1.5v5.6h1.8c1.9.1 2.9-.8 2.9-2.8z"/></g><g><path class="st6" d="M1255.1 1023.2l2.2-2.1c.7.7 1.4 1.1 2.1 1.4.7.3 1.5.4 2.4.4 1.3 0 2.2-.3 3-.8.7-.6 1-1.4 1-2.5s-.3-2-1-2.5c-.7-.6-1.7-.8-3.1-.8h-2.1l.4-3h1.7c1.1 0 2-.3 2.5-.8.6-.6 1-1.3 1-2.2 0-.8-.3-1.5-.7-2-.6-.6-1.3-.8-2.4-.8-1.5 0-3.1.6-4.5 1.8l-2-2.1c2-1.8 4.2-2.7 6.9-2.7 1.4 0 2.7.3 3.7.7 1 .4 1.8 1.1 2.4 2 .6.8.8 1.7.8 2.8 0 1.3-.4 2.2-1.1 3.1-.7.8-1.8 1.4-3.2 1.7 1.5.1 2.8.7 3.7 1.5 1 .8 1.4 2.1 1.4 3.7 0 1.3-.3 2.4-1 3.4s-1.7 1.7-2.8 2.2c-1.3.6-2.5.8-4.1.8-3-.3-5.4-1.2-7.2-3.2zM1285.7 1022.8c.1.3.6.6 1 .7l-.8 2.5c-.8-.1-1.7-.3-2.2-.7-.6-.4-1-1-1.3-1.7-.6.8-1.3 1.4-2.1 1.8-.8.4-1.7.6-2.8.6-1.5 0-2.8-.4-3.8-1.4-1-.8-1.4-2.1-1.4-3.5 0-1.7.6-3.1 2-3.9 1.3-1 3.1-1.4 5.5-1.4h2v-.8c0-1-.3-1.7-.7-2.1-.4-.4-1.3-.6-2.2-.6-1.1 0-2.5.3-4.2.8l-.8-2.7c2-.7 3.9-1.1 5.8-1.1 4.1 0 6.2 1.8 6.2 5.5v6.8c-.4.5-.3.9-.2 1.2zm-4-1.4v-3.2h-1.5c-2.5 0-3.8 1-3.8 2.8 0 .7.1 1.4.6 1.8.4.4 1 .7 1.7.7 1.1-.2 2.1-.9 3-2.1zM1303.5 1009.7l-4.5 7.5 5.1 8.6h-4.2l-3.9-7.2h-1.7v7.2h-3.9v-16h3.9v6.3h1.8l3.8-6.3h3.6zM1319.2 1011.4c1 1.5 1.4 3.5 1.4 6.2 0 1.7-.3 3.1-.7 4.4-.6 1.3-1.3 2.2-2.2 3-1 .7-2.1 1.1-3.4 1.1-1.7 0-3.1-.6-4.1-1.8v7.5l-3.9.4v-22.4h3.4l.3 2c.6-.8 1.4-1.4 2.1-1.8.8-.4 1.7-.6 2.5-.6 2.1-.3 3.6.6 4.6 2zm-2.7 6.3c0-2-.3-3.4-.7-4.2-.6-.8-1.3-1.3-2.2-1.3-.7 0-1.3.1-1.8.6-.6.4-1 1-1.4 1.5v7.2c.7 1.1 1.7 1.7 3 1.7 2 0 3.1-1.8 3.1-5.5zM1335.1 1016.2c1.1 1 1.7 2.2 1.7 4.1 0 1.8-.6 3.2-1.8 4.1-1.3 1-2.8 1.4-4.8 1.4h-5.8v-16h3.9v5.1h1.3c2.5-.2 4.4.3 5.5 1.3zm-2.3 3.9c0-1-.3-1.7-.7-2.1-.4-.4-1.3-.7-2.5-.7h-1.3v5.6h1.5c2.1.1 3-.8 3-2.8zm6-10.4h3.9v16h-3.9v-16zM1359 1009.7l-.4 3h-4.6v13.1h-3.9v-13.1h-4.9v-3h13.8zM1372.2 1016.2c1.1 1 1.7 2.2 1.7 4.1 0 1.8-.6 3.2-1.8 4.1-1.3 1-2.8 1.4-4.8 1.4h-6v-16h3.9v5.1h1.5c2.6-.2 4.4.3 5.5 1.3zm-2.2 3.9c0-1-.3-1.7-.7-2.1-.4-.4-1.3-.7-2.5-.7h-1.5v5.6h1.8c1.9.1 2.9-.8 2.9-2.8z"/></g><g><path class="st14" d="M1407.4 141.6h-385.5c-7.7 0-14.1 6.3-14.1 14.1v64.1c0 7.7 6.3 14.1 14.1 14.1h385.5c7.7 0 14.1-6.3 14.1-14.1v-64.1c-.1-7.8-6.4-14.1-14.1-14.1z"/><path class="st15" d="M1407.4 247.9h-385.5c-7.7 0-14.1 6.3-14.1 14.1v64.1c0 7.7 6.3 14.1 14.1 14.1h385.5c7.7 0 14.1-6.3 14.1-14.1V262c-.1-7.8-6.4-14.1-14.1-14.1zM1407.4 354.4h-385.5c-7.7 0-14.1 6.3-14.1 14.1v64.1c0 7.7 6.3 14.1 14.1 14.1h385.5c7.7 0 14.1-6.3 14.1-14.1v-64.1c-.1-7.9-6.4-14.1-14.1-14.1zM1407.4 460.7h-385.5c-7.7 0-14.1 6.3-14.1 14.1v64.1c0 7.7 6.3 14.1 14.1 14.1h385.5c7.7 0 14.1-6.3 14.1-14.1v-64.1c-.1-7.8-6.4-14.1-14.1-14.1zM1407.4 567h-385.5c-7.7 0-14.1 6.3-14.1 14.1v64.1c0 7.7 6.3 14.1 14.1 14.1h385.5c7.7 0 14.1-6.3 14.1-14.1v-64.1c-.1-7.8-6.4-14.1-14.1-14.1z"/><path class="st2" d="M1407.4 673.3h-385.5c-7.7 0-14.1 6.3-14.1 14.1v64.1c0 7.7 6.3 14.1 14.1 14.1h385.5c7.7 0 14.1-6.3 14.1-14.1v-64.1c-.1-7.8-6.4-14.1-14.1-14.1zM1407.4 779.6h-385.5c-7.7 0-14.1 6.3-14.1 14.1v64.1c0 7.7 6.3 14.1 14.1 14.1h385.5c7.7 0 14.1-6.3 14.1-14.1v-64.1c-.1-7.7-6.4-14.1-14.1-14.1zM1156.9 177c1.5 1 2.7 2.4 3.5 4.2s1.3 4.1 1.3 6.6-.4 4.8-1.3 6.6c-.8 1.8-2 3.2-3.5 4.2s-3.4 1.4-5.3 1.4c-2.1 0-3.9-.4-5.5-1.4s-2.7-2.4-3.5-4.2-1.3-4.1-1.3-6.6.4-4.6 1.3-6.5c.8-1.8 2-3.2 3.5-4.2s3.4-1.4 5.5-1.4c1.9-.1 3.8.4 5.3 1.3zm-9.5 4.1c-1 1.4-1.4 3.7-1.4 6.6 0 5.8 1.8 8.7 5.5 8.7 1.8 0 3.2-.7 4.1-2.1.8-1.4 1.4-3.7 1.4-6.8 0-3.1-.4-5.2-1.4-6.6s-2.2-2.1-4.1-2.1c-1.9.1-3.2.9-4.1 2.3zM1175.9 199.4v-14.5h-5.9v14.5h-4.4v-17.9h14.6v17.9h-4.3zM1199.7 181.5v17.9h-4.4v-14.6h-4.4l-.4 4.8c-.3 2.5-.6 4.4-.8 5.6-.3 1.3-.8 2.3-1.5 3s-1.8 1.3-3.4 1.5l-1.1-3.2c.7-.3 1.3-.7 1.5-1.1s.6-1 .7-1.8c.1-.8.3-2.3.4-4.4l.6-7.7h12.8zM1218.4 196.3c.3.3.6.6 1 .7l-.8 2.8c-1-.1-1.8-.3-2.5-.7-.7-.4-1.1-1-1.4-1.8-.6.8-1.4 1.5-2.2 2-.8.4-2 .7-3.1.7-1.8 0-3.2-.6-4.2-1.5-1-1-1.5-2.4-1.5-3.9 0-2 .7-3.4 2.1-4.5s3.4-1.5 6-1.5h2.2v-1c0-1.1-.3-2-.8-2.4-.6-.4-1.4-.7-2.5-.7-1.3 0-2.8.3-4.8 1l-1-3c2.2-.8 4.4-1.3 6.5-1.3 4.5 0 6.9 2.1 6.9 6.2v7.5c-.3.6-.2 1 .1 1.4zm-4.7-1.7V191h-1.8c-2.8 0-4.2 1-4.2 3.1 0 .8.3 1.5.7 2s1.1.7 1.8.7c1.6.1 2.7-.8 3.5-2.2zM1235.7 181.5l-.6 3.4h-5.2v14.5h-4.4v-14.5h-5.5v-3.4h15.7zM1253.1 199.4h-4.2v-7.2c0-1.3 0-2.5.1-3.7.1-1.1.3-2 .4-2.7l-6.6 13.5h-4.6v-17.9h4.2v7.2c0 1.3 0 2.5-.1 3.7-.1 1.3-.3 2.1-.4 2.5l6.6-13.5h4.6v18.1zM1271.4 181.5l-.6 3.4h-5.2v14.5h-4.4v-14.5h-5.5v-3.4h15.7zM1286.2 188.9c1.3 1 2 2.5 2 4.5s-.7 3.5-2.1 4.5c-1.4 1-3.1 1.5-5.2 1.5h-6.8v-17.9h4.4v5.6h1.7c2.6.1 4.6.6 6 1.8zm-2.7 4.3c0-1.1-.3-1.8-.8-2.4-.6-.6-1.4-.7-2.8-.7h-1.5v6.3h2c2.1.1 3.1-1.1 3.1-3.2z"/><g><path class="st2" d="M1130.2 285.6V309h-4.5v-19.8h-8.2V309h-4.5v-23.3h17.2zM1149.8 293.1c1.1 1.7 1.7 3.9 1.7 6.9 0 1.8-.3 3.5-.8 4.9s-1.4 2.5-2.4 3.4c-1.1.8-2.4 1.3-3.8 1.3-1.8 0-3.4-.7-4.5-2v8.3l-4.4.4v-25.2h3.8l.3 2.2c.7-.8 1.5-1.5 2.4-2 .8-.4 1.8-.7 2.8-.7 2.2-.1 3.7.8 4.9 2.5zm-2.9 6.9c0-2.2-.3-3.8-.8-4.8-.6-1-1.4-1.4-2.5-1.4-.7 0-1.4.3-2 .7-.6.4-1.1 1-1.7 1.8v8c.8 1.3 2 1.8 3.2 1.8 2.6 0 3.8-2.1 3.8-6.1zM1169.2 293.1c1.4 1.7 2.2 3.9 2.2 6.9 0 1.8-.3 3.5-1 4.9s-1.7 2.5-3 3.4c-1.3.8-2.8 1.1-4.5 1.1-2.7 0-4.6-.8-6.2-2.5s-2.2-3.9-2.2-6.9c0-1.8.3-3.5 1-4.9s1.7-2.5 3-3.4c1.3-.8 2.8-1.1 4.5-1.1 2.5-.1 4.6.8 6.2 2.5zM1159 300c0 2.1.3 3.7 1 4.6s1.5 1.5 3 1.5 2.2-.6 3-1.5c.7-1 1-2.5 1-4.6s-.3-3.7-1-4.6-1.5-1.5-2.8-1.5c-2.9 0-4.2 2-4.2 6.1zM1185.8 291.1c1 .3 1.8.8 2.7 1.5l-2 2.5c-.6-.4-1.1-.8-1.7-1-.6-.1-1.1-.3-1.8-.3-2.7 0-4.1 2-4.1 6 0 2.1.3 3.5 1 4.5s1.7 1.4 3 1.4c.6 0 1.3-.1 1.7-.3.4-.1 1.1-.6 1.8-1l2 2.7c-1.7 1.4-3.7 2.1-5.8 2.1-1.7 0-3.2-.4-4.5-1.1s-2.2-1.8-3-3.2-1-3.1-1-4.9c0-1.8.3-3.5 1-5.1.7-1.4 1.7-2.5 3-3.4 1.3-.8 2.7-1.3 4.4-1.3 1.3.3 2.3.6 3.3.9zM1210.1 309h-4.1l-.6-7.3c-.1-1.1-.1-2.2-.1-3.5v-3.1l-3.4 12.1h-3.8l-3.2-12.1c0 1.3.1 2.4.1 3.7v3l-.4 7.3h-4.1l1.5-17.9h5.2l3 12.1 3.1-12.1h5.3l1.5 17.8zM1227.5 293.1c1.4 1.7 2.2 3.9 2.2 6.9 0 1.8-.3 3.5-1 4.9s-1.7 2.5-3 3.4c-1.3.8-2.8 1.1-4.5 1.1-2.7 0-4.6-.8-6.2-2.5s-2.2-3.9-2.2-6.9c0-1.8.3-3.5 1-4.9s1.7-2.5 3-3.4c1.3-.8 2.8-1.1 4.5-1.1 2.7-.1 4.8.8 6.2 2.5zm-10 6.9c0 2.1.3 3.7 1 4.6s1.5 1.5 3 1.5 2.2-.6 3-1.5c.7-1 1-2.5 1-4.6s-.3-3.7-1-4.6-1.5-1.5-2.8-1.5c-2.9 0-4.2 2-4.2 6.1zM1246.1 291.1l-.6 3.4h-5.2V309h-4.2v-14.5h-5.6v-3.4h15.6zM1262.8 293.1c1.1 1.7 1.7 3.9 1.7 6.9 0 1.8-.3 3.5-.8 4.9s-1.4 2.5-2.4 3.4c-1.1.8-2.4 1.3-3.8 1.3-1.8 0-3.4-.7-4.5-2v8.3l-4.4.4v-25.2h3.8l.3 2.2c.7-.8 1.5-1.5 2.4-2 .8-.4 1.8-.7 2.8-.7 2.2-.1 3.9.8 4.9 2.5zm-2.8 6.9c0-2.2-.3-3.8-.8-4.8-.6-1-1.4-1.4-2.5-1.4-.7 0-1.4.3-2 .7-.6.4-1.1 1-1.7 1.8v8c.8 1.3 2 1.8 3.2 1.8 2.5 0 3.8-2.1 3.8-6.1zM1283.3 301.4h-11.2c.1 1.7.6 3 1.4 3.7.7.7 1.8 1.1 3.1 1.1.8 0 1.5-.1 2.2-.4.7-.3 1.4-.7 2.2-1.3l1.8 2.5c-2 1.5-4.2 2.4-6.6 2.4-2.7 0-4.8-.8-6.3-2.5s-2.2-3.9-2.2-6.8c0-1.8.3-3.5 1-4.9.6-1.4 1.5-2.5 2.7-3.4 1.1-.8 2.7-1.3 4.2-1.3 2.5 0 4.5.8 5.8 2.4 1.4 1.5 2.1 3.8 2.1 6.6-.2.3-.2.9-.2 1.9zm-4.2-3c0-3.1-1.1-4.6-3.5-4.6-1.1 0-1.8.4-2.5 1.1-.6.8-1 2-1.1 3.8h7v-.3h.1zM1299.5 291.1l-.6 3.4h-5.2V309h-4.2v-14.5h-5.6v-3.4h15.6zM1314.3 298.3c1.3 1 2 2.5 2 4.5s-.7 3.5-2.1 4.5-3.1 1.5-5.2 1.5h-6.8v-17.7h4.4v5.6h1.7c2.6 0 4.7.6 6 1.6zm-2.7 4.5c0-1.1-.3-1.8-.8-2.4-.6-.6-1.4-.7-2.8-.7h-1.5v6.3h2c2.1 0 3.1-1.1 3.1-3.2z"/></g><g><path class="st2" d="M1104 388.5v23.3h-4.5V392h-8.2v19.8h-4.5v-23.3h17.2zM1123.9 404.3h-11.2c.1 1.7.6 3 1.4 3.7.7.7 1.8 1.1 3.1 1.1.8 0 1.5-.1 2.2-.4.7-.3 1.4-.7 2.2-1.3l1.8 2.5c-2 1.5-4.2 2.4-6.6 2.4-2.7 0-4.8-.8-6.3-2.5s-2.2-3.9-2.2-6.7c0-1.8.3-3.5 1-4.9.6-1.4 1.5-2.5 2.7-3.4s2.7-1.3 4.2-1.3c2.5 0 4.5.8 5.8 2.4 1.4 1.5 2.1 3.8 2.1 6.6-.1.3-.1.8-.2 1.8zm-4.1-3.1c0-3.1-1.1-4.6-3.5-4.6-1.1 0-1.8.4-2.5 1.1-.6.8-1 2-1.1 3.8h7v-.3h.1zM1141.3 394v17.9h-4.4v-7c-.7.6-1.4 1-2.4 1.3-.8.3-1.8.4-2.8.4-1.7 0-3-.4-3.8-1.4-.8-1-1.3-2.2-1.3-3.9V394h4.4v6.7c0 1 .1 1.7.6 2.1.4.4 1 .6 1.7.6s1.3-.1 2-.4c.7-.3 1.3-.7 1.7-1.1V394h4.3zM1160 408.7c.3.3.6.6 1 .7l-.8 2.8c-1-.1-1.8-.3-2.5-.7-.7-.4-1.1-1-1.4-1.8-.6.8-1.4 1.5-2.2 2-.8.4-2 .7-3.1.7-1.8 0-3.2-.6-4.2-1.5-1-1-1.5-2.4-1.5-3.9 0-2 .7-3.4 2.1-4.5s3.4-1.5 6-1.5h2.2v-1c0-1.1-.3-2-.8-2.4-.6-.4-1.4-.7-2.5-.7-1.3 0-2.8.3-4.8 1l-1-3c2.2-.8 4.4-1.3 6.5-1.3 4.5 0 6.9 2.1 6.9 6.2v7.5c-.2.5 0 1.1.1 1.4zm-4.5-1.7v-3.7h-1.8c-2.8 0-4.2 1-4.2 3.1 0 .8.3 1.5.7 2 .4.4 1.1.7 1.8.7 1.5.1 2.7-.6 3.5-2.1zM1177.5 394l-.6 3.4h-5.2v14.5h-4.4v-14.5h-5.5V394h15.7zM1192.1 401.2c1.3 1 2 2.5 2 4.5s-.7 3.5-2.1 4.5c-1.4 1-3.1 1.5-5.2 1.5h-6.9v-17.9h4.4v5.6h1.7c2.7.3 4.8.8 6.1 1.8zm-2.6 4.5c0-1.1-.3-1.8-.8-2.4-.6-.6-1.4-.7-2.8-.7h-1.7v6.3h2c2.2-.1 3.3-1.1 3.3-3.2zM1216.1 395.9c1.4 1.5 2.1 3.9 2.1 6.9 0 3-.7 5.3-2.1 7-1.4 1.7-3.5 2.5-6.2 2.5-2.2 0-4.2-.7-5.9-2l2-2.5c.6.4 1.3.8 1.8 1 .6.1 1.3.3 2 .3 1.1 0 2.1-.4 2.8-1.3.7-.8 1.1-2.1 1.3-3.8h-6.8v-2.7h6.8c-.1-1.5-.4-2.8-1-3.5s-1.4-1.1-2.5-1.1c-.7 0-1.4.1-2 .3-.6.1-1.3.6-2 1l-1.8-2.5c1.7-1.4 3.7-2 6-2s4.1.8 5.5 2.4zM1234.5 394l-.6 3.4h-5.2v14.5h-4.4v-14.5h-5.5V394h15.7zM1251.8 411.9h-4.2v-7.2c0-1.3 0-2.5.1-3.7s.3-2 .4-2.7l-6.6 13.5h-4.6V394h4.2v7.2c0 1.3 0 2.5-.1 3.7-.1 1.3-.3 2.1-.4 2.5l6.6-13.5h4.6v18zM1272 394l-5.1 8.3 5.6 9.6h-4.8l-4.4-7.9h-2v7.9h-4.4V394h4.4v7h2l4.2-7h4.5zM1289.2 404.3H1278c.1 1.7.6 3 1.4 3.7.7.7 1.8 1.1 3.1 1.1.8 0 1.5-.1 2.2-.4.7-.3 1.4-.7 2.2-1.3l1.8 2.5c-2 1.5-4.2 2.4-6.6 2.4-2.7 0-4.8-.8-6.3-2.5s-2.2-3.9-2.2-6.7c0-1.8.3-3.5 1-4.9.6-1.4 1.5-2.5 2.7-3.4 1.1-.8 2.7-1.3 4.2-1.3 2.5 0 4.5.8 5.8 2.4 1.4 1.5 2.1 3.8 2.1 6.6 0 .3 0 .8-.2 1.8zm-4-3.1c0-3.1-1.1-4.6-3.5-4.6-1.1 0-1.8.4-2.5 1.1-.6.8-1 2-1.1 3.8h7v-.3h.1zM1305.6 394l-.6 3.4h-5.2v14.5h-4.4v-14.5h-5.5V394h15.7zM1320.8 396c1.4 1.7 2.2 3.9 2.2 6.9 0 1.8-.3 3.5-1 4.9s-1.7 2.5-3 3.4c-1.3.8-2.8 1.1-4.5 1.1-2.7 0-4.6-.8-6.2-2.5-1.5-1.7-2.2-3.9-2.2-6.9 0-1.8.3-3.5 1-4.9s1.7-2.5 3-3.4c1.3-.8 2.8-1.1 4.5-1.1 2.5 0 4.6.8 6.2 2.5zm-10.2 6.9c0 2.1.3 3.7 1 4.6.7 1 1.5 1.5 3 1.5s2.2-.6 3-1.5c.7-1 1-2.5 1-4.6s-.3-3.7-1-4.6c-.7-1-1.5-1.5-2.8-1.5-2.9-.1-4.2 2-4.2 6.1zM1341.7 394l-5.1 8.3 5.6 9.6h-4.8l-4.4-7.9h-2v7.9h-4.4V394h4.4v7h2l4.2-7h4.5z"/></g><g><path class="st2" d="M1180.7 493.6c1.5 1 2.7 2.4 3.5 4.2.8 1.8 1.3 4.1 1.3 6.6s-.4 4.8-1.3 6.6c-.8 1.8-2 3.2-3.5 4.2s-3.4 1.4-5.3 1.4c-2.1 0-3.9-.4-5.5-1.4-1.5-1-2.7-2.4-3.5-4.2-.8-1.8-1.3-4.1-1.3-6.6s.4-4.6 1.3-6.5c.8-1.8 2-3.2 3.5-4.2s3.4-1.4 5.5-1.4c1.9-.1 3.7.3 5.3 1.3zm-9.6 4.1c-1 1.4-1.4 3.7-1.4 6.6 0 5.8 1.8 8.7 5.5 8.7 1.8 0 3.2-.7 4.1-2.1.8-1.4 1.4-3.7 1.4-6.8s-.4-5.2-1.4-6.6c-1-1.4-2.2-2.1-4.1-2.1-1.8 0-3.1.9-4.1 2.3zM1199.8 516v-14.5h-5.9V516h-4.4v-17.9h14.6V516h-4.3zM1223.7 512.7h2.7v8.6h-3.1l-.6-5.3h-13.4v-17.9h4.4v14.5h5.8v-14.5h4.4v14.6h-.2zM1244.1 516h-4.2v-7.2c0-1.3 0-2.5.1-3.7s.3-2 .4-2.7l-6.6 13.5h-4.6V498h4.2v7.2c0 1.3 0 2.5-.1 3.7-.1 1.3-.3 2.1-.4 2.5l6.6-13.5h4.6V516zM1264.2 516h-4.2v-7.2c0-1.3 0-2.5.1-3.7.1-1.1.3-2 .4-2.7L1254 516h-4.6v-17.9h4.2v7.2c0 1.3 0 2.5-.1 3.7-.1 1.3-.3 2.1-.4 2.5l6.6-13.5h4.6v18z"/></g><g><path class="st2" d="M1189.5 600.5l-6 10.7 6.8 12.7h-5.1l-5.5-10.5h-2.8v10.5h-4.5v-23.3h4.5v9.4h2.8l5.2-9.4h4.6zM1206.1 620.6c.3.3.6.6 1 .7l-.8 2.8c-1-.1-1.8-.3-2.5-.7-.7-.4-1.1-1-1.4-1.8-.6.8-1.4 1.5-2.2 2s-2 .7-3.1.7c-1.8 0-3.2-.6-4.2-1.5-1-1-1.5-2.4-1.5-3.9 0-2 .7-3.4 2.1-4.5 1.4-1.1 3.4-1.5 6-1.5h2.2v-1c0-1.1-.3-2-.8-2.4-.6-.4-1.4-.7-2.5-.7-1.3 0-2.8.3-4.8 1l-1-3c2.2-.8 4.4-1.3 6.5-1.3 4.5 0 6.9 2.1 6.9 6.2v7.5c-.3.5-.1 1 .1 1.4zm-4.6-1.7v-3.7h-1.8c-2.8 0-4.2 1-4.2 3.1 0 .8.3 1.5.7 2 .4.4 1.1.7 1.8.7 1.5.1 2.7-.7 3.5-2.1zM1221.3 605.8c1 .3 1.8.8 2.7 1.5l-2 2.5c-.6-.4-1.1-.8-1.7-1s-1.1-.3-1.8-.3c-2.7 0-4.1 2-4.1 6 0 2.1.3 3.5 1 4.5s1.7 1.4 3 1.4c.6 0 1.3-.1 1.7-.3s1.1-.6 1.8-1l2 2.7c-1.7 1.4-3.7 2.1-5.8 2.1-1.7 0-3.2-.4-4.5-1.1s-2.2-1.8-3-3.2-1-3.1-1-4.9.3-3.5 1-5.1c.7-1.4 1.7-2.5 3-3.4s2.7-1.3 4.4-1.3c1.4.5 2.3.6 3.3.9zM1236.8 605.8c1 .3 1.8.8 2.7 1.5l-2 2.5c-.6-.4-1.1-.8-1.7-1s-1.1-.3-1.8-.3c-2.7 0-4.1 2-4.1 6 0 2.1.3 3.5 1 4.5s1.7 1.4 3 1.4c.6 0 1.3-.1 1.7-.3s1.1-.6 1.8-1l2 2.7c-1.7 1.4-3.7 2.1-5.8 2.1-1.7 0-3.2-.4-4.5-1.1s-2.2-1.8-3-3.2-1-3.1-1-4.9.3-3.5 1-5.1c.7-1.4 1.7-2.5 3-3.4s2.7-1.3 4.4-1.3c1.3.5 2.3.6 3.3.9zM1255.8 620.6c.3.3.6.6 1 .7l-.8 2.8c-1-.1-1.8-.3-2.5-.7-.7-.4-1.1-1-1.4-1.8-.6.8-1.4 1.5-2.2 2s-2 .7-3.1.7c-1.8 0-3.2-.6-4.2-1.5-1-1-1.5-2.4-1.5-3.9 0-2 .7-3.4 2.1-4.5 1.4-1.1 3.4-1.5 6-1.5h2.2v-1c0-1.1-.3-2-.8-2.4-.6-.4-1.4-.7-2.5-.7-1.3 0-2.8.3-4.8 1l-1-3c2.2-.8 4.4-1.3 6.5-1.3 4.5 0 6.9 2.1 6.9 6.2v7.5c-.2.5-.2 1 .1 1.4zm-4.7-1.7v-3.7h-1.8c-2.8 0-4.2 1-4.2 3.1 0 .8.3 1.5.7 2s1.1.7 1.8.7c1.6.1 2.7-.7 3.5-2.1z"/></g><g class="st16"><path class="st6" d="M1108.3 732.5h-4.4v-10c0-2.8.3-5.8.7-8.9l-7.9 18.7h-5.5V709h4.4v10c0 1.8 0 3.4-.1 4.6-.1 1.3-.3 2.5-.4 4.1l8-18.7h5.3v23.5h-.1zM1126.8 714.7l-.6 3.4h-5.2v14.5h-4.4V718h-5.5v-3.4l15.7.1zM1141.9 716.6c1.4 1.7 2.2 3.9 2.2 6.9 0 1.8-.3 3.5-1 4.9s-1.7 2.5-3 3.4c-1.3.8-2.8 1.1-4.5 1.1-2.7 0-4.6-.8-6.2-2.5-1.5-1.7-2.2-3.9-2.2-6.9 0-1.8.3-3.5 1-4.9s1.7-2.5 3-3.4 2.8-1.1 4.5-1.1c2.7 0 4.8.8 6.2 2.5zm-10 6.9c0 2.1.3 3.7 1 4.6.7 1 1.5 1.5 3 1.5s2.2-.6 3-1.5c.7-1 1-2.5 1-4.6s-.3-3.7-1-4.6-1.5-1.5-2.8-1.5c-2.9-.1-4.2 2-4.2 6.1zM1152.4 732.5h-4.4v-17.9h12l-.6 3.4h-7.2v14.5h.2zM1175.3 716.6c1.4 1.7 2.2 3.9 2.2 6.9 0 1.8-.3 3.5-1 4.9s-1.7 2.5-3 3.4c-1.3.8-2.8 1.1-4.5 1.1-2.7 0-4.6-.8-6.2-2.5-1.5-1.7-2.2-3.9-2.2-6.9 0-1.8.3-3.5 1-4.9s1.7-2.5 3-3.4c1.3-.8 2.8-1.1 4.5-1.1 2.7 0 4.7.8 6.2 2.5zm-10.1 6.9c0 2.1.3 3.7 1 4.6.7 1 1.5 1.5 3 1.5s2.2-.6 3-1.5c.7-1 1-2.5 1-4.6s-.3-3.7-1-4.6-1.5-1.5-2.8-1.5c-2.9-.1-4.2 2-4.2 6.1zM1196.4 727c0 1.8-.7 3.2-2.1 4.1-1.4.8-3.2 1.4-5.6 1.4h-7v-17.7c2.4-.4 4.6-.7 6.5-.7 2.2 0 4.1.4 5.5 1.3 1.3.8 2 2 2 3.7 0 1-.3 1.8-1 2.5-.6.6-1.5 1.1-2.8 1.3 3 .2 4.5 1.6 4.5 4.1zm-10.5-9.8v4.5h2.5c1.8 0 2.8-.8 2.8-2.4 0-1.5-1.1-2.2-3.2-2.2-.6-.1-1.3-.1-2.1.1zm6 9.6c0-.8-.3-1.4-.8-1.8s-1.4-.6-2.5-.6h-2.7v5.2h2.7c2.2-.2 3.3-1 3.3-2.8zM1212.3 721.8c1.3 1 2 2.5 2 4.5s-.7 3.5-2.1 4.5c-1.4 1-3.1 1.5-5.2 1.5h-6.5v-17.9h4.4v5.6h1.4c2.7.3 4.8.8 6 1.8zm-2.5 4.5c0-1.1-.3-1.8-.8-2.4-.6-.6-1.4-.7-2.8-.7h-1.4v6.3h1.7c2.2-.1 3.3-1.1 3.3-3.2zm6.5-11.6h4.4v17.9h-4.4v-17.9zM1240.6 732.5h-4.2v-7.2c0-1.3 0-2.5.1-3.7.1-1.1.3-2 .4-2.7l-6.6 13.5h-4.6v-17.9h4.2v7.2c0 1.3 0 2.5-.1 3.7-.1 1.3-.3 2.1-.4 2.5l6.6-13.5h4.6v18.1zm-11.3-22.8c-1-.8-1.5-2-1.7-3.4l2.5-.6c.3.7.6 1.3 1 1.5.4.3 1.1.4 1.8.4.8 0 1.4-.1 2-.4.6-.3.8-.8 1-1.5l2.5.6c-.1 1.4-.7 2.5-1.7 3.4s-2.2 1.3-3.8 1.3c-1.4 0-2.6-.4-3.6-1.3zM1267.7 716.6c1.4 1.7 2.2 3.9 2.2 6.9 0 1.8-.3 3.5-1 4.9s-1.7 2.5-3 3.4c-1.3.8-2.8 1.1-4.5 1.1-2.7 0-4.6-.8-6.2-2.5-1.5-1.7-2.2-3.9-2.2-6.9 0-1.8.3-3.5 1-4.9s1.7-2.5 3-3.4 2.8-1.1 4.5-1.1c2.7 0 4.7.8 6.2 2.5zm-10.1 6.9c0 2.1.3 3.7 1 4.6.7 1 1.5 1.5 3 1.5s2.2-.6 3-1.5c.7-1 1-2.5 1-4.6s-.3-3.7-1-4.6-1.5-1.5-2.8-1.5c-2.8-.1-4.2 2-4.2 6.1zM1286.3 714.7l-.6 3.4h-5.2v14.5h-4.4V718h-5.5v-3.4l15.7.1zM1302.2 714.7v17.9h-4.4v-7c-.7.6-1.4 1-2.4 1.3-.8.3-1.8.4-2.8.4-1.7 0-3-.4-3.8-1.4s-1.3-2.2-1.3-3.9v-7.2h4.4v6.8c0 1 .1 1.7.6 2.1.4.4 1 .6 1.7.6s1.3-.1 2-.4c.7-.3 1.3-.7 1.7-1.1v-7.9l4.3-.2zM1321.9 724.9h-11.2c.1 1.7.6 3 1.4 3.7.7.7 1.8 1.1 3.1 1.1.8 0 1.5-.1 2.2-.4.7-.3 1.4-.7 2.2-1.3l1.8 2.5c-2 1.5-4.2 2.4-6.6 2.4-2.7 0-4.8-.8-6.3-2.5s-2.2-3.9-2.2-6.8c0-1.8.3-3.5 1-4.9.6-1.4 1.5-2.5 2.7-3.4 1.1-.8 2.7-1.3 4.2-1.3 2.5 0 4.5.8 5.8 2.4 1.4 1.5 2.1 3.8 2.1 6.6-.1.4-.1.9-.2 1.9zm-9.7-18.3a2.413 2.413 0 0 1 0 3.4 2.413 2.413 0 0 1-3.4 0 2.413 2.413 0 0 1 0-3.4c.4-.4 1-.7 1.7-.7s1.1.3 1.7.7zm5.5 15.2c0-3.1-1.1-4.6-3.5-4.6-1.1 0-1.8.4-2.5 1.1-.6.8-1 2-1.1 3.8h7v-.3h.1zm1.9-15.2a2.413 2.413 0 0 1 0 3.4 2.413 2.413 0 0 1-3.4 0 2.413 2.413 0 0 1 0-3.4 2.413 2.413 0 0 1 3.4 0zM1338.2 714.7l-.6 3.4h-5.2v14.5h-4.4V718h-5.5v-3.4l15.7.1z"/></g><g><path class="st6" d="M1120.5 835.5v8.9h-3.2l-.6-5.3h-12.8l-.6 5.3h-3.2v-8.9h1.7c.6-.6 1-1.3 1.3-2.1.3-.8.6-2.1.8-3.7.3-1.5.6-3.9 1-7l.8-7h12.8v19.8h2zm-6.3-16.5h-4.6l-.4 3.5c-.3 3-.6 5.2-1 6.7-.3 1.5-.7 2.8-1.1 3.8-.4 1-1 1.7-1.8 2.2h8.7V819h.2zM1138.4 823.1c1.1 1.7 1.7 3.9 1.7 6.9 0 1.8-.3 3.5-.8 4.9s-1.4 2.5-2.4 3.4c-1.1.8-2.4 1.3-3.8 1.3-1.8 0-3.4-.7-4.5-2v8.3l-4.4.4v-25.2h3.8l.3 2.2c.7-.8 1.5-1.5 2.4-2 .8-.4 1.8-.7 2.8-.7 2-.1 3.7.8 4.9 2.5zm-3 6.9c0-2.2-.3-3.8-.8-4.8-.6-1-1.4-1.4-2.5-1.4-.7 0-1.4.3-2 .7-.6.4-1.1 1-1.7 1.8v8c.8 1.3 2 1.8 3.2 1.8 2.5.1 3.8-2.1 3.8-6.1zM1152.7 839c-.7 2.2-1.8 3.9-3.2 5.2-1.4 1.3-3.5 2-6 2.1l-.4-3.1c1.1-.1 2.1-.4 2.8-.7.7-.3 1.3-.7 1.7-1.3.4-.6.8-1.3 1.1-2.1h-1.5l-5.6-17.9h4.6l3.9 15 4.1-15h4.5l-6 17.8zM1165.4 839h-4.4v-17.9h12l-.6 3.4h-7.2V839h.2zM1190.5 839h-4.2v-7.2c0-1.3 0-2.5.1-3.7.1-1.1.3-2 .4-2.7l-6.6 13.5h-4.6V821h4.2v7.2c0 1.3 0 2.5-.1 3.7-.1 1.3-.3 2.1-.4 2.5l6.6-13.5h4.6V839zM1210.2 831.4H1199c.1 1.7.6 3 1.4 3.7.7.7 1.8 1.1 3.1 1.1.8 0 1.5-.1 2.2-.4.7-.3 1.4-.7 2.2-1.3l1.8 2.5c-2 1.5-4.2 2.4-6.6 2.4-2.7 0-4.8-.8-6.3-2.5s-2.2-3.9-2.2-6.7c0-1.8.3-3.5 1-4.9.6-1.4 1.5-2.5 2.7-3.4 1.1-.8 2.7-1.3 4.2-1.3 2.5 0 4.5.8 5.8 2.4 1.4 1.5 2.1 3.8 2.1 6.6 0 .2 0 .8-.2 1.8zm-4.2-3.1c0-3.1-1.1-4.6-3.5-4.6-1.1 0-1.8.4-2.5 1.1-.6.8-1 2-1.1 3.8h7v-.3h.1zM1236.1 823.1c1.4 1.7 2.2 3.9 2.2 6.9 0 1.8-.3 3.5-1 4.9s-1.7 2.5-3 3.4c-1.3.8-2.8 1.1-4.5 1.1-2.7 0-4.6-.8-6.2-2.5-1.5-1.7-2.2-3.9-2.2-6.9 0-1.8.3-3.5 1-4.9s1.7-2.5 3-3.4c1.3-.8 2.8-1.1 4.5-1.1 2.7-.1 4.8.8 6.2 2.5zm-10 6.9c0 2.1.3 3.7 1 4.6s1.5 1.5 3 1.5 2.2-.6 3-1.5c.7-1 1-2.5 1-4.6s-.3-3.7-1-4.6c-.7-1-1.5-1.5-2.8-1.5-2.9-.1-4.2 2-4.2 6.1zM1254.7 821.1l-.6 3.4h-5.2V839h-4.4v-14.5h-5.5v-3.4h15.7zM1270.5 821.1V839h-4.4v-7c-.7.6-1.4 1-2.4 1.3-.8.3-1.8.4-2.8.4-1.7 0-3-.4-3.8-1.4s-1.3-2.2-1.3-3.9v-7.2h4.4v6.8c0 1 .1 1.7.6 2.1.4.4 1 .6 1.7.6s1.3-.1 2-.4c.7-.3 1.3-.7 1.7-1.1v-7.9l4.3-.2zM1290.4 831.4h-11.2c.1 1.7.6 3 1.4 3.7.7.7 1.8 1.1 3.1 1.1.8 0 1.5-.1 2.2-.4.7-.3 1.4-.7 2.2-1.3l1.8 2.5c-2 1.5-4.2 2.4-6.6 2.4-2.7 0-4.8-.8-6.3-2.5s-2.2-3.9-2.2-6.7c0-1.8.3-3.5 1-4.9.6-1.4 1.5-2.5 2.7-3.4 1.1-.8 2.7-1.3 4.2-1.3 2.5 0 4.5.8 5.8 2.4 1.4 1.5 2.1 3.8 2.1 6.6-.2.2-.2.8-.2 1.8zm-9.9-18.3a2.413 2.413 0 0 1 0 3.4 2.413 2.413 0 0 1-3.4 0 2.413 2.413 0 0 1 0-3.4 2.413 2.413 0 0 1 3.4 0zm5.7 15.2c0-3.1-1.1-4.6-3.5-4.6-1.1 0-1.8.4-2.5 1.1-.6.8-1 2-1.1 3.8h7v-.3h.1zm1.8-15.2a2.413 2.413 0 0 1 0 3.4 2.413 2.413 0 0 1-3.4 0 2.413 2.413 0 0 1 0-3.4 2.413 2.413 0 0 1 3.4 0zM1306.5 821.1l-.6 3.4h-5.2V839h-4.4v-14.5h-5.5v-3.4h15.7zM1320.9 828.3c1.3 1 2 2.5 2 4.5s-.7 3.5-2.1 4.5c-1.4 1-3.1 1.5-5.2 1.5h-6.5V821h4.4v5.6h1.4c2.8.1 4.7.6 6 1.7zm-2.5 4.5c0-1.1-.3-1.8-.8-2.4-.6-.6-1.4-.7-2.8-.7h-1.4v6.3h1.7c2.1-.1 3.3-1.1 3.3-3.2zm6.4-11.7h4.4V839h-4.4v-17.9z"/></g></g><path class="st17" d="M509.9 957.2v66c0 6.9 5.6 12.4 12.4 12.4h417.9c6.9 0 12.4-5.6 12.4-12.4v-66c0-6.9-5.6-12.4-12.4-12.4H522.3c-6.8-.1-12.4 5.5-12.4 12.4zM46.3 957.2v66c0 6.9 5.6 12.4 12.4 12.4h418.1c6.9 0 12.4-5.6 12.4-12.4v-66c0-6.9-5.6-12.4-12.4-12.4H58.6c-6.7-.1-12.3 5.5-12.3 12.4z"/><path class="st13" d="M287.6 1000.1l-20-19.9-19.8 19.9zM711.4 980.2l19.8 19.9 20-19.9z"/><path class="st18" d="M939.4 365.9H59.6c-7.5 0-13.4-6-13.4-13.4v-98.3c0-7.5 6-13.4 13.4-13.4h879.8c7.5 0 13.4 6 13.4 13.4v98.3c-.1 7.4-6.1 13.4-13.4 13.4z"/><path class="st17" d="M939.4 519.2H59.6c-7.5 0-13.4-6-13.4-13.4v-98.3c0-7.5 6-13.4 13.4-13.4h879.8c7.5 0 13.4 6 13.4 13.4v98.3c-.1 7.3-6.1 13.4-13.4 13.4zM939.4 672.5H59.6c-7.5 0-13.4-6-13.4-13.4v-98.3c0-7.5 6-13.4 13.4-13.4h879.8c7.5 0 13.4 6 13.4 13.4v98.3c-.1 7.3-6.1 13.4-13.4 13.4zM939.4 825.8H59.6c-7.5 0-13.4-6-13.4-13.4v-98.3c0-7.5 6-13.4 13.4-13.4h879.8c7.5 0 13.4 6 13.4 13.4v98.3c-.1 7.3-6.1 13.4-13.4 13.4z"/><path class="st13" d="M75.2 212.2h-2.8l-6-12.7c.1 1 .1 2 .1 2.8 0 .8.1 1.8.1 3.1v6.9h-2v-15h2.8l6.2 12.8c0-.4-.1-1-.1-2-.1-1-.1-1.8-.1-2.5v-8.2h2v14.8h-.2zm9.5-13.8c.7.8 1.1 2 1.1 3.4s-.4 2.5-1.1 3.4c-.7.8-1.8 1.3-3.1 1.3s-2.4-.4-3.1-1.3-1.1-2-1.1-3.4.4-2.5 1.1-3.4c.7-.8 1.8-1.3 3.1-1.3 1.4.2 2.4.6 3.1 1.3zm-7.2 13.8v-1.7h8.2v1.7h-8.2zm2-10.4c0 2 .7 3.1 2.1 3.1s2.1-1 2.1-3.1c0-1-.1-1.8-.6-2.3-.4-.4-.8-.7-1.5-.7-1.4-.1-2.1 1-2.1 3z"/><g><path class="st13" d="M300.2 196.7l-.3 1.8h-4.2v13.2h-2.1v-13.2h-4.2v-1.8h10.8zM310.8 211.6h-2v-5.2c0-.8 0-1.7.1-2.5 0-.8.1-1.3.1-1.5l-4.8 9.1h-2.4v-11.4h2v5.2c0 .7 0 1.5-.1 2.4 0 .8-.1 1.4-.1 1.5l4.8-9.1h2.4v11.5zM321.6 211.6v-9.8H317v9.8h-2v-11.4h8.7v11.4h-2.1zM341.4 201.7c.8 1.1 1.4 2.5 1.4 4.4 0 1.1-.1 2.3-.6 3.1-.4.8-1 1.5-1.8 2.1-.7.6-1.7.7-2.7.7-1.5 0-2.8-.6-3.8-1.5-.8-1.1-1.4-2.5-1.4-4.4 0-1.1.1-2.3.6-3.1.4-.8 1-1.5 1.8-2.1.7-.6 1.7-.7 2.8-.7 1.6-.2 2.9.3 3.7 1.5zm-6.6 4.3c0 3 1 4.4 3 4.4s3-1.4 3-4.4-1-4.4-3-4.4c-2 .1-3 1.5-3 4.4zM352.8 211.6v-9.8h-4.6v9.8h-2v-11.4h8.7v11.4h-2.1zM367.3 200.2v11.4h-2v-9.8h-3.5l-.3 3.8c-.1 1.5-.3 2.7-.4 3.5-.1.7-.6 1.4-.8 1.8-.4.4-1 .7-1.8 1l-.6-1.5c.6-.1.8-.4 1-.7s.4-.7.4-1.3c.1-.6.1-1.5.3-3l.4-5.2h7.3zM379.4 210.1c.1.3.4.4.7.6l-.4 1.4c-.6-.1-1.1-.3-1.4-.6-.4-.3-.6-.7-.8-1.3-.7 1.1-2 1.7-3.4 1.7-1.1 0-2-.3-2.7-1s-1-1.4-1-2.5c0-1.3.4-2.1 1.3-2.8.8-.7 2.1-1 3.8-1h1.8v-.7c0-.8-.1-1.4-.6-1.7-.4-.3-1-.6-1.8-.6s-1.8.1-3.1.6l-.6-1.4c1.4-.6 2.7-.8 3.9-.8 1.4 0 2.4.3 3 1 .7.7 1 1.5 1 2.8v5.2c.2.5.2.8.3 1.1zm-2.2-1.4V206h-1.5c-2.1 0-3.2.8-3.2 2.4 0 .7.1 1.3.6 1.5.3.3.8.6 1.5.6 1 0 2-.7 2.6-1.8zM390.7 200.2l-.3 1.7h-3.7v9.8h-2v-9.8H381v-1.7h9.7zM399.7 204.9c.7.7 1.1 1.5 1.1 2.8 0 1.3-.4 2.2-1.3 3-.8.7-2 1-3.2 1h-3.7v-11.4h2v3.7h1.3c1.8-.1 3.1.3 3.8.9zm-1.6 4.6c.4-.4.7-1 .7-1.8s-.1-1.4-.6-1.8c-.4-.4-1.1-.6-2.1-.6h-1.3v4.6h1.5c.7.2 1.4.1 1.8-.4zm4.4-9.3h2v11.4h-2v-11.4z"/></g><g><path class="st13" d="M471.5 196.9c.6.3 1.3.6 1.8 1.1l-1.1 1.3c-.8-.7-1.8-1.1-3-1.1-1.3 0-2.2.4-3 1.4-.7 1-1.1 2.5-1.1 4.6s.4 3.5 1.1 4.5c.7 1 1.7 1.4 3 1.4.7 0 1.3-.1 1.7-.3.4-.3 1-.6 1.5-.8l1 1.3c-.4.4-1.1.8-1.8 1.3-.7.3-1.5.4-2.5.4-1.3 0-2.3-.3-3.2-.8-1-.6-1.7-1.5-2.2-2.7-.6-1.1-.8-2.5-.8-4.2 0-1.7.3-3.1.8-4.2.6-1.1 1.3-2.1 2.2-2.7 1-.6 2-.8 3.1-.8 1.1-.1 2 0 2.5.3z"/><path class="st13" d="M482.8 200.2l-.3 1.7h-3.7v9.8h-2v-9.8H473v-1.7h9.8zM492.3 201.7c.8 1.1 1.4 2.5 1.4 4.4 0 1.1-.1 2.3-.6 3.1-.4.8-1 1.5-1.8 2.1-.7.6-1.7.7-2.7.7-1.5 0-2.8-.6-3.8-1.5-.8-1.1-1.4-2.5-1.4-4.4 0-1.1.1-2.3.6-3.1.4-.8 1-1.5 1.8-2.1.7-.6 1.7-.7 2.8-.7 1.6-.2 2.9.3 3.7 1.5zm-6.7 4.3c0 3 1 4.4 3 4.4s3-1.4 3-4.4-1-4.4-3-4.4c-2 .1-3 1.5-3 4.4zM505.1 200.2v11.4h-2v-9.8h-3.5l-.3 3.8c-.1 1.5-.3 2.7-.4 3.5-.1.7-.6 1.4-.8 1.8-.3.4-1 .7-1.8 1l-.6-1.5c.6-.1.8-.4 1-.7s.4-.7.4-1.3c.1-.6.1-1.5.3-3l.4-5.2h7.3z"/></g><g><path class="st13" d="M807.8 211.6h-2.1v-7.3c0-1.7.1-3.5.3-5.3l-6 12.7h-2.7v-15h2.1v7.3c0 2-.1 3.8-.3 5.5l6.2-12.8h2.5v14.9zM819.7 200.2l-.3 1.7h-3.7v9.8h-2v-9.8H810v-1.7h9.7zM829.3 201.7c.8 1.1 1.4 2.5 1.4 4.4 0 1.1-.1 2.3-.6 3.1-.4.8-1 1.5-1.8 2.1-.7.6-1.7.7-2.7.7-1.5 0-2.8-.6-3.8-1.5-.8-1.1-1.4-2.5-1.4-4.4 0-1.1.1-2.3.6-3.1.4-.8 1-1.5 1.8-2.1.7-.6 1.7-.7 2.8-.7 1.6-.2 2.8.3 3.7 1.5zm-6.8 4.3c0 3 1 4.4 3 4.4s3-1.4 3-4.4-1-4.4-3-4.4c-2 .1-3 1.5-3 4.4zM835.9 211.6h-2v-11.4h7.2l-.3 1.7h-4.9v9.7zM850.8 201.7c.8 1.1 1.4 2.5 1.4 4.4 0 1.1-.1 2.3-.6 3.1-.4.8-1 1.5-1.8 2.1-.7.6-1.7.7-2.7.7-1.5 0-2.8-.6-3.8-1.5-.8-1.1-1.4-2.5-1.4-4.4 0-1.1.1-2.3.6-3.1.4-.8 1-1.5 1.8-2.1.7-.6 1.7-.7 2.8-.7 1.4-.2 2.7.3 3.7 1.5zM844 206c0 3 1 4.4 3 4.4s3-1.4 3-4.4-1-4.4-3-4.4-3 1.5-3 4.4z"/></g><g><path class="st13" d="M623 196.9c.6.3 1.3.6 1.8 1.1l-1.1 1.3c-.8-.7-1.8-1.1-3-1.1-1.3 0-2.2.4-3 1.4-.7 1-1.1 2.5-1.1 4.6s.4 3.5 1.1 4.5c.7 1 1.7 1.4 3 1.4.7 0 1.3-.1 1.7-.3.4-.3 1-.6 1.5-.8l1 1.3c-.4.4-1.1.8-1.8 1.3-.7.3-1.5.4-2.5.4-1.3 0-2.2-.3-3.2-.8-1-.6-1.7-1.5-2.2-2.7-.6-1.1-.8-2.5-.8-4.2 0-1.7.3-3.1.8-4.2.6-1.1 1.3-2.1 2.2-2.7 1-.6 2-.8 3.1-.8 1.1-.1 1.9 0 2.5.3zM635.2 201.7c.8 1.1 1.4 2.5 1.4 4.4 0 1.1-.1 2.3-.6 3.1-.4.8-1 1.5-1.8 2.1-.7.6-1.7.7-2.7.7-1.5 0-2.8-.6-3.8-1.5-.8-1.1-1.4-2.5-1.4-4.4 0-1.1.1-2.3.6-3.1.4-.8 1-1.5 1.8-2.1.7-.6 1.7-.7 2.8-.7 1.5-.2 2.7.3 3.7 1.5zm-6.7 4.3c0 3 1 4.4 3 4.4s3-1.4 3-4.4-1-4.4-3-4.4-3 1.5-3 4.4zM647 200.2l-.3 1.7H643v9.8h-2v-9.8h-3.8v-1.7h9.8zM657.6 201.5c.7 1 1 2.5 1 4.4s-.4 3.2-1.1 4.4c-.8 1.1-1.8 1.7-3.4 1.7-1.3 0-2.2-.4-3-1.3v5.5l-2 .3v-16h1.7l.1 1.5c.4-.6 1-1 1.5-1.4.6-.3 1.3-.4 1.8-.4 1.5-.2 2.7.3 3.4 1.3zm-1.2 4.5c0-3-.8-4.4-2.5-4.4-.6 0-1.1.1-1.5.6-.4.3-.8.7-1.3 1.3v5.6c.3.4.7.8 1.1 1 .4.3.8.4 1.4.4 1.9-.1 2.8-1.7 2.8-4.5zM666.4 211.8c-.4 1.3-1.1 2.4-1.8 3.1-.8.8-2 1.3-3.5 1.4l-.3-1.5c.7-.1 1.4-.3 1.8-.6.4-.3.8-.6 1.1-1 .3-.4.6-.8.7-1.5h-.7l-3.8-11.4h2.1l3.1 10 3-10h2.1l-3.8 11.5zM681.6 210.1v4.9h-1.7l-.3-3.2h-7.5l-.3 3.2h-1.7v-4.9h.8l.8-.8c.1-.3.4-.8.6-1.5.1-.7.3-1.8.4-3.2l.3-4.2h7.2v9.8l1.4-.1zm-3.2-8.3H675l-.1 2.4c-.1 1.4-.3 2.4-.3 3.1-.1.7-.3 1.3-.6 1.7-.3.4-.6.7-1 1.1h5.5v-8.3h-.1zM691.3 211.6v-4.9h-4.8v5.1h-2v-11.4h2v4.8h4.8v-4.8h2v11.4h-2v-.2zM706.4 211.6h-2v-5.2c0-.8 0-1.7.1-2.5 0-.8.1-1.3.1-1.5l-4.8 9.1h-2.4v-11.4h2v5.2c0 .7 0 1.5-.1 2.4 0 .8-.1 1.4-.1 1.5l4.8-9.1h2.4v11.5zM719 200.2l-3.5 5.3 3.9 6.2H717l-3.2-5.3h-1.4v5.3h-2v-11.4h2v4.6h1.5l3-4.6h2.1v-.1z"/></g><g><path class="st13" d="M128.8 196.7c.6.3 1.3.6 1.8 1.1l-1.1 1.3c-.8-.7-1.8-1.1-3-1.1-1.3 0-2.2.4-3 1.4s-1.1 2.5-1.1 4.6.4 3.5 1.1 4.5 1.7 1.4 3 1.4c.7 0 1.3-.1 1.7-.3.4-.3 1-.6 1.5-.8l1 1.3c-.4.4-1.1.8-1.8 1.3-.7.3-1.5.4-2.5.4-1.3 0-2.2-.3-3.2-.8-1-.6-1.7-1.5-2.2-2.7-.6-1.1-.8-2.5-.8-4.2 0-1.7.3-3.1.8-4.2.6-1.1 1.3-2.1 2.2-2.7 1-.6 2-.8 3.1-.8 1.1.1 1.8.1 2.5.3z"/><path class="st13" d="M140.1 200.2l-.3 1.7h-3.7v9.8h-2v-9.8h-3.8v-1.7h9.8zM149.2 210c.1.3.4.4.7.6l-.4 1.4c-.6-.1-1.1-.3-1.4-.6-.4-.3-.6-.7-.8-1.3-.7 1.1-2 1.7-3.4 1.7-1.1 0-2-.3-2.7-1s-1-1.4-1-2.5c0-1.3.4-2.1 1.3-2.8s2.1-1 3.8-1h1.8v-.8c0-.8-.1-1.4-.6-1.7-.4-.3-1-.6-1.8-.6s-1.8.1-3.1.6l-.6-1.4c1.4-.6 2.7-.8 3.9-.8 1.4 0 2.4.3 3 1 .7.7 1 1.5 1 2.8v5.2c0 .6 0 1 .3 1.2zm-2.2-1.3V206h-1.5c-2.1 0-3.2.8-3.2 2.4 0 .7.1 1.3.6 1.5.3.3.8.6 1.5.6 1-.1 1.8-.7 2.6-1.8zM168 211.8c-.4 1.3-1.1 2.4-1.8 3.1-.8.8-2 1.3-3.5 1.4l-.3-1.5c.7-.1 1.4-.3 1.8-.6.4-.3.8-.6 1.1-1 .3-.4.6-.8.7-1.5h-.7l-3.8-11.4h2.1l3.1 10 3-10h2.1l-3.8 11.5zM180 200.2c.6.1 1.1.6 1.7 1l-1 1.3c-.4-.3-.8-.6-1.1-.7-.4-.1-.8-.1-1.3-.1-1 0-1.7.4-2.1 1.1-.6.7-.7 1.8-.7 3.2s.3 2.5.7 3.2c.6.7 1.3 1 2.1 1 .4 0 .8 0 1.3-.1.4-.1.8-.4 1.3-.7l.8 1.3c-1 .8-2.2 1.3-3.5 1.3-1.5 0-2.8-.6-3.7-1.5-.8-1-1.4-2.5-1.4-4.4 0-1.3.1-2.3.6-3.2.4-.8 1-1.7 1.7-2.1.7-.6 1.7-.7 2.7-.7.8-.1 1.3-.1 1.9.1zM160.2 200.2l-.3 1.7h-3.7v9.8h-2v-9.8h-3.8v-1.7h9.8z"/></g><path class="st6" d="M82.1 302.8v2.8h-2.2v4.4h-3.5v-4.4h-8V303l5.5-12.5 3.1 1.1-4.8 11.1h4.4l.4-4.8h3v4.8h2.1z"/><g><path class="st6" d="M133.3 291.1c1.3.8 2.2 2 3 3.5s1 3.4 1 5.5-.3 3.9-1 5.5c-.7 1.5-1.7 2.7-3 3.5-1.3.8-2.8 1.3-4.5 1.3-1.7 0-3.2-.4-4.5-1.1-1.3-.8-2.2-2-3-3.5s-1-3.4-1-5.5.3-3.9 1-5.5c.7-1.5 1.7-2.7 3-3.5 1.3-.8 2.8-1.3 4.5-1.3 1.7 0 3.2.4 4.5 1.1zm-7.9 3.4c-.8 1.1-1.1 3-1.1 5.6 0 4.9 1.5 7.3 4.6 7.3 1.5 0 2.7-.6 3.4-1.7.8-1.1 1.1-3 1.1-5.6 0-2.5-.4-4.4-1.1-5.5-.8-1.1-2-1.7-3.4-1.7s-2.8.4-3.5 1.6zM151.6 294.9l-.4 2.8h-4.4v12.1h-3.7v-12.1h-4.6v-2.8h13.1zM166.1 294.9l-4.2 6.9 4.6 8h-3.9l-3.7-6.6h-1.5v6.6h-3.7v-14.9h3.7v5.9h1.7l3.5-5.9h3.5zM180.6 296.6c.8 1.4 1.4 3.2 1.4 5.8 0 1.5-.3 3-.7 4.1-.4 1.1-1.1 2.1-2 2.8s-2 1-3.1 1c-1.5 0-2.8-.6-3.8-1.7v6.9l-3.7.4v-21h3.1l.1 1.8c.6-.7 1.3-1.3 2-1.7s1.5-.6 2.4-.6c2 .1 3.4.8 4.3 2.2zm-2.4 5.7c0-1.8-.3-3.1-.7-3.9-.4-.8-1.1-1.3-2.1-1.3-.6 0-1.1.1-1.7.6-.6.4-1 .8-1.4 1.4v6.8c.7 1 1.5 1.5 2.7 1.5 2.2 0 3.2-1.7 3.2-5.1zM195.3 300.9c1.1.8 1.5 2.1 1.5 3.8s-.6 3-1.7 3.8c-1.1.8-2.7 1.3-4.4 1.3h-5.3v-14.9h3.7v4.6h1.1c2.5.2 4.1.6 5.1 1.4zm-2.1 3.7c0-.8-.3-1.5-.7-2-.4-.4-1.3-.7-2.2-.7h-1.1v5.2h1.4c1.8.2 2.6-.7 2.6-2.5zm5.5-9.7h3.7v14.9h-3.7v-14.9zM217.5 294.9l-.4 2.8h-4.4v12.1H209v-12.1h-4.6v-2.8h13.1z"/></g><path class="st6" d="M494.3 290.8v19h-3.5v-15.3l-4.2 2.5-1.5-2.4 6.2-3.8h3z"/><g><path class="st6" d="M627.2 309.8l-1.3-4.5h-6.5l-1.3 4.5h-3.7l6-19.4h4.6l6 19.4h-3.8zm-6.9-7.3h4.9l-2.5-9.3-2.4 9.3zM641.8 309.8v-6.2h-5.1v6.2H633v-14.9h3.7v5.9h5.1v-5.9h3.7v14.9h-3.7zM660.7 294.9l-.4 2.8h-4.4v12.1h-3.7v-12.1h-4.6v-2.8h13.1zM673.3 296.6c1.3 1.4 1.8 3.4 1.8 5.8 0 1.5-.3 3-.8 4.1s-1.4 2.1-2.4 2.8-2.2 1-3.8 1c-2.2 0-3.9-.7-5.2-2.1-1.3-1.4-1.8-3.4-1.8-5.8 0-1.5.3-3 .8-4.1.6-1.1 1.4-2.1 2.4-2.8 1.1-.7 2.2-1 3.8-1 2.3 0 3.9.7 5.2 2.1zm-8.4 5.7c0 1.8.3 3.1.8 3.9s1.4 1.3 2.4 1.3c1.1 0 1.8-.4 2.4-1.3s.8-2.1.8-3.9c0-1.7-.3-3.1-.8-3.9-.6-.8-1.3-1.3-2.4-1.3-2.1.2-3.2 1.9-3.2 5.2zM687.1 309.8v-6.2H682v6.2h-3.7v-14.9h3.7v5.9h5.1v-5.9h3.7v14.9h-3.7z"/></g><path class="st6" d="M78.5 447.3c.8.4 1.5 1 2.1 1.7.4.7.7 1.5.7 2.4 0 1.1-.3 2.1-1 2.8s-1.5 1.3-2.7 1.5c1.3.1 2.2.6 3.1 1.4.8.8 1.3 1.8 1.3 3.2 0 1.1-.3 2.1-.8 3-.6.8-1.4 1.5-2.4 2.1-1 .6-2.2.7-3.7.7-2.5 0-4.6-.8-6.2-2.7l2-2c.7.7 1.3 1.1 1.8 1.4.6.3 1.3.4 2.1.4 1 0 1.8-.3 2.4-.8.6-.6 1-1.4 1-2.2 0-1.1-.3-1.8-.8-2.4-.6-.4-1.4-.7-2.5-.7h-1.7l.4-2.5h1c1 0 1.7-.3 2.2-.7.6-.4.8-1.3.8-2.1 0-.7-.3-1.4-.7-1.8-.6-.4-1.1-.7-2-.7-.7 0-1.4.1-2 .4-.6.3-1.3.7-1.8 1.3l-1.8-2c1.7-1.5 3.7-2.4 5.9-2.4 1.2 0 2.3.2 3.3.7z"/><g><path class="st6" d="M133.3 447.2c1.3.8 2.2 2 3 3.5s1 3.4 1 5.5-.3 3.9-1 5.5c-.7 1.5-1.7 2.7-3 3.5-1.3.8-2.8 1.3-4.5 1.3-1.7 0-3.2-.4-4.5-1.1-1.3-.8-2.2-2-3-3.5-.7-1.5-1-3.4-1-5.5s.3-3.9 1-5.5c.7-1.5 1.7-2.7 3-3.5 1.3-.8 2.8-1.3 4.5-1.3 1.7 0 3.2.4 4.5 1.1zm-7.9 3.4c-.8 1.1-1.1 3-1.1 5.6 0 4.9 1.5 7.3 4.6 7.3 1.5 0 2.7-.6 3.4-1.7s1.1-3 1.1-5.6c0-2.5-.4-4.4-1.1-5.5s-2-1.7-3.4-1.7c-1.6-.1-2.8.4-3.5 1.6zM149.2 465.9v-12.1h-4.9v12.1h-3.7V451h12.1v14.9h-3.5zM168.9 451v14.9h-3.7v-12.1h-3.5l-.4 3.9c-.1 2.1-.4 3.7-.7 4.8-.3 1.1-.7 1.8-1.3 2.4-.6.6-1.5 1-2.8 1.4l-.8-2.7c.6-.3 1.1-.6 1.4-.8.3-.3.4-.8.6-1.5s.3-2 .4-3.7l.6-6.5H169v-.1zM184.5 463.2c.1.3.4.4.8.7l-.7 2.4c-.8-.1-1.5-.3-2.1-.6-.6-.3-1-.8-1.3-1.5-.6.7-1.1 1.3-1.8 1.7-.7.4-1.5.6-2.5.6-1.5 0-2.7-.4-3.5-1.3s-1.3-2-1.3-3.4c0-1.5.6-2.8 1.7-3.7 1.1-.8 2.8-1.3 5.1-1.3h1.8v-.8c0-1-.3-1.7-.7-2s-1.1-.6-2.1-.6c-1.1 0-2.4.3-3.9.8l-.8-2.4c1.8-.7 3.7-1.1 5.3-1.1 3.8 0 5.8 1.7 5.8 5.1v6.2c-.1.5.1.9.2 1.2zm-3.8-1.4v-3h-1.5c-2.4 0-3.5.8-3.5 2.5 0 .7.1 1.3.6 1.7.4.4.8.6 1.5.6 1.2 0 2.2-.5 2.9-1.8zM199.8 451v14.9h-3.7V460c-.6.4-1.1.8-2 1.1-.8.3-1.5.4-2.4.4-1.4 0-2.5-.4-3.2-1.1s-1.1-1.8-1.1-3.4v-6h3.7v5.6c0 .8.1 1.4.4 1.7.3.3.8.6 1.4.6.6 0 1.1-.1 1.7-.3.6-.3 1-.6 1.4-.8v-6.6h3.8v-.2zM216.3 459.6H207c.1 1.4.4 2.5 1.1 3.1.7.6 1.5 1 2.5 1 .7 0 1.3-.1 1.8-.3.6-.3 1.3-.6 1.8-1l1.5 2.1c-1.7 1.3-3.5 2-5.5 2-2.3 0-4.1-.7-5.2-2.1-1.3-1.4-1.8-3.2-1.8-5.6 0-1.5.3-2.8.8-4.1.6-1.3 1.3-2.1 2.2-2.8 1-.7 2.1-1 3.5-1 2.1 0 3.7.7 4.8 2 1.1 1.3 1.7 3.1 1.7 5.5.1-.1.1.3.1 1.2zm-3.5-2.6c0-2.7-1-3.9-3-3.9-.8 0-1.5.3-2.1 1-.6.7-.8 1.7-.8 3.1h5.9v-.2zM228.2 465.9v-6.2h-5.1v6.2h-3.7V451h3.7v5.9h5.1V451h3.7v14.9h-3.7z"/></g><g><path class="st6" d="M300.1 465.9v-8.7h-6.9v8.7h-3.7v-19.4h3.7v7.7h6.9v-7.7h3.8v19.4h-3.8zM319.5 463.2c.1.3.4.4.8.7l-.7 2.4c-.8-.1-1.5-.3-2.1-.6-.6-.3-1-.8-1.3-1.5-.6.7-1.1 1.3-1.8 1.7-.7.4-1.5.6-2.5.6-1.5 0-2.7-.4-3.5-1.3s-1.3-2-1.3-3.4c0-1.5.6-2.8 1.7-3.7s2.8-1.3 5.1-1.3h1.8v-.8c0-1-.3-1.7-.7-2s-1.1-.6-2.1-.6c-1.1 0-2.4.3-3.9.8l-.8-2.4c1.8-.7 3.7-1.1 5.3-1.1 3.8 0 5.8 1.7 5.8 5.1v6.2c-.1.5.1.9.2 1.2zm-3.8-1.4v-3h-1.5c-2.4 0-3.5.8-3.5 2.5 0 .7.1 1.3.6 1.7.4.4.8.6 1.5.6 1.2 0 2.2-.5 2.9-1.8zM335.4 451v14.9h-3.7v-12.1H328l-.4 3.9c-.1 2.1-.4 3.7-.7 4.8-.3 1.1-.7 1.8-1.3 2.4-.6.6-1.5 1-2.8 1.4l-.8-2.7c.6-.3 1.1-.6 1.4-.8.3-.3.4-.8.6-1.5s.3-2 .4-3.7l.6-6.5h10.4v-.1zM352.1 465.9h-3.5V460c0-1.1 0-2.1.1-3.1s.1-1.7.3-2.1l-5.5 11.2h-3.8v-14.9h3.5v5.9c0 1 0 2.1-.1 3.1s-.3 1.7-.3 2.1l5.5-11.2h3.9v14.9h-.1zM367.6 451v14.9h-3.7V460c-.6.4-1.3.8-2 1.1-.7.3-1.5.4-2.4.4-1.4 0-2.5-.4-3.2-1.1-.7-.8-1.1-1.8-1.1-3.4v-6h3.7v5.6c0 .8.1 1.4.4 1.7.3.3.8.6 1.4.6s1.1-.1 1.7-.3c.6-.3 1-.6 1.4-.8v-6.6h3.8v-.2zM380.5 465.9v-6.2h-5.1v6.2h-3.7V451h3.7v5.9h5.1V451h3.7v14.9h-3.7zM398.4 457c1.1.8 1.5 2.1 1.5 3.8 0 1.7-.6 3-1.7 3.8s-2.7 1.3-4.4 1.3h-5.3V451h3.7v4.6h1.1c2.3.2 4 .6 5.1 1.4zm-2.1 3.7c0-.8-.3-1.5-.7-2-.4-.4-1.3-.7-2.2-.7h-1.1v5.2h1.4c1.6.2 2.6-.7 2.6-2.5zm5.3-9.7h3.7v14.9h-3.7V451zM421.7 459.6h-9.3c.1 1.4.4 2.5 1.1 3.1.7.6 1.5 1 2.5 1 .7 0 1.3-.1 1.8-.3.6-.3 1.3-.6 1.8-1l1.5 2.1c-1.7 1.3-3.5 2-5.5 2-2.3 0-4.1-.7-5.2-2.1-1.3-1.4-1.8-3.2-1.8-5.6 0-1.5.3-2.8.8-4.1.6-1.3 1.3-2.1 2.2-2.8 1-.7 2.1-1 3.5-1 2.1 0 3.7.7 4.8 2 1.1 1.3 1.7 3.1 1.7 5.5.1-.1.1.3.1 1.2zm-3.5-2.6c0-2.7-1-3.9-3-3.9-.8 0-1.5.3-2.1 1-.6.7-.8 1.7-.8 3.1h5.9v-.2z"/></g><g><path class="st6" d="M478.5 446.9v19H475v-15.3l-4.2 2.5-1.5-2.4 6.2-3.8h3zM491.1 447.3c.8.4 1.5 1 2.1 1.7.4.7.7 1.5.7 2.4 0 1.1-.3 2.1-1 2.8s-1.5 1.3-2.7 1.5c1.3.1 2.3.6 3.1 1.4.8.8 1.3 1.8 1.3 3.2 0 1.1-.3 2.1-.8 3-.6.8-1.4 1.5-2.4 2.1-1 .6-2.3.7-3.7.7-2.5 0-4.6-.8-6.2-2.7l2-2c.7.7 1.3 1.1 1.8 1.4s1.3.4 2.1.4c1 0 1.8-.3 2.4-.8.6-.6 1-1.4 1-2.2 0-1.1-.3-1.8-.8-2.4-.6-.4-1.4-.7-2.5-.7H486l.4-2.5h1c1 0 1.7-.3 2.2-.7.6-.6.8-1.3.8-2.1 0-.7-.3-1.4-.7-1.8-.6-.4-1.1-.7-2-.7-.7 0-1.4.1-2 .4-.6.3-1.3.7-1.8 1.3l-1.8-2c1.7-1.5 3.7-2.4 5.9-2.4 1 0 2.1.2 3.1.7z"/></g><g><path class="st6" d="M628.9 465.9h-3.7v-8.3c0-2.4.1-4.8.6-7.3l-6.6 15.6h-4.6v-19.4h3.7v8.3c0 1.5 0 2.8-.1 3.9-.1 1-.3 2.1-.4 3.4l6.8-15.6h4.5v19.4zM645.6 461.4c0 1.5-.6 2.7-1.7 3.4s-2.8 1.1-4.8 1.1h-5.9v-14.8c2-.4 3.8-.6 5.5-.6 2 0 3.5.3 4.5 1 1.1.7 1.7 1.7 1.7 3 0 .8-.3 1.5-.8 2.1-.6.6-1.3.8-2.2 1.1 2.4.3 3.7 1.6 3.7 3.7zm-8.7-8.2v3.8h2.1c1.5 0 2.4-.7 2.4-2s-.8-2-2.7-2c-.5.1-1.1.1-1.8.2zm5.1 7.9c0-.7-.3-1.3-.7-1.5-.4-.3-1.1-.4-2.1-.4H637v4.4h2.2c1.8-.2 2.8-.9 2.8-2.5zM660 463.2c.1.3.4.4.8.7l-.7 2.4c-.8-.1-1.5-.3-2.1-.6-.6-.3-1-.8-1.3-1.5-.6.7-1.1 1.3-1.8 1.7-.7.4-1.5.6-2.5.6-1.5 0-2.7-.4-3.5-1.3-.8-.8-1.3-2-1.3-3.4 0-1.5.6-2.8 1.7-3.7s2.8-1.3 5.1-1.3h1.8v-.8c0-1-.3-1.7-.7-2-.4-.4-1.1-.6-2.1-.6-1.1 0-2.4.3-3.9.8l-.8-2.4c1.8-.7 3.7-1.1 5.3-1.1 3.8 0 5.8 1.7 5.8 5.1v6.2c0 .5 0 .9.2 1.2zm-3.8-1.4v-3h-1.5c-2.4 0-3.5.8-3.5 2.5 0 .7.1 1.3.6 1.7.4.4.8.6 1.5.6 1.3 0 2.2-.5 2.9-1.8zM672.8 465.9v-6.2h-5.1v6.2H664V451h3.7v5.9h5.1V451h3.7v14.9h-3.7z"/></g><path class="st6" d="M78.3 603.4c1 .4 1.7 1.1 2.1 2s.7 1.7.7 2.7c0 1.1-.3 2.1-.7 3.1s-1.3 2.1-2.2 3.2c-1.1 1.3-2.7 2.8-4.6 4.8h8l-.4 2.8H69.3v-2.7c2.4-2.4 4.1-4.2 5.2-5.5 1-1.1 1.8-2.1 2.2-3 .4-.8.7-1.7.7-2.7 0-.8-.3-1.5-.7-2-.6-.4-1.1-.7-2-.7-.7 0-1.4.1-2 .4s-1.1.8-1.7 1.5l-2.2-1.7c1.5-2.1 3.7-3.1 6.2-3.1 1.4.2 2.3.5 3.3.9z"/><g><path class="st6" d="M133.3 603.3c1.3.8 2.2 2 3 3.5s1 3.4 1 5.5-.3 3.9-1 5.5-1.7 2.7-3 3.5-2.8 1.3-4.5 1.3c-1.7 0-3.2-.4-4.5-1.1-1.3-.8-2.2-2-3-3.5s-1-3.4-1-5.5.3-3.9 1-5.5 1.7-2.7 3-3.5c1.3-.8 2.8-1.3 4.5-1.3 1.7 0 3.2.4 4.5 1.1zm-7.9 3.4c-.8 1.1-1.1 3-1.1 5.5 0 4.9 1.5 7.3 4.6 7.3 1.5 0 2.7-.6 3.4-1.7.8-1.1 1.1-3 1.1-5.6 0-2.5-.4-4.4-1.1-5.5-.8-1.1-2-1.7-3.4-1.7s-2.8.5-3.5 1.7zM149.2 622v-12.1h-4.9V622h-3.7v-14.9h12.1V622h-3.5zM168.9 607.1V622h-3.7v-12.1h-3.5l-.4 3.9c-.1 2.1-.4 3.7-.7 4.8-.3 1-.7 1.8-1.3 2.4-.6.6-1.5 1-2.8 1.4l-.8-2.7c.6-.3 1.1-.6 1.4-.8.3-.3.4-.8.6-1.5s.3-2 .4-3.7l.6-6.5H169v-.1zM184.5 619.3c.1.3.4.4.8.7l-.7 2.4c-.8-.1-1.5-.3-2.1-.6-.6-.3-1-.8-1.3-1.5-.6.7-1.1 1.3-1.8 1.7-.7.4-1.5.6-2.5.6-1.5 0-2.7-.4-3.5-1.3-.8-.8-1.3-2-1.3-3.4 0-1.5.6-2.8 1.7-3.7 1.1-.8 2.8-1.3 5.1-1.3h1.8v-.8c0-1-.3-1.7-.7-2-.4-.3-1.1-.6-2.1-.6-1.1 0-2.4.3-3.9.8l-.8-2.4c1.8-.7 3.7-1.1 5.3-1.1 3.8 0 5.8 1.7 5.8 5.1v6.2c-.1.5.1.9.2 1.2zm-3.8-1.4v-3h-1.5c-2.4 0-3.5.8-3.5 2.5 0 .7.1 1.3.6 1.7.4.4.8.6 1.5.6 1.2 0 2.2-.5 2.9-1.8zM199.8 607.1V622h-3.7v-5.9c-.6.4-1.1.8-2 1.1-.8.3-1.5.4-2.4.4-1.4 0-2.5-.4-3.2-1.1-.7-.8-1.1-1.8-1.1-3.4v-6h3.7v5.6c0 .8.1 1.4.4 1.7.3.3.8.6 1.4.6.6 0 1.1-.1 1.7-.3.6-.3 1-.6 1.4-.8v-6.6h3.8v-.2zM216.3 615.7H207c.1 1.4.4 2.5 1.1 3.1s1.5 1 2.5 1c.7 0 1.3-.1 1.8-.3.6-.1 1.3-.6 1.8-1l1.5 2.1c-1.7 1.3-3.5 2-5.5 2-2.3 0-4.1-.7-5.2-2.1-1.3-1.4-1.8-3.2-1.8-5.6 0-1.5.3-2.8.8-4.1.6-1.3 1.3-2.1 2.2-2.8 1-.7 2.1-1 3.5-1 2.1 0 3.7.7 4.8 2 1.1 1.3 1.7 3.1 1.7 5.5.1-.1.1.3.1 1.2zm-3.5-2.6c0-2.7-1-3.9-3-3.9-.8 0-1.5.3-2.1 1-.6.7-.8 1.7-.8 3.1h5.9v-.2zM228.2 622v-6.2h-5.1v6.2h-3.7v-14.9h3.7v5.9h5.1v-5.9h3.7V622h-3.7z"/></g><g><path class="st6" d="M300.1 622v-8.7h-6.9v8.7h-3.7v-19.4h3.7v7.7h6.9v-7.7h3.8V622h-3.8zM319.5 619.3c.1.3.4.4.8.7l-.7 2.4c-.8-.1-1.5-.3-2.1-.6-.6-.3-1-.8-1.3-1.5-.6.7-1.1 1.3-1.8 1.7-.7.4-1.5.6-2.5.6-1.5 0-2.7-.4-3.5-1.3-.8-.8-1.3-2-1.3-3.4 0-1.5.6-2.8 1.7-3.7 1.1-.8 2.8-1.3 5.1-1.3h1.8v-.8c0-1-.3-1.7-.7-2-.4-.4-1.1-.6-2.1-.6-1.1 0-2.4.3-3.9.8l-.8-2.4c1.8-.7 3.7-1.1 5.3-1.1 3.8 0 5.8 1.7 5.8 5.1v6.2c-.1.5.1.9.2 1.2zm-3.8-1.4v-3h-1.5c-2.4 0-3.5.8-3.5 2.5 0 .7.1 1.3.6 1.7.4.4.8.6 1.5.6 1.2 0 2.2-.5 2.9-1.8zM335.4 607.1V622h-3.7v-12.1H328l-.4 3.9c-.1 2.1-.4 3.7-.7 4.8-.3 1-.7 1.8-1.3 2.4-.6.6-1.5 1-2.8 1.4l-.8-2.7c.6-.3 1.1-.6 1.4-.8s.4-.8.6-1.5.3-2 .4-3.7l.6-6.5h10.4v-.1zM352.1 622h-3.5v-5.9c0-1.1 0-2.1.1-3.1s.1-1.7.3-2.2l-5.5 11.2h-3.8v-14.9h3.5v5.9c0 1 0 2.1-.1 3.1s-.3 1.7-.3 2.1l5.5-11.2h3.9v15h-.1zM367.6 607.1V622h-3.7v-5.9c-.6.4-1.1.8-2 1.1-.8.3-1.5.4-2.4.4-1.4 0-2.5-.4-3.2-1.1-.7-.8-1.1-1.8-1.1-3.4v-6h3.7v5.6c0 .8.1 1.4.4 1.7.3.3.8.6 1.4.6s1.1-.1 1.7-.3c.6-.3 1-.6 1.4-.8v-6.6h3.8v-.2zM380.5 622v-6.2h-5.1v6.2h-3.7v-14.9h3.7v5.9h5.1v-5.9h3.7V622h-3.7zM398.4 613.1c1.1.8 1.5 2.1 1.5 3.8 0 1.7-.6 3-1.7 3.8-1.1.8-2.7 1.3-4.4 1.3h-5.3v-14.9h3.7v4.6h1.1c2.3.2 4 .6 5.1 1.4zm-2.1 3.7c0-.8-.3-1.5-.7-2-.4-.4-1.3-.7-2.2-.7h-1.1v5.2h1.4c1.6.2 2.6-.7 2.6-2.5zm5.3-9.7h3.7V622h-3.7v-14.9zM421.7 615.7h-9.3c.1 1.4.4 2.5 1.1 3.1s1.5 1 2.5 1c.7 0 1.3-.1 1.8-.3.6-.1 1.3-.6 1.8-1l1.5 2.1c-1.7 1.3-3.5 2-5.5 2-2.3 0-4.1-.7-5.2-2.1-1.3-1.4-1.8-3.2-1.8-5.6 0-1.5.3-2.8.8-4.1s1.3-2.1 2.2-2.8c1-.7 2.1-1 3.5-1 2.1 0 3.7.7 4.8 2s1.7 3.1 1.7 5.5c.1-.1.1.3.1 1.2zm-3.5-2.6c0-2.7-1-3.9-3-3.9-.8 0-1.5.3-2.1 1-.6.7-.8 1.7-.8 3.1h5.9v-.2z"/></g><path class="st6" d="M494.3 616.9c0 1-.3 2-.8 2.8-.6.8-1.4 1.5-2.5 2-1.1.4-2.2.7-3.7.7s-2.5-.3-3.7-.7c-1-.4-1.8-1.1-2.4-2-.6-.8-.8-1.7-.8-2.8 0-2.1 1.3-3.8 3.7-4.8-1.8-1-2.8-2.5-2.8-4.5 0-1 .3-1.8.8-2.7.6-.7 1.3-1.4 2.3-1.7 1-.4 2-.6 3.1-.6s2.3.1 3.1.6 1.7 1 2.2 1.7.8 1.5.8 2.7c0 1.8-1 3.2-3.1 4.2 2.5 1.2 3.8 2.9 3.8 5.1zm-4.5 2c.6-.6.8-1.3.8-2.1s-.3-1.5-.7-2.1c-.6-.6-1.4-1-2.7-1.4l-.8-.3c-1.5.8-2.3 2.1-2.3 3.8 0 .8.3 1.5.8 2.1.6.6 1.4.8 2.4.8 1.1 0 1.9-.2 2.5-.8zm-4.4-12.9c-.4.4-.7 1-.7 1.8 0 .7.3 1.4.7 1.8.4.4 1.1.8 2.1 1.1l.6.1c.7-.4 1.3-1 1.5-1.4.3-.6.4-1.1.4-1.8s-.3-1.4-.7-1.8c-.4-.4-1.1-.7-2-.7-.7.1-1.4.3-1.9.9z"/><g><path class="st6" d="M628.9 622h-3.7v-8.3c0-2.4.1-4.8.6-7.3l-6.6 15.6h-4.6v-19.4h3.7v8.3c0 1.5 0 2.8-.1 3.9s-.3 2.1-.4 3.4l6.8-15.6h4.5V622zM645.6 617.5c0 1.5-.6 2.7-1.7 3.4s-2.8 1.1-4.8 1.1h-5.9v-14.8c2-.4 3.8-.6 5.5-.6 2 0 3.5.3 4.5 1 1.1.7 1.7 1.7 1.7 3 0 .8-.3 1.5-.8 2.1s-1.3.8-2.2 1.1c2.4.3 3.7 1.6 3.7 3.7zm-8.7-8.2v3.8h2.1c1.5 0 2.4-.7 2.4-2s-.8-2-2.7-2c-.5.1-1.1.1-1.8.2zm5.1 7.9c0-.7-.3-1.3-.7-1.5-.4-.3-1.1-.4-2.1-.4H637v4.4h2.2c1.8-.2 2.8-.9 2.8-2.5zM660 619.3c.1.3.4.4.8.7l-.7 2.4c-.8-.1-1.5-.3-2.1-.6-.6-.3-1-.8-1.3-1.5-.6.7-1.1 1.3-1.8 1.7-.7.4-1.5.6-2.5.6-1.5 0-2.7-.4-3.5-1.3-.8-.8-1.3-2-1.3-3.4 0-1.5.6-2.8 1.7-3.7 1.1-.8 2.8-1.3 5.1-1.3h1.8v-.8c0-1-.3-1.7-.7-2-.4-.4-1.1-.6-2.1-.6-1.1 0-2.4.3-3.9.8l-.8-2.4c1.8-.7 3.7-1.1 5.3-1.1 3.8 0 5.8 1.7 5.8 5.1v6.2c0 .5 0 .9.2 1.2zm-3.8-1.4v-3h-1.5c-2.4 0-3.5.8-3.5 2.5 0 .7.1 1.3.6 1.7.4.4.8.6 1.5.6 1.3 0 2.2-.5 2.9-1.8zM672.8 622v-6.2h-5.1v6.2H664v-14.9h3.7v5.9h5.1v-5.9h3.7V622h-3.7z"/></g><path class="st6" d="M79.9 759.1v19h-3.5v-15.3l-4.2 2.5-1.5-2.4 6.2-3.8h3z"/><g><path class="st6" d="M133.3 759.4c1.3.8 2.2 2 3 3.5s1 3.4 1 5.5-.3 3.9-1 5.5c-.7 1.5-1.7 2.7-3 3.5-1.3.8-2.8 1.3-4.5 1.3-1.7 0-3.2-.4-4.5-1.1-1.3-.8-2.2-2-3-3.5s-1-3.4-1-5.5.3-3.9 1-5.5c.7-1.5 1.7-2.7 3-3.5 1.3-.8 2.8-1.3 4.5-1.3 1.7-.1 3.2.4 4.5 1.1zm-7.9 3.4c-.8 1.1-1.1 3-1.1 5.5 0 4.9 1.5 7.3 4.6 7.3 1.5 0 2.7-.6 3.4-1.7.8-1.1 1.1-3 1.1-5.6 0-2.5-.4-4.4-1.1-5.5-.8-1.1-2-1.7-3.4-1.7s-2.8.5-3.5 1.7zM149.2 778.1V766h-4.9v12.1h-3.7v-14.9h12.1v14.9h-3.5zM168.9 763.2v14.9h-3.7V766h-3.5l-.4 3.9c-.1 2.1-.4 3.7-.7 4.8-.3 1-.7 1.8-1.3 2.4-.6.6-1.5 1-2.8 1.4l-.8-2.7c.6-.3 1.1-.6 1.4-.8.3-.3.4-.8.6-1.5s.3-2 .4-3.7l.6-6.5H169v-.1zM184.5 775.4c.1.3.4.4.8.7l-.7 2.4c-.8-.1-1.5-.3-2.1-.6-.6-.3-1-.8-1.3-1.5-.6.7-1.1 1.3-1.8 1.7s-1.5.6-2.5.6c-1.5 0-2.7-.4-3.5-1.3-.8-.8-1.3-2-1.3-3.4 0-1.5.6-2.8 1.7-3.7 1.1-.8 2.8-1.3 5.1-1.3h1.8v-.8c0-1-.3-1.7-.7-2-.4-.3-1.1-.6-2.1-.6-1.1 0-2.4.3-3.9.8l-.8-2.4c1.8-.7 3.7-1.1 5.3-1.1 3.8 0 5.8 1.7 5.8 5.1v6.2c-.1.5.1.9.2 1.2zm-3.8-1.4v-3h-1.5c-2.4 0-3.5.8-3.5 2.5 0 .7.1 1.3.6 1.7.4.4.8.6 1.5.6 1.2 0 2.2-.5 2.9-1.8zM199.8 763.2v14.9h-3.7v-5.9c-.6.4-1.1.8-2 1.1-.8.3-1.5.4-2.4.4-1.4 0-2.5-.4-3.2-1.1-.7-.8-1.1-1.8-1.1-3.4v-6h3.7v5.6c0 .8.1 1.4.4 1.7s.8.6 1.4.6c.6 0 1.1-.1 1.7-.3.6-.3 1-.6 1.4-.8v-6.6h3.8v-.2zM216.3 771.8H207c.1 1.4.4 2.5 1.1 3.1s1.5 1 2.5 1c.7 0 1.3-.1 1.8-.3.6-.1 1.3-.6 1.8-1l1.5 2.1c-1.7 1.3-3.5 2-5.5 2-2.3 0-4.1-.7-5.2-2.1-1.3-1.4-1.8-3.2-1.8-5.6 0-1.5.3-2.8.8-4.1.6-1.3 1.3-2.1 2.2-2.8 1-.7 2.1-1 3.5-1 2.1 0 3.7.7 4.8 2 1.1 1.3 1.7 3.1 1.7 5.5.1-.1.1.3.1 1.2zm-3.5-2.6c0-2.7-1-3.9-3-3.9-.8 0-1.5.3-2.1 1-.6.7-.8 1.7-.8 3.1h5.9v-.2zM228.2 778.1v-6.2h-5.1v6.2h-3.7v-14.9h3.7v5.9h5.1v-5.9h3.7v14.9h-3.7z"/></g><g><path class="st6" d="M300.1 778.1v-8.7h-6.9v8.7h-3.7v-19.4h3.7v7.7h6.9v-7.7h3.8v19.4h-3.8zM319.5 775.4c.1.3.4.4.8.7l-.7 2.4c-.8-.1-1.5-.3-2.1-.6-.6-.3-1-.8-1.3-1.5-.6.7-1.1 1.3-1.8 1.7s-1.5.6-2.5.6c-1.5 0-2.7-.4-3.5-1.3-.8-.8-1.3-2-1.3-3.4 0-1.5.6-2.8 1.7-3.7 1.1-.8 2.8-1.3 5.1-1.3h1.8v-.8c0-1-.3-1.7-.7-2-.4-.4-1.1-.6-2.1-.6-1.1 0-2.4.3-3.9.8l-.8-2.4c1.8-.7 3.7-1.1 5.3-1.1 3.8 0 5.8 1.7 5.8 5.1v6.2c-.1.5.1.9.2 1.2zm-3.8-1.4v-3h-1.5c-2.4 0-3.5.8-3.5 2.5 0 .7.1 1.3.6 1.7.4.4.8.6 1.5.6 1.2 0 2.2-.5 2.9-1.8zM335.4 763.2v14.9h-3.7V766H328l-.4 3.9c-.1 2.1-.4 3.7-.7 4.8-.3 1-.7 1.8-1.3 2.4-.6.6-1.5 1-2.8 1.4l-.8-2.7c.6-.3 1.1-.6 1.4-.8s.4-.8.6-1.5.3-2 .4-3.7l.6-6.5h10.4v-.1zM352.1 778.1h-3.5v-5.9c0-1.1 0-2.1.1-3.1s.1-1.7.3-2.2l-5.5 11.2h-3.8v-14.9h3.5v5.9c0 1 0 2.1-.1 3.1s-.3 1.7-.3 2.1l5.5-11.2h3.9v15h-.1zM367.6 763.2v14.9h-3.7v-5.9c-.6.4-1.1.8-2 1.1-.8.3-1.5.4-2.4.4-1.4 0-2.5-.4-3.2-1.1-.7-.8-1.1-1.8-1.1-3.4v-6h3.7v5.6c0 .8.1 1.4.4 1.7s.8.6 1.4.6 1.1-.1 1.7-.3c.6-.3 1-.6 1.4-.8v-6.6h3.8v-.2zM380.5 778.1v-6.2h-5.1v6.2h-3.7v-14.9h3.7v5.9h5.1v-5.9h3.7v14.9h-3.7zM398.4 769.2c1.1.8 1.5 2.1 1.5 3.8 0 1.7-.6 3-1.7 3.8-1.1.8-2.7 1.3-4.4 1.3h-5.3v-14.9h3.7v4.6h1.1c2.3.2 4 .6 5.1 1.4zm-2.1 3.7c0-.8-.3-1.5-.7-2-.4-.4-1.3-.7-2.2-.7h-1.1v5.2h1.4c1.6.1 2.6-.7 2.6-2.5zm5.3-9.7h3.7v14.9h-3.7v-14.9zM421.7 771.8h-9.3c.1 1.4.4 2.5 1.1 3.1s1.5 1 2.5 1c.7 0 1.3-.1 1.8-.3.6-.1 1.3-.6 1.8-1l1.5 2.1c-1.7 1.3-3.5 2-5.5 2-2.3 0-4.1-.7-5.2-2.1-1.3-1.4-1.8-3.2-1.8-5.6 0-1.5.3-2.8.8-4.1.6-1.3 1.3-2.1 2.2-2.8 1-.7 2.1-1 3.5-1 2.1 0 3.7.7 4.8 2s1.7 3.1 1.7 5.5c.1-.1.1.3.1 1.2zm-3.5-2.6c0-2.7-1-3.9-3-3.9-.8 0-1.5.3-2.1 1-.6.7-.8 1.7-.8 3.1h5.9v-.2z"/></g><path class="st6" d="M491.1 759.5c1 .4 1.7 1.1 2.1 2 .4.8.7 1.7.7 2.7 0 1.1-.3 2.1-.7 3.1-.4 1-1.3 2.1-2.3 3.2-1.1 1.3-2.7 2.8-4.6 4.8h8.2l-.4 2.8h-11.8v-2.7c2.4-2.4 4.1-4.2 5.2-5.5 1-1.1 1.8-2.1 2.2-3 .4-.8.7-1.7.7-2.7 0-.8-.3-1.5-.7-2-.6-.4-1.1-.7-2-.7-.7 0-1.4.1-2 .4-.6.3-1.1.8-1.7 1.5l-2.2-1.7c1.5-2.1 3.7-3.1 6.2-3.1 1.1.2 2.1.5 3.1.9z"/><g><path class="st6" d="M627.2 778.1l-1.3-4.5h-6.5l-1.3 4.5h-3.7l6-19.4h4.6l6 19.4h-3.8zm-6.9-7.3h4.9l-2.5-9.3-2.4 9.3zM645 763.2v14.9h-3.7V766h-3.7l-.4 3.9c-.1 2.1-.4 3.7-.7 4.8-.3 1-.7 1.8-1.3 2.4-.6.6-1.5 1-2.8 1.4l-.8-2.7c.6-.3 1.1-.6 1.4-.8.3-.3.4-.8.6-1.5s.3-2 .4-3.7l.6-6.5H645v-.1zM661.5 771.8h-9.3c.1 1.4.4 2.5 1.1 3.1s1.5 1 2.5 1c.7 0 1.3-.1 1.8-.3s1.3-.6 1.8-1l1.5 2.1c-1.7 1.3-3.5 2-5.5 2-2.2 0-4.1-.7-5.2-2.1-1.3-1.4-1.8-3.2-1.8-5.6 0-1.5.3-2.8.8-4.1.6-1.3 1.3-2.1 2.2-2.8s2.1-1 3.5-1c2.1 0 3.7.7 4.8 2s1.7 3.1 1.7 5.5c.1-.1.1.3.1 1.2zm-8.2-15.2c.4.4.6.8.6 1.4s-.1 1-.6 1.4-.8.6-1.4.6-1-.1-1.4-.6-.6-.8-.6-1.4.1-1 .6-1.4.8-.6 1.4-.6 1 .1 1.4.6zm4.7 12.6c0-2.7-1-3.9-3-3.9-.8 0-1.5.3-2.1 1s-.8 1.7-.8 3.1h5.9v-.2zm1.5-12.6c.4.4.6.8.6 1.4s-.1 1-.6 1.4-.8.6-1.4.6-1-.1-1.4-.6c-.4-.4-.6-.8-.6-1.4s.1-1 .6-1.4.8-.6 1.4-.6 1 .1 1.4.6zM673.5 778.1v-6.2h-5.1v6.2h-3.7v-14.9h3.7v5.9h5.1v-5.9h3.7v14.9h-3.7zM692.6 775.4c.1.3.4.4.8.7l-.7 2.4c-.8-.1-1.5-.3-2.1-.6-.6-.3-1-.8-1.3-1.5-.6.7-1.1 1.3-1.8 1.7s-1.5.6-2.5.6c-1.5 0-2.7-.4-3.5-1.3-.8-.8-1.3-2-1.3-3.4 0-1.5.6-2.8 1.7-3.7 1.1-.8 2.8-1.3 5.1-1.3h1.8v-.8c0-1-.3-1.7-.7-2-.4-.4-1.1-.6-2.1-.6-1.1 0-2.4.3-3.9.8l-.8-2.4c1.8-.7 3.7-1.1 5.3-1.1 3.8 0 5.8 1.7 5.8 5.1v6.2c-.1.5 0 .9.2 1.2zm-3.8-1.4v-3h-1.5c-2.4 0-3.5.8-3.5 2.5 0 .7.1 1.3.6 1.7.4.4.8.6 1.5.6 1.2 0 2.2-.5 2.9-1.8z"/></g></svg>