<svg id="Layer_1" xmlns="http://www.w3.org/2000/svg" viewBox="0 0 1440 1080"><style>.st0{fill:#3d3323}.st1{fill:#fff}.st2{fill:#e6a144}.st3{fill:#c84c44}.st4{fill:#988771}.st5{fill:#f1ede7}.st6{fill:#f1eeec}.st7{opacity:.1;enable-background:new}.st8{fill:#000105}.st9{fill:#201600}.st10{fill:#eeebe7}.st11{fill:#dbd5cc}.st12{fill:#56ac62}.st13{fill:#4b7cbd}.st14{fill:#abc4e0}.st15{fill:#8eb95b}.st16{fill:#cac2b7}.st17{fill:#cdd8e0}.st18{fill:#8c99a3}.st19{fill:#bbc8cf}.st20{fill:#d25143}</style><path class="st0" d="M0 0h1440v54.8H0z"/><path class="st1" d="M84.7 16.1c-7.3 0-11.3 5.1-11.3 11.3s3.9 11.3 11.3 11.3c7.6 0 11.3-5.1 11.3-11.3s-4-11.3-11.3-11.3zm0 18.2c-4 0-6.2-3-6.2-6.9s2.1-6.9 6.2-6.9 6.2 3 6.2 6.9-2.2 6.9-6.2 6.9zM70.3 23.9c0-5.5-3-7.4-9.8-7.4h-9.8v21.8h5.1v-6.6h4.4l5.1 6.6h5.9L65.4 31c3.2-1.1 4.9-3.3 4.9-7.1zm-10.6 3.4h-4v-6.2H60c2.9 0 5.1-.1 5.1 3 .1 3.2-2.5 3.2-5.4 3.2zM151.6 16.5h-4.1l-8.9 21.8h5.1l1.7-4.1h8.7l1.7 4.1h5.1l-9.3-21.8zm-4.7 13.6l2.6-6.5 2.6 6.5h-5.2zM109.8 25.2c-4-1-5.1-1.5-5.1-2.9 0-1.1 1.1-1.9 3-1.9 4.3 0 6.9 1.4 6.9 1.4l1.9-4s-2.9-1.7-8.8-1.7c-4.8 0-8.3 2.6-8.3 6.6 0 4.4 3 5.6 7.7 6.7 3.9 1 4.7 1.5 4.7 2.8 0 1.4-1.2 2.2-3.4 2.2-4.3 0-8-1.9-8-1.9l-1.8 4.1s3.3 2.1 9.6 2.1c5.1 0 8.5-2.5 8.5-6.9.5-3.9-2.2-5.4-6.9-6.6zM139.2 20.9l2-4.4h-19.9l-2.2 4.4h8.3v17.4h5.1V20.9z"/><path class="st2" d="M45.5 20.9v-4.4h-11l-1 4.4z"/><path class="st1" d="M38.7 33.7l-.9 4.6h7.7v-4.6z"/><path class="st3" d="M27.9 29.6h17.6v-4.4H28.8z"/><g><path class="st4" d="M1385.2 32.5V21.3c0-2 1.6-3.6 3.6-3.6h12.6v1.9c0 .6.6.9 1.1.6l5.9-3.4c.5-.3.5-1.1 0-1.4l-5.9-3.4c-.5-.3-1.1 0-1.1.6v1.9h-12.6c-3.7 0-6.7 2.9-6.7 6.7v11.2c0 .9.6 1.6 1.6 1.6s1.5-.7 1.5-1.5zM1409.7 20.9c-.9 0-1.6.6-1.6 1.6v11.2c0 2-1.6 3.6-3.6 3.6h-12.6v-2c0-.6-.6-.9-1.1-.6l-5.9 3.4c-.5.3-.5 1.1 0 1.4l5.9 3.4c.5.3 1.1 0 1.1-.6v-1.9h12.6c3.7 0 6.7-2.9 6.7-6.7V22.4c.1-.9-.5-1.5-1.5-1.5z"/></g><g><path class="st5" d="M1226.8 16.5v7.7h-1.1v-6.8h-3.2v6.8h-1.1v-7.7h5.4zM1233.1 19c.5.6.7 1.3.7 2.3 0 .6-.1 1.2-.3 1.6-.2.5-.5.8-.9 1.1-.4.3-.9.4-1.4.4-.8 0-1.5-.3-1.9-.8-.5-.6-.7-1.3-.7-2.3 0-.6.1-1.2.3-1.6.2-.5.5-.8.9-1.1.4-.3.9-.4 1.4-.4.8-.1 1.5.2 1.9.8zm-3.5 2.2c0 1.5.5 2.3 1.5 2.3s1.5-.8 1.5-2.3c0-1.5-.5-2.3-1.5-2.3-.9.1-1.5.8-1.5 2.3zM1238.6 18.3c.3.1.6.3.8.5l-.5.7c-.2-.1-.4-.3-.6-.3-.2-.1-.4-.1-.7-.1-.5 0-.9.2-1.1.6-.3.4-.4.9-.4 1.7 0 .7.1 1.3.4 1.7s.6.5 1.1.5c.2 0 .4 0 .6-.1.2-.1.4-.2.7-.3l.5.7c-.5.4-1.1.7-1.8.7-.8 0-1.4-.3-1.9-.8s-.7-1.3-.7-2.2c0-.6.1-1.2.3-1.7.2-.5.5-.8.9-1.1.4-.3.8-.4 1.4-.4.4-.3.8-.2 1-.1zM1245.2 18.3v5.9h-1v-5.1h-1.8l-.2 2c-.1.8-.2 1.4-.3 1.8-.1.4-.3.7-.5.9-.2.2-.5.4-1 .5l-.3-.8c.3-.1.4-.2.5-.3.1-.1.2-.4.2-.7.1-.3.1-.8.2-1.5l.2-2.7h4zM1251.8 21.6h-3.8c0 .7.2 1.1.5 1.4.3.3.7.5 1.1.5.3 0 .5 0 .8-.1.2-.1.5-.2.8-.4l.4.6c-.6.5-1.3.7-2.1.7s-1.5-.3-1.9-.8c-.5-.5-.7-1.3-.7-2.2 0-.6.1-1.2.3-1.6.2-.5.5-.8.9-1.1.4-.3.8-.4 1.3-.4.8 0 1.4.3 1.8.8.4.5.6 1.2.6 2.1v.5zm-1-.8c0-.6-.1-1-.3-1.3-.2-.3-.6-.5-1-.5-.8 0-1.3.6-1.4 1.9l2.7-.1zM1258.1 23.4v2.5h-.8l-.2-1.7h-3.8l-.2 1.7h-.8v-2.5h.4c.2-.1.3-.3.4-.4.1-.2.2-.4.3-.8.1-.4.2-.9.2-1.7l.2-2.2h3.7v5.1h.6zm-1.6-4.3h-1.7l-.1 1.2c-.1.7-.1 1.2-.2 1.6-.1.4-.2.7-.3.9-.1.2-.3.4-.5.6h2.8v-4.3zM1263.1 24.2v-2.6h-2.5v2.6h-1v-5.9h1v2.5h2.5v-2.5h1v5.9h-1zM1270.4 18.3v5.9h-1v-2.3h-1.3l-1.2 2.3h-1.2l1.4-2.5c-.7-.3-1-.9-1-1.6 0-.6.2-1 .6-1.3.4-.3 1-.5 1.8-.5h1.9zm-1.1 2.8V19h-1c-.4 0-.7.1-1 .2-.2.2-.3.4-.3.8s.1.6.3.8c.2.2.5.2 1 .2h1zM1276.6 18.3v5.9h-1v-2.3h-1.3l-1.2 2.3h-1.2l1.4-2.5c-.7-.3-1-.9-1-1.6 0-.6.2-1 .6-1.3.4-.3 1-.5 1.8-.5h1.9zm-1.1 2.8V19h-1c-.4 0-.7.1-1 .2-.2.2-.3.4-.3.8s.1.6.3.8c.2.2.5.2 1 .2h1zM1284.8 18.3c.3.1.6.3.8.5l-.5.7c-.2-.1-.4-.3-.6-.3-.2-.1-.4-.1-.7-.1-.5 0-.9.2-1.1.6-.3.4-.4.9-.4 1.7 0 .7.1 1.3.4 1.7s.6.5 1.1.5c.2 0 .4 0 .6-.1.2-.1.4-.2.7-.3l.5.7c-.5.4-1.1.7-1.8.7-.8 0-1.4-.3-1.9-.8s-.7-1.3-.7-2.2c0-.6.1-1.2.3-1.7.2-.5.5-.8.9-1.1.4-.3.8-.4 1.4-.4.4-.3.7-.2 1-.1zM1291.7 24.2h-1v-2.7-1.3c0-.4.1-.7.1-.8l-2.5 4.8h-1.2v-5.9h1V22.2c0 .4-.1.7-.1.8l2.4-4.7h1.2v5.9zM1297.3 24.2v-2.6h-2.5v2.6h-1v-5.9h1v2.5h2.5v-2.5h1v5.9h-1zM1302.7 21l2.1 3.2h-1.2l-1.4-2.5-1.5 2.5h-1.2l2.1-3.1-1.8-2.8h1.2l1.2 2.2 1.2-2.2h1.2l-1.9 2.7zM1310.3 19c.4.5.5 1.3.5 2.3 0 .9-.2 1.7-.6 2.2-.4.6-1 .9-1.7.9s-1.2-.2-1.6-.7v2.8l-1 .1v-8.3h.9l.1.8c.2-.3.5-.5.8-.7s.6-.2 1-.2c.7-.1 1.2.2 1.6.8zm-.6 2.2c0-1.5-.4-2.3-1.3-2.3-.3 0-.6.1-.8.3s-.4.4-.6.7v2.9c.2.2.3.4.6.5.2.1.5.2.7.2.9 0 1.4-.8 1.4-2.3zM1316.7 19c.5.6.7 1.3.7 2.3 0 .6-.1 1.2-.3 1.6-.2.5-.5.8-.9 1.1-.4.3-.9.4-1.4.4-.8 0-1.5-.3-1.9-.8-.5-.6-.7-1.3-.7-2.3 0-.6.1-1.2.3-1.6.2-.5.5-.8.9-1.1.4-.3.9-.4 1.4-.4.8-.1 1.5.2 1.9.8zm-3.4 2.2c0 1.5.5 2.3 1.5 2.3s1.5-.8 1.5-2.3c0-1.5-.5-2.3-1.5-2.3-1 .1-1.5.8-1.5 2.3zM1322.6 24.2v-2.6h-2.5v2.6h-1v-5.9h1v2.5h2.5v-2.5h1v5.9h-1zM1330.4 24.2h-1v-2.7-1.3c0-.4.1-.7.1-.8l-2.5 4.8h-1.2v-5.9h1V22.2c0 .4-.1.7-.1.8l2.4-4.7h1.2v5.9zM1335.1 18.3c.3.1.6.3.8.5.2.2.3.5.3.9 0 .3-.1.6-.3.8s-.5.4-.9.5c.5.1.9.2 1.1.5.3.2.4.5.4 1 0 .6-.2 1.1-.7 1.4-.5.3-1.1.5-1.8.5-.9 0-1.7-.2-2.3-.7l.5-.6c.3.2.5.3.8.4.3.1.6.1.9.1 1 0 1.4-.4 1.4-1.1 0-.3-.1-.6-.4-.7-.3-.1-.7-.2-1.1-.2h-.8l.1-.8h.6c.4 0 .8-.1 1-.2.3-.1.4-.4.4-.7 0-.3-.1-.5-.3-.6-.2-.1-.5-.2-.9-.2-.3 0-.6 0-.8.1-.2.1-.5.2-.7.4l-.5-.6c.3-.2.6-.4 1-.5.3-.1.7-.2 1.2-.2.3-.2.6-.1 1 0zM1342.2 23.4c.1.1.2.2.4.3l-.2.7c-.3 0-.6-.1-.7-.3-.2-.1-.3-.3-.4-.6-.4.6-1 .9-1.8.9-.6 0-1-.2-1.4-.5-.3-.3-.5-.8-.5-1.3 0-.6.2-1.1.7-1.4.5-.3 1.1-.5 1.9-.5h.9v-.4c0-.4-.1-.7-.3-.9-.2-.2-.5-.3-.9-.3s-1 .1-1.6.3l-.3-.8c.7-.3 1.4-.4 2-.4.7 0 1.2.2 1.6.5.3.3.5.8.5 1.5v2.7c-.1.2 0 .3.1.5zm-1.2-.8v-1.4h-.8c-1.1 0-1.6.4-1.6 1.2 0 .4.1.6.3.8.2.2.4.3.8.3.5.1 1-.2 1.3-.9zM1348.6 23.4h.9v2.5h-.8l-.2-1.7h-4.3v-5.9h1v5.1h2.4v-5.1h1v5.1zM1355.3 24.2h-1v-2.7-1.3c0-.4.1-.7.1-.8l-2.5 4.8h-1.2v-5.9h1V22.2c0 .4-.1.7-.1.8l2.4-4.7h1.2v5.9zM1361.5 18.3v5.9h-1v-2.3h-1.3l-1.2 2.3h-1.2l1.4-2.5c-.7-.3-1-.9-1-1.6 0-.6.2-1 .6-1.3.4-.3 1-.5 1.8-.5h1.9zm-1 2.8V19h-1c-.4 0-.7.1-1 .2-.2.2-.3.4-.3.8s.1.6.3.8c.2.2.5.2 1 .2h1zM1364.5 18.9c.1.1.2.3.2.6 0 .2-.1.4-.2.6-.2.2-.3.2-.6.2-.2 0-.4-.1-.6-.2-.1-.2-.2-.3-.2-.6 0-.2.1-.4.2-.6.2-.1.3-.2.6-.2.3-.1.5 0 .6.2zm0 4.1c.1.1.2.3.2.6s-.1.4-.2.6c-.2.2-.3.2-.6.2-.2 0-.4-.1-.6-.2-.1-.2-.2-.3-.2-.6s.1-.4.2-.6c.2-.1.3-.2.6-.2s.5.1.6.2zM1263.7 30.3c.4.2.7.4.8.8.2.3.3.7.3 1.1 0 .4-.1.8-.3 1.2-.2.4-.5.8-.9 1.3s-1.1 1.1-1.9 1.9h3.2l-.2 1.1h-4.7v-1.1c1-1 1.6-1.7 2.1-2.2.4-.5.7-.9.9-1.2.2-.3.3-.7.3-1 0-.3-.1-.6-.3-.8-.2-.2-.5-.3-.8-.3-.3 0-.5.1-.8.2-.2.1-.5.3-.7.6l-.9-.7c.6-.8 1.5-1.2 2.4-1.2.7 0 1.2.1 1.5.3zM1270.3 32.9c.3.2.6.5.8.8.2.4.3.8.3 1.3s-.1 1-.3 1.4c-.2.4-.5.7-.9 1-.4.2-.8.4-1.3.4-.9 0-1.6-.3-2.1-1-.4-.7-.7-1.5-.7-2.7 0-.8.1-1.6.4-2.2.3-.6.6-1.1 1.1-1.5s1-.5 1.6-.5c.6 0 1.2.2 1.7.5l-.5.9c-.3-.2-.7-.3-1.1-.3-.5 0-.9.2-1.2.6-.3.4-.5 1-.5 1.8.5-.6 1-.8 1.7-.8.3.1.6.2 1 .3zm-.7 3.4c.2-.3.3-.7.3-1.2s-.1-.9-.3-1.1c-.2-.2-.4-.3-.8-.3-.3 0-.5.1-.7.2-.2.1-.4.3-.6.6 0 .8.1 1.4.3 1.8s.5.5.9.5.7-.2.9-.5zM1280.3 37.7h-1.4v-2.4c0-.4 0-.8.1-1.2s.1-.7.1-.9l-2.2 4.5h-1.5v-5.9h1.4v2.4c0 .4 0 .8-.1 1.2s-.1.7-.1.9l2.2-4.5h1.6v5.9zM1288.4 32c.4.3.7.6.9 1.1.2.5.3 1 .3 1.7 0 .6-.1 1.1-.3 1.6-.2.5-.5.9-.9 1.1-.4.3-.9.4-1.4.4-.7 0-1.3-.2-1.8-.7-.5-.5-.7-1.1-.8-1.9h-.9v2.5h-1.4v-5.9h1.4v2.4h.9c.1-.8.4-1.4.8-1.9s1-.7 1.8-.7c.5-.1 1 0 1.4.3zm-.5 4.3c.2-.3.3-.9.3-1.5 0-1.4-.4-2-1.2-2-.4 0-.7.2-.9.5-.2.3-.3.8-.3 1.5 0 1.4.4 2.1 1.2 2.1.4-.1.7-.3.9-.6zM1295.6 31.7v5.9h-1.4v-4.9h-1.4l-.1 1.6c-.1.8-.2 1.5-.3 1.9-.1.4-.3.7-.5 1-.2.2-.6.4-1.1.5l-.4-1.1c.2-.1.4-.2.5-.4.1-.1.2-.3.2-.6s.1-.8.2-1.4l.2-2.6h4.1zM1301.8 31.7v5.9h-1.4v-2.2h-1l-1.2 2.2h-1.6l1.4-2.5c-.3-.2-.6-.4-.7-.6-.2-.3-.3-.6-.3-.9 0-.6.2-1.1.7-1.4.4-.3 1.1-.5 1.9-.5h2.2zm-1.4 2.9v-1.9h-.7c-.7 0-1.1.3-1.1.9 0 .3.1.6.3.7.2.2.4.2.8.2h.7zM1309.4 30.3c.4.2.7.4.8.8.2.3.3.7.3 1.1 0 .4-.1.8-.3 1.2-.2.4-.5.8-.9 1.3s-1.1 1.1-1.9 1.9h3.2l-.2 1.1h-4.7v-1.1c1-1 1.6-1.7 2.1-2.2.4-.5.7-.9.9-1.2.2-.3.3-.7.3-1 0-.3-.1-.6-.3-.8-.2-.2-.5-.3-.8-.3-.3 0-.5.1-.8.2-.2.1-.5.3-.7.6l-.9-.7c.6-.8 1.5-1.2 2.4-1.2.7 0 1.1.1 1.5.3zM1316.4 31c.5.7.7 1.6.7 2.9 0 1.3-.2 2.2-.7 2.9-.5.7-1.1 1-2 1-.9 0-1.6-.3-2-1-.5-.7-.7-1.7-.7-2.9 0-1.3.2-2.2.7-2.9.5-.7 1.1-1 2-1 .9 0 1.5.3 2 1zm-2.9.7c-.2.4-.3 1.2-.3 2.2 0 1 .1 1.8.3 2.2.2.4.5.7.9.7s.7-.2.9-.6c.2-.4.3-1.2.3-2.2 0-1-.1-1.8-.3-2.2-.2-.4-.5-.6-.9-.6s-.8.1-.9.5zM1321.3 30.1v7.6h-1.4v-6.1l-1.7 1-.6-1 2.5-1.5h1.2zM1328.4 35.7c0 .4-.1.8-.3 1.1-.2.3-.6.6-1 .8-.4.2-.9.3-1.5.3s-1-.1-1.4-.3c-.4-.2-.7-.5-1-.8-.2-.3-.3-.7-.3-1.1 0-.9.5-1.5 1.4-1.9-.8-.4-1.1-1-1.1-1.8 0-.4.1-.7.3-1.1.2-.3.5-.5.9-.7.4-.2.8-.2 1.2-.2.5 0 .9.1 1.2.2.4.1.7.4.9.7.2.3.3.6.3 1 0 .7-.4 1.3-1.2 1.7 1.1.5 1.6 1.2 1.6 2.1zm-1.8.8c.2-.2.3-.5.3-.8 0-.3-.1-.6-.3-.8-.2-.2-.6-.4-1.1-.6l-.3-.1c-.6.3-.9.8-.9 1.5 0 .4.1.6.4.8.2.2.6.3 1 .3.3 0 .6-.1.9-.3zm-1.8-5.2c-.2.2-.3.4-.3.7 0 .3.1.5.3.7s.5.3.9.5l.2.1c.3-.2.5-.4.6-.6.1-.2.2-.4.2-.7 0-.3-.1-.5-.3-.7s-.5-.3-.8-.3c-.3 0-.6.1-.8.3zM1337.4 35.9c0 .6-.2 1.1-.7 1.4s-1.1.4-1.9.4h-2.3v-5.9c.8-.2 1.5-.2 2.2-.2.8 0 1.4.1 1.8.4.4.3.7.7.7 1.2 0 .3-.1.6-.3.8-.2.2-.5.4-.9.4.9.2 1.4.6 1.4 1.5zm-3.5-3.3v1.5h.9c.6 0 .9-.3.9-.8s-.4-.8-1.1-.8c-.2.1-.4.1-.7.1zm2 3.2c0-.3-.1-.5-.3-.6-.2-.1-.5-.2-.9-.2h-.9v1.7h.9c.8 0 1.2-.3 1.2-.9zM1344.7 30.1v7.6h-1.4v-6.1l-1.7 1-.6-1 2.5-1.5h1.2zM1350.5 32.9c.3.2.6.5.8.8.2.4.3.8.3 1.3s-.1 1-.3 1.4c-.2.4-.5.7-.9 1-.4.2-.8.4-1.3.4-.9 0-1.6-.3-2.1-1-.4-.7-.7-1.5-.7-2.7 0-.8.1-1.6.4-2.2.3-.6.6-1.1 1.1-1.5.5-.3 1-.5 1.6-.5.6 0 1.2.2 1.7.5l-.5.9c-.3-.2-.7-.3-1.1-.3-.5 0-.9.2-1.2.6-.3.4-.5 1-.5 1.8.5-.6 1-.8 1.7-.8.3.1.7.2 1 .3zm-.7 3.4c.2-.3.3-.7.3-1.2s-.1-.9-.3-1.1c-.2-.2-.4-.3-.8-.3-.3 0-.5.1-.7.2-.2.1-.4.3-.6.6 0 .8.1 1.4.3 1.8.2.4.5.5.9.5.5 0 .7-.2.9-.5zM1353.9 32.3c.2.2.3.4.3.6 0 .2-.1.5-.3.6s-.4.3-.7.3c-.2 0-.5-.1-.6-.3-.2-.2-.3-.4-.3-.6 0-.3.1-.5.3-.6.2-.2.4-.3.6-.3.3 0 .5.1.7.3zm0 4c.2.2.3.4.3.6 0 .2-.1.5-.3.6s-.4.3-.7.3c-.2 0-.5-.1-.6-.3-.2-.2-.3-.4-.3-.6 0-.3.1-.5.3-.6.2-.2.4-.3.6-.3.3 0 .5.1.7.3zM1358.7 30.3c.4.2.6.4.8.7.2.3.3.6.3 1 0 .5-.1.8-.4 1.1-.3.3-.6.5-1.1.6.5 0 .9.2 1.2.5.3.3.5.7.5 1.3 0 .4-.1.8-.3 1.2s-.5.6-.9.8c-.4.2-.9.3-1.5.3-1 0-1.9-.4-2.4-1.1l.8-.8c.3.3.5.4.8.6.2.1.5.2.8.2.4 0 .7-.1 1-.3.2-.2.4-.5.4-.9s-.1-.7-.3-.9c-.2-.2-.6-.3-1-.3h-.6l.2-1h.4c.4 0 .7-.1.9-.3.2-.2.3-.5.3-.8 0-.3-.1-.5-.3-.7-.2-.2-.5-.3-.8-.3-.3 0-.6.1-.8.2-.2.1-.5.3-.7.5l-1-.9c.7-.6 1.5-1 2.4-1 .5 0 .9.1 1.3.3zM1364.2 30.1v7.6h-1.4v-6.1l-1.7 1-.6-1 2.5-1.5h1.2z"/></g><g><path class="st5" d="M198.2 21.4c.5.2 1 .5 1.6.9l-1.1 1.3c-.7-.6-1.4-.8-2.2-.8-.9 0-1.6.3-2.1 1s-.8 1.8-.8 3.3c0 1.5.3 2.5.8 3.3.5.7 1.2 1.1 2.1 1.1.5 0 .9-.1 1.2-.2.4-.2.7-.4 1.1-.7l1 1.3c-.4.4-.9.7-1.5 1-.6.3-1.3.4-2 .4-1 0-1.9-.2-2.7-.7s-1.4-1.2-1.8-2.1c-.4-.9-.6-2-.6-3.3 0-1.3.2-2.4.7-3.3s1.1-1.6 1.8-2.1c.8-.5 1.6-.7 2.6-.7.7 0 1.3.1 1.9.3zM206.3 33v-7.3h-3V33h-2.2v-9h7.3v9h-2.1zM218.1 25c.5.8.8 2 .8 3.5 0 .9-.1 1.7-.4 2.5-.3.7-.7 1.3-1.2 1.7-.5.4-1.2.6-1.9.6-.9 0-1.7-.3-2.2-1v4.2l-2.2.2V24h1.9l.1 1.1c.3-.4.7-.8 1.2-1 .4-.2.9-.3 1.4-.3 1.2 0 2 .4 2.5 1.2zm-1.4 3.5c0-1.1-.1-1.9-.4-2.4-.3-.5-.7-.7-1.3-.7-.4 0-.7.1-1 .3-.3.2-.6.5-.8.9v4c.4.6 1 .9 1.6.9 1.3.1 1.9-1 1.9-3zM227.6 31.4c.1.2.3.3.5.4l-.5 1.4c-.5 0-.9-.2-1.2-.4-.3-.2-.6-.5-.7-.9-.3.4-.7.8-1.1 1-.5.2-1 .3-1.5.3-.9 0-1.6-.3-2.1-.8s-.8-1.2-.8-2c0-1 .4-1.7 1.1-2.2.7-.5 1.7-.8 3-.8h1.1V27c0-.6-.1-1-.4-1.2-.3-.2-.7-.3-1.3-.3-.7 0-1.4.2-2.4.5l-.5-1.5c1.1-.4 2.2-.6 3.2-.6 2.3 0 3.4 1 3.4 3.1v3.7c.1.2.1.5.2.7zm-2.2-.9v-1.8h-.9c-1.4 0-2.1.5-2.1 1.6 0 .4.1.8.3 1 .2.2.5.4.9.4.8-.1 1.3-.4 1.8-1.2zM237.5 30.2c0 .9-.4 1.6-1.1 2.1-.7.4-1.6.7-2.8.7h-3.5v-8.8c1.2-.2 2.3-.4 3.3-.4 1.2 0 2.1.2 2.7.6.7.4 1 1 1 1.8 0 .5-.2.9-.5 1.2-.3.3-.8.5-1.4.6 1.6.3 2.3 1 2.3 2.2zm-5.2-4.9v2.3h1.3c.9 0 1.4-.4 1.4-1.2 0-.8-.5-1.1-1.6-1.1h-1.1zm3 4.8c0-.4-.1-.7-.4-.9-.3-.2-.7-.3-1.3-.3h-1.3v2.6h1.3c1.1 0 1.7-.5 1.7-1.4zM246.2 25c.7.8 1.1 2 1.1 3.4 0 .9-.2 1.8-.5 2.5s-.8 1.3-1.4 1.7c-.6.4-1.4.6-2.2.6-1.3 0-2.3-.4-3.1-1.3-.7-.8-1.1-2-1.1-3.5 0-.9.2-1.8.5-2.5s.8-1.3 1.5-1.7c.6-.4 1.4-.6 2.3-.6 1.1.2 2.1.6 2.9 1.4zm-5.1 3.5c0 1.1.2 1.8.5 2.3s.8.8 1.4.8c.6 0 1.1-.3 1.4-.8.3-.5.5-1.3.5-2.3 0-1-.2-1.8-.5-2.3s-.8-.8-1.4-.8c-1.2 0-1.9 1-1.9 3.1zM256 24v9h-2.2v-3.5c-.3.3-.7.5-1.2.7s-.9.2-1.4.2c-.9 0-1.5-.2-1.9-.7-.4-.5-.6-1.1-.6-2V24h2.2v3.3c0 .5.1.8.3 1 .2.2.5.3.9.3.3 0 .7-.1 1-.2.3-.1.6-.3.8-.5V24h2.1zM263.7 33v-3.7h-3V33h-2.2v-9h2.2v3.6h3V24h2.2v9h-2.2zM275.9 33h-2.1v-3.6c0-.7 0-1.3.1-1.8.1-.6.1-1 .2-1.3l-3.3 6.7h-2.3v-9h2.1v3.6c0 .6 0 1.2-.1 1.8-.1.6-.1 1-.2 1.3l3.3-6.7h2.3v9zM285.9 24l-2.5 4.1 2.8 4.8h-2.4l-2.2-4h-1v4h-2.2V24h2.2v3.5h1l2.1-3.5h2.2zM295 33h-2.1v-3.6c0-.7 0-1.3.1-1.8.1-.6.1-1 .2-1.3l-3.3 6.7h-2.3v-9h2.1v3.6c0 .6 0 1.2-.1 1.8-.1.6-.1 1-.2 1.3l3.3-6.7h2.3v9zM334.2 31.2v4.4h-1.6l-.3-2.7h-6.4l-.3 2.7H324v-4.4h.8c.3-.3.5-.6.6-1.1s.3-1 .4-1.8c.1-.8.3-1.9.5-3.5l.4-3.5h6.4v9.9h1.1zm-3.1-8.2h-2.3l-.2 1.7c-.2 1.5-.3 2.6-.5 3.4-.2.8-.3 1.4-.6 1.9s-.5.9-.9 1.2h4.4V23zM342.7 25c.7.8 1.1 2 1.1 3.4 0 .9-.2 1.8-.5 2.5s-.8 1.3-1.4 1.7c-.6.4-1.4.6-2.2.6-1.3 0-2.3-.4-3.1-1.3-.7-.8-1.1-2-1.1-3.5 0-.9.2-1.8.5-2.5s.8-1.3 1.5-1.7c.6-.4 1.4-.6 2.3-.6 1.2.2 2.2.6 2.9 1.4zm-5 3.5c0 1.1.2 1.8.5 2.3s.8.8 1.4.8c.6 0 1.1-.3 1.4-.8.3-.5.5-1.3.5-2.3 0-1-.2-1.8-.5-2.3s-.8-.8-1.4-.8c-1.2 0-1.9 1-1.9 3.1zM353.3 24l-2.5 4.1 2.8 4.8h-2.4l-2.2-4h-1v4h-2.2V24h2.2v3.5h1l2.1-3.5h2.2zM359.2 33c-.4 1.1-.9 2-1.6 2.6-.7.6-1.7 1-3 1.1l-.2-1.6c.6-.1 1.1-.2 1.4-.4.4-.2.6-.4.9-.6.2-.3.4-.6.6-1.1h-.7l-2.8-8.9h2.3l1.9 7.5 2-7.5h2.2l-3 8.9zM372.6 33h-2.1l-.3-3.7c0-.5-.1-1.1-.1-1.8v-1.6l-1.7 6h-1.9l-1.6-6c0 .6.1 1.2.1 1.8v1.5l-.2 3.7h-2.1l.8-8.9h2.6l1.4 6 1.6-6h2.6l.9 9zM381.9 29.2h-5.6c.1.9.3 1.5.7 1.9.4.4.9.6 1.5.6.4 0 .8-.1 1.1-.2.3-.1.7-.3 1.1-.6l.9 1.2c-1 .8-2.1 1.2-3.3 1.2-1.4 0-2.4-.4-3.1-1.2-.7-.8-1.1-2-1.1-3.4 0-.9.2-1.7.5-2.5.3-.7.8-1.3 1.4-1.7.6-.4 1.3-.6 2.1-.6 1.2 0 2.2.4 2.9 1.2.7.8 1 1.9 1 3.3-.1 0-.1.3-.1.8zm-2.1-1.5c0-1.6-.6-2.3-1.7-2.3-.5 0-.9.2-1.2.6s-.5 1-.5 1.9h3.5v-.2zM389 33v-3.7h-3V33h-2.2v-9h2.2v3.6h3V24h2.2v9H389zM400.3 24l-.3 1.7h-2.6V33h-2.2v-7.3h-2.8V24h7.9zM407.5 27.6c.6.5 1 1.3 1 2.3 0 1-.3 1.8-1 2.3-.7.5-1.6.8-2.6.8h-3.2v-9h2.2v2.8h.7c1.3.1 2.3.3 2.9.8zm-1.3 2.3c0-.5-.1-.9-.4-1.2-.3-.3-.7-.4-1.4-.4h-.7v3.1h.8c1.2.1 1.7-.5 1.7-1.5zm3.3-5.9h2.2v9h-2.2v-9zM449.4 21.8c.8.5 1.4 1.2 1.8 2.1s.6 2 .6 3.3c0 1.3-.2 2.4-.6 3.3-.4.9-1 1.6-1.8 2.1s-1.7.7-2.7.7c-1 0-2-.2-2.7-.7-.8-.5-1.4-1.2-1.8-2.1-.4-.9-.6-2-.6-3.3 0-1.3.2-2.3.6-3.3.4-.9 1-1.6 1.8-2.1s1.7-.7 2.7-.7c1.1 0 2 .2 2.7.7zm-4.8 2c-.5.7-.7 1.8-.7 3.3 0 2.9.9 4.4 2.8 4.4.9 0 1.6-.3 2-1s.7-1.8.7-3.3c0-1.5-.2-2.6-.7-3.3s-1.1-1-2-1c-.9-.1-1.6.2-2.1.9zM460.4 24l-.3 1.7h-2.6V33h-2.2v-7.3h-2.8V24h7.9zM468.3 24v9h-2.2v-3.5c-.3.3-.7.5-1.2.7s-.9.2-1.4.2c-.9 0-1.5-.2-1.9-.7-.4-.5-.6-1.1-.6-2V24h2.2v3.3c0 .5.1.8.3 1 .2.2.5.3.9.3.3 0 .7-.1 1-.2.3-.1.6-.3.8-.5V24h2.1zM478.2 29.2h-5.6c.1.9.3 1.5.7 1.9.4.4.9.6 1.5.6.4 0 .8-.1 1.1-.2.3-.1.7-.3 1.1-.6l.9 1.2c-1 .8-2.1 1.2-3.3 1.2-1.4 0-2.4-.4-3.1-1.2-.7-.8-1.1-2-1.1-3.4 0-.9.2-1.7.5-2.5.3-.7.8-1.3 1.4-1.7.6-.4 1.3-.6 2.1-.6 1.2 0 2.2.4 2.9 1.2.7.8 1 1.9 1 3.3-.1 0-.1.3-.1.8zm-4.9-9.1c.2.2.3.5.3.8 0 .3-.1.6-.3.8-.2.2-.5.3-.8.3-.3 0-.6-.1-.9-.3-.2-.2-.3-.5-.3-.8 0-.3.1-.6.3-.8s.5-.3.9-.3c.3-.1.6 0 .8.3zm2.8 7.6c0-1.6-.6-2.3-1.7-2.3-.5 0-.9.2-1.2.6s-.5 1-.5 1.9h3.5v-.2zm.9-7.6c.2.2.3.5.3.8 0 .3-.1.6-.3.8-.2.2-.5.3-.8.3-.3 0-.6-.1-.8-.3-.2-.2-.3-.5-.3-.8 0-.3.1-.6.3-.8s.5-.3.8-.3c.3-.1.6 0 .8.3zM486.3 24l-.3 1.7h-2.6V33h-2.2v-7.3h-2.8V24h7.9zM493.5 27.6c.6.5 1 1.3 1 2.3 0 1-.3 1.8-1 2.3-.7.5-1.6.8-2.6.8h-3.2v-9h2.2v2.8h.7c1.2.1 2.2.3 2.9.8zm-1.3 2.3c0-.5-.1-.9-.4-1.2-.3-.3-.7-.4-1.4-.4h-.7v3.1h.8c1.1.1 1.7-.5 1.7-1.5zm3.2-5.9h2.2v9h-2.2v-9zM535.4 21.8c.8.5 1.4 1.2 1.8 2.1s.6 2 .6 3.3c0 1.3-.2 2.4-.6 3.3-.4.9-1 1.6-1.8 2.1s-1.7.7-2.7.7c-1 0-2-.2-2.7-.7-.8-.5-1.4-1.2-1.8-2.1-.4-.9-.6-2-.6-3.3 0-1.3.2-2.3.6-3.3.4-.9 1-1.6 1.8-2.1s1.7-.7 2.7-.7c1 0 1.9.2 2.7.7zm-4.8 2c-.5.7-.7 1.8-.7 3.3 0 2.9.9 4.4 2.8 4.4.9 0 1.6-.3 2-1s.7-1.8.7-3.3c0-1.5-.2-2.6-.7-3.3s-1.1-1-2-1c-.9-.1-1.6.2-2.1.9zM544.9 33v-7.3h-3V33h-2.2v-9h7.3v9h-2.1zM556.9 29.2h-5.6c.1.9.3 1.5.7 1.9.4.4.9.6 1.5.6.4 0 .8-.1 1.1-.2.3-.1.7-.3 1.1-.6l.9 1.2c-1 .8-2.1 1.2-3.3 1.2-1.4 0-2.4-.4-3.1-1.2-.7-.8-1.1-2-1.1-3.4 0-.9.2-1.7.5-2.5.3-.7.8-1.3 1.4-1.7.6-.4 1.3-.6 2.1-.6 1.2 0 2.2.4 2.9 1.2.7.8 1 1.9 1 3.3 0 0-.1.3-.1.8zm-2.1-1.5c0-1.6-.6-2.3-1.7-2.3-.5 0-.9.2-1.2.6s-.5 1-.5 1.9h3.5v-.2zM566 25c.5.8.8 2 .8 3.5 0 .9-.1 1.7-.4 2.5-.3.7-.7 1.3-1.2 1.7-.5.4-1.2.6-1.9.6-.9 0-1.7-.3-2.2-1v4.2l-2.2.2V24h1.9l.1 1.1c.3-.4.7-.8 1.2-1 .4-.2.9-.3 1.4-.3 1.1 0 2 .4 2.5 1.2zm-1.4 3.5c0-1.1-.1-1.9-.4-2.4-.3-.5-.7-.7-1.3-.7-.4 0-.7.1-1 .3-.3.2-.6.5-.8.9v4c.4.6 1 .9 1.6.9 1.2.1 1.9-1 1.9-3zM575.5 31.4c.1.2.3.3.5.4l-.5 1.4c-.5 0-.9-.2-1.2-.4-.3-.2-.6-.5-.7-.9-.3.4-.7.8-1.1 1-.5.2-1 .3-1.5.3-.9 0-1.6-.3-2.1-.8s-.8-1.2-.8-2c0-1 .4-1.7 1.1-2.2.7-.5 1.7-.8 3-.8h1.1V27c0-.6-.1-1-.4-1.2-.3-.2-.7-.3-1.3-.3-.7 0-1.4.2-2.4.5l-.5-1.5c1.1-.4 2.2-.6 3.2-.6 2.3 0 3.4 1 3.4 3.1v3.7c.1.2.1.5.2.7zm-2.3-.9v-1.8h-.9c-1.4 0-2.1.5-2.1 1.6 0 .4.1.8.3 1 .2.2.5.4.9.4.9-.1 1.4-.4 1.8-1.2zM585.2 31.3h1.3v4.3H585l-.3-2.7H578V24h2.2v7.3h2.9V24h2.2v7.3zM595.4 33h-2.1v-3.6c0-.7 0-1.3.1-1.8.1-.6.1-1 .2-1.3l-3.3 6.7H588v-9h2.1v3.6c0 .6 0 1.2-.1 1.8-.1.6-.1 1-.2 1.3L593 24h2.3v9zM605.4 33h-2.1v-3.6c0-.7 0-1.3.1-1.8.1-.6.1-1 .2-1.3l-3.3 6.7H598v-9h2.1v3.6c0 .6 0 1.2-.1 1.8-.1.6-.1 1-.2 1.3L603 24h2.3v9zM642.4 33v-5.2h-4.1V33H636V21.3h2.2V26h4.1v-4.7h2.2V33h-2.1zM654 31.4c.1.2.3.3.5.4l-.5 1.4c-.5 0-.9-.2-1.2-.4-.3-.2-.6-.5-.7-.9-.3.4-.7.8-1.1 1-.5.2-1 .3-1.5.3-.9 0-1.6-.3-2.1-.8s-.8-1.2-.8-2c0-1 .4-1.7 1.1-2.2.7-.5 1.7-.8 3-.8h1.1V27c0-.6-.1-1-.4-1.2-.3-.2-.7-.3-1.3-.3-.7 0-1.4.2-2.4.5l-.5-1.5c1.1-.4 2.2-.6 3.2-.6 2.3 0 3.4 1 3.4 3.1v3.7c.1.2.1.5.2.7zm-2.3-.9v-1.8h-.9c-1.4 0-2.1.5-2.1 1.6 0 .4.1.8.3 1 .2.2.5.4.9.4.8-.1 1.4-.4 1.8-1.2zM661.6 24c.5.2.9.4 1.3.8l-1 1.3c-.3-.2-.6-.4-.9-.5-.3-.1-.6-.2-.9-.2-1.3 0-2 1-2 3.1 0 1 .2 1.8.5 2.2.3.5.8.7 1.5.7.3 0 .6-.1.9-.2s.6-.3.9-.5l1 1.4c-.8.7-1.8 1-2.9 1-.9 0-1.6-.2-2.2-.6-.6-.4-1.1-.9-1.4-1.6-.3-.7-.5-1.5-.5-2.5 0-.9.2-1.8.5-2.5s.8-1.3 1.4-1.7 1.4-.6 2.2-.6c.6.2 1.2.3 1.6.4zM671.1 24l-.3 1.7h-2.6V33H666v-7.3h-2.8V24h7.9zM679.4 25c.5.8.8 2 .8 3.5 0 .9-.1 1.7-.4 2.5-.3.7-.7 1.3-1.2 1.7-.5.4-1.2.6-1.9.6-.9 0-1.7-.3-2.2-1v4.2l-2.2.2V24h1.9l.1 1.1c.3-.4.7-.8 1.2-1 .4-.2.9-.3 1.4-.3 1.2 0 2 .4 2.5 1.2zm-1.4 3.5c0-1.1-.1-1.9-.4-2.4-.3-.5-.7-.7-1.3-.7-.4 0-.7.1-1 .3-.3.2-.6.5-.8.9v4c.4.6 1 .9 1.6.9 1.3.1 1.9-1 1.9-3zM689.1 25c.7.8 1.1 2 1.1 3.4 0 .9-.2 1.8-.5 2.5s-.8 1.3-1.4 1.7c-.6.4-1.4.6-2.2.6-1.3 0-2.3-.4-3.1-1.3-.7-.8-1.1-2-1.1-3.5 0-.9.2-1.8.5-2.5s.8-1.3 1.5-1.7c.6-.4 1.4-.6 2.3-.6 1.1.2 2.2.6 2.9 1.4zm-5 3.5c0 1.1.2 1.8.5 2.3s.8.8 1.4.8c.6 0 1.1-.3 1.4-.8.3-.5.5-1.3.5-2.3 0-1-.2-1.8-.5-2.3s-.8-.8-1.4-.8c-1.3 0-1.9 1-1.9 3.1zM699.7 33h-2.1v-3.6c0-.7 0-1.3.1-1.8.1-.6.1-1 .2-1.3l-3.3 6.7h-2.3v-9h2.1v3.6c0 .6 0 1.2-.1 1.8-.1.6-.1 1-.2 1.3l3.3-6.7h2.3v9zM694 21.6c-.5-.4-.8-1-.8-1.7l1.3-.3c.1.4.3.6.5.8.2.2.6.2.9.2.4 0 .7-.1 1-.2.2-.2.4-.4.5-.8l1.3.3c-.1.7-.3 1.3-.8 1.7-.5.4-1.1.6-1.9.6s-1.5-.2-2-.6zM709.6 24l-2.5 4.1 2.8 4.8h-2.4l-2.2-4h-1v4h-2.2V24h2.2v3.5h1l2.1-3.5h2.2zM718.7 33h-2.1v-3.6c0-.7 0-1.3.1-1.8.1-.6.1-1 .2-1.3l-3.3 6.7h-2.3v-9h2.1v3.6c0 .6 0 1.2-.1 1.8-.1.6-.1 1-.2 1.3l3.3-6.7h2.3v9z"/></g><g><path class="st6" d="M0 55h1440v1025H0z"/><path class="st1" d="M1390.7 1045H49.3c-11.4 0-20.6-9.2-20.6-20.6V149.9h1362c11.4 0 20.6 9.2 20.6 20.6v854c0 11.3-9.2 20.5-20.6 20.5zM256.5 80.9H36.2c-4.1 0-7.5 3.4-7.5 7.5v48.8c0 4.1 3.4 7.5 7.5 7.5h220.3c4.1 0 7.5-3.4 7.5-7.5V88.4c0-4.1-3.3-7.5-7.5-7.5z"/><g class="st7"><path transform="rotate(45.001 241.114 112.823)" class="st8" d="M239.4 102.4h3.4v20.9h-3.4z"/><path transform="rotate(-45.001 241.112 112.829)" class="st8" d="M239.4 102.4h3.4v20.9h-3.4z"/></g><path class="st9" d="M56.6 115.1c-.4 1-.8 1.7-1.2 2.2s-1 1-1.6 1.2c-.6.3-1.4.5-2.3.6l-.3-1.8c.9-.1 1.5-.4 2-.7.4-.3.8-.8 1.1-1.4h-.8l-4.2-9.7h2.6l3.1 8.2 2.8-8.2h2.6l-3.8 9.6zM69.4 115.8c0 1-.4 1.8-1.2 2.3-.8.5-1.9.8-3.2.8h-4v-10c1.4-.3 2.6-.4 3.7-.4 1.3 0 2.3.2 3.1.7.8.5 1.1 1.2 1.1 2 0 .6-.2 1-.5 1.4-.4.4-.9.6-1.6.7 1.7.2 2.6 1.1 2.6 2.5zm-6-5.6v2.6h1.5c1.1 0 1.6-.5 1.6-1.4 0-.9-.6-1.3-1.8-1.3-.4 0-.8.1-1.3.1zm3.5 5.4c0-.5-.1-.8-.4-1-.3-.2-.8-.3-1.5-.3h-1.5v2.9H65c1.2 0 1.9-.5 1.9-1.6zM79.8 114.6h-6.4c.1 1 .3 1.7.8 2.1.4.4 1 .6 1.7.6.4 0 .9-.1 1.3-.2s.8-.4 1.3-.7l1 1.4c-1.1.9-2.4 1.4-3.8 1.4-1.5 0-2.7-.5-3.6-1.4s-1.3-2.2-1.3-3.9c0-1 .2-2 .5-2.8.4-.8.9-1.5 1.6-1.9.7-.5 1.5-.7 2.4-.7 1.4 0 2.5.5 3.3 1.3.8.9 1.2 2.2 1.2 3.8.1.1.1.4 0 1zm-2.3-1.7c0-1.8-.7-2.7-2-2.7-.6 0-1.1.2-1.4.7-.3.4-.5 1.1-.6 2.1h4v-.1zM90.6 117v4.9h-1.8l-.3-3h-6l-.3 3h-1.8V117h.7c.3-.2.5-.4.6-.7.2-.3.3-.7.4-1.3.1-.6.2-1.5.3-2.7l.3-3.6h6.8v8.3h1.1zm-3.4-6.5h-2.3l-.1 1.6c-.1 1.1-.2 2-.3 2.6-.1.6-.3 1.1-.5 1.5-.2.4-.5.6-.9.9h4.2v-6.6zM100.1 109.9c.8 1 1.3 2.3 1.3 3.9 0 1.1-.2 2-.6 2.8s-.9 1.4-1.6 1.9c-.7.4-1.6.7-2.5.7-1.5 0-2.7-.5-3.5-1.4-.8-1-1.3-2.3-1.3-3.9 0-1.1.2-2 .6-2.8.4-.8.9-1.4 1.7-1.9.7-.4 1.6-.7 2.6-.7 1.3 0 2.5.5 3.3 1.4zm-5.7 3.9c0 1.2.2 2.1.5 2.7.4.6.9.9 1.6.9.7 0 1.3-.3 1.6-.9.4-.6.5-1.5.5-2.6s-.2-2.1-.5-2.6-.9-.9-1.6-.9c-1.3-.1-2.1 1.1-2.1 3.4zM114.2 118.9h-2.3l-.3-4.2c-.1-.6-.1-1.3-.1-2v-1.8l-1.9 6.8h-2.1l-1.9-6.8c0 .7.1 1.4.1 2v1.7l-.3 4.2H103l.9-10.1h3l1.6 6.9 1.8-6.9h3l.9 10.2zM124.5 108.8v10.1H122v-8.3h-2.5l-.2 2.7c-.1 1.4-.3 2.5-.5 3.2s-.5 1.3-.9 1.7c-.4.4-1.1.7-1.9.9l-.6-1.8c.4-.2.7-.4.9-.6s.3-.6.4-1.1c.1-.5.2-1.3.3-2.5l.3-4.4h7.2zM135.7 114.6h-6.4c.1 1 .3 1.7.8 2.1.4.4 1 .6 1.7.6.4 0 .9-.1 1.3-.2s.8-.4 1.3-.7l1 1.4c-1.1.9-2.4 1.4-3.8 1.4-1.5 0-2.7-.5-3.6-1.4s-1.3-2.2-1.3-3.9c0-1 .2-2 .5-2.8.4-.8.9-1.5 1.6-1.9.7-.5 1.5-.7 2.4-.7 1.4 0 2.5.5 3.3 1.3.8.9 1.2 2.2 1.2 3.8.1.1.1.4 0 1zm-2.3-1.7c0-1.8-.7-2.7-2-2.7-.6 0-1.1.2-1.4.7-.3.4-.5 1.1-.6 2.1h4v-.1zM143.9 118.9v-4.2h-3.4v4.2H138v-10.1h2.5v4h3.4v-4h2.5v10.1h-2.5zM157.7 118.9h-2.4v-4.1c0-.7 0-1.4.1-2.1.1-.7.1-1.2.2-1.5l-3.8 7.6h-2.6v-10.1h2.4v4.1c0 .7 0 1.4-.1 2.1-.1.7-.1 1.2-.2 1.5l3.7-7.6h2.7v10.1zM168.3 108.8v10.1h-2.5v-3.7h-1.7l-2 3.7h-2.7l2.4-4.2c-.5-.3-.9-.6-1.2-1.1-.3-.5-.4-1-.4-1.6 0-1 .4-1.8 1.1-2.4s1.9-.8 3.3-.8h3.7zm-2.4 4.8v-3.2h-1.2c-1.3 0-1.9.5-1.9 1.6 0 .5.1 1 .4 1.2.3.3.8.4 1.4.4h1.3z"/><path class="st1" d="M500.1 80.9H276c-3.1 0-5.6 2.5-5.6 5.6v68.6l235.3 1.6V86.5c0-3.1-2.5-5.6-5.6-5.6z"/><g class="st7"><path transform="rotate(45.001 482.818 112.82)" class="st8" d="M481.1 102.4h3.4v20.9h-3.4z"/><path transform="rotate(-45.001 482.815 112.832)" class="st8" d="M481.1 102.4h3.4v20.9h-3.4z"/></g><path class="st9" d="M302.4 118.9h-2.5v-5.6c0-1.6.1-3.3.4-5l-4.5 10.6h-3.1v-13.2h2.5v5.7c0 1.1 0 1.9-.1 2.6-.1.7-.2 1.5-.3 2.3l4.6-10.6h3v13.2zM311.3 118.9v-4.2h-3.4v4.2h-2.5v-10.1h2.5v4h3.4v-4h2.5v10.1h-2.5zM325.1 115.8c0 1-.4 1.8-1.2 2.3-.8.5-1.9.8-3.2.8h-4v-10c1.4-.3 2.6-.4 3.7-.4 1.3 0 2.3.2 3.1.7.8.5 1.1 1.2 1.1 2 0 .6-.2 1-.5 1.4-.4.4-.9.6-1.6.7 1.7.2 2.6 1.1 2.6 2.5zm-6-5.6v2.6h1.5c1.1 0 1.6-.5 1.6-1.4 0-.9-.6-1.3-1.8-1.3-.4 0-.8.1-1.3.1zm3.5 5.4c0-.5-.1-.8-.4-1-.3-.2-.8-.3-1.5-.3h-1.5v2.9h1.5c1.2 0 1.9-.5 1.9-1.6zM335.5 114.6h-6.4c.1 1 .3 1.7.8 2.1.4.4 1 .6 1.7.6.4 0 .9-.1 1.3-.2s.8-.4 1.3-.7l1 1.4c-1.1.9-2.4 1.4-3.8 1.4-1.5 0-2.7-.5-3.6-1.4s-1.3-2.2-1.3-3.9c0-1 .2-2 .5-2.8.4-.8.9-1.5 1.6-1.9.7-.5 1.5-.7 2.4-.7 1.4 0 2.5.5 3.3 1.3.8.9 1.2 2.2 1.2 3.8.1.1.1.4 0 1zm-2.3-1.7c0-1.8-.7-2.7-2-2.7-.6 0-1.1.2-1.4.7-.3.4-.5 1.1-.6 2.1h4v-.1zM343.7 118.9v-4.2h-3.4v4.2h-2.5v-10.1h2.5v4h3.4v-4h2.5v10.1h-2.5zM356.5 108.8l-.3 1.9h-3v8.3h-2.5v-8.3h-3.1v-1.9h8.9zM364.8 117.1c.1.2.3.3.6.4l-.5 1.6c-.6-.1-1-.2-1.4-.4-.4-.2-.6-.6-.8-1.1-.3.5-.8.9-1.3 1.1-.5.2-1.1.4-1.7.4-1 0-1.8-.3-2.4-.9-.6-.6-.9-1.3-.9-2.3 0-1.1.4-1.9 1.2-2.5.8-.6 1.9-.9 3.4-.9h1.3v-.6c0-.7-.2-1.1-.4-1.4-.3-.3-.8-.4-1.4-.4-.7 0-1.6.2-2.7.5l-.6-1.7c1.3-.5 2.5-.7 3.7-.7 2.6 0 3.9 1.2 3.9 3.5v4.2c-.1.7-.1 1 0 1.2zm-2.6-.9v-2h-1c-1.6 0-2.4.6-2.4 1.8 0 .5.1.9.4 1.1.2.3.6.4 1.1.4.8-.1 1.5-.5 1.9-1.3zM375.7 109.9c.6.9.9 2.2.9 3.9 0 1-.2 2-.5 2.8-.3.8-.8 1.4-1.4 1.9-.6.5-1.3.7-2.2.7-1.1 0-1.9-.4-2.5-1.1v4.7l-2.5.3v-14.3h2.1l.1 1.2c.4-.5.8-.9 1.4-1.1.5-.3 1-.4 1.6-.4 1.4 0 2.4.4 3 1.4zm-1.6 3.9c0-1.2-.2-2.1-.5-2.7-.3-.5-.8-.8-1.4-.8-.4 0-.8.1-1.1.4-.4.2-.7.6-.9 1v4.6c.5.7 1.1 1.1 1.9 1.1 1.3-.1 2-1.3 2-3.6zM387.5 118.9h-2.4v-4.1c0-.7 0-1.4.1-2.1.1-.7.1-1.2.2-1.5l-3.8 7.6H379v-10.1h2.4v4.1c0 .7 0 1.4-.1 2.1-.1.7-.1 1.2-.2 1.5l3.7-7.6h2.7v10.1zM396 109.2c.7.5 1.1 1.2 1.1 2 0 .6-.2 1-.5 1.4-.4.4-.9.6-1.6.8.9.1 1.6.4 2 .8.4.4.7.9.7 1.7 0 1-.4 1.8-1.3 2.4s-1.9.8-3.3.8c-1.6 0-2.9-.4-4-1.2l1.2-1.4c.4.3.9.5 1.3.6.4.1.9.2 1.4.2 1.4 0 2-.5 2-1.5 0-.9-.7-1.4-2.2-1.4h-1.5l.2-1.7h1.1c.6 0 1.1-.1 1.4-.3.3-.2.5-.6.5-1s-.2-.7-.5-.9-.7-.3-1.2-.3-.9.1-1.3.2-.7.3-1.1.6l-1.1-1.4c.5-.4 1.1-.7 1.7-.9s1.3-.3 2.1-.3c1.3.1 2.2.3 2.9.8zM407.5 117.1c.1.2.3.3.6.4l-.5 1.6c-.6-.1-1-.2-1.4-.4-.4-.2-.6-.6-.8-1.1-.3.5-.8.9-1.3 1.1-.5.2-1.1.4-1.7.4-1 0-1.8-.3-2.4-.9-.6-.6-.9-1.3-.9-2.3 0-1.1.4-1.9 1.2-2.5.8-.6 1.9-.9 3.4-.9h1.3v-.6c0-.7-.2-1.1-.4-1.4-.3-.3-.8-.4-1.4-.4-.7 0-1.6.2-2.7.5l-.6-1.7c1.3-.5 2.5-.7 3.7-.7 2.6 0 3.9 1.2 3.9 3.5v4.2c-.2.7-.2 1 0 1.2zm-2.6-.9v-2h-1c-1.6 0-2.4.6-2.4 1.8 0 .5.1.9.4 1.1.2.3.6.4 1.1.4.7-.1 1.4-.5 1.9-1.3zM418.4 117h1.5v4.9h-1.8l-.3-3h-7.6v-10.1h2.5v8.3h3.3v-8.3h2.5v8.2zM430 118.9h-2.4v-4.1c0-.7 0-1.4.1-2.1.1-.7.1-1.2.2-1.5l-3.8 7.6h-2.6v-10.1h2.4v4.1c0 .7 0 1.4-.1 2.1-.1.7-.1 1.2-.2 1.5l3.7-7.6h2.7v10.1zM440.6 108.8v10.1h-2.5v-3.7h-1.7l-2 3.7h-2.7l2.4-4.2c-.5-.3-.9-.6-1.2-1.1-.3-.5-.4-1-.4-1.6 0-1 .4-1.8 1.1-2.4s1.9-.8 3.3-.8h3.7zm-2.5 4.8v-3.2h-1.2c-1.3 0-1.9.5-1.9 1.6 0 .5.1 1 .4 1.2.3.3.8.4 1.4.4h1.3zM80.8 214.6h-2.4L73 203.4c.1.9.1 1.7.2 2.4 0 .7.1 1.6.1 2.7v6h-1.7v-13.2H74l5.4 11.2c0-.3-.1-.9-.2-1.7-.1-.8-.1-1.6-.1-2.3v-7.2h1.7v13.3zm8.3-12.1c.6.7 1 1.7 1 2.9s-.3 2.2-1 2.9c-.7.7-1.6 1.1-2.7 1.1-1.2 0-2.1-.4-2.7-1.1-.7-.7-1-1.7-1-2.9s.3-2.2 1-2.9 1.6-1.1 2.7-1.1c1.2 0 2.1.4 2.7 1.1zm-6.3 12.1v-1.5H90v1.5h-7.2zm1.7-9.2c0 1.8.6 2.7 1.9 2.7s1.9-.9 1.9-2.7c0-.9-.2-1.6-.5-2-.3-.4-.8-.7-1.4-.7-1.3 0-1.9.9-1.9 2.7zM107.1 213.1v4.4h-1.4l-.3-2.9h-7.6l-.3 2.9H96v-4.4h.9c.3-.3.6-.8.8-1.3.2-.5.3-1.2.5-2s.3-2.4.6-4.6l.5-3.8h6.7v11.7h1.1zm-2.9-10.2h-3.3l-.3 2.4c-.2 2-.4 3.4-.6 4.3-.1.9-.3 1.6-.6 2.2-.2.5-.6 1-1 1.3h5.7v-10.2zM116.8 205.7c.8.9 1.2 2.2 1.2 3.8 0 1-.2 2-.5 2.8-.4.8-.9 1.4-1.6 1.9-.7.4-1.5.7-2.4.7-1.4 0-2.5-.5-3.3-1.4-.8-.9-1.2-2.2-1.2-3.8 0-1 .2-2 .5-2.8.4-.8.9-1.4 1.6-1.9.7-.4 1.5-.7 2.4-.7 1.4 0 2.5.5 3.3 1.4zm-5.9 3.9c0 2.6.9 3.8 2.6 3.8 1.7 0 2.6-1.3 2.6-3.9 0-2.6-.9-3.8-2.6-3.8-1.7 0-2.6 1.3-2.6 3.9zM128.5 204.5l-3.1 4.7 3.4 5.4h-2.1l-2.8-4.7h-1.3v4.7h-1.8v-10.1h1.8v4.1h1.3l2.5-4.1h2.1zM134.9 214.7c-.4 1.2-.9 2.1-1.7 2.8s-1.7 1.1-3 1.2l-.2-1.4c.7-.1 1.2-.3 1.6-.5.4-.2.7-.5.9-.8.2-.3.5-.8.7-1.4h-.6l-3.4-10.1h1.9l2.7 8.8 2.6-8.8h1.8l-3.3 10.2zM150.1 214.6h-1.7l-.5-4.8c-.1-.5-.1-1-.1-1.7v-2l-2.3 7.3h-1.7l-2.1-7.3c0 1.7 0 2.9-.1 3.6l-.4 4.8h-1.7l.9-10.1h2.3l2 7.2 2.2-7.2h2.3l.9 10.2zM160.6 210.2h-6.4c.1 1.1.4 1.9.8 2.5.5.5 1.1.8 1.9.8.5 0 .9-.1 1.3-.2s.8-.4 1.3-.7l.8 1.1c-1.1.8-2.2 1.3-3.5 1.3-1.4 0-2.5-.5-3.3-1.4-.8-.9-1.2-2.2-1.2-3.8 0-1 .2-2 .5-2.8.3-.8.8-1.4 1.5-1.9.6-.5 1.4-.7 2.2-.7 1.3 0 2.4.4 3.1 1.3.7.9 1.1 2.1 1.1 3.7 0 .2-.1.5-.1.8zm-1.7-1.5c0-1-.2-1.8-.6-2.3-.4-.5-1-.8-1.8-.8-1.4 0-2.2 1.1-2.4 3.2h4.7v-.1zM169.4 214.6v-4.4h-4.2v4.4h-1.8v-10.1h1.8v4.2h4.2v-4.2h1.8v10.1h-1.8zM181.6 204.5l-.2 1.4h-3.2v8.7h-1.8v-8.7h-3.3v-1.4h8.5zM189.7 213.2c.1.2.4.3.6.4l-.4 1.2c-.5-.1-.9-.2-1.3-.4-.3-.2-.6-.6-.7-1.1-.7 1-1.7 1.5-3 1.5-1 0-1.8-.3-2.4-.8-.6-.6-.9-1.3-.9-2.2 0-1.1.4-1.9 1.2-2.5.8-.6 1.9-.9 3.3-.9h1.6v-.7c0-.7-.2-1.2-.5-1.5-.3-.3-.9-.5-1.6-.5-.7 0-1.6.2-2.7.5l-.4-1.3c1.3-.5 2.4-.7 3.5-.7 1.2 0 2.1.3 2.7.9.6.6.9 1.4.9 2.5v4.6c-.1.5 0 .8.1 1zm-2-1.3v-2.3h-1.3c-1.9 0-2.8.7-2.8 2.1 0 .6.1 1.1.4 1.4.3.3.7.5 1.3.5 1.1-.1 1.9-.6 2.4-1.7zM79.4 255l-.2 1.6h-3.7v11.6h-1.8v-11.6H70V255h9.4zM87.4 259.3c.8.9 1.2 2.2 1.2 3.8 0 1-.2 2-.5 2.8-.4.8-.9 1.4-1.6 1.9-.7.4-1.5.7-2.4.7-1.4 0-2.5-.5-3.3-1.4-.8-.9-1.2-2.2-1.2-3.8 0-1 .2-2 .5-2.8.4-.8.9-1.4 1.6-1.9.7-.4 1.5-.7 2.4-.7 1.4 0 2.5.5 3.3 1.4zm-5.9 3.9c0 2.6.9 3.8 2.6 3.8 1.7 0 2.6-1.3 2.6-3.9 0-2.6-.9-3.8-2.6-3.8-1.7 0-2.6 1.3-2.6 3.9zM99 259.3c.6.9.9 2.2.9 3.9 0 1.6-.3 2.9-1 3.8-.7 1-1.7 1.5-2.9 1.5-1.1 0-2-.4-2.6-1.1v4.8l-1.8.2v-14.2H93l.1 1.4c.4-.5.8-.9 1.3-1.2.5-.3 1.1-.4 1.6-.4 1.4-.1 2.4.3 3 1.3zm-1 3.8c0-2.6-.8-3.9-2.3-3.9-.5 0-1 .1-1.4.4-.4.3-.8.7-1.1 1.1v4.9c.3.4.6.7 1 .9s.8.3 1.3.3c1.7.2 2.5-1.1 2.5-3.7zM104.6 268.2h-1.8v-10.1h6.3l-.2 1.5h-4.3v8.6zM117.7 259.3c.8.9 1.2 2.2 1.2 3.8 0 1-.2 2-.5 2.8-.4.8-.9 1.4-1.6 1.9-.7.4-1.5.7-2.4.7-1.4 0-2.5-.5-3.3-1.4-.8-.9-1.2-2.2-1.2-3.8 0-1 .2-2 .5-2.8.4-.8.9-1.4 1.6-1.9.7-.4 1.5-.7 2.4-.7 1.4 0 2.5.5 3.3 1.4zm-5.9 3.9c0 2.6.9 3.8 2.6 3.8 1.7 0 2.6-1.3 2.6-3.9 0-2.6-.9-3.8-2.6-3.8-1.7 0-2.6 1.3-2.6 3.9zM129.7 265.1c0 1.1-.4 1.8-1.2 2.3-.8.5-1.8.8-3.1.8h-3.6v-10c1.2-.2 2.3-.4 3.3-.4 1.3 0 2.2.2 3 .7s1.1 1.1 1.1 2c0 .6-.2 1-.5 1.4-.3.4-.9.6-1.5.7 1.6.3 2.5 1.1 2.5 2.5zm-6.1-5.7v2.9h1.9c.6 0 1.1-.1 1.4-.3.3-.2.5-.6.5-1.2 0-.5-.2-.9-.6-1.1-.4-.2-.9-.3-1.7-.3-.5-.2-1-.1-1.5 0zm3.6 7c.4-.3.6-.7.6-1.4 0-.5-.2-.9-.5-1.2-.4-.2-1-.4-1.8-.4h-1.9v3.3h1.9c.7.1 1.3 0 1.7-.3zM139.4 266.8c.1.2.4.3.6.4l-.4 1.2c-.5-.1-.9-.2-1.3-.4-.3-.2-.6-.6-.7-1.1-.7 1-1.7 1.5-3 1.5-1 0-1.8-.3-2.4-.8-.6-.6-.9-1.3-.9-2.2 0-1.1.4-1.9 1.2-2.5.8-.6 1.9-.9 3.3-.9h1.6v-.7c0-.7-.2-1.2-.5-1.5-.3-.3-.9-.5-1.6-.5-.7 0-1.6.2-2.7.5l-.4-1.3c1.3-.5 2.4-.7 3.5-.7 1.2 0 2.1.3 2.7.9.6.6.9 1.4.9 2.5v4.6c-.1.5 0 .8.1 1zm-2-1.3v-2.3h-1.3c-1.9 0-2.8.7-2.8 2.1 0 .6.1 1.1.4 1.4.3.3.7.5 1.3.5 1.1-.1 1.9-.6 2.4-1.7zM149.7 258.1v10.1H148v-3.9h-2.2l-2.1 3.9h-2l2.4-4.3c-1.2-.6-1.8-1.5-1.8-2.7 0-1 .4-1.8 1.1-2.3.7-.5 1.7-.8 3-.8h3.3zM148 263v-3.5h-1.6c-.7 0-1.3.1-1.6.4-.4.3-.5.7-.5 1.3 0 .6.2 1.1.5 1.4.3.3.9.4 1.6.4h1.6zM165.3 258.1l-.2 1.4h-3.2v8.7H160v-8.7h-3.3v-1.4h8.6zM173.7 259.3c.8.9 1.2 2.2 1.2 3.8 0 1-.2 2-.5 2.8-.4.8-.9 1.4-1.6 1.9-.7.4-1.5.7-2.4.7-1.4 0-2.5-.5-3.3-1.4-.8-.9-1.2-2.2-1.2-3.8 0-1 .2-2 .5-2.8.4-.8.9-1.4 1.6-1.9.7-.4 1.5-.7 2.4-.7 1.4 0 2.5.5 3.3 1.4zm-5.9 3.9c0 2.6.9 3.8 2.6 3.8 1.7 0 2.6-1.3 2.6-3.9 0-2.6-.9-3.8-2.6-3.8-1.8 0-2.6 1.3-2.6 3.9zM184.7 258.1v10.1h-1.8V264c-.4.3-.8.6-1.4.8s-1.1.3-1.7.3c-1 0-1.7-.3-2.2-.8-.5-.5-.7-1.3-.7-2.2v-4h1.8v3.8c0 .6.1 1.1.4 1.4s.7.4 1.2.4c.4 0 .9-.1 1.4-.3.5-.2.9-.5 1.2-.8v-4.5h1.8zM195.9 258.1l-3.1 4.7 3.4 5.4h-2.1l-2.8-4.7H190v4.7h-1.8v-10.1h1.8v4.1h1.3l2.5-4.1h2.1zM205 266.8c.1.2.4.3.6.4l-.4 1.2c-.5-.1-.9-.2-1.3-.4-.3-.2-.6-.6-.7-1.1-.7 1-1.7 1.5-3 1.5-1 0-1.8-.3-2.4-.8-.6-.6-.9-1.3-.9-2.2 0-1.1.4-1.9 1.2-2.5.8-.6 1.9-.9 3.3-.9h1.6v-.7c0-.7-.2-1.2-.5-1.5-.3-.3-.9-.5-1.6-.5-.7 0-1.6.2-2.7.5l-.4-1.3c1.3-.5 2.4-.7 3.5-.7 1.2 0 2.1.3 2.7.9.6.6.9 1.4.9 2.5v4.6c-.1.5 0 .8.1 1zm-2-1.3v-2.3h-1.3c-1.9 0-2.8.7-2.8 2.1 0 .6.1 1.1.4 1.4.3.3.7.5 1.3.5 1.1-.1 1.9-.6 2.4-1.7zM80.4 308.6l-3.7 6.2 4 7h-2.1l-3.4-6.2h-1.8v6.2h-1.8v-13.2h1.8v5.5h1.8l3.3-5.5h1.9zM89.6 312.9c.8.9 1.2 2.2 1.2 3.8 0 1-.2 2-.5 2.8-.4.8-.9 1.4-1.6 1.9-.7.4-1.5.7-2.4.7-1.4 0-2.5-.5-3.3-1.4-.8-.9-1.2-2.2-1.2-3.8 0-1 .2-2 .5-2.8.4-.8.9-1.4 1.6-1.9.7-.4 1.5-.7 2.4-.7 1.4 0 2.5.5 3.3 1.4zm-5.9 3.9c0 2.6.9 3.8 2.6 3.8 1.7 0 2.6-1.3 2.6-3.9 0-2.6-.9-3.8-2.6-3.8-1.8 0-2.6 1.3-2.6 3.9zM103.6 321.8h-1.7l-.5-4.8c-.1-.5-.1-1-.1-1.7v-2l-2.3 7.3h-1.7l-2.1-7.3c0 1.7 0 2.9-.1 3.6l-.4 4.8H93l.9-10.1h2.3l2 7.2 2.2-7.2h2.3l.9 10.2zM116.4 321.8h-1.7l-.5-4.8c-.1-.5-.1-1-.1-1.7v-2l-2.3 7.3h-1.7l-2.1-7.3c0 1.7 0 2.9-.1 3.6l-.4 4.8h-1.7l.9-10.1h2.3l2 7.2 2.2-7.2h2.3l.9 10.2zM126.9 317.4h-6.4c.1 1.1.4 1.9.8 2.5.5.5 1.1.8 1.9.8.5 0 .9-.1 1.3-.2s.8-.4 1.3-.7l.8 1.1c-1.1.8-2.2 1.3-3.5 1.3-1.4 0-2.5-.5-3.3-1.4-.8-.9-1.2-2.2-1.2-3.8 0-1 .2-2 .5-2.8.3-.8.8-1.4 1.5-1.9.6-.5 1.4-.7 2.2-.7 1.3 0 2.4.4 3.1 1.3.7.9 1.1 2.1 1.1 3.7 0 .2 0 .5-.1.8zm-1.7-1.5c0-1-.2-1.8-.6-2.3-.4-.5-1-.8-1.8-.8-1.4 0-2.2 1.1-2.4 3.2h4.7v-.1zM135.8 321.8v-4.4h-4.2v4.4h-1.8v-10.1h1.8v4.2h4.2v-4.2h1.8v10.1h-1.8zM148 311.7l-.2 1.4h-3.2v8.7h-1.8v-8.7h-3.3v-1.4h8.5zM156 320.4c.1.2.4.3.6.4l-.4 1.2c-.5-.1-.9-.2-1.3-.4-.3-.2-.6-.6-.7-1.1-.7 1-1.7 1.5-3 1.5-1 0-1.8-.3-2.4-.8-.6-.6-.9-1.3-.9-2.2 0-1.1.4-1.9 1.2-2.5.8-.6 1.9-.9 3.3-.9h1.6v-.7c0-.7-.2-1.2-.5-1.5-.3-.3-.9-.5-1.6-.5-.7 0-1.6.2-2.7.5l-.4-1.3c1.3-.5 2.4-.7 3.5-.7 1.2 0 2.1.3 2.7.9.6.6.9 1.4.9 2.5v4.6c-.1.5 0 .8.1 1zm-1.9-1.3v-2.3h-1.3c-1.9 0-2.8.7-2.8 2.1 0 .6.1 1.1.4 1.4.3.3.7.5 1.3.5 1-.1 1.8-.6 2.4-1.7zM166.9 312.9c.6.9.9 2.2.9 3.9 0 1.6-.3 2.9-1 3.8-.7 1-1.7 1.5-2.9 1.5-1.1 0-2-.4-2.6-1.1v4.8l-1.8.2v-14.2h1.5l.1 1.4c.4-.5.8-.9 1.3-1.2.5-.3 1.1-.4 1.6-.4 1.4-.1 2.3.3 2.9 1.3zm-1 3.9c0-2.6-.8-3.9-2.3-3.9-.5 0-1 .1-1.4.4-.4.3-.8.7-1.1 1.1v4.9c.3.4.6.7 1 .9s.8.3 1.3.3c1.7.1 2.5-1.2 2.5-3.7zM178.7 321.8H177v-4.6c0-.8 0-1.5.1-2.2.1-.7.1-1.1.1-1.4l-4.2 8.1h-2.1v-10.1h1.7v4.6c0 .7 0 1.4-.1 2.1-.1.7-.1 1.2-.1 1.4l4.2-8h2.1v10.1zM190.1 321.8h-1.7v-4.6c0-.8 0-1.5.1-2.2.1-.7.1-1.1.1-1.4l-4.2 8.1h-2.1v-10.1h1.7v4.6c0 .7 0 1.4-.1 2.1-.1.7-.1 1.2-.1 1.4l4.2-8h2.1v10.1zm-5.9-12.9c-.5-.4-.8-.9-.9-1.6l1.2-.2c.1.4.3.7.6.9.3.2.6.3 1.1.3s.8-.1 1.1-.3c.3-.2.5-.5.6-.9l1.2.2c-.1.7-.4 1.2-.9 1.6-.5.4-1.2.6-2 .6s-1.5-.2-2-.6zM80.4 362.2l-3.7 6.2 4 7h-2.1l-3.4-6.2h-1.8v6.2h-1.8v-13.2h1.8v5.5h1.8l3.3-5.5h1.9zM89.6 366.5c.8.9 1.2 2.2 1.2 3.8 0 1-.2 2-.5 2.8-.4.8-.9 1.4-1.6 1.9-.7.4-1.5.7-2.4.7-1.4 0-2.5-.5-3.3-1.4-.8-.9-1.2-2.2-1.2-3.8 0-1 .2-2 .5-2.8.4-.8.9-1.4 1.6-1.9.7-.4 1.5-.7 2.4-.7 1.4 0 2.5.5 3.3 1.4zm-5.9 3.9c0 2.6.9 3.8 2.6 3.8 1.7 0 2.6-1.3 2.6-3.9 0-2.6-.9-3.8-2.6-3.8-1.8 0-2.6 1.3-2.6 3.9zM100.9 365.3v10.1h-1.8v-8.7H96l-.3 3.4c-.1 1.4-.3 2.4-.4 3.1-.2.7-.4 1.2-.8 1.6s-.9.7-1.7.9l-.4-1.4c.4-.2.7-.4.9-.6.2-.2.3-.6.4-1.1.1-.5.2-1.4.3-2.6l.4-4.6h6.5zM111.6 366.5c.8.9 1.2 2.2 1.2 3.8 0 1-.2 2-.5 2.8-.4.8-.9 1.4-1.6 1.9-.7.4-1.5.7-2.4.7-1.4 0-2.5-.5-3.3-1.4-.8-.9-1.2-2.2-1.2-3.8 0-1 .2-2 .5-2.8.4-.8.9-1.4 1.6-1.9.7-.4 1.5-.7 2.4-.7 1.4 0 2.5.5 3.3 1.4zm-5.9 3.9c0 2.6.9 3.8 2.6 3.8 1.7 0 2.6-1.3 2.6-3.9 0-2.6-.9-3.8-2.6-3.8-1.7 0-2.6 1.3-2.6 3.9zM121.6 375.4V371h-4.2v4.4h-1.8v-10.1h1.8v4.2h4.2v-4.2h1.8v10.1h-1.8zM134.6 365.3l-3.1 4.7 3.4 5.4h-2.1l-2.8-4.7h-1.3v4.7H127v-10.1h1.8v4.1h1.3l2.5-4.1h2zM144.8 375.4h-1.7v-4.6c0-.8 0-1.5.1-2.2.1-.7.1-1.1.1-1.4l-4.2 8.1H137v-10.1h1.7v4.6c0 .7 0 1.4-.1 2.1-.1.7-.1 1.2-.1 1.4l4.2-8h2.1v10.1z"/><path class="st10" d="M501.7 186.9c4.1 0 7.4 3.3 7.4 7.4v25.9c0 4.1-3.3 7.4-7.4 7.4H238.2c-4.1 0-7.4-3.3-7.4-7.4v-25.9c0-4.1 3.3-7.4 7.4-7.4h263.5m0-.3H238.2c-4.3 0-7.8 3.5-7.8 7.8v25.9c0 4.3 3.5 7.8 7.8 7.8h263.4c4.3 0 7.8-3.5 7.8-7.8v-25.9c.1-4.3-3.4-7.8-7.7-7.8zM501.7 241.2c4.1 0 7.4 3.3 7.4 7.4v25.9c0 4.1-3.3 7.4-7.4 7.4H238.2c-4.1 0-7.4-3.3-7.4-7.4v-25.9c0-4.1 3.3-7.4 7.4-7.4h263.5m0-.3H238.2c-4.3 0-7.8 3.5-7.8 7.8v25.9c0 4.3 3.5 7.8 7.8 7.8h263.4c4.3 0 7.8-3.5 7.8-7.8v-25.9c.1-4.4-3.4-7.8-7.7-7.8zM501.7 295.4c4.1 0 7.4 3.3 7.4 7.4v25.9c0 4.1-3.3 7.4-7.4 7.4H238.2c-4.1 0-7.4-3.3-7.4-7.4v-25.9c0-4.1 3.3-7.4 7.4-7.4h263.5m0-.3H238.2c-4.3 0-7.8 3.5-7.8 7.8v25.9c0 4.3 3.5 7.8 7.8 7.8h263.4c4.3 0 7.8-3.5 7.8-7.8v-25.9c.1-4.3-3.4-7.8-7.7-7.8z"/><g><path class="st9" d="M252.1 202.9c.8 1.1 1.2 2.8 1.2 5s-.4 3.8-1.2 5c-.8 1.2-1.9 1.7-3.4 1.7s-2.7-.6-3.4-1.7c-.8-1.2-1.2-2.8-1.2-5s.4-3.8 1.2-5c.8-1.1 1.9-1.7 3.4-1.7s2.6.5 3.4 1.7zm-5 1.2c-.3.7-.5 2-.5 3.7 0 1.8.2 3 .5 3.8.3.7.9 1.1 1.6 1.1s1.3-.4 1.6-1.1c.3-.7.5-2 .5-3.8 0-1.8-.2-3-.5-3.7-.3-.7-.9-1.1-1.6-1.1s-1.3.4-1.6 1.1zM263.1 202.9c.8 1.1 1.2 2.8 1.2 5s-.4 3.8-1.2 5c-.8 1.2-1.9 1.7-3.4 1.7s-2.7-.6-3.4-1.7c-.8-1.2-1.2-2.8-1.2-5s.4-3.8 1.2-5c.8-1.1 1.9-1.7 3.4-1.7s2.6.5 3.4 1.7zm-5 1.2c-.3.7-.5 2-.5 3.7 0 1.8.2 3 .5 3.8.3.7.9 1.1 1.6 1.1s1.3-.4 1.6-1.1c.3-.7.5-2 .5-3.8 0-1.8-.2-3-.5-3.7-.3-.7-.9-1.1-1.6-1.1s-1.3.4-1.6 1.1zM274 202.9c.8 1.1 1.2 2.8 1.2 5s-.4 3.8-1.2 5c-.8 1.2-1.9 1.7-3.4 1.7s-2.7-.6-3.4-1.7c-.8-1.2-1.2-2.8-1.2-5s.4-3.8 1.2-5c.8-1.1 1.9-1.7 3.4-1.7s2.7.5 3.4 1.7zm-5 1.2c-.3.7-.5 2-.5 3.7 0 1.8.2 3 .5 3.8.3.7.9 1.1 1.6 1.1s1.3-.4 1.6-1.1c.3-.7.5-2 .5-3.8 0-1.8-.2-3-.5-3.7-.3-.7-.9-1.1-1.6-1.1s-1.2.4-1.6 1.1zM285 202.9c.8 1.1 1.2 2.8 1.2 5s-.4 3.8-1.2 5c-.8 1.2-1.9 1.7-3.4 1.7s-2.7-.6-3.4-1.7c-.8-1.2-1.2-2.8-1.2-5s.4-3.8 1.2-5c.8-1.1 1.9-1.7 3.4-1.7s2.6.5 3.4 1.7zm-5 1.2c-.3.7-.5 2-.5 3.7 0 1.8.2 3 .5 3.8.3.7.9 1.1 1.6 1.1s1.3-.4 1.6-1.1c.3-.7.5-2 .5-3.8 0-1.8-.2-3-.5-3.7-.3-.7-.9-1.1-1.6-1.1s-1.3.4-1.6 1.1zM296 202.9c.8 1.1 1.2 2.8 1.2 5s-.4 3.8-1.2 5c-.8 1.2-1.9 1.7-3.4 1.7s-2.7-.6-3.4-1.7c-.8-1.2-1.2-2.8-1.2-5s.4-3.8 1.2-5c.8-1.1 1.9-1.7 3.4-1.7s2.6.5 3.4 1.7zm-5 1.2c-.3.7-.5 2-.5 3.7 0 1.8.2 3 .5 3.8.3.7.9 1.1 1.6 1.1s1.3-.4 1.6-1.1c.3-.7.5-2 .5-3.8 0-1.8-.2-3-.5-3.7-.3-.7-.9-1.1-1.6-1.1s-1.3.4-1.6 1.1zM307 202.9c.8 1.1 1.2 2.8 1.2 5s-.4 3.8-1.2 5c-.8 1.2-1.9 1.7-3.4 1.7s-2.7-.6-3.4-1.7c-.8-1.2-1.2-2.8-1.2-5s.4-3.8 1.2-5c.8-1.1 1.9-1.7 3.4-1.7s2.6.5 3.4 1.7zm-5.1 1.2c-.3.7-.5 2-.5 3.7 0 1.8.2 3 .5 3.8.3.7.9 1.1 1.6 1.1s1.3-.4 1.6-1.1c.3-.7.5-2 .5-3.8 0-1.8-.2-3-.5-3.7-.3-.7-.9-1.1-1.6-1.1s-1.2.4-1.6 1.1zM317.9 202.9c.8 1.1 1.2 2.8 1.2 5s-.4 3.8-1.2 5c-.8 1.2-1.9 1.7-3.4 1.7s-2.7-.6-3.4-1.7c-.8-1.2-1.2-2.8-1.2-5s.4-3.8 1.2-5c.8-1.1 1.9-1.7 3.4-1.7s2.6.5 3.4 1.7zm-5 1.2c-.3.7-.5 2-.5 3.7 0 1.8.2 3 .5 3.8.3.7.9 1.1 1.6 1.1s1.3-.4 1.6-1.1c.3-.7.5-2 .5-3.8 0-1.8-.2-3-.5-3.7-.3-.7-.9-1.1-1.6-1.1s-1.3.4-1.6 1.1zM328.9 202.9c.8 1.1 1.2 2.8 1.2 5s-.4 3.8-1.2 5c-.8 1.2-1.9 1.7-3.4 1.7s-2.7-.6-3.4-1.7c-.8-1.2-1.2-2.8-1.2-5s.4-3.8 1.2-5c.8-1.1 1.9-1.7 3.4-1.7s2.6.5 3.4 1.7zm-5 1.2c-.3.7-.5 2-.5 3.7 0 1.8.2 3 .5 3.8.3.7.9 1.1 1.6 1.1s1.3-.4 1.6-1.1c.3-.7.5-2 .5-3.8 0-1.8-.2-3-.5-3.7-.3-.7-.9-1.1-1.6-1.1s-1.3.4-1.6 1.1zM337.3 201.4v12.9h-2.4v-10.4l-2.9 1.7-1-1.6 4.2-2.6h2.1zM348 202.9c.8 1.1 1.2 2.8 1.2 5s-.4 3.8-1.2 5c-.8 1.2-1.9 1.7-3.4 1.7s-2.7-.6-3.4-1.7c-.8-1.2-1.2-2.8-1.2-5s.4-3.8 1.2-5c.8-1.1 1.9-1.7 3.4-1.7s2.7.5 3.4 1.7zm-5 1.2c-.3.7-.5 2-.5 3.7 0 1.8.2 3 .5 3.8.3.7.9 1.1 1.6 1.1s1.3-.4 1.6-1.1c.3-.7.5-2 .5-3.8 0-1.8-.2-3-.5-3.7-.3-.7-.9-1.1-1.6-1.1s-1.3.4-1.6 1.1zM247.3 254.6v13.2h-2.5v-13.2h2.5zM258.6 256c1.2.9 1.8 2.6 1.8 5.1 0 2.5-.6 4.2-1.8 5.2-1.2 1-2.8 1.5-4.6 1.5h-3.6v-13.2h3.3c2 0 3.6.5 4.9 1.4zm-5.7.5v9.4h1.2c1.1 0 2-.3 2.6-1s1-1.9 1-3.7c0-1.3-.2-2.2-.5-2.9-.3-.7-.8-1.1-1.3-1.4-.5-.2-1.2-.4-1.9-.4h-1.1zM269 254.8c.7.3 1.3.7 1.9 1.2l-1.2 1.4c-.5-.4-.9-.7-1.4-.9-.5-.2-1-.3-1.5-.3-.6 0-1.1.1-1.5.4-.4.3-.6.7-.6 1.2 0 .3.1.6.2.8.1.2.4.4.8.6.4.2 1 .4 1.7.6 1.3.4 2.3.9 2.9 1.5.7.6 1 1.5 1 2.7 0 .8-.2 1.5-.6 2.1-.4.6-1 1.1-1.7 1.4-.8.3-1.6.5-2.7.5-1 0-1.9-.2-2.7-.5-.8-.3-1.5-.8-2.1-1.3l1.3-1.5c.5.4 1 .8 1.6 1 .5.2 1.2.3 1.8.3.7 0 1.3-.2 1.8-.5.4-.3.7-.8.7-1.5 0-.4-.1-.7-.2-.9-.2-.2-.4-.5-.8-.7-.4-.2-.9-.4-1.6-.6-1.4-.4-2.4-1-3-1.6-.6-.6-.9-1.4-.9-2.4 0-.7.2-1.4.6-1.9.4-.5.9-1 1.6-1.3.7-.3 1.5-.5 2.3-.5.8.3 1.6.4 2.3.7zM281.7 255.2c.9.5 1.5 1.3 2 2.4s.7 2.3.7 3.7c0 1.4-.2 2.7-.7 3.7-.5 1-1.1 1.8-2 2.4-.9.5-1.9.8-3.1.8-1.2 0-2.2-.3-3.1-.8-.9-.5-1.5-1.3-2-2.4-.5-1-.7-2.3-.7-3.7 0-1.4.2-2.7.7-3.7.5-1 1.1-1.8 2-2.4.9-.5 1.9-.8 3.1-.8 1.2 0 2.2.2 3.1.8zm-5.5 2.3c-.5.8-.8 2.1-.8 3.8 0 3.3 1 5 3.1 5 1 0 1.8-.4 2.3-1.2.5-.8.8-2.1.8-3.8 0-1.7-.3-3-.8-3.8-.5-.8-1.3-1.2-2.3-1.2-.9 0-1.7.4-2.3 1.2zM286.7 267.9v-13.2h7.5l-.3 1.9h-4.7v4h4.1v1.9h-4.1v5.5h-2.5zM304.6 254.6l-.3 2h-3.4v11.2h-2.5v-11.2h-3.6v-2h9.8zM320.9 267.4c.6.2 1.2.5 1.7.9l-1.6 2c-.7-.8-1.5-1.3-2.2-1.7s-1.7-.5-2.8-.5c-1.1 0-2.1-.3-3-.8-.9-.5-1.5-1.3-2-2.3s-.7-2.3-.7-3.7c0-1.4.2-2.7.7-3.7.5-1 1.1-1.8 2-2.4.9-.5 1.9-.8 3.1-.8 1.2 0 2.2.3 3.1.8.9.5 1.5 1.3 2 2.4s.7 2.3.7 3.7c0 1.5-.3 2.7-.8 3.7-.5.9-1.3 1.6-2.3 2.2.8-.1 1.5 0 2.1.2zm-4.8-1.2c1 0 1.8-.4 2.3-1.2.5-.8.8-2.1.8-3.8 0-1.7-.3-3-.8-3.8-.5-.8-1.3-1.2-2.3-1.2-1 0-1.8.4-2.3 1.2-.5.8-.8 2.1-.8 3.8 0 3.4 1 5 3.1 5zM331.6 266.1c.1.2.3.3.6.4l-.5 1.6c-.6-.1-1-.2-1.4-.4-.4-.2-.6-.6-.8-1.1-.3.5-.8.9-1.3 1.1-.5.2-1.1.4-1.7.4-1 0-1.8-.3-2.4-.9-.6-.6-.9-1.3-.9-2.3 0-1.1.4-1.9 1.2-2.5.8-.6 1.9-.9 3.4-.9h1.3v-.6c0-.7-.2-1.1-.4-1.4-.3-.3-.8-.4-1.4-.4-.7 0-1.6.2-2.7.5l-.6-1.7c1.3-.5 2.5-.7 3.7-.7 2.6 0 3.9 1.2 3.9 3.5v4.2c-.1.7-.1 1 0 1.2zm-2.5-1v-2h-1c-1.6 0-2.4.6-2.4 1.8 0 .5.1.9.4 1.1.2.3.6.4 1.1.4.7 0 1.4-.4 1.9-1.3zM341 257.7v1.8l-4.9 6.5h5l-.2 1.9h-7.6v-1.8l4.9-6.5h-4.5v-1.9h7.3zM350.4 266.1c.1.2.3.3.6.4l-.5 1.6c-.6-.1-1-.2-1.4-.4-.4-.2-.6-.6-.8-1.1-.3.5-.8.9-1.3 1.1-.5.2-1.1.4-1.7.4-1 0-1.8-.3-2.4-.9-.6-.6-.9-1.3-.9-2.3 0-1.1.4-1.9 1.2-2.5.8-.6 1.9-.9 3.4-.9h1.3v-.6c0-.7-.2-1.1-.4-1.4-.3-.3-.8-.4-1.4-.4-.7 0-1.6.2-2.7.5l-.6-1.7c1.3-.5 2.5-.7 3.7-.7 2.6 0 3.9 1.2 3.9 3.5v4.2c-.2.7-.1 1 0 1.2zm-2.6-1v-2h-1c-1.6 0-2.4.6-2.4 1.8 0 .5.1.9.4 1.1.2.3.6.4 1.1.4.8 0 1.4-.4 1.9-1.3zM361.7 257.7V272l-2.5-.3v-5.1c-.7 1-1.6 1.4-2.8 1.4-1.2 0-2.2-.5-2.9-1.4-.7-1-1-2.3-1-3.9 0-1 .2-2 .5-2.8s.8-1.4 1.4-1.9 1.3-.7 2.2-.7c1.1 0 2 .4 2.7 1.3l.1-1h2.3zm-3.4 8.3c.3-.2.6-.5.9-1v-4.6c-.3-.4-.6-.6-.9-.8-.3-.2-.6-.3-1-.3-.7 0-1.2.3-1.6.9-.4.6-.6 1.5-.6 2.6 0 1.3.2 2.1.5 2.7s.8.8 1.5.8c.5 0 .9-.1 1.2-.3zM371.5 258.7l-1 1.4c-.9-.5-1.7-.8-2.5-.8-.5 0-.9.1-1.1.3-.3.2-.4.4-.4.7 0 .2.1.4.2.6s.3.3.6.4c.3.1.7.3 1.3.5 1.1.3 1.9.7 2.4 1.2s.8 1.2.8 2c0 1-.4 1.8-1.2 2.4-.8.6-1.8.9-3 .9-.8 0-1.6-.1-2.3-.4-.7-.3-1.3-.6-1.8-1.1l1.2-1.4c.9.7 1.8 1 2.8 1 .5 0 1-.1 1.3-.3.3-.2.5-.5.5-.9 0-.3-.1-.5-.2-.7s-.3-.3-.7-.5c-.3-.1-.8-.3-1.5-.5-1-.3-1.8-.7-2.3-1.2-.5-.5-.7-1.1-.7-1.9 0-.6.2-1.1.5-1.5.3-.4.8-.8 1.4-1.1.6-.3 1.3-.4 2-.4 1.4.1 2.6.5 3.7 1.3zM379.6 267.4c-.4.3-.8.4-1.2.6-.4.1-.9.2-1.3.2-1 0-1.8-.3-2.3-.9-.5-.6-.8-1.4-.8-2.5v-5.3h-1.6v-1.8h1.6v-2.2l2.5-.3v2.5h2.4l-.2 1.8h-2.1v5.3c0 .5.1.9.3 1.1.2.2.4.3.8.3s.8-.1 1.2-.4l.7 1.6zM388.4 266.1c.1.2.3.3.6.4l-.5 1.6c-.6-.1-1-.2-1.4-.4-.4-.2-.6-.6-.8-1.1-.3.5-.8.9-1.3 1.1-.5.2-1.1.4-1.7.4-1 0-1.8-.3-2.4-.9-.6-.6-.9-1.3-.9-2.3 0-1.1.4-1.9 1.2-2.5.8-.6 1.9-.9 3.4-.9h1.3v-.6c0-.7-.2-1.1-.4-1.4-.3-.3-.8-.4-1.4-.4-.7 0-1.6.2-2.7.5l-.6-1.7c1.3-.5 2.5-.7 3.7-.7 2.6 0 3.9 1.2 3.9 3.5v4.2c-.2.7-.1 1 0 1.2zm-2.6-1v-2h-1c-1.6 0-2.4.6-2.4 1.8 0 .5.1.9.4 1.1.2.3.6.4 1.1.4.8 0 1.5-.4 1.9-1.3zM398.7 258.3c.5.5.8 1.3.8 2.3v7.3H397V261c0-.6-.1-1-.3-1.3-.2-.2-.5-.4-.9-.4s-.8.1-1.1.4c-.3.3-.7.6-1 1.1v7h-2.5v-10.1h2.1l.2 1.3c.8-1.1 1.9-1.6 3.1-1.6.9.1 1.6.3 2.1.9z"/></g><path class="st11" d="M243.7 358.7c2.3 0 4.2 1.9 4.2 4.2v8.8c0 2.3-1.9 4.2-4.2 4.2h-8.8c-2.3 0-4.2-1.9-4.2-4.2v-8.8c0-2.3 1.9-4.2 4.2-4.2h8.8m0-.2h-8.8c-2.4 0-4.4 2-4.4 4.4v8.8c0 2.4 2 4.4 4.4 4.4h8.8c2.4 0 4.4-2 4.4-4.4v-8.8c0-2.4-1.9-4.4-4.4-4.4z"/><g><path class="st9" d="M262.8 360l-.2 1.5h-5.1v4.3h4.4v1.5h-4.4v4.5h5.5v1.5h-7.3V360h7.1zM273.9 371.7v4.3h-1.4l-.3-2.9h-6.5l-.3 2.9H264v-4.3h.7c.3-.2.5-.4.7-.7.2-.3.3-.7.5-1.4.1-.7.3-1.6.4-2.9l.3-3.8h6.3v8.7h1zm-2.8-7.2h-3l-.2 2.1c-.1 1.2-.2 2.1-.3 2.7s-.3 1.1-.5 1.5c-.2.3-.5.7-.9.9h4.8v-7.2zM278.1 371.1c.3.3.4.6.4.9s-.1.7-.4.9c-.3.3-.6.4-1 .4s-.7-.1-.9-.4c-.3-.3-.4-.6-.4-.9s.1-.7.4-.9c.3-.3.6-.4.9-.4.4 0 .7.1 1 .4zM294.2 373.1h-1.7v-4.6c0-.8 0-1.5.1-2.2.1-.7.1-1.1.1-1.4l-4.2 8.1h-2.1v-10.1h1.7v4.6c0 .7 0 1.4-.1 2.1-.1.7-.1 1.2-.1 1.4l4.2-8h2.1v10.1zM302.1 363.1c.6.2 1 .5 1.3.9.3.4.5.9.5 1.5s-.2 1-.5 1.4c-.3.4-.8.6-1.5.8.8.1 1.5.4 1.9.8.4.4.7.9.7 1.6 0 1-.4 1.8-1.2 2.4-.8.5-1.8.8-3.1.8-1.5 0-2.8-.4-3.9-1.3l.9-1.1c.4.3.9.6 1.3.7.5.2 1 .2 1.6.2 1.6 0 2.5-.6 2.5-1.8 0-.6-.2-1-.7-1.2s-1.1-.4-1.9-.4h-1.3l.1-1.4h1c.7 0 1.3-.1 1.7-.4.4-.3.7-.7.7-1.2s-.2-.9-.6-1.1c-.4-.2-.9-.3-1.5-.3-.5 0-1 .1-1.4.2-.4.1-.8.3-1.2.6l-.8-1.1c.5-.4 1.1-.7 1.6-.9s1.3-.3 2-.3c.6.3 1.2.4 1.8.6zM317.3 373.1h-1.7l-.5-4.8c-.1-.5-.1-1-.1-1.7v-2l-2.3 7.3H311l-2.1-7.3c0 1.7 0 2.9-.1 3.6l-.4 4.8h-1.7l.9-10.1h2.3l2 7.2 2.2-7.2h2.3l.9 10.2zM321.6 371.1c.3.3.4.6.4.9s-.1.7-.4.9c-.3.3-.6.4-1 .4s-.7-.1-.9-.4c-.3-.3-.4-.6-.4-.9s.1-.7.4-.9c.3-.3.6-.4.9-.4.5 0 .8.1 1 .4z"/></g><path class="st12" d="M245.9 362.3l-6.6 6.6-3.7-3.8-1.8 1.8 5.5 5.5 8.4-8.3z"/><g><path class="st11" d="M352.2 358.7c2.3 0 4.2 1.9 4.2 4.2v8.8c0 2.3-1.9 4.2-4.2 4.2h-8.8c-2.3 0-4.2-1.9-4.2-4.2v-8.8c0-2.3 1.9-4.2 4.2-4.2h8.8m0-.2h-8.8c-2.4 0-4.4 2-4.4 4.4v8.8c0 2.4 2 4.4 4.4 4.4h8.8c2.4 0 4.4-2 4.4-4.4v-8.8c0-2.4-1.9-4.4-4.4-4.4z"/><path class="st9" d="M378 360v13.2h-13.9V360h1.8v11.7h4.3V360h1.7v11.7h4.3V360h1.8zM388.6 363.1l-.2 1.4h-3.2v8.7h-1.8v-8.7H380v-1.4h8.6zM397.8 364.2c.6.9.9 2.2.9 3.9 0 1.6-.3 2.9-1 3.8-.7 1-1.7 1.5-2.9 1.5-1.1 0-2-.4-2.6-1.1v4.8l-1.8.2v-14.2h1.5l.1 1.4c.4-.5.8-.9 1.3-1.2.5-.3 1.1-.4 1.6-.4 1.4-.1 2.3.4 2.9 1.3zm-1 3.9c0-2.6-.8-3.9-2.3-3.9-.5 0-1 .1-1.4.4-.4.3-.8.7-1.1 1.1v4.9c.3.4.6.7 1 .9s.8.3 1.3.3c1.7.1 2.5-1.1 2.5-3.7zM409.6 373.1h-1.7v-4.6c0-.8 0-1.5.1-2.2.1-.7.1-1.1.1-1.4l-4.2 8.1h-2.1v-10.1h1.7v4.6c0 .7 0 1.4-.1 2.1-.1.7-.1 1.2-.1 1.4l4.2-8h2.1v10.1zM417.1 367.7l3.5 5.4h-2.1l-2.5-4.3-2.5 4.3h-2l3.5-5.3-3.1-4.8h2.1l2.1 3.7 2.1-3.7h2l-3.1 4.7zM430.1 363.1l-3.1 4.7 3.4 5.4h-2.1l-2.8-4.7h-1.3v4.7h-1.8v-10.1h1.8v4.1h1.3l2.5-4.1h2.1zM439.4 364.2c.8.9 1.2 2.2 1.2 3.8 0 1-.2 2-.5 2.8-.4.8-.9 1.4-1.6 1.9-.7.4-1.5.7-2.4.7-1.4 0-2.5-.5-3.3-1.4-.8-.9-1.2-2.2-1.2-3.8 0-1 .2-2 .5-2.8.4-.8.9-1.4 1.6-1.9.7-.4 1.5-.7 2.4-.7 1.4 0 2.5.5 3.3 1.4zm-6 3.9c0 2.6.9 3.8 2.6 3.8 1.7 0 2.6-1.3 2.6-3.9 0-2.6-.9-3.8-2.6-3.8-1.7 0-2.6 1.3-2.6 3.9zM451.4 371.7v4.3H450l-.3-2.9h-6.5l-.3 2.9h-1.4v-4.3h.7c.3-.2.5-.4.7-.7.2-.3.3-.7.5-1.4.1-.7.3-1.6.4-2.9l.3-3.8h6.3v8.7h1zm-2.8-7.2h-3l-.2 2.1c-.1 1.2-.2 2.1-.3 2.7s-.3 1.1-.5 1.5c-.2.3-.5.7-.9.9h4.8v-7.2z"/><path class="st12" d="M354.4 362.3l-6.6 6.6-3.7-3.8-1.8 1.8 5.5 5.5 8.4-8.3z"/></g><g><path class="st11" d="M483.4 358.7c2.3 0 4.2 1.9 4.2 4.2v8.8c0 2.3-1.9 4.2-4.2 4.2h-8.8c-2.3 0-4.2-1.9-4.2-4.2v-8.8c0-2.3 1.9-4.2 4.2-4.2h8.8m0-.2h-8.8c-2.4 0-4.4 2-4.4 4.4v8.8c0 2.4 2 4.4 4.4 4.4h8.8c2.4 0 4.4-2 4.4-4.4v-8.8c.1-2.4-1.9-4.4-4.4-4.4z"/><path class="st9" d="M506.7 370.7c-1.1 1-2.6 1.5-4.6 1.5v1.5h-1.8v-1.5c-2-.1-3.6-.6-4.6-1.6s-1.6-2.4-1.6-4.2c0-1.9.5-3.3 1.6-4.3s2.6-1.5 4.6-1.5v-1.3h1.8v1.3c2 .1 3.6.6 4.6 1.6 1.1 1 1.6 2.4 1.6 4.2.1 1.9-.5 3.4-1.6 4.3zm-9.5-.9c.7.7 1.8 1.1 3.3 1.2v-9c-1.5.1-2.6.5-3.3 1.2-.7.7-1.1 1.8-1.1 3.3 0 1.5.3 2.5 1.1 3.3zm8.2 0c.7-.7 1.1-1.8 1.1-3.3 0-1.5-.4-2.6-1.1-3.3s-1.8-1.1-3.3-1.2v8.9c1.5 0 2.6-.4 3.3-1.1zM517.8 371.7c.1.2.4.3.6.4l-.4 1.2c-.5-.1-.9-.2-1.3-.4-.3-.2-.6-.6-.7-1.1-.7 1-1.7 1.5-3 1.5-1 0-1.8-.3-2.4-.8-.6-.6-.9-1.3-.9-2.2 0-1.1.4-1.9 1.2-2.5.8-.6 1.9-.9 3.3-.9h1.6v-.7c0-.7-.2-1.2-.5-1.5-.3-.3-.9-.5-1.6-.5-.7 0-1.6.2-2.7.5l-.4-1.3c1.3-.5 2.4-.7 3.5-.7 1.2 0 2.1.3 2.7.9.6.6.9 1.4.9 2.5v4.6c-.1.5-.1.8.1 1zm-2-1.2v-2.3h-1.3c-1.9 0-2.8.7-2.8 2.1 0 .6.1 1.1.4 1.4.3.3.7.5 1.3.5 1-.1 1.8-.7 2.4-1.7zM528.7 363.1l-3.1 4.7 3.4 5.4h-2l-2.8-4.7h-1.3v4.7h-1.8v-10.1h1.8v4.1h1.3l2.5-4.1h2zM537.9 363.1l-.2 1.4h-3.2v8.7h-1.8v-8.7h-3.3v-1.4h8.5zM540 371.1c.3.3.4.6.4.9s-.1.7-.4.9c-.3.3-.6.4-1 .4s-.7-.1-.9-.4c-.3-.3-.4-.6-.4-.9s.1-.7.4-.9c.3-.3.6-.4.9-.4.4 0 .8.1 1 .4zM555.8 363.1l-3.1 4.7 3.4 5.4H554l-2.8-4.7H550v4.7h-1.8v-10.1h1.8v4.1h1.3l2.5-4.1h2zM565.1 364.2c.8.9 1.2 2.2 1.2 3.8 0 1-.2 2-.5 2.8-.4.8-.9 1.4-1.6 1.9-.7.4-1.5.7-2.4.7-1.4 0-2.5-.5-3.3-1.4-.8-.9-1.2-2.2-1.2-3.8 0-1 .2-2 .5-2.8.4-.8.9-1.4 1.6-1.9.7-.4 1.5-.7 2.4-.7 1.4 0 2.5.5 3.3 1.4zm-5.9 3.9c0 2.6.9 3.8 2.6 3.8 1.7 0 2.6-1.3 2.6-3.9 0-2.6-.9-3.8-2.6-3.8-1.7 0-2.6 1.3-2.6 3.9zM576.4 363.1v10.1h-1.8v-8.7h-3.1l-.3 3.4c-.1 1.4-.3 2.4-.4 3.1-.2.7-.4 1.2-.8 1.6s-.9.7-1.7.9l-.4-1.4c.4-.2.7-.4.9-.6.2-.2.3-.6.4-1.1.1-.5.2-1.4.3-2.6l.4-4.6h6.5zM579.4 367.9v-1.5h5.4v1.5h-5.4zM595.6 370c0 1.1-.4 1.8-1.2 2.3-.8.5-1.8.8-3.1.8h-3.6v-10c1.2-.2 2.3-.4 3.3-.4 1.3 0 2.2.2 3 .7s1.1 1.1 1.1 2c0 .6-.2 1-.5 1.4-.3.4-.9.6-1.5.7 1.7.3 2.5 1.1 2.5 2.5zm-6.1-5.7v2.9h1.9c.6 0 1.1-.1 1.4-.3.3-.2.5-.6.5-1.2 0-.5-.2-.9-.6-1.1-.4-.2-.9-.3-1.7-.3-.4-.1-1-.1-1.5 0zm3.7 7.1c.4-.3.6-.7.6-1.4 0-.5-.2-.9-.5-1.2-.4-.2-1-.4-1.8-.4h-1.9v3.3h1.9c.6.1 1.2-.1 1.7-.3zM605.6 364.2c.8.9 1.2 2.2 1.2 3.8 0 1-.2 2-.5 2.8-.4.8-.9 1.4-1.6 1.9-.7.4-1.5.7-2.4.7-1.4 0-2.5-.5-3.3-1.4-.8-.9-1.2-2.2-1.2-3.8 0-1 .2-2 .5-2.8.4-.8.9-1.4 1.6-1.9.7-.4 1.5-.7 2.4-.7 1.4 0 2.5.5 3.3 1.4zm-6 3.9c0 2.6.9 3.8 2.6 3.8 1.7 0 2.6-1.3 2.6-3.9 0-2.6-.9-3.8-2.6-3.8-1.7 0-2.6 1.3-2.6 3.9z"/><path class="st12" d="M485.6 362.3l-6.6 6.6-3.7-3.8-1.8 1.8 5.5 5.5 8.4-8.3z"/></g><g><path class="st13" d="M315.7 461.7H82.2c-6.9 0-12.6-5.6-12.6-12.6v-24.8c0-6.9 5.6-12.6 12.6-12.6h233.5c6.9 0 12.6 5.6 12.6 12.6v24.8c0 6.9-5.7 12.6-12.6 12.6z"/><path class="st1" d="M85.1 441.7l1.4-1.4c.4.4.8.7 1.3.9.5.2 1 .3 1.6.3.8 0 1.4-.2 1.8-.6.4-.4.7-.9.7-1.6 0-.7-.2-1.2-.7-1.6-.4-.4-1.1-.6-2-.6h-1.3l.3-1.9h1.1c.7 0 1.2-.2 1.6-.5.4-.3.6-.8.6-1.4 0-.5-.2-1-.5-1.3-.3-.3-.8-.5-1.5-.5-1 0-1.9.4-2.9 1.1l-1.2-1.4c1.2-1.1 2.7-1.7 4.4-1.7.9 0 1.7.1 2.3.4.6.3 1.1.7 1.5 1.2.3.5.5 1.1.5 1.8 0 .8-.2 1.4-.7 2-.5.5-1.2.9-2 1.1 1 .1 1.7.4 2.3 1 .6.6.9 1.3.9 2.3 0 .8-.2 1.5-.6 2.1-.4.6-1 1.1-1.8 1.4s-1.6.5-2.6.5c-2 .2-3.4-.4-4.5-1.6zM104.3 441.5c.1.2.3.3.6.4l-.5 1.6c-.6-.1-1-.2-1.4-.4-.4-.2-.6-.6-.8-1.1-.3.5-.8.9-1.3 1.1-.5.2-1.1.4-1.7.4-1 0-1.8-.3-2.4-.9-.6-.6-.9-1.3-.9-2.3 0-1.1.4-1.9 1.2-2.5.8-.6 1.9-.9 3.4-.9h1.3v-.6c0-.7-.2-1.1-.4-1.4-.3-.3-.8-.4-1.4-.4-.7 0-1.6.2-2.7.5l-.6-1.7c1.3-.5 2.5-.7 3.7-.7 2.6 0 3.9 1.2 3.9 3.5v4.2c-.1.7-.1 1 0 1.2zm-2.6-1v-2h-1c-1.6 0-2.4.6-2.4 1.8 0 .5.1.9.4 1.1.2.3.6.4 1.1.4.8 0 1.5-.4 1.9-1.3zM112.9 443.3V435h-3.4v8.3H107v-10.1h8.3v10.1h-2.4zM126 434.3c.8 1 1.3 2.3 1.3 3.9 0 1.1-.2 2-.6 2.8s-.9 1.4-1.6 1.9c-.7.4-1.6.7-2.5.7-1.5 0-2.7-.5-3.5-1.4-.8-1-1.3-2.3-1.3-3.9 0-1.1.2-2 .6-2.8.4-.8.9-1.4 1.7-1.9.7-.4 1.6-.7 2.6-.7 1.3-.1 2.4.4 3.3 1.4zm-5.7 3.9c0 1.2.2 2.1.5 2.7.4.6.9.9 1.6.9.7 0 1.3-.3 1.6-.9.4-.6.5-1.5.5-2.6s-.2-2.1-.5-2.6-.9-.9-1.6-.9c-1.4-.1-2.1 1.1-2.1 3.4zM137.3 433.1v10.1h-2.5V435h-2.5l-.2 2.7c-.1 1.4-.3 2.5-.5 3.2s-.5 1.3-.9 1.7c-.4.4-1.1.7-1.9.9l-.6-1.8c.4-.2.7-.4.9-.6s.3-.6.4-1.1c.1-.5.2-1.3.3-2.5l.3-4.4h7.2zM146.2 443.3V439h-3.4v4.2h-2.5v-10.1h2.5v4h3.4v-4h2.5v10.1h-2.5zM160 443.3h-2.4v-4.1c0-.7 0-1.4.1-2.1.1-.7.1-1.2.2-1.5l-3.8 7.6h-2.6v-10.1h2.4v4.1c0 .7 0 1.4-.1 2.1-.1.7-.1 1.2-.2 1.5l3.7-7.6h2.7v10.1zM170.4 433.1l-.3 1.9h-3v8.3h-2.5V435h-3.1v-1.9h8.9zM178.7 437.2c.7.6 1.1 1.5 1.1 2.6s-.4 2-1.2 2.6c-.8.6-1.8.9-3 .9h-3.8v-10.1h2.5v3.2h1c1.6-.1 2.7.2 3.4.8zm-1.4 2.6c0-.6-.2-1-.5-1.3s-.8-.4-1.6-.4h-1v3.6h1.1c1.4-.1 2-.7 2-1.9zM192.4 443.3V435H189v8.3h-2.5v-10.1h8.3v10.1h-2.4zM205.4 434.3c.8 1 1.3 2.3 1.3 3.9 0 1.1-.2 2-.6 2.8s-.9 1.4-1.6 1.9c-.7.4-1.6.7-2.5.7-1.5 0-2.7-.5-3.5-1.4-.8-1-1.3-2.3-1.3-3.9 0-1.1.2-2 .6-2.8.4-.8.9-1.4 1.7-1.9.7-.4 1.6-.7 2.6-.7 1.3-.1 2.5.4 3.3 1.4zm-5.7 3.9c0 1.2.2 2.1.5 2.7.4.6.9.9 1.6.9.7 0 1.3-.3 1.6-.9.4-.6.5-1.5.5-2.6s-.2-2.1-.5-2.6-.9-.9-1.6-.9c-1.4-.1-2.1 1.1-2.1 3.4zM221.4 434.3c.8 1 1.3 2.3 1.3 3.9 0 1.1-.2 2-.6 2.8s-.9 1.4-1.6 1.9c-.7.4-1.6.7-2.5.7-1.5 0-2.7-.5-3.5-1.4-.8-1-1.3-2.3-1.3-3.9 0-1.1.2-2 .6-2.8.4-.8.9-1.4 1.7-1.9.7-.4 1.6-.7 2.6-.7 1.3-.1 2.4.4 3.3 1.4zm-5.7 3.9c0 1.2.2 2.1.5 2.7.4.6.9.9 1.6.9.7 0 1.3-.3 1.6-.9.4-.6.5-1.5.5-2.6s-.2-2.1-.5-2.6-.9-.9-1.6-.9c-1.4-.1-2.1 1.1-2.1 3.4zM230.8 433.1c.5.2 1 .5 1.5.9l-1.1 1.5c-.3-.3-.7-.4-1-.6s-.7-.2-1.1-.2c-1.5 0-2.3 1.2-2.3 3.5 0 1.2.2 2 .6 2.5.4.5 1 .8 1.7.8.4 0 .7-.1 1-.2.3-.1.7-.3 1.1-.6l1.1 1.6c-1 .8-2 1.2-3.3 1.2-1 0-1.8-.2-2.5-.6-.7-.4-1.3-1-1.6-1.8-.4-.8-.6-1.7-.6-2.8s.2-2 .6-2.8.9-1.5 1.6-1.9c.7-.5 1.6-.7 2.5-.7.7-.1 1.3 0 1.8.2zM241.5 433.1l-.3 1.9h-3v8.3h-2.5V435h-3.1v-1.9h8.9zM249.8 441.5c.1.2.3.3.6.4l-.5 1.6c-.6-.1-1-.2-1.4-.4-.4-.2-.6-.6-.8-1.1-.3.5-.8.9-1.3 1.1-.5.2-1.1.4-1.7.4-1 0-1.8-.3-2.4-.9-.6-.6-.9-1.3-.9-2.3 0-1.1.4-1.9 1.2-2.5.8-.6 1.9-.9 3.4-.9h1.3v-.6c0-.7-.2-1.1-.4-1.4-.3-.3-.8-.4-1.4-.4-.7 0-1.6.2-2.7.5l-.6-1.7c1.3-.5 2.5-.7 3.7-.7 2.6 0 3.9 1.2 3.9 3.5v4.2c-.2.7-.1 1 0 1.2zm-2.6-1v-2h-1c-1.6 0-2.4.6-2.4 1.8 0 .5.1.9.4 1.1.2.3.6.4 1.1.4.8 0 1.5-.4 1.9-1.3zM259.7 433.1l-.3 1.9h-3v8.3H254V435h-3.1v-1.9h8.8zM269.5 433.1l-2.9 4.7 3.2 5.4h-2.7l-2.5-4.5h-1.1v4.5H261v-10.1h2.5v4h1.1l2.4-4h2.5zM278.7 441.5c.1.2.3.3.6.4l-.5 1.6c-.6-.1-1-.2-1.4-.4-.4-.2-.6-.6-.8-1.1-.3.5-.8.9-1.3 1.1-.5.2-1.1.4-1.7.4-1 0-1.8-.3-2.4-.9-.6-.6-.9-1.3-.9-2.3 0-1.1.4-1.9 1.2-2.5.8-.6 1.9-.9 3.4-.9h1.3v-.6c0-.7-.2-1.1-.4-1.4-.3-.3-.8-.4-1.4-.4-.7 0-1.6.2-2.7.5l-.6-1.7c1.3-.5 2.5-.7 3.7-.7 2.6 0 3.9 1.2 3.9 3.5v4.2c-.2.7-.1 1 0 1.2zm-2.6-1v-2h-1c-1.6 0-2.4.6-2.4 1.8 0 .5.1.9.4 1.1.2.3.6.4 1.1.4.8 0 1.5-.4 1.9-1.3zM292.1 443.3h-2.3l-.3-4.2c-.1-.6-.1-1.3-.1-2v-1.8l-1.9 6.8h-2.1l-1.9-6.8c0 .7.1 1.4.1 2v1.7l-.3 4.2H281l.9-10.1h3l1.6 6.9 1.8-6.9h3l.8 10.2z"/><path class="st14" d="M302.3 434l5.3 9.3 5.3-9.3z"/><path class="st15" d="M496.9 461.7H357c-6.9 0-12.6-5.6-12.6-12.6v-24.8c0-6.9 5.6-12.6 12.6-12.6h139.9c6.9 0 12.6 5.6 12.6 12.6v24.8c0 6.9-5.7 12.6-12.6 12.6z"/><g><path class="st1" d="M371 430v13.2h-2.5V432h-4.7v11.2h-2.5V430h9.7zM382.3 439h-6.4c.1 1 .3 1.7.8 2.1.4.4 1 .6 1.7.6.4 0 .9-.1 1.3-.2s.8-.4 1.3-.7l1 1.4c-1.1.9-2.4 1.4-3.8 1.4-1.5 0-2.7-.5-3.6-1.4s-1.3-2.2-1.3-3.9c0-1 .2-2 .5-2.8.4-.8.9-1.5 1.6-1.9.7-.5 1.5-.7 2.4-.7 1.4 0 2.5.5 3.3 1.3.8.9 1.2 2.2 1.2 3.8v1zm-2.4-1.8c0-1.8-.7-2.7-2-2.7-.6 0-1.1.2-1.4.7-.3.4-.5 1.1-.6 2.1h4v-.1zM392.1 433.1v10.1h-2.5v-4c-.4.3-.8.6-1.3.7-.5.2-1 .3-1.6.3-1 0-1.7-.3-2.2-.8s-.7-1.3-.7-2.3V433h2.5v3.8c0 .5.1.9.3 1.2s.5.4 1 .4c.4 0 .7-.1 1.1-.2.4-.2.7-.4.9-.6v-4.5h2.5zM402.7 441.5c.1.2.3.3.6.4l-.5 1.6c-.6-.1-1-.2-1.4-.4-.4-.2-.6-.6-.8-1.1-.3.5-.8.9-1.3 1.1-.5.2-1.1.4-1.7.4-1 0-1.8-.3-2.4-.9-.6-.6-.9-1.3-.9-2.3 0-1.1.4-1.9 1.2-2.5.8-.6 1.9-.9 3.4-.9h1.3v-.6c0-.7-.2-1.1-.4-1.4-.3-.3-.8-.4-1.4-.4-.7 0-1.6.2-2.7.5l-.6-1.7c1.3-.5 2.5-.7 3.7-.7 2.6 0 3.9 1.2 3.9 3.5v4.2c-.2.7-.1 1 0 1.2zm-2.6-1v-2h-1c-1.6 0-2.4.6-2.4 1.8 0 .5.1.9.4 1.1.2.3.6.4 1.1.4.8 0 1.5-.4 1.9-1.3zM412.6 433.1l-.3 1.9h-3v8.3h-2.5V435h-3.1v-1.9h8.9zM420.9 437.2c.7.6 1.1 1.5 1.1 2.6s-.4 2-1.2 2.6c-.8.6-1.8.9-3 .9H414v-10.1h2.5v3.2h1c1.5-.1 2.7.2 3.4.8zm-1.4 2.6c0-.6-.2-1-.5-1.3s-.8-.4-1.6-.4h-1v3.6h1.1c1.3-.1 2-.7 2-1.9zM441.3 434.2c.5.9.8 2.2.8 4 0 1.1-.1 2-.4 2.8-.3.8-.7 1.4-1.2 1.9-.5.4-1.2.7-1.9.7-1 0-1.7-.4-2.3-1.2v4.8l-2.3.3v-5.1c-.3.4-.6.7-1.1.9-.4.2-.9.3-1.3.3-.7 0-1.3-.2-1.8-.7-.5-.4-.9-1.1-1.2-1.9-.3-.8-.4-1.8-.4-2.8 0-1.7.3-3 .9-3.9.6-.9 1.4-1.4 2.6-1.4 1 0 1.8.4 2.4 1.1v-5.1l2.3.3v4.9c.6-.7 1.4-1.1 2.4-1.1 1.1-.2 2 .3 2.5 1.2zm-7.3 6.5v-5c-.5-.7-1.1-1-1.7-1-.5 0-.9.3-1.2.9s-.4 1.5-.4 2.7c0 2.3.5 3.5 1.6 3.5.6-.1 1.2-.4 1.7-1.1zm5.6-2.5c0-1.2-.1-2.1-.4-2.7s-.7-.8-1.2-.8c-.6 0-1.2.3-1.7 1v5c.2.4.5.6.7.8.3.2.6.3.9.3 1.2-.1 1.7-1.3 1.7-3.6zM452.2 434.3c.8 1 1.3 2.3 1.3 3.9 0 1.1-.2 2-.6 2.8s-.9 1.4-1.6 1.9c-.7.4-1.6.7-2.5.7-1.5 0-2.7-.5-3.5-1.4-.8-1-1.3-2.3-1.3-3.9 0-1.1.2-2 .6-2.8.4-.8.9-1.4 1.7-1.9.7-.4 1.6-.7 2.6-.7 1.3-.1 2.5.4 3.3 1.4zm-5.7 3.9c0 1.2.2 2.1.5 2.7.4.6.9.9 1.6.9.7 0 1.3-.3 1.6-.9.4-.6.5-1.5.5-2.6s-.2-2.1-.5-2.6-.9-.9-1.6-.9c-1.4-.1-2.1 1.1-2.1 3.4zM463.8 434.2c.6.9.9 2.2.9 3.9 0 1-.2 2-.5 2.8-.3.8-.8 1.4-1.4 1.9-.6.5-1.3.7-2.2.7-1.1 0-1.9-.4-2.5-1.1v4.7l-2.5.3v-14.3h2.1l.1 1.2c.4-.5.8-.9 1.4-1.1.5-.3 1-.4 1.6-.4 1.5 0 2.4.5 3 1.4zm-1.6 4c0-1.2-.2-2.1-.5-2.7-.3-.5-.8-.8-1.4-.8-.4 0-.8.1-1.1.4-.4.2-.7.6-.9 1v4.6c.5.7 1.1 1.1 1.9 1.1 1.3-.1 2-1.3 2-3.6zM477.7 443.3h-2.3l-.3-4.2c-.1-.6-.1-1.3-.1-2v-1.8l-1.9 6.8H471l-1.9-6.8c0 .7.1 1.4.1 2v1.7l-.3 4.2h-2.3l.9-10.1h3l1.6 6.9 1.8-6.9h3l.8 10.2zM486.7 437.2c.7.6 1.1 1.5 1.1 2.6s-.4 2-1.2 2.6c-.8.6-1.8.9-3 .9H480v-10.1h2.5v3.2h.8c1.5-.1 2.7.2 3.4.8zm-1.4 2.6c0-.6-.2-1-.5-1.3s-.8-.4-1.6-.4h-.8v3.6h1c1.3-.1 1.9-.7 1.9-1.9zm3.6-6.7h2.5v10.1h-2.5v-10.1z"/></g></g><g><circle class="st16" cx="88.3" cy="506.3" r="14.9"/><path class="st1" d="M86.2 498.4h4.1v15.8h-4.1z"/><path transform="rotate(-90 88.283 506.293)" class="st1" d="M86.2 498.4h4.1v15.8h-4.1z"/><path class="st9" d="M124.4 509.9v5.9h-2.2l-.4-3.6h-8.5l-.4 3.6h-2.2v-5.9h1.1c.4-.4.6-.9.9-1.4s.4-1.4.6-2.4c.2-1 .4-2.6.7-4.7l.6-4.7h8.5v13.2h1.3zm-4.2-10.9h-3.1l-.2 2.3c-.2 1.9-.4 3.5-.6 4.5-.2 1.1-.4 1.9-.7 2.5-.3.6-.7 1.1-1.2 1.5h5.8V499zM135.7 501.7c1 1.1 1.5 2.7 1.5 4.6 0 1.2-.2 2.3-.7 3.3-.4 1-1.1 1.7-1.9 2.2-.8.5-1.8.8-3 .8-1.8 0-3.1-.6-4.1-1.7-1-1.1-1.5-2.7-1.5-4.6 0-1.2.2-2.3.7-3.3s1.1-1.7 1.9-2.2c.8-.5 1.8-.8 3-.8 1.8 0 3.2.6 4.1 1.7zm-6.6 4.6c0 1.4.2 2.4.6 3.1s1.1 1 1.9 1 1.5-.3 1.9-1c.4-.7.6-1.7.6-3.1 0-1.4-.2-2.4-.6-3.1s-1.1-1-1.9-1c-1.7 0-2.5 1.3-2.5 4.1zM148 501.8c.7.4 1.2 1.1 1.6 1.9s.6 1.8.6 3-.2 2.3-.7 3.2c-.5.9-1.1 1.6-1.9 2-.8.5-1.8.7-2.9.7-1.7 0-3-.6-4-1.7s-1.5-2.9-1.5-5.2c0-1.7.1-3.1.4-4.3.3-1.1.8-2 1.5-2.7s1.7-1.3 2.9-1.7c.9-.3 1.6-.6 2.2-.8.5-.2 1.1-.5 1.7-.9l1.1 1.9c-.5.3-1.1.6-1.7.9-.6.3-1.3.5-2.1.8-.7.2-1.2.5-1.7.8-.4.3-.7.7-1 1.3s-.4 1.3-.5 2.2c.9-1.4 2.1-2 3.7-2 .9-.1 1.6.1 2.3.6zm-1.5 7.8c.4-.5.7-1.5.7-2.8 0-1.2-.2-2.1-.5-2.6-.4-.5-.9-.8-1.6-.8-.6 0-1.1.1-1.6.4-.5.3-.9.8-1.2 1.4v1.5c0 1.2.2 2.2.7 2.8.4.6 1 1 1.8 1 .6-.1 1.2-.4 1.7-.9zM161.7 510.1c.1.2.4.4.7.5l-.6 1.9c-.7-.1-1.2-.2-1.7-.5s-.8-.7-1-1.2c-.4.6-.9 1-1.5 1.3-.6.3-1.3.4-2 .4-1.2 0-2.1-.3-2.8-1-.7-.7-1-1.6-1-2.7 0-1.3.5-2.3 1.4-3 .9-.7 2.3-1 4-1h1.5v-.7c0-.8-.2-1.3-.5-1.6-.4-.3-.9-.5-1.7-.5-.9 0-1.9.2-3.1.6l-.7-2c1.5-.6 2.9-.9 4.3-.9 3 0 4.6 1.4 4.6 4.1v5c-.2.7-.1 1.1.1 1.3zm-3.1-1.1v-2.4h-1.2c-1.9 0-2.8.7-2.8 2.1 0 .6.1 1 .4 1.3.3.3.7.5 1.3.5 1 0 1.8-.5 2.3-1.5zM174.8 508.6c0 1.2-.5 2.1-1.4 2.7-.9.6-2.2.9-3.8.9h-4.7v-11.8c1.6-.3 3.1-.5 4.3-.5 1.5 0 2.8.3 3.6.8.9.6 1.3 1.4 1.3 2.4 0 .7-.2 1.2-.6 1.6-.4.4-1 .7-1.8.9 2.1.4 3.1 1.3 3.1 3zm-7-6.5v3h1.7c1.2 0 1.9-.5 1.9-1.6 0-1-.7-1.5-2.1-1.5-.5-.1-.9 0-1.5.1zm4 6.3c0-.6-.2-1-.5-1.2-.3-.3-.9-.4-1.7-.4h-1.8v3.4h1.8c1.5 0 2.2-.6 2.2-1.8zM187.4 512.2h-2.8v-4.8c0-.9 0-1.7.1-2.5s.2-1.4.2-1.7l-4.4 9h-3.1v-11.9h2.8v4.8c0 .8 0 1.6-.1 2.5s-.2 1.4-.3 1.7l4.4-9h3.1v11.9zM199.6 500.3l-.4 2.2h-3.5v9.7h-2.9v-9.7h-3.7v-2.2h10.5zM209.4 505.1c.9.7 1.3 1.7 1.3 3s-.5 2.3-1.4 3-2.1 1-3.5 1h-4.5v-11.9h2.9v3.8h1.2c1.8.1 3.2.4 4 1.1zm-1.7 3c0-.7-.2-1.2-.5-1.6-.4-.3-1-.5-1.8-.5h-1.1v4.2h1.3c1.4 0 2.1-.7 2.1-2.1z"/><g><path class="st16" d="M252.4 521.9c.1.8 1 1.1 1.6.6l4.1-3.8-6.3-2.4.6 5.6z"/><path transform="rotate(-69.194 259.14 506.584)" class="st16" d="M248.7 503.2h20.8v6.7h-20.8z"/><path class="st16" d="M266.6 493.1l-4.1-1.5c-.6-.2-1.3.1-1.5.7l-.9 2.3 6.3 2.4.9-2.3c.2-.7-.1-1.4-.7-1.6z"/></g><g><path class="st9" d="M288.3 497.9c1.1.8 1.7 2.1 1.7 3.7 0 1.7-.6 3-1.7 3.9-1.1.9-2.6 1.3-4.4 1.3H282v5.4h-3v-15.5h4.6c2 0 3.6.4 4.7 1.2zm-2.3 6c.5-.4.8-1.2.8-2.3 0-1.8-1.1-2.8-3.2-2.8H282v5.7h1.6c1.1.1 1.9-.1 2.4-.6zM301.3 507.2h-7.5c.1 1.2.4 2 .9 2.5s1.2.7 2 .7c.5 0 1-.1 1.5-.3.5-.2 1-.4 1.5-.8l1.2 1.6c-1.3 1.1-2.8 1.6-4.4 1.6-1.8 0-3.2-.6-4.2-1.7s-1.5-2.6-1.5-4.5c0-1.2.2-2.3.6-3.3.4-1 1-1.7 1.8-2.3.8-.5 1.7-.8 2.8-.8 1.7 0 3 .5 3.9 1.6.9 1.1 1.4 2.5 1.4 4.4v1.3zm-2.8-2c0-2.1-.8-3.1-2.3-3.1-.7 0-1.3.3-1.7.8-.4.5-.6 1.3-.7 2.5h4.7v-.2zM314 510v5.7h-2.1l-.4-3.6h-7l-.4 3.6H302V510h.8c.3-.2.6-.5.8-.8s.4-.8.5-1.6c.2-.7.3-1.8.4-3.2l.3-4.2h8v9.7h1.2zm-4-7.6h-2.7l-.2 1.9c-.1 1.3-.2 2.3-.4 3s-.4 1.3-.6 1.7c-.3.4-.6.8-1.1 1h4.9v-7.6zM325.2 510.1c.1.2.4.4.7.5l-.6 1.9c-.7-.1-1.2-.2-1.7-.5s-.8-.7-1-1.2c-.4.6-.9 1-1.5 1.3-.6.3-1.3.4-2 .4-1.2 0-2.1-.3-2.8-1-.7-.7-1-1.6-1-2.7 0-1.3.5-2.3 1.4-3 .9-.7 2.3-1 4-1h1.5v-.7c0-.8-.2-1.3-.5-1.6-.4-.3-.9-.5-1.7-.5-.9 0-1.9.2-3.1.6l-.7-2c1.5-.6 2.9-.9 4.3-.9 3 0 4.6 1.4 4.6 4.1v5c-.1.7 0 1.1.1 1.3zm-3-1.1v-2.4H321c-1.9 0-2.8.7-2.8 2.1 0 .6.1 1 .4 1.3.3.3.7.5 1.3.5 1 0 1.7-.5 2.3-1.5zM338.4 500.3l-3.4 5.5 3.7 6.4h-3.2l-2.9-5.3h-1.3v5.3h-2.9v-11.9h2.9v4.7h1.3l2.8-4.7h3zM349.3 500.3l-.4 2.2h-3.5v9.7h-2.9v-9.7h-3.7v-2.2h10.5zM360.9 512.2h-2.8v-4.8c0-.9 0-1.7.1-2.5s.2-1.4.2-1.7l-4.4 9h-3.1v-11.9h2.8v4.8c0 .8 0 1.6-.1 2.5s-.2 1.4-.3 1.7l4.4-9h3.1v11.9zM373.8 501.6c.7 1.1 1.1 2.6 1.1 4.6 0 1.2-.2 2.3-.6 3.3-.4 1-.9 1.7-1.6 2.2-.7.5-1.6.8-2.5.8-1.3 0-2.3-.4-3-1.3v5.6l-2.9.3v-16.8h2.5l.2 1.5c.5-.6 1-1 1.6-1.3.6-.3 1.2-.4 1.9-.4 1.5-.1 2.6.4 3.3 1.5zm-1.9 4.7c0-1.5-.2-2.5-.6-3.1-.4-.6-.9-1-1.7-1-.5 0-.9.1-1.3.4-.4.3-.8.7-1.1 1.2v5.4c.6.8 1.3 1.2 2.2 1.2 1.6 0 2.5-1.4 2.5-4.1zM386.7 501.7c1 1.1 1.5 2.7 1.5 4.6 0 1.2-.2 2.3-.7 3.3-.4 1-1.1 1.7-1.9 2.2-.8.5-1.8.8-3 .8-1.8 0-3.1-.6-4.1-1.7-1-1.1-1.5-2.7-1.5-4.6 0-1.2.2-2.3.7-3.3s1.1-1.7 1.9-2.2c.8-.5 1.8-.8 3-.8 1.7 0 3.1.6 4.1 1.7zm-6.7 4.6c0 1.4.2 2.4.6 3.1s1.1 1 1.9 1 1.5-.3 1.9-1c.4-.7.6-1.7.6-3.1 0-1.4-.2-2.4-.6-3.1s-1.1-1-1.9-1c-1.6 0-2.5 1.3-2.5 4.1zM400.7 508.6c0 1.2-.5 2.1-1.4 2.7-.9.6-2.2.9-3.8.9h-4.7v-11.8c1.6-.3 3.1-.5 4.3-.5 1.5 0 2.8.3 3.6.8.9.6 1.3 1.4 1.3 2.4 0 .7-.2 1.2-.6 1.6-.4.4-1 .7-1.8.9 2.1.4 3.1 1.3 3.1 3zm-7-6.5v3h1.7c1.2 0 1.9-.5 1.9-1.6 0-1-.7-1.5-2.1-1.5-.4-.1-.9 0-1.5.1zm4.1 6.3c0-.6-.2-1-.5-1.2-.3-.3-.9-.4-1.7-.4h-1.8v3.4h1.8c1.4 0 2.2-.6 2.2-1.8zM412.2 510.1c.1.2.4.4.7.5l-.6 1.9c-.7-.1-1.2-.2-1.7-.5s-.8-.7-1-1.2c-.4.6-.9 1-1.5 1.3-.6.3-1.3.4-2 .4-1.2 0-2.1-.3-2.8-1-.7-.7-1-1.6-1-2.7 0-1.3.5-2.3 1.4-3 .9-.7 2.3-1 4-1h1.5v-.7c0-.8-.2-1.3-.5-1.6-.4-.3-.9-.5-1.7-.5-.9 0-1.9.2-3.1.6l-.7-2c1.5-.6 2.9-.9 4.3-.9 3 0 4.6 1.4 4.6 4.1v5c-.1.7 0 1.1.1 1.3zm-3-1.1v-2.4H408c-1.9 0-2.8.7-2.8 2.1 0 .6.1 1 .4 1.3.3.3.7.5 1.3.5 1 0 1.7-.5 2.3-1.5zM423.8 500.3l-.4 2.2H420v9.7h-2.9v-9.7h-3.7v-2.2h10.4zM433.6 505.1c.9.7 1.3 1.7 1.3 3s-.5 2.3-1.4 3-2.1 1-3.5 1h-4.5v-11.9h2.9v3.8h1.2c1.8.1 3.1.4 4 1.1zm-1.7 3c0-.7-.2-1.2-.5-1.6-.4-.3-1-.5-1.8-.5h-1.1v4.2h1.3c1.3 0 2.1-.7 2.1-2.1z"/></g><g><circle class="st16" cx="484.2" cy="506.3" r="14.9"/></g><path transform="rotate(45.001 484.249 506.29)" class="st1" d="M482.2 498.4h4.1v15.8h-4.1z"/><path transform="rotate(-45.001 484.237 506.3)" class="st1" d="M482.2 498.4h4.1v15.8h-4.1z"/><g><path class="st9" d="M515.6 507.8c-.4 1.1-.9 2-1.4 2.6-.5.6-1.1 1.1-1.9 1.4-.7.3-1.6.6-2.7.7l-.4-2.1c1-.2 1.8-.4 2.3-.8.5-.3.9-.9 1.3-1.7h-1l-4.9-11.4h3.1l3.7 9.6 3.2-9.6h3l-4.3 11.3zM530.5 510v5.7h-2.1l-.4-3.6h-7l-.4 3.6h-2.1V510h.8c.3-.2.6-.5.8-.8s.4-.8.5-1.6c.2-.7.3-1.8.4-3.2l.3-4.2h8v9.7h1.2zm-4-7.6h-2.7l-.2 1.9c-.1 1.3-.2 2.3-.4 3s-.4 1.3-.6 1.7c-.3.4-.6.8-1.1 1h4.9v-7.6zM541.7 510.1c.1.2.4.4.7.5l-.6 1.9c-.7-.1-1.2-.2-1.7-.5s-.8-.7-1-1.2c-.4.6-.9 1-1.5 1.3-.6.3-1.3.4-2 .4-1.2 0-2.1-.3-2.8-1-.7-.7-1-1.6-1-2.7 0-1.3.5-2.3 1.4-3 .9-.7 2.3-1 4-1h1.5v-.7c0-.8-.2-1.3-.5-1.6-.4-.3-.9-.5-1.7-.5-.9 0-1.9.2-3.1.6l-.7-2c1.5-.6 2.9-.9 4.3-.9 3 0 4.6 1.4 4.6 4.1v5c-.1.7 0 1.1.1 1.3zm-3-1.1v-2.4h-1.2c-1.9 0-2.8.7-2.8 2.1 0 .6.1 1 .4 1.3.3.3.7.5 1.3.5 1 0 1.7-.5 2.3-1.5zM554.4 500.3v11.9h-2.9v-9.7h-2.9l-.3 3.2c-.1 1.7-.3 2.9-.5 3.8-.2.8-.6 1.5-1 1.9s-1.2.8-2.2 1.1l-.7-2.1c.5-.2.9-.4 1.1-.7.2-.3.4-.7.5-1.2.1-.6.2-1.5.3-2.9l.4-5.2h8.2zM567.8 512.2H565v-4.8c0-.9 0-1.7.1-2.5s.2-1.4.2-1.7l-4.4 9h-3.1v-11.9h2.8v4.8c0 .8 0 1.6-.1 2.5s-.2 1.4-.3 1.7l4.4-9h3.1v11.9zM580 500.3l-.4 2.2h-3.5v9.7h-2.9v-9.7h-3.7v-2.2H580zM589.8 505.1c.9.7 1.3 1.7 1.3 3s-.5 2.3-1.4 3-2.1 1-3.5 1h-4.5v-11.9h2.9v3.8h1.2c1.8.1 3.2.4 4 1.1zm-1.7 3c0-.7-.2-1.2-.5-1.6-.4-.3-1-.5-1.8-.5h-1.1v4.2h1.3c1.4 0 2.1-.7 2.1-2.1z"/></g></g><path class="st17" d="M66.9 575.7h1306.3v56.1H66.9z"/><path class="st17" d="M398.7 575.7h.2v409.5h-.2z"/><g><path class="st9" d="M113.8 595.8l-.3 2.1h-3.7v11.9h-2.7V598h-3.8v-2.1h10.5zM122.4 600.3c.9 1 1.3 2.4 1.3 4.2 0 1.1-.2 2.1-.6 3-.4.9-1 1.5-1.7 2-.8.5-1.7.7-2.7.7-1.6 0-2.8-.5-3.7-1.5-.9-1-1.3-2.4-1.3-4.2 0-1.1.2-2.1.6-3 .4-.9 1-1.5 1.8-2s1.7-.7 2.7-.7c1.5 0 2.7.5 3.6 1.5zm-6 4.2c0 1.3.2 2.2.6 2.8.4.6 1 .9 1.7.9.8 0 1.4-.3 1.7-.9.4-.6.6-1.5.6-2.8 0-1.3-.2-2.2-.6-2.8-.4-.6-1-.9-1.7-.9-1.6 0-2.3 1.2-2.3 3.7zM135.1 606.6c0 1.1-.4 1.9-1.3 2.5-.8.5-2 .8-3.4.8h-4.2v-10.6c1.4-.3 2.8-.4 3.9-.4 1.4 0 2.5.3 3.3.7.8.5 1.2 1.2 1.2 2.2 0 .6-.2 1.1-.6 1.5-.4.4-.9.6-1.7.8 1.9.1 2.8 1 2.8 2.5zm-6.3-5.9v2.7h1.5c1.1 0 1.7-.5 1.7-1.4 0-.9-.6-1.4-1.9-1.4-.4 0-.8 0-1.3.1zm3.6 5.7c0-.5-.2-.9-.5-1.1-.3-.2-.8-.4-1.5-.4h-1.6v3.1h1.6c1.3.1 2-.5 2-1.6zM145.5 608c.1.2.3.3.6.5l-.5 1.7c-.6-.1-1.1-.2-1.5-.5-.4-.2-.7-.6-.9-1.1-.4.5-.8.9-1.4 1.2-.5.3-1.2.4-1.8.4-1.1 0-1.9-.3-2.5-.9-.6-.6-.9-1.4-.9-2.4 0-1.2.4-2.1 1.3-2.7.8-.6 2.1-.9 3.6-.9h1.3v-.6c0-.7-.2-1.2-.5-1.4-.3-.3-.8-.4-1.5-.4-.8 0-1.7.2-2.8.6l-.6-1.8c1.3-.5 2.6-.8 3.9-.8 2.8 0 4.1 1.2 4.1 3.7v4.5c-.1.3 0 .7.1.9zm-2.7-1v-2.2h-1.1c-1.7 0-2.5.6-2.5 1.9 0 .5.1.9.4 1.2.3.3.6.4 1.1.4.9 0 1.6-.5 2.1-1.3zM157.1 600.3c.6 1 1 2.4 1 4.2 0 1.1-.2 2.1-.5 3-.3.9-.8 1.5-1.5 2-.6.5-1.4.7-2.3.7-1.1 0-2-.4-2.7-1.2v5l-2.6.3v-15.2h2.3l.1 1.3c.4-.5.9-1 1.4-1.2s1.1-.4 1.7-.4c1.4 0 2.4.5 3.1 1.5zm-1.8 4.2c0-1.3-.2-2.3-.5-2.8-.3-.6-.8-.9-1.5-.9-.4 0-.8.1-1.2.4-.4.3-.7.6-1 1.1v4.8c.5.7 1.2 1.1 2 1.1 1.4 0 2.2-1.2 2.2-3.7z"/></g><g><path class="st18" d="M89.4 602.4l-4.4-9.3-4.4 9.3z"/><path class="st19" d="M80.6 607.5l4.4 9.3 4.4-9.3z"/></g><g><path class="st9" d="M449.4 596.6l-.3 1.9h-4.9v3.7h4.3v1.9h-4.3v3.9h5.2v1.9h-7.8v-13.2h7.8zM460.5 608v4.9h-1.8l-.3-3h-6l-.3 3h-1.8V608h.7c.3-.2.5-.4.6-.7.2-.3.3-.7.4-1.3.1-.6.2-1.5.3-2.7l.3-3.6h6.8v8.3h1.1zm-3.4-6.5h-2.3l-.1 1.6c-.1 1.1-.2 2-.3 2.6-.1.6-.3 1.1-.5 1.5-.2.4-.5.6-.9.9h4.2v-6.6zM464.6 607.5c.3.3.5.7.5 1.1 0 .4-.1.8-.5 1.1-.3.3-.7.5-1.1.5-.4 0-.8-.1-1.1-.5-.3-.3-.4-.7-.4-1.1 0-.4.1-.8.4-1.1.3-.3.7-.5 1.1-.5.4.1.8.2 1.1.5zM480.5 609.9h-2.4v-4.1c0-.7 0-1.4.1-2.1.1-.7.1-1.1.2-1.5l-3.8 7.6H472v-10.1h2.4v4.1c0 .7 0 1.4-.1 2.1-.1.7-.1 1.2-.2 1.5l3.7-7.6h2.7v10.1zM489.1 600.2c.7.5 1.1 1.2 1.1 2 0 .6-.2 1-.5 1.4-.3.4-.9.6-1.6.8.9.1 1.6.4 2 .8.4.4.7.9.7 1.7 0 1-.4 1.8-1.3 2.4-.8.6-1.9.8-3.3.8-1.6 0-2.9-.4-4-1.2l1.2-1.4c.4.3.9.5 1.3.6.4.1.9.2 1.4.2 1.4 0 2.1-.5 2.1-1.5 0-.9-.7-1.4-2.2-1.4h-1.5l.2-1.7h1.1c.6 0 1.1-.1 1.4-.3.3-.2.5-.6.5-1s-.1-.7-.4-.9c-.3-.2-.7-.3-1.2-.3s-.9.1-1.3.2-.7.3-1.1.6l-1.1-1.4c.5-.4 1.1-.7 1.7-.9.6-.2 1.3-.3 2.1-.3 1 .1 2 .3 2.7.8zM503.6 609.9h-2.3l-.3-4.2c0-.6-.1-1.3-.1-2v-1.8l-1.9 6.8h-2.1L495 602c0 .7.1 1.4.1 2.1v1.7l-.3 4.2h-2.3l.9-10.1h3l1.6 6.9 1.8-6.9h3l.8 10zM507.8 607.5c.3.3.5.7.5 1.1 0 .4-.1.8-.5 1.1-.3.3-.7.5-1.1.5-.4 0-.8-.1-1.1-.5-.3-.3-.4-.7-.4-1.1 0-.4.1-.8.4-1.1.3-.3.7-.5 1.1-.5.4.1.8.2 1.1.5z"/></g><g><path class="st18" d="M425.2 602.4l-4.3-9.3-4.4 9.3z"/><path class="st19" d="M416.5 607.5l4.4 9.3 4.3-9.3z"/></g><path class="st17" d="M535.9 575.7h.2v409.5h-.2z"/><g><path class="st9" d="M118.4 643.8c.6.2 1.2.6 1.8 1.1l-1.3 1.5c-.8-.6-1.6-.9-2.5-.9-1 0-1.8.4-2.4 1.2-.6.8-.9 2-.9 3.7 0 1.7.3 2.9.9 3.7s1.4 1.2 2.4 1.2c.5 0 1-.1 1.4-.3.4-.2.8-.5 1.3-.8l1.2 1.5c-.4.5-1 .8-1.7 1.1-.7.3-1.4.5-2.3.5-1.1 0-2.2-.3-3-.8s-1.6-1.3-2-2.4c-.5-1-.7-2.3-.7-3.8 0-1.4.3-2.7.8-3.7s1.2-1.8 2.1-2.4c.9-.5 1.9-.8 3-.8.6.1 1.3.2 1.9.4zM129.5 655.2c.1.2.3.3.6.4l-.5 1.6c-.6-.1-1-.2-1.4-.4-.4-.2-.6-.6-.8-1.1-.3.5-.8.9-1.3 1.1s-1.1.4-1.7.4c-1 0-1.8-.3-2.4-.9-.6-.6-.9-1.3-.9-2.3 0-1.1.4-1.9 1.2-2.5.8-.6 1.9-.9 3.4-.9h1.3v-.6c0-.7-.2-1.1-.4-1.4-.3-.3-.8-.4-1.4-.4-.7 0-1.6.2-2.7.5l-.6-1.7c1.3-.5 2.5-.7 3.7-.7 2.6 0 3.9 1.2 3.9 3.5v4.2c-.1.7-.1 1 0 1.2zm-2.5-1v-2h-1c-1.6 0-2.4.6-2.4 1.8 0 .5.1.9.4 1.1.2.3.6.4 1.1.4.7 0 1.4-.4 1.9-1.3zM140.4 646.8V657h-2.5v-8.3h-2.5l-.2 2.7c-.1 1.4-.3 2.5-.5 3.2-.2.7-.5 1.3-.9 1.7-.4.4-1.1.7-1.9.9l-.6-1.8c.4-.2.7-.4.9-.6.2-.2.3-.6.4-1.1.1-.5.2-1.3.3-2.5l.3-4.4h7.2zM151 655.2c.1.2.3.3.6.4l-.5 1.6c-.6-.1-1-.2-1.4-.4-.4-.2-.6-.6-.8-1.1-.3.5-.8.9-1.3 1.1s-1.1.4-1.7.4c-1 0-1.8-.3-2.4-.9-.6-.6-.9-1.3-.9-2.3 0-1.1.4-1.9 1.2-2.5.8-.6 1.9-.9 3.4-.9h1.3v-.6c0-.7-.2-1.1-.4-1.4-.3-.3-.8-.4-1.4-.4-.7 0-1.6.2-2.7.5l-.6-1.7c1.3-.5 2.5-.7 3.7-.7 2.6 0 3.9 1.2 3.9 3.5v4.2c-.2.7-.2 1 0 1.2zm-2.6-1v-2h-1c-1.6 0-2.4.6-2.4 1.8 0 .5.1.9.4 1.1.2.3.6.4 1.1.4.8 0 1.4-.4 1.9-1.3zM160.8 646.8l-.3 1.9h-3v8.3H155v-8.3h-3v-1.9h8.8z"/></g><g><path class="st17" d="M90.7 662.2H79.3c-2.6 0-4.7-2.1-4.7-4.7V646c0-2.6 2.1-4.7 4.7-4.7h11.5c2.6 0 4.7 2.1 4.7 4.7v11.5c-.1 2.6-2.2 4.7-4.8 4.7zm-11.4-20.5c-2.4 0-4.4 2-4.4 4.4v11.5c0 2.4 2 4.4 4.4 4.4h11.5c2.4 0 4.4-2 4.4-4.4V646c0-2.4-2-4.4-4.4-4.4H79.3z"/><path class="st18" d="M79.1 651.6h11.8v.3H79.1z"/></g><g><path class="st20" d="M124.9 684.6c.5.2 1.1.5 1.7 1l-1 1.2c-.8-.7-1.7-1-2.5-1-1.1 0-2 .4-2.7 1.3-.7.8-1 2.2-1 4.1 0 1.8.3 3.1 1 4s1.5 1.3 2.6 1.3c.6 0 1.1-.1 1.5-.3.4-.2.9-.5 1.3-.8l.9 1.1c-.4.4-.9.8-1.6 1.1s-1.4.4-2.2.4c-1.1 0-2-.3-2.9-.8-.8-.5-1.5-1.3-2-2.3s-.7-2.3-.7-3.7.2-2.7.7-3.7c.5-1 1.1-1.8 2-2.3.8-.5 1.8-.8 2.8-.8.9-.1 1.6 0 2.1.2zM135.7 696.3c.1.2.4.3.6.5l-.3 1.2c-.5-.1-.9-.2-1.3-.4-.3-.2-.6-.6-.7-1.1-.7 1-1.7 1.5-3 1.5-1 0-1.8-.3-2.4-.8-.6-.6-.9-1.3-.9-2.2 0-1.1.4-1.9 1.2-2.5.8-.6 1.9-.9 3.3-.9h1.6v-.7c0-.7-.2-1.2-.5-1.5-.3-.3-.9-.5-1.6-.5-.7 0-1.6.2-2.7.5l-.4-1.3c1.3-.5 2.4-.7 3.5-.7 1.2 0 2.1.3 2.7.9.6.6.9 1.4.9 2.5v4.6c-.2.4-.1.7 0 .9zm-1.9-1.2v-2.3h-1.3c-1.9 0-2.8.7-2.8 2.1 0 .6.1 1.1.4 1.4s.7.5 1.3.5c1-.2 1.8-.7 2.4-1.7zM146.5 687.6v10.1h-1.8V689h-3.1l-.3 3.4c-.1 1.4-.3 2.4-.4 3.1-.2.7-.4 1.2-.8 1.6-.4.4-.9.7-1.7.9l-.4-1.4c.4-.2.7-.4.9-.6.2-.2.3-.6.4-1.1.1-.5.2-1.4.3-2.6l.4-4.6h6.5zM157.2 696.3c.1.2.4.3.6.5l-.4 1.2c-.5-.1-.9-.2-1.3-.4-.3-.2-.6-.6-.7-1.1-.7 1-1.7 1.5-3 1.5-1 0-1.8-.3-2.4-.8-.6-.6-.9-1.3-.9-2.2 0-1.1.4-1.9 1.2-2.5.8-.6 1.9-.9 3.3-.9h1.6v-.7c0-.7-.2-1.2-.5-1.5-.3-.3-.9-.5-1.6-.5-.7 0-1.6.2-2.7.5l-.4-1.3c1.3-.5 2.4-.7 3.5-.7 1.2 0 2.1.3 2.7.9.6.6.9 1.4.9 2.5v4.6c-.1.4-.1.7.1.9zm-2-1.2v-2.3h-1.3c-1.9 0-2.8.7-2.8 2.1 0 .6.1 1.1.4 1.4s.7.5 1.3.5c1-.2 1.8-.7 2.4-1.7zM167 687.6l-.2 1.4h-3.2v8.7h-1.8V689h-3.3v-1.4h8.5zM179.2 687.7c.5.2 1 .5 1.4.8l-.8 1.1c-.4-.3-.7-.4-1-.6-.3-.1-.7-.2-1.1-.2-.8 0-1.5.3-1.9 1-.5.7-.7 1.6-.7 2.9 0 1.3.2 2.2.7 2.8.4.6 1.1.9 1.9.9.4 0 .8-.1 1.1-.2s.7-.3 1.1-.6l.8 1.1c-.9.7-1.9 1.1-3.1 1.1-1.4 0-2.4-.5-3.2-1.4-.8-.9-1.2-2.2-1.2-3.8 0-1.1.2-2 .5-2.8.4-.8.9-1.4 1.5-1.9.7-.4 1.4-.7 2.3-.7.7.2 1.2.3 1.7.5zM190.9 694.6c0 1.1-.4 1.8-1.2 2.3-.8.5-1.8.8-3.1.8H183v-10c1.2-.2 2.3-.4 3.3-.4 1.3 0 2.2.2 3 .7.7.5 1.1 1.1 1.1 2 0 .6-.2 1-.5 1.4s-.9.6-1.5.7c1.7.3 2.5 1.1 2.5 2.5zm-6.1-5.7v2.9h1.9c.6 0 1.1-.1 1.4-.3.3-.2.5-.6.5-1.2 0-.5-.2-.9-.6-1.1-.4-.2-.9-.3-1.7-.3-.4-.1-1-.1-1.5 0zm3.7 7.1c.4-.3.6-.7.6-1.4 0-.5-.2-.9-.5-1.2-.4-.2-1-.4-1.8-.4h-1.9v3.3h1.9c.6 0 1.2-.1 1.7-.3zM201.4 693.3H195c.1 1.1.4 1.9.8 2.5s1.1.8 1.9.8c.5 0 .9-.1 1.3-.2s.8-.4 1.3-.7l.8 1.1c-1.1.8-2.2 1.3-3.5 1.3-1.4 0-2.5-.5-3.3-1.4-.8-.9-1.2-2.2-1.2-3.8 0-1 .2-2 .5-2.8.3-.8.8-1.4 1.5-1.9.6-.5 1.4-.7 2.2-.7 1.3 0 2.4.4 3.1 1.3.7.9 1.1 2.1 1.1 3.7-.1.2-.1.5-.1.8zm-1.7-1.4c0-1-.2-1.8-.6-2.3-.4-.5-1-.8-1.8-.8-1.4 0-2.2 1.1-2.4 3.2h4.7v-.1zM215.2 687.6l-2.5 4.7 2.9 5.4h-1.9l-2.4-4.6H210v4.6h-1.7v-4.6H207l-2.4 4.6h-1.9l2.9-5.4-2.5-4.7h1.8l2.1 4.1h1.3v-4.1h1.7v4.1h1.4l2.1-4.1h1.7zM225.7 697.7H224v-4.6c0-.8 0-1.5.1-2.2.1-.7.1-1.1.1-1.4l-4.2 8.1h-2.1v-10.1h1.7v4.6c0 .7 0 1.4-.1 2.1-.1.7-.1 1.2-.1 1.4l4.2-8h2.1v10.1zM237.1 697.7h-1.7v-4.6c0-.8 0-1.5.1-2.2.1-.7.1-1.1.1-1.4l-4.2 8.1h-2.1v-10.1h1.7v4.6c0 .7 0 1.4-.1 2.1-.1.7-.1 1.2-.1 1.4l4.2-8h2.1v10.1zm-5.9-12.9c-.5-.4-.8-.9-.9-1.6l1.2-.2c.1.4.3.7.6.9s.6.3 1.1.3.8-.1 1.1-.3c.3-.2.5-.5.6-.9l1.2.2c-.1.7-.4 1.2-.9 1.6-.5.4-1.2.6-2 .6s-1.5-.2-2-.6z"/></g><g><path class="st17" d="M66.9 671.7h1306.3v.2H66.9zM66.9 711.8h1306.3v.2H66.9zM66.9 751.8h1306.3v.2H66.9zM66.9 791.9h1306.3v.2H66.9zM66.9 831.9h1306.3v.2H66.9zM66.9 872h1306.3v.2H66.9zM66.9 912h1306.3v.2H66.9zM66.9 952h1306.3v.2H66.9z"/></g><g><path class="st9" d="M118.4 724.5c.6.2 1.2.6 1.8 1.1l-1.3 1.5c-.8-.6-1.6-.9-2.5-.9-1 0-1.8.4-2.4 1.2-.6.8-.9 2-.9 3.7 0 1.7.3 2.9.9 3.7s1.4 1.2 2.4 1.2c.5 0 1-.1 1.4-.3.4-.2.8-.5 1.3-.8l1.2 1.5c-.4.5-1 .8-1.7 1.1-.7.3-1.4.5-2.3.5-1.1 0-2.2-.3-3-.8s-1.6-1.3-2-2.4c-.5-1-.7-2.3-.7-3.8 0-1.4.3-2.7.8-3.7s1.2-1.8 2.1-2.4c.9-.5 1.9-.8 3-.8.6.1 1.3.2 1.9.4z"/><path class="st9" d="M126 737.7c-.4 1.3-1 2.2-1.9 2.9-.8.7-2 1.1-3.4 1.2l-.2-1.8c.7-.1 1.2-.2 1.6-.4.4-.2.7-.4 1-.7.2-.3.5-.7.7-1.2h-.8l-3.2-10.1h2.6l2.2 8.5 2.3-8.5h2.5l-3.4 10.1zM136.6 737.7v-8.3h-3.4v8.3h-2.5v-10.1h8.3v10.1h-2.4zM148.7 731.6c.7.6 1.1 1.5 1.1 2.6s-.4 2-1.2 2.6c-.8.6-1.8.9-3 .9H142v-10.1h2.5v3.2h.8c1.6 0 2.7.2 3.4.8zm-1.4 2.6c0-.6-.2-1-.5-1.3s-.8-.4-1.6-.4h-.8v3.6h1c1.3-.1 1.9-.7 1.9-1.9zm3.7-6.6h2.5v10.1H151v-10.1z"/></g><g><path class="st17" d="M90.7 742.9H79.3c-2.6 0-4.7-2.1-4.7-4.7v-11.5c0-2.6 2.1-4.7 4.7-4.7h11.5c2.6 0 4.7 2.1 4.7 4.7v11.5c-.1 2.6-2.2 4.7-4.8 4.7zm-11.4-20.5c-2.4 0-4.4 2-4.4 4.4v11.5c0 2.4 2 4.4 4.4 4.4h11.5c2.4 0 4.4-2 4.4-4.4v-11.5c0-2.4-2-4.4-4.4-4.4H79.3z"/><path class="st18" d="M79.1 732.3h11.8v.3H79.1z"/><path class="st18" d="M84.9 726.6h.3v11.8h-.3z"/></g><g><path class="st9" d="M83.3 764.8c.5.2 1.1.5 1.7 1l-1 1.2c-.8-.7-1.7-1-2.5-1-1.1 0-2 .4-2.7 1.3-.7.8-1 2.2-1 4.1 0 1.8.3 3.1 1 4s1.5 1.3 2.6 1.3c.6 0 1.1-.1 1.5-.3.4-.2.9-.5 1.3-.8l.9 1.1c-.4.4-.9.8-1.6 1.1s-1.4.4-2.2.4c-1.1 0-2-.3-2.9-.8-.8-.5-1.5-1.3-2-2.3s-.7-2.3-.7-3.7.2-2.7.7-3.7c.5-1 1.1-1.8 2-2.3.8-.5 1.8-.8 2.8-.8.8-.1 1.5 0 2.1.2zM94 769c.8.9 1.2 2.2 1.2 3.8 0 1-.2 2-.5 2.8-.4.8-.9 1.4-1.6 1.9-.7.4-1.5.7-2.4.7-1.4 0-2.5-.5-3.3-1.4-.8-.9-1.2-2.2-1.2-3.8 0-1 .2-2 .5-2.8.4-.8.9-1.4 1.6-1.9.7-.4 1.5-.7 2.4-.7 1.4 0 2.5.4 3.3 1.4zm-5.9 3.9c0 2.6.9 3.8 2.6 3.8 1.7 0 2.6-1.3 2.6-3.9 0-2.6-.9-3.8-2.6-3.8-1.8 0-2.6 1.3-2.6 3.9zM103.4 767.8c.5.2 1 .5 1.4.8l-.8 1.1c-.4-.3-.7-.4-1-.6-.3-.1-.7-.2-1.1-.2-.8 0-1.5.3-1.9 1-.5.7-.7 1.6-.7 2.9 0 1.3.2 2.2.7 2.8.4.6 1.1.9 1.9.9.4 0 .8-.1 1.1-.2s.7-.3 1.1-.6l.8 1.1c-.9.7-1.9 1.1-3.1 1.1-1.4 0-2.4-.5-3.2-1.4-.8-.9-1.2-2.2-1.2-3.8 0-1.1.2-2 .5-2.8.4-.8.9-1.4 1.5-1.9.7-.4 1.4-.7 2.3-.7.6.3 1.2.4 1.7.5zM114 776.4c.1.2.4.3.6.5l-.4 1.2c-.5-.1-.9-.2-1.3-.4-.3-.2-.6-.6-.7-1.1-.7 1-1.7 1.5-3 1.5-1 0-1.8-.3-2.4-.8-.6-.6-.9-1.3-.9-2.2 0-1.1.4-1.9 1.2-2.5.8-.6 1.9-.9 3.3-.9h1.6v-.7c0-.7-.2-1.2-.5-1.5-.3-.3-.9-.5-1.6-.5-.7 0-1.6.2-2.7.5l-.4-1.3c1.3-.5 2.4-.7 3.5-.7 1.2 0 2.1.3 2.7.9.6.6.9 1.4.9 2.5v4.6c-.1.4 0 .7.1.9zm-1.9-1.2v-2.3h-1.3c-1.9 0-2.8.7-2.8 2.1 0 .6.1 1.1.4 1.4s.7.5 1.3.5c1-.1 1.8-.6 2.4-1.7zM129.2 764.8c.5.2 1.1.5 1.7 1l-1 1.2c-.8-.7-1.7-1-2.5-1-1.1 0-2 .4-2.7 1.3-.7.8-1 2.2-1 4.1 0 1.8.3 3.1 1 4s1.5 1.3 2.6 1.3c.6 0 1.1-.1 1.5-.3.4-.2.9-.5 1.3-.8l.9 1.1c-.4.4-.9.8-1.6 1.1s-1.4.4-2.2.4c-1.1 0-2-.3-2.9-.8-.8-.5-1.5-1.3-2-2.3s-.7-2.3-.7-3.7.2-2.7.7-3.7c.5-1 1.1-1.8 2-2.3.8-.5 1.8-.8 2.8-.8.9-.1 1.6 0 2.1.2zM139.9 769c.8.9 1.2 2.2 1.2 3.8 0 1-.2 2-.5 2.8-.4.8-.9 1.4-1.6 1.9-.7.4-1.5.7-2.4.7-1.4 0-2.5-.5-3.3-1.4-.8-.9-1.2-2.2-1.2-3.8 0-1 .2-2 .5-2.8.4-.8.9-1.4 1.6-1.9.7-.4 1.5-.7 2.4-.7 1.5 0 2.6.4 3.3 1.4zm-5.9 3.9c0 2.6.9 3.8 2.6 3.8 1.7 0 2.6-1.3 2.6-3.9 0-2.6-.9-3.8-2.6-3.8-1.7 0-2.6 1.3-2.6 3.9zM144.5 777.5c-.4-.4-.6-.9-.6-1.6v-12.2l1.8-.2v12.3c0 .3 0 .5.1.6.1.1.3.2.5.2s.5 0 .7-.1l.5 1.2c-.4.2-.9.3-1.4.3-.7.1-1.2-.1-1.6-.5zM156.6 776.4c.1.2.4.3.6.5l-.4 1.2c-.5-.1-.9-.2-1.3-.4-.3-.2-.6-.6-.7-1.1-.7 1-1.7 1.5-3 1.5-1 0-1.8-.3-2.4-.8-.6-.6-.9-1.3-.9-2.2 0-1.1.4-1.9 1.2-2.5.8-.6 1.9-.9 3.3-.9h1.6v-.7c0-.7-.2-1.2-.5-1.5-.3-.3-.9-.5-1.6-.5-.7 0-1.6.2-2.7.5l-.4-1.3c1.3-.5 2.4-.7 3.5-.7 1.2 0 2.1.3 2.7.9.6.6.9 1.4.9 2.5v4.6c-.2.4-.1.7.1.9zm-2-1.2v-2.3h-1.3c-1.9 0-2.8.7-2.8 2.1 0 .6.1 1.1.4 1.4s.7.5 1.3.5c1-.1 1.8-.6 2.4-1.7z"/></g><g><path class="st9" d="M81 812.2l4 7.1h-2.1l-3-5.8-3.1 5.8h-2l4-7-3.6-6.2h2.1l2.7 5 2.7-5h2l-3.7 6.1zM94.3 809.3v10.1h-1.8v-8.7h-3.1l-.3 3.4c-.1 1.4-.3 2.4-.4 3.1-.2.7-.4 1.2-.8 1.6-.4.4-.9.7-1.7.9l-.4-1.4c.4-.2.7-.4.9-.6.2-.2.3-.6.4-1.1.1-.5.2-1.4.3-2.6l.4-4.6h6.5zM105.5 814.9h-6.4c.1 1.1.4 1.9.8 2.5s1.1.8 1.9.8c.5 0 .9-.1 1.3-.2s.8-.4 1.3-.7l.8 1.1c-1.1.8-2.2 1.3-3.5 1.3-1.4 0-2.5-.5-3.3-1.4-.8-.9-1.2-2.2-1.2-3.8 0-1 .2-2 .5-2.8.3-.8.8-1.4 1.5-1.9.6-.5 1.4-.7 2.2-.7 1.3 0 2.4.4 3.1 1.3.7.9 1.1 2.1 1.1 3.7-.1.2-.1.5-.1.8zm-1.7-1.4c0-1-.2-1.8-.6-2.3-.4-.5-1-.8-1.8-.8-1.4 0-2.2 1.1-2.4 3.2h4.7v-.1zM115.5 811.2c.7.8 1 2 1 3.4 0 1.6-.4 2.8-1.2 3.7-.8.9-1.9 1.3-3.2 1.3-1.4 0-2.4-.5-3.2-1.4s-1.2-2.4-1.2-4.3c0-1.5.1-2.7.3-3.6.2-.9.6-1.7 1.2-2.3.6-.6 1.3-1.1 2.3-1.4.8-.3 1.4-.5 1.8-.7.5-.2.9-.5 1.4-.8l.7 1.3c-.4.3-.9.5-1.4.8-.5.2-1.1.5-1.7.7-.6.2-1.1.5-1.5.7s-.7.7-.9 1.2c-.2.5-.4 1.2-.4 2.1.4-.6.8-1 1.4-1.4.6-.3 1.2-.5 1.9-.5 1.1-.1 2 .3 2.7 1.2zm-1.6 6.2c.5-.5.7-1.5.7-2.8 0-1.2-.2-2-.6-2.5-.4-.5-.9-.8-1.6-.8-.6 0-1.1.2-1.6.5s-.9.8-1.3 1.4v1.2c0 1.2.2 2.1.7 2.7s1.1 1 1.9 1c.8.1 1.4-.2 1.8-.7zM131.7 811.2c.7.8 1 2 1 3.4 0 1.6-.4 2.8-1.2 3.7-.8.9-1.9 1.3-3.2 1.3-1.4 0-2.4-.5-3.2-1.4s-1.2-2.4-1.2-4.3c0-1.5.1-2.7.3-3.6.2-.9.6-1.7 1.2-2.3.6-.6 1.3-1.1 2.3-1.4.8-.3 1.4-.5 1.8-.7.5-.2.9-.5 1.4-.8l.7 1.3c-.4.3-.9.5-1.4.8-.5.2-1.1.5-1.7.7-.6.2-1.1.5-1.5.7s-.7.7-.9 1.2c-.2.5-.4 1.2-.4 2.1.4-.6.8-1 1.4-1.4.6-.3 1.2-.5 1.9-.5 1.1-.1 2 .3 2.7 1.2zm-1.6 6.2c.5-.5.7-1.5.7-2.8 0-1.2-.2-2-.6-2.5-.4-.5-.9-.8-1.6-.8-.6 0-1.1.2-1.6.5s-.9.8-1.3 1.4v1.2c0 1.2.2 2.1.7 2.7s1.1 1 1.9 1c.7.1 1.3-.2 1.8-.7zM143.2 814.9h-6.4c.1 1.1.4 1.9.8 2.5s1.1.8 1.9.8c.5 0 .9-.1 1.3-.2s.8-.4 1.3-.7l.8 1.1c-1.1.8-2.2 1.3-3.5 1.3-1.4 0-2.5-.5-3.3-1.4-.8-.9-1.2-2.2-1.2-3.8 0-1 .2-2 .5-2.8.3-.8.8-1.4 1.5-1.9.6-.5 1.4-.7 2.2-.7 1.3 0 2.4.4 3.1 1.3.7.9 1.1 2.1 1.1 3.7-.1.2-.1.5-.1.8zm-1.7-1.4c0-1-.2-1.8-.6-2.3-.4-.5-1-.8-1.8-.8-1.4 0-2.2 1.1-2.4 3.2h4.7v-.1zM153.2 809.3v10.1h-1.8v-8.7h-3.1l-.3 3.4c-.1 1.4-.3 2.4-.4 3.1-.2.7-.4 1.2-.8 1.6-.4.4-.9.7-1.7.9l-.4-1.4c.4-.2.7-.4.9-.6.2-.2.3-.6.4-1.1.1-.5.2-1.4.3-2.6l.4-4.6h6.5zM163 813.4c.7.6 1 1.4 1 2.5s-.4 2-1.1 2.6c-.8.6-1.7.9-2.8.9h-3.2v-10.1h1.8v3.3h1.1c1.5-.1 2.6.2 3.2.8zm-1.4 4.1c.4-.3.6-.8.6-1.6 0-.7-.2-1.2-.5-1.6-.4-.3-1-.5-1.9-.5h-1.1v4.1h1.3c.7.1 1.2-.1 1.6-.4zm3.9-8.2h1.8v10.1h-1.8v-10.1zM178.8 819.4H177v-4.6c0-.8 0-1.5.1-2.2.1-.7.1-1.1.1-1.4l-4.2 8.1h-2.1v-10.1h1.7v4.6c0 .7 0 1.4-.1 2.1-.1.7-.1 1.2-.1 1.4l4.2-8h2.1v10.1zm-6-12.9c-.5-.4-.8-.9-.9-1.6l1.2-.2c.1.4.3.7.6.9s.6.3 1.1.3.8-.1 1.1-.3c.3-.2.5-.5.6-.9l1.2.2c-.1.7-.4 1.2-.9 1.6-.5.4-1.2.6-2 .6s-1.4-.2-2-.6z"/></g><g><path class="st9" d="M76.6 857.7v-13.2h7l-.2 1.5h-5v4.5h4.3v1.4h-4.3v5.8h-1.8zM91.8 856.2c.1.2.4.3.6.5l-.4 1.2c-.5-.1-.9-.2-1.3-.4-.3-.2-.6-.6-.7-1.1-.7 1-1.7 1.5-3 1.5-1 0-1.8-.3-2.4-.8-.6-.6-.9-1.3-.9-2.2 0-1.1.4-1.9 1.2-2.5.8-.6 1.9-.9 3.3-.9h1.6v-.7c0-.7-.2-1.2-.5-1.5-.3-.3-.9-.5-1.6-.5-.7 0-1.6.2-2.7.5l-.4-1.3c1.3-.5 2.4-.7 3.5-.7 1.2 0 2.1.3 2.7.9.6.6.9 1.4.9 2.5v4.6c-.1.4 0 .7.1.9zm-2-1.2v-2.3h-1.3c-1.9 0-2.8.7-2.8 2.1 0 .6.1 1.1.4 1.4s.7.5 1.3.5c1.1-.1 1.9-.7 2.4-1.7zM102.1 848.2c.5.5.8 1.3.8 2.3v7.2h-1.8v-7c0-.7-.1-1.2-.4-1.5-.3-.3-.7-.4-1.2-.4s-1 .2-1.4.5c-.4.3-.8.7-1.1 1.3v7.2h-1.8v-10.1h1.5l.2 1.5c.4-.5.8-1 1.3-1.3.5-.3 1.1-.5 1.8-.5.9-.1 1.6.2 2.1.8zM111.5 857.2c-.7.5-1.4.7-2.3.7-.9 0-1.5-.2-2-.7s-.7-1.2-.7-2.1V849h-1.8v-1.4h1.8v-2.3l1.8-.2v2.5h2.4l-.2 1.4h-2.2v6c0 .5.1.9.3 1.1.2.2.5.4.9.4s.8-.1 1.3-.4l.7 1.1zM120.2 856.2c.1.2.4.3.6.5l-.4 1.2c-.5-.1-.9-.2-1.3-.4-.3-.2-.6-.6-.7-1.1-.7 1-1.7 1.5-3 1.5-1 0-1.8-.3-2.4-.8-.6-.6-.9-1.3-.9-2.2 0-1.1.4-1.9 1.2-2.5.8-.6 1.9-.9 3.3-.9h1.6v-.7c0-.7-.2-1.2-.5-1.5-.3-.3-.9-.5-1.6-.5-.7 0-1.6.2-2.7.5l-.4-1.3c1.3-.5 2.4-.7 3.5-.7 1.2 0 2.1.3 2.7.9.6.6.9 1.4.9 2.5v4.6c-.1.4 0 .7.1.9zm-2-1.2v-2.3h-1.3c-1.9 0-2.8.7-2.8 2.1 0 .6.1 1.1.4 1.4s.7.5 1.3.5c1.1-.1 1.9-.7 2.4-1.7z"/></g><g><path class="st9" d="M83.9 885.8c.9.7 1.3 1.7 1.3 3.1 0 1.4-.5 2.5-1.4 3.2-.9.7-2.2 1.1-3.7 1.1h-1.7v4.8h-1.8v-13.2h3.5c1.6 0 2.9.3 3.8 1zm-1.4 5.3c.6-.4.8-1.1.8-2.2 0-.9-.3-1.6-.8-2-.6-.4-1.3-.6-2.4-.6h-1.6v5.5h1.6c1-.1 1.8-.3 2.4-.7zM93.5 892c.7.6 1 1.4 1 2.5s-.4 2-1.1 2.6c-.8.6-1.7.9-2.8.9h-3.2v-10.1H89v3.3h1.1c1.6-.1 2.7.2 3.4.8zm-1.5 4.1c.4-.3.6-.8.6-1.6 0-.7-.2-1.2-.5-1.6-.4-.3-1-.5-1.9-.5H89v4.1h1.3c.8.1 1.3-.1 1.7-.4zm3.9-8.2h1.8V898h-1.8v-10.1zM108.5 889.8c.7.8 1 2 1 3.4 0 1.6-.4 2.8-1.2 3.7-.8.9-1.9 1.3-3.2 1.3-1.4 0-2.4-.5-3.2-1.4s-1.2-2.4-1.2-4.3c0-1.5.1-2.7.3-3.6.2-.9.6-1.7 1.2-2.3.6-.6 1.3-1.1 2.3-1.4.8-.3 1.4-.5 1.8-.7.5-.2.9-.5 1.4-.8l.7 1.3c-.4.3-.9.5-1.4.8-.5.2-1.1.5-1.7.7-.6.2-1.1.5-1.5.7s-.7.7-.9 1.2c-.2.5-.4 1.2-.4 2.1.4-.6.8-1 1.4-1.4.6-.3 1.2-.5 1.9-.5 1.1-.1 2 .3 2.7 1.2zm-1.6 6.2c.5-.5.7-1.5.7-2.8 0-1.2-.2-2-.6-2.5-.4-.5-.9-.8-1.6-.8-.6 0-1.1.2-1.6.5s-.9.8-1.3 1.4v1.2c0 1.2.2 2.1.7 2.7s1.1 1 1.9 1c.8.1 1.4-.2 1.8-.7zM120 887.9l-3.1 4.7 3.4 5.4h-2.1l-2.8-4.7h-1.3v4.7h-1.8v-10.1h1.8v4.1h1.3l2.5-4.1h2.1zM129.1 896.5c.1.2.4.3.6.5l-.4 1.2c-.5-.1-.9-.2-1.3-.4-.3-.2-.6-.6-.7-1.1-.7 1-1.7 1.5-3 1.5-1 0-1.8-.3-2.4-.8-.6-.6-.9-1.3-.9-2.2 0-1.1.4-1.9 1.2-2.5.8-.6 1.9-.9 3.3-.9h1.6v-.7c0-.7-.2-1.2-.5-1.5-.3-.3-.9-.5-1.6-.5-.7 0-1.6.2-2.7.5l-.4-1.3c1.3-.5 2.4-.7 3.5-.7 1.2 0 2.1.3 2.7.9.6.6.9 1.4.9 2.5v4.6c-.1.4-.1.7.1.9zm-2-1.2V893h-1.3c-1.9 0-2.8.7-2.8 2.1 0 .6.1 1.1.4 1.4s.7.5 1.3.5c1-.1 1.8-.7 2.4-1.7zM142.9 887.9c.5.2 1 .5 1.4.8l-.8 1.1c-.4-.3-.7-.4-1-.6-.3-.1-.7-.2-1.1-.2-.8 0-1.5.3-1.9 1-.5.7-.7 1.6-.7 2.9 0 1.3.2 2.2.7 2.8.4.6 1.1.9 1.9.9.4 0 .8-.1 1.1-.2s.7-.3 1.1-.6l.8 1.1c-.9.7-1.9 1.1-3.1 1.1-1.4 0-2.4-.5-3.2-1.4-.8-.9-1.2-2.2-1.2-3.8 0-1.1.2-2 .5-2.8.4-.8.9-1.4 1.5-1.9.7-.4 1.4-.7 2.3-.7.6.2 1.2.3 1.7.5zM150.7 898c-.4 1.2-.9 2.1-1.7 2.8s-1.7 1.1-3 1.2l-.2-1.4c.7-.1 1.2-.3 1.6-.5.4-.2.7-.5.9-.8.2-.3.5-.8.7-1.4h-.6l-3.4-10.1h1.9l2.7 8.8 2.6-8.8h1.8l-3.3 10.2zM167.7 887.9V898h-11.6v-10.1h1.7v8.7h3.2v-8.7h1.7v8.7h3.2v-8.7h1.8zM178.9 893.5h-6.4c.1 1.1.4 1.9.8 2.5s1.1.8 1.9.8c.5 0 .9-.1 1.3-.2s.8-.4 1.3-.7l.8 1.1c-1.1.8-2.2 1.3-3.5 1.3-1.4 0-2.5-.5-3.3-1.4-.8-.9-1.2-2.2-1.2-3.8 0-1 .2-2 .5-2.8.3-.8.8-1.4 1.5-1.9.6-.5 1.4-.7 2.2-.7 1.3 0 2.4.4 3.1 1.3.7.9 1.1 2.1 1.1 3.7 0 .2 0 .5-.1.8zm-5.2-9.9c.2.2.3.5.3.8 0 .3-.1.6-.3.8-.2.2-.5.3-.8.3-.3 0-.6-.1-.8-.3-.2-.2-.3-.5-.3-.8 0-.3.1-.6.3-.8.2-.2.5-.3.8-.3.3-.1.5 0 .8.3zm3.5 8.5c0-1-.2-1.8-.6-2.3-.4-.5-1-.8-1.8-.8-1.4 0-2.2 1.1-2.4 3.2h4.7v-.1zm.5-8.5c.2.2.3.5.3.8 0 .3-.1.6-.3.8-.2.2-.5.3-.8.3-.3 0-.6-.1-.8-.3-.2-.2-.3-.5-.3-.8 0-.3.1-.6.3-.8.2-.2.5-.3.8-.3.3-.1.6 0 .8.3zM187.8 897.9v-4.4h-4.2v4.4h-1.8v-10.1h1.8v4.2h4.2v-4.2h1.8v10.1h-1.8zM199.1 897.9v-4.4h-4.2v4.4h-1.8v-10.1h1.8v4.2h4.2v-4.2h1.8v10.1h-1.8zM211.5 896.5c.1.2.4.3.6.5l-.4 1.2c-.5-.1-.9-.2-1.3-.4-.3-.2-.6-.6-.7-1.1-.7 1-1.7 1.5-3 1.5-1 0-1.8-.3-2.4-.8-.6-.6-.9-1.3-.9-2.2 0-1.1.4-1.9 1.2-2.5.8-.6 1.9-.9 3.3-.9h1.6v-.7c0-.7-.2-1.2-.5-1.5-.3-.3-.9-.5-1.6-.5-.7 0-1.6.2-2.7.5l-.4-1.3c1.3-.5 2.4-.7 3.5-.7 1.2 0 2.1.3 2.7.9.6.6.9 1.4.9 2.5v4.6c-.1.4 0 .7.1.9zm-2-1.2V893h-1.3c-1.9 0-2.8.7-2.8 2.1 0 .6.1 1.1.4 1.4s.7.5 1.3.5c1.1-.1 1.9-.7 2.4-1.7zM221.8 887.9V898H220v-3.9h-2.2l-2.1 3.9h-2l2.4-4.3c-1.2-.6-1.8-1.5-1.8-2.7 0-1 .4-1.8 1.1-2.3.7-.5 1.7-.8 3-.8h3.4zm-1.7 4.8v-3.5h-1.6c-.7 0-1.3.1-1.6.4s-.5.7-.5 1.3c0 .6.2 1.1.5 1.4.3.3.9.4 1.6.4h1.6z"/></g><g><path class="st9" d="M86.2 978.9h-3.1v-5c0-1.8.1-3.6.4-5.2l-3.8 10.2H76v-13.3h3.1v5.1c0 1.1 0 1.9-.1 2.6-.1.7-.2 1.5-.3 2.5l3.9-10.1h3.7v13.2zM96.6 968.7l-.4 2.2h-2.8v7.9h-3V971h-3v-2.2h9.2zM105.2 969.8c.9 1 1.3 2.3 1.3 4 0 1.1-.2 2-.6 2.8-.4.8-1 1.4-1.7 1.9s-1.6.7-2.7.7c-1.5 0-2.8-.5-3.6-1.4-.9-1-1.3-2.3-1.3-4 0-1.1.2-2 .6-2.8.4-.8 1-1.4 1.7-1.9.7-.4 1.6-.7 2.7-.7 1.5 0 2.7.5 3.6 1.4zm-5 1.6c-.3.5-.5 1.3-.5 2.4 0 1.1.1 1.9.4 2.4.3.5.8.8 1.4.8.6 0 1.1-.3 1.4-.8.3-.5.5-1.3.5-2.4 0-1.1-.1-1.9-.4-2.4-.3-.5-.8-.8-1.4-.8-.6 0-1.1.3-1.4.8zM111.4 978.9h-3v-10.2h7.2l-.4 2.3h-3.8v7.9zM124.2 969.8c.9 1 1.3 2.3 1.3 4 0 1.1-.2 2-.6 2.8-.4.8-1 1.4-1.7 1.9s-1.6.7-2.7.7c-1.5 0-2.8-.5-3.6-1.4-.9-1-1.3-2.3-1.3-4 0-1.1.2-2 .6-2.8.4-.8 1-1.4 1.7-1.9.7-.4 1.6-.7 2.7-.7 1.5 0 2.7.5 3.6 1.4zm-5 1.6c-.3.5-.5 1.3-.5 2.4 0 1.1.1 1.9.4 2.4.3.5.8.8 1.4.8.6 0 1.1-.3 1.4-.8.3-.5.5-1.3.5-2.4 0-1.1-.1-1.9-.4-2.4-.3-.5-.8-.8-1.4-.8-.7 0-1.1.3-1.4.8z"/></g><g><path class="st9" d="M430.1 691.6v10.1H418v-10.1h2.4v8.3h2.6v-8.3h2.2v8.3h2.6v-8.3h2.3zM440.5 691.6l-.3 1.9h-3v8.3h-2.5v-8.3h-3.1v-1.9h8.9zM426 771v10.1h-2.5v-8.3H421l-.2 2.7c-.1 1.4-.3 2.5-.5 3.2-.2.7-.5 1.3-.9 1.7-.4.4-1.1.7-1.9.9l-.6-1.8c.4-.2.7-.4.9-.6.2-.2.3-.6.4-1.1.1-.5.2-1.3.3-2.5l.3-4.4h7.2zM430.1 810.6v10.1H418v-10.1h2.4v8.3h2.6v-8.3h2.2v8.3h2.6v-8.3h2.3zM440.5 810.6l-.3 1.9h-3v8.3h-2.5v-8.3h-3.1v-1.9h8.9zM426 850.3v10.1h-2.5v-8.3H421l-.2 2.7c-.1 1.4-.3 2.5-.5 3.2-.2.7-.5 1.3-.9 1.7-.4.4-1.1.7-1.9.9l-.6-1.8c.4-.2.7-.4.9-.6.2-.2.3-.6.4-1.1.1-.5.2-1.3.3-2.5l.3-4.4h7.2zM430.1 890v10.1H418V890h2.4v8.3h2.6V890h2.2v8.3h2.6V890h2.3zM440.5 890l-.3 1.9h-3v8.3h-2.5v-8.3h-3.1V890h8.9zM430.1 929.7v10.1H418v-10.1h2.4v8.3h2.6v-8.3h2.2v8.3h2.6v-8.3h2.3zM440.5 929.7l-.3 1.9h-3v8.3h-2.5v-8.3h-3.1v-1.9h8.9z"/></g><g><path class="st9" d="M81 928.6l4 7.1h-2.1l-3-5.8-3.1 5.8h-2l4-7-3.6-6.2h2.1l2.7 5 2.7-5h2l-3.7 6.1zM94.3 925.6v10.1h-1.8V927h-3.1l-.3 3.4c-.1 1.4-.3 2.4-.4 3.1-.2.7-.4 1.2-.8 1.6-.4.4-.9.7-1.7.9l-.4-1.4c.4-.2.7-.4.9-.6.2-.2.3-.6.4-1.1.1-.5.2-1.4.3-2.6l.4-4.6h6.5zM105.5 931.3h-6.4c.1 1.1.4 1.9.8 2.5s1.1.8 1.9.8c.5 0 .9-.1 1.3-.2s.8-.4 1.3-.7l.8 1.1c-1.1.8-2.2 1.3-3.5 1.3-1.4 0-2.5-.5-3.3-1.4-.8-.9-1.2-2.2-1.2-3.8 0-1 .2-2 .5-2.8.3-.8.8-1.4 1.5-1.9.6-.5 1.4-.7 2.2-.7 1.3 0 2.4.4 3.1 1.3.7.9 1.1 2.1 1.1 3.7-.1.2-.1.5-.1.8zm-1.7-1.4c0-1-.2-1.8-.6-2.3-.4-.5-1-.8-1.8-.8-1.4 0-2.2 1.1-2.4 3.2h4.7v-.1zM115.5 927.5c.7.8 1 2 1 3.4 0 1.6-.4 2.8-1.2 3.7-.8.9-1.9 1.3-3.2 1.3-1.4 0-2.4-.5-3.2-1.4s-1.2-2.4-1.2-4.3c0-1.5.1-2.7.3-3.6.2-.9.6-1.7 1.2-2.3.6-.6 1.3-1.1 2.3-1.4.8-.3 1.4-.5 1.8-.7.5-.2.9-.5 1.4-.8l.7 1.3c-.4.3-.9.5-1.4.8-.5.2-1.1.5-1.7.7-.6.2-1.1.5-1.5.7s-.7.7-.9 1.2c-.2.5-.4 1.2-.4 2.1.4-.6.8-1 1.4-1.4.6-.3 1.2-.5 1.9-.5 1.1 0 2 .4 2.7 1.2zm-1.6 6.2c.5-.5.7-1.5.7-2.8 0-1.2-.2-2-.6-2.5-.4-.5-.9-.8-1.6-.8-.6 0-1.1.2-1.6.5s-.9.8-1.3 1.4v1.2c0 1.2.2 2.1.7 2.7s1.1 1 1.9 1c.8.1 1.4-.1 1.8-.7zM131.4 925.6v10.1h-1.8v-4.2c-.4.3-.8.6-1.4.8-.5.2-1.1.3-1.7.3-1 0-1.7-.3-2.2-.8-.5-.5-.7-1.3-.7-2.2v-4h1.8v3.8c0 .6.1 1.1.4 1.4s.7.4 1.2.4c.4 0 .9-.1 1.4-.3.5-.2.9-.5 1.2-.8v-4.5h1.8zM142.7 931.3h-6.4c.1 1.1.4 1.9.8 2.5s1.1.8 1.9.8c.5 0 .9-.1 1.3-.2s.8-.4 1.3-.7l.8 1.1c-1.1.8-2.2 1.3-3.5 1.3-1.4 0-2.5-.5-3.3-1.4-.8-.9-1.2-2.2-1.2-3.8 0-1 .2-2 .5-2.8.3-.8.8-1.4 1.5-1.9.6-.5 1.4-.7 2.2-.7 1.3 0 2.4.4 3.1 1.3.7.9 1.1 2.1 1.1 3.7-.1.2-.1.5-.1.8zm-5.3-10c.2.2.3.5.3.8 0 .3-.1.6-.3.8-.2.2-.5.3-.8.3-.3 0-.6-.1-.8-.3-.2-.2-.3-.5-.3-.8 0-.3.1-.6.3-.8.2-.2.5-.3.8-.3.3 0 .6.1.8.3zm3.6 8.6c0-1-.2-1.8-.6-2.3-.4-.5-1-.8-1.8-.8-1.4 0-2.2 1.1-2.4 3.2h4.7v-.1zm.4-8.6c.2.2.3.5.3.8 0 .3-.1.6-.3.8-.2.2-.5.3-.8.3-.3 0-.6-.1-.8-.3-.2-.2-.3-.5-.3-.8 0-.3.1-.6.3-.8.2-.2.5-.3.8-.3.3 0 .6.1.8.3zM153 926.8c.6.9.9 2.2.9 3.9 0 1.6-.3 2.9-1 3.8-.7 1-1.7 1.5-2.9 1.5-1.1 0-2-.4-2.6-1.1v4.8l-1.8.2v-14.2h1.5l.1 1.4c.4-.5.8-.9 1.3-1.2s1.1-.4 1.6-.4c1.3-.1 2.3.4 2.9 1.3zm-1 3.9c0-2.6-.8-3.9-2.3-3.9-.5 0-1 .1-1.4.4-.4.3-.8.7-1.1 1.1v4.9c.3.4.6.7 1 .9.4.2.8.3 1.3.3 1.7.1 2.5-1.2 2.5-3.7zM162.8 935.7v-4.4h-4.2v4.4h-1.8v-10.1h1.8v4.2h4.2v-4.2h1.8v10.1h-1.8zM174.4 929.8c.7.6 1 1.4 1 2.5s-.4 2-1.1 2.6c-.8.6-1.7.9-2.8.9h-3.2v-10.1h1.8v3.3h1.1c1.5-.1 2.5.2 3.2.8zm-1.4 4.1c.4-.3.6-.8.6-1.6 0-.7-.2-1.2-.5-1.6-.4-.3-1-.5-1.9-.5H170v4.1h1.3c.7.1 1.3-.1 1.7-.4zm3.9-8.3h1.8v10.1h-1.8v-10.1zM190.1 935.7h-1.7v-4.6c0-.8 0-1.5.1-2.2.1-.7.1-1.1.1-1.4l-4.2 8.1h-2.1v-10.1h1.7v4.6c0 .7 0 1.4-.1 2.1-.1.7-.1 1.2-.1 1.4l4.2-8h2.1v10.1zm-5.9-12.9c-.5-.4-.8-.9-.9-1.6l1.2-.2c.1.4.3.7.6.9s.6.3 1.1.3.8-.1 1.1-.3c.3-.2.5-.5.6-.9l1.2.2c-.1.7-.4 1.2-.9 1.6-.5.4-1.2.6-2 .6s-1.5-.2-2-.6z"/></g></g></svg>