<?xml version="1.0" encoding="utf-8"?>
<!-- Generator: Adobe Illustrator 17.1.0, SVG Export Plug-In . SVG Version: 6.00 Build 0)  -->
<!DOCTYPE svg PUBLIC "-//W3C//DTD SVG 1.0//EN" "http://www.w3.org/TR/2001/REC-SVG-20010904/DTD/svg10.dtd">
<svg version="1.0" id="Layer_1" xmlns="http://www.w3.org/2000/svg" xmlns:xlink="http://www.w3.org/1999/xlink" x="0px" y="0px"
	 viewBox="0 0 500 500" enable-background="new 0 0 500 500" xml:space="preserve">
<g>
	<path fill="#0072B1" d="M450,0H50C22.5,0,0,22.5,0,50v400c0,27.5,22.5,50,50,50h400c27.5,0,50-22.5,50-50V50
		C500,22.5,477.5,0,450,0z M250,469.2c-46.1,0-88.9-14.3-124.2-38.6h21.5v-28.8h-11.1c-4.2,0-7.3-0.6-9.4-1.8
		c-1.7-0.8-2.9-2.1-3.6-3.9c-0.7-1.8-1-5.9-1-12.2V268.2c0-5.8,0.4-9.7,1.3-11.8c0.8-2,2.1-3.6,3.9-4.5c1.7-1,5.3-1.4,10.7-1.4h9.3
		v-28.8H45.5v28.8h9.4c5.4,0,8.8,0.4,10.2,1.2c2,1.1,3.4,2.7,4.3,4.8c0.9,2,1.3,6.3,1.3,12.8V376c-25.1-35.7-39.8-79.1-39.8-126
		c0-29.4,5.8-57.4,16.3-83c5.2,22.6,25.4,39.5,49.6,39.5c28.1,0,50.9-22.8,50.9-50.9c0-28.1-22.8-50.9-50.9-50.9
		c-4.2,0-8.2,0.5-12.1,1.5C124.8,60,184,30.8,250,30.8c121.1,0,219.2,98.1,219.2,219.2C469.2,371.1,371.1,469.2,250,469.2z"/>
	<path fill="#0072B1" d="M338.2,233.5c-14.7-7.9-34.6-11.8-59.5-11.8H169v28.8h7.2c6.3,0,10.5,0.5,12.4,1.4c2,0.9,3.4,2.4,4.2,4.2
		c0.9,1.8,1.3,6,1.3,12.4v114.2c0,6.4-0.4,10.5-1.2,12.4c-1.2,2.4-2.8,4.1-4.7,5.1c-1.9,1-5.9,1.5-12.1,1.5H169v28.8h96.7
		c8.4,0,19.6-1.1,33.5-3.4c14-2.3,24.7-5.3,32.4-8.8c10.1-4.8,19.5-12,28.3-21.5c8.8-9.5,15.4-20.2,19.9-32.1
		c4.4-11.9,6.7-25.4,6.7-40.4c0-21.6-4.4-40.2-13.1-55.7C364.7,253.1,352.9,241.4,338.2,233.5z M322.2,365.3
		c-5.7,11.1-13.2,19.2-22.4,24.3c-9.3,5.1-22.1,7.6-38.6,7.6c-5.9,0-9.6-0.3-11.1-0.8c-1.6-0.6-2.8-1.6-3.5-3.1
		c-0.5-1-0.8-3.7-0.8-8.1v-130h23.1c14.7,0,26,2.3,33.9,6.9c7.9,4.6,14.5,12.5,19.9,23.8c5.4,11.2,8,24.5,8,39.7
		C330.7,340.9,327.9,354.2,322.2,365.3z"/>
	<path fill="#0072B1" d="M252.2,207.9c9.7,0,17.3-3,22.9-9c5.6-6,8.4-14.2,8.4-24.6c0-10.4-2.8-18.6-8.4-24.6c-5.6-6-13.2-9-22.9-9
		c-9.7,0-17.4,3-22.9,9c-5.5,6-8.3,14.2-8.3,24.6c0,10.3,2.8,18.4,8.3,24.5C234.8,204.9,242.5,207.9,252.2,207.9z M238.9,164.4
		c0.8-2.8,1.9-5,3.2-6.7c1.5-1.8,3.1-3.1,4.7-3.8c1.6-0.7,3.4-1.1,5.4-1.1c1.9,0,3.7,0.4,5.4,1.2c1.7,0.8,3.3,2,4.7,3.8
		c1.3,1.7,2.4,4,3.2,6.7c0.8,2.7,1.2,6,1.2,9.8c0,4.1-0.4,7.3-1.1,9.8c-0.8,2.5-1.8,4.7-3.2,6.6c-1.3,1.7-2.9,3-4.6,3.8
		c-1.8,0.8-3.6,1.2-5.5,1.2c-1.9,0-3.7-0.4-5.5-1.2c-1.8-0.8-3.3-2-4.7-3.8c-1.4-1.8-2.4-4-3.2-6.6c-0.8-2.6-1.2-5.9-1.2-9.9
		C237.7,170.5,238.1,167.2,238.9,164.4z"/>
	<polygon fill="#0072B1" points="306.1,178.9 331,178.9 331,166.5 306.1,166.5 306.1,154.4 331.7,154.4 331.7,142 289.9,142 
		289.9,206.6 306.1,206.6 	"/>
	<polygon fill="#0072B1" points="350.8,206.6 367,206.6 367,154.4 386.1,154.4 386.1,142 333.1,142 333.1,154.4 350.8,154.4 	"/>
	<path fill="#0072B1" d="M191.6,207.7c8.6,0,15.4-2,20.4-5.8c5-3.9,7.6-9.1,7.6-15.5c0-4.5-1.1-8.1-3.3-10.8
		c-2.2-2.7-5.5-4.9-10-6.5c-2.3-0.8-4.4-1.4-6.4-1.9c-2-0.5-4.1-0.9-6.3-1.4c-3.3-0.8-5.6-1.7-6.8-2.6c-1.2-1-1.7-2.3-1.7-3.9
		c0-1.1,0.4-2.1,1.1-3c0.7-0.9,1.6-1.6,2.6-2c1.2-0.6,2.4-1,3.6-1.2c1.1-0.2,2.4-0.3,3.8-0.3c3.6,0,7.2,0.7,10.6,2.1
		c3.4,1.4,6.4,3.1,8.8,5.2h1.4v-14.7c-3-1.3-6.4-2.4-10.2-3.2c-3.8-0.8-7.6-1.2-11.5-1.2c-7.6,0-14,1.9-19.1,5.6
		c-5.1,3.7-7.7,8.6-7.7,14.7c0,4.5,1.1,8.2,3.2,11.2c2.2,3,5.7,5.3,10.7,7.1c2.2,0.8,4.5,1.4,7,1.9c2.5,0.5,4.8,1.1,7,1.6
		c1.8,0.5,3.3,1.2,4.5,2.2c1.3,1,1.9,2.3,1.9,4c0,1.4-0.4,2.6-1.2,3.5c-0.8,0.9-1.7,1.6-2.9,2c-0.9,0.4-2.1,0.8-3.7,1
		c-1.5,0.2-2.7,0.3-3.6,0.3c-3.7,0-7.4-0.7-11.3-2.2c-3.9-1.5-7.4-3.6-10.7-6.3h-1.5v15.3c3.2,1.4,6.7,2.6,10.4,3.6
		C182.3,207.2,186.7,207.7,191.6,207.7z"/>
</g>
</svg>
