<svg xmlns="http://www.w3.org/2000/svg" viewBox="0 0 64 64" preserveAspectRatio="none"><style type="text/css">.icon{fill:#2073ED;}</style><path class="icon" d="M32 0C23.2 0 15.2 3.6 9.4 9.4 3.6 15.2 0 23.2 0 32c0 17.7 14.3 32 32 32 8.8 0 16.8-3.6 22.6-9.4C60.4 48.8 64 40.8 64 32 64 14.3 49.7 0 32 0zM15 42.4L15 42.4 14.6 42c-3.2-3.2-3.2-8.5 0-11.7l7.4-7.4 1.2 1.2L40.1 41l-7.3 7.4c-3.3 3.2-8.5 3.2-11.8 0l-0.4-0.4 0 0L15 42.4zM22.6 18l0.2-0.2c0.3-0.3 0.7-0.5 1.1-0.5 0.4 0 0.8 0.2 1.1 0.5l1.9 1.9 6 6 4.7 4.7 0 0 6 6 0 0 1.9 1.9c0.6 0.6 0.6 1.6 0 2.2l-0.1 0.1c-0.6 0.6-1.6 0.6-2.2-0.1l-18-18 -2.4-2.4C21.9 19.5 22 18.6 22.6 18zM30.1 19.7l5.2-5.2c0.7-0.7 2-0.7 2.6 0 0.3 0.3 0.5 0.8 0.5 1.3 0 0.5-0.2 1-0.5 1.3l-5.2 5.2L30.1 19.7zM40.8 30.3L46 25c0.7-0.7 1.9-0.7 2.6 0 0.7 0.7 0.7 1.9 0 2.6l-5.3 5.3L40.8 30.3zM17.3 48.1l-5.6 5.6c-0.8-0.8-1.6-1.6-2.3-2.4l5.5-5.5L17.3 48.1zM53 53c-5.6 5.6-13 8.7-21 8.7 -7 0-13.4-2.4-18.4-6.5l5.4-5.4 0.4 0.4c2.1 2.1 4.8 3.1 7.5 3.1 2.7 0 5.4-1 7.6-3.1l7.4-7.5c0.7 0.5 1.4 0.7 2.2 0.7 1 0 1.9-0.4 2.7-1.1l0.2-0.2c1.5-1.5 1.5-4 0-5.5l-1.9-1.9 5.3-5.3c1.6-1.6 1.6-4.3 0-6 -1.6-1.6-4.3-1.6-6 0l-5.3 5.3L34.4 24l5.2-5.2c1.6-1.6 1.6-4.3 0-6 -1.6-1.6-4.4-1.6-6 0L28.5 18l-1.9-1.9c-1.5-1.5-4-1.5-5.5 0l-0.2 0.2c-1.4 1.4-1.5 3.4-0.5 4.9l-7.5 7.5c-4.1 4.1-4.1 10.9 0 15l0.4 0.4L8 49.4C4.4 44.5 2.4 38.5 2.4 32c0-7.9 3.1-15.4 8.7-21 5.6-5.6 13-8.7 21-8.7 16.3 0 29.6 13.3 29.6 29.6C61.6 39.9 58.6 47.4 53 53z"/></svg>
