<?xml version="1.0" encoding="utf-8"?>
<!-- Generator: Adobe Illustrator 22.1.0, SVG Export Plug-In . SVG Version: 6.00 Build 0)  -->
<svg version="1.1" id="Layer_1" xmlns="http://www.w3.org/2000/svg" xmlns:xlink="http://www.w3.org/1999/xlink" x="0px" y="0px"
	 viewBox="0 0 592.3 98.5" style="enable-background:new 0 0 592.3 98.5;" xml:space="preserve">
<style type="text/css">
	.st0{fill:#1E1916;}
	.st1{fill:#FFFFFF;}
	.st2{fill:#F9A428;}
	.st3{fill:#D32929;}
</style>
<g>
	<path class="st0" d="M78.4,98.5H20.1C9,98.5,0,89.5,0,78.4V20.1C0,9,9,0,20.1,0h58.4c11.1,0,20.1,9,20.1,20.1v58.4
		C98.5,89.5,89.5,98.5,78.4,98.5z"/>
	<g>
		<path class="st1" d="M85.1,43.4c0-9.6-5.1-13-16.9-13s-17,0-17,0v37.6H60V56.7c1.9,0,4.2,0,6.9,0c0.2,0,0.4,0,0.7,0l8.9,11.4h10.3
			l-9.9-12.7C82.2,53.6,85.1,49.8,85.1,43.4z M66.9,48.9c-1.6,0-4.2,0-6.9,0V38.2c3,0,5.8,0,7.5,0c5.1,0,8.8-0.1,8.8,5.3
			C76.3,48.9,71.9,48.9,66.9,48.9z"/>
		<polygon class="st2" points="42.3,38.2 42.3,30.4 23.2,30.4 21.6,38.2 		"/>
		<polygon class="st1" points="30.7,60.3 29,68.1 42.3,68.1 42.3,60.3 		"/>
		<polygon class="st3" points="11.8,53.1 42.3,53.1 42.3,45.4 13.5,45.4 		"/>
	</g>
</g>
<g>
	<g>
		<g>
			<g>
				<path class="st0" d="M152.9,8.1c-7.8,0-12.1,5.4-12.1,12.1s4.1,12.1,12.1,12.1c8.1,0,12.1-5.4,12.1-12.1S160.7,8.1,152.9,8.1z
					 M152.9,27.5c-4.3,0-6.6-3.3-6.6-7.3s2.2-7.3,6.6-7.3s6.6,3.3,6.6,7.3S157.2,27.5,152.9,27.5z"/>
				<path class="st0" d="M137.4,16.5c0-5.9-3.2-8-10.5-8s-10.5,0-10.5,0v23.3h5.4v-7.1c1.2,0,2.6,0,4.3,0c0.1,0,0.3,0,0.4,0l5.5,7.1
					h6.3l-6.1-7.9C135.6,22.8,137.4,20.5,137.4,16.5z M126.2,20c-1,0-2.6,0-4.3,0v-6.7c1.8,0,3.6,0,4.6,0c3.1,0,5.5-0.1,5.5,3.3
					S129.3,20,126.2,20z"/>
				<path class="st0" d="M224.4,8.5H220l-9.6,23.3h5.4l1.8-4.3h9.2l1.8,4.3h5.4L224.4,8.5z M219.4,23l2.8-6.9L225,23H219.4z"/>
				<path class="st0" d="M179.7,17.8c-4.3-1-5.4-1.5-5.4-3.1c0-1.2,1.1-2.1,3.2-2.1c4.5,0,7.4,1.5,7.4,1.5l2.1-4.3
					c0,0-3.1-1.7-9.4-1.7c-5.1,0-8.8,2.8-8.8,7.1c0,4.7,3.3,6.1,8.3,7.3c4.2,1,5.1,1.7,5.1,3c0,1.4-1.4,2.3-3.6,2.3
					c-4.6,0-8.6-2.1-8.6-2.1l-1.9,4.4c0,0,3.6,2.3,10.3,2.3c5.4,0,9.2-2.6,9.2-7.3C187.6,20.8,184.8,19.1,179.7,17.8z"/>
				<polygon class="st0" points="211.3,13.3 213.3,8.5 192,8.5 189.8,13.3 198.5,13.3 198.5,31.8 204,31.8 204,13.3 				"/>
			</g>
		</g>
	</g>
	<g>
		<path class="st0" d="M116.4,39.9h23c5.7,0,10.1,1.6,13,4.4c2.3,2.3,3.4,5,3.4,8.6c0,5.6-3,8.7-6.5,10.7c5.7,2.2,9.3,5.5,9.3,12.3
			c0,9.1-7.4,13.6-18.6,13.6h-23.6V39.9z M137.1,60c4.8,0,7.9-1.6,7.9-5.4c0-3.3-2.6-5.1-7.2-5.1H127V60H137.1z M140,80
			c4.8,0,7.7-1.7,7.7-5.5c0-3.3-2.5-5.4-8.1-5.4H127V80H140z"/>
		<path class="st0" d="M180.6,39.6h10.1l21.3,50h-11.4L196,78.4h-21l-4.5,11.1h-11.1L180.6,39.6z M192.1,68.8l-6.6-16.1l-6.6,16.1
			H192.1z"/>
		<path class="st0" d="M209.8,64.7c0-14.1,10.6-25.7,25.9-25.7c9.4,0,14.6,3.5,19.2,8.1l-6.5,7.5c-3.8-3.5-7.1-5.5-12.8-5.5
			c-8.4,0-14.4,6.9-14.4,15.6c0,8.5,5.9,15.6,14.4,15.6c5.7,0,9.1-2.3,13-5.8l6.9,7.4c-5.1,5.5-10.8,8.4-20.3,8.4
			C220.6,90.4,209.8,79.1,209.8,64.7z"/>
		<path class="st0" d="M262.3,39.9h10.9v21.7l20.1-21.7h13.2L286.3,61l21.1,28.6h-13.1L279,68.4l-5.7,6v15.2h-10.9V39.9z"/>
		<g>
			<path class="st0" d="M332.6,64.7c0-14.1,11.1-25.7,26.4-25.7c15.3,0,26.3,11.4,26.3,25.7c0,14.1-11.1,25.7-26.4,25.7
				C343.6,90.4,332.6,79,332.6,64.7z M373.9,64.7c0-8.5-6.2-15.6-15-15.6c-8.8,0-14.9,6.9-14.9,15.6c0,8.5,6.2,15.6,15,15.6
				C367.8,80.3,373.9,73.4,373.9,64.7z"/>
			<path class="st0" d="M391.8,39.9h37.8v9.9h-26.9v10.6h23.7v9.9h-23.7v19.2h-10.9V39.9z"/>
			<path class="st0" d="M436.3,39.9H474v9.9h-26.9v10.6h23.7v9.9h-23.7v19.2h-10.9V39.9z"/>
			<path class="st0" d="M483.1,39.9H494v49.6h-10.9V39.9z"/>
			<path class="st0" d="M502.6,64.7c0-14.1,10.6-25.7,25.9-25.7c9.4,0,14.6,3.5,19.2,8.1l-6.5,7.5c-3.8-3.5-7.1-5.5-12.8-5.5
				c-8.4,0-14.4,6.9-14.4,15.6c0,8.5,5.9,15.6,14.4,15.6c5.7,0,9.1-2.3,13-5.8l6.9,7.4c-5.1,5.5-10.8,8.4-20.3,8.4
				C513.5,90.4,502.6,79.1,502.6,64.7z"/>
			<path class="st0" d="M554.9,39.9h37.4v9.7h-26.6v10.1h23.4v9.7h-23.4v10.4h26.9v9.7h-37.8V39.9z"/>
		</g>
	</g>
</g>
</svg>
