<?xml version="1.0" encoding="utf-8"?>
<!-- Generator: Adobe Illustrator 22.1.0, SVG Export Plug-In . SVG Version: 6.00 Build 0)  -->
<svg version="1.1" id="Layer_1" xmlns="http://www.w3.org/2000/svg" xmlns:xlink="http://www.w3.org/1999/xlink" x="0px" y="0px"
	 viewBox="0 0 540.3 98.5" style="enable-background:new 0 0 540.3 98.5;" xml:space="preserve">
<style type="text/css">
	.st0{fill:#F9A428;}
	.st1{fill:#1E1916;}
	.st2{fill:#D32929;}
</style>
<g>
	<g>
		<path class="st0" d="M75.9,98.5H22.6C10.1,98.5,0,88.3,0,75.9V22.6C0,10.1,10.1,0,22.6,0h53.3c12.4,0,22.6,10.1,22.6,22.6v53.3
			C98.5,88.3,88.3,98.5,75.9,98.5z M22.6,5C12.9,5,5,12.9,5,22.6v53.3c0,9.7,7.9,17.6,17.6,17.6h53.3c9.7,0,17.6-7.9,17.6-17.6V22.6
			C93.5,12.9,85.6,5,75.9,5H22.6z"/>
		<g>
			<path class="st1" d="M83.2,43.7c0-9.1-4.9-12.3-16.1-12.3s-16.2,0-16.2,0v35.7h8.4V56.3c1.8,0,4,0,6.5,0c0.2,0,0.4,0,0.6,0
				L75,67.1h9.7L75.3,55C80.5,53.3,83.2,49.7,83.2,43.7z M66,48.9c-1.5,0-3.9,0-6.5,0V38.7c2.8,0,5.5,0,7.1,0c4.8,0,8.4-0.1,8.4,5
				C74.9,48.9,70.7,48.9,66,48.9z"/>
			<polygon class="st0" points="42.7,38.7 42.7,31.3 24.5,31.3 23,38.7 			"/>
			<polygon class="st1" points="31.6,59.7 30,67.1 42.7,67.1 42.7,59.7 			"/>
			<polygon class="st2" points="13.7,52.9 42.7,52.9 42.7,45.5 15.3,45.5 			"/>
		</g>
	</g>
	<g>
		<g>
			<path class="st1" d="M152.9,9.4c-7.8,0-12.1,5.4-12.1,12.1s4.1,12.1,12.1,12.1c8.1,0,12.1-5.4,12.1-12.1S160.7,9.4,152.9,9.4z
				 M152.9,28.8c-4.3,0-6.6-3.3-6.6-7.3s2.2-7.3,6.6-7.3s6.6,3.3,6.6,7.3S157.2,28.8,152.9,28.8z"/>
			<path class="st1" d="M137.4,17.8c0-5.9-3.2-8-10.5-8c-7.3,0-10.5,0-10.5,0v23.3h5.4V26c1.2,0,2.6,0,4.3,0c0.1,0,0.3,0,0.4,0
				l5.5,7.1h6.3l-6.1-7.9C135.6,24.1,137.4,21.8,137.4,17.8z M126.2,21.3c-1,0-2.6,0-4.3,0v-6.7c1.8,0,3.6,0,4.6,0
				c3.1,0,5.5-0.1,5.5,3.3C132,21.3,129.3,21.3,126.2,21.3z"/>
			<path class="st1" d="M224.4,9.8H220l-9.6,23.3h5.4l1.8-4.3h9.2l1.8,4.3h5.4L224.4,9.8z M219.4,24.3l2.8-6.9l2.8,6.9H219.4z"/>
			<path class="st1" d="M179.7,19.1c-4.3-1-5.4-1.5-5.4-3.1c0-1.2,1.1-2.1,3.2-2.1c4.5,0,7.4,1.5,7.4,1.5l2.1-4.3
				c0,0-3.1-1.7-9.4-1.7c-5.1,0-8.8,2.8-8.8,7.1c0,4.7,3.3,6.1,8.3,7.3c4.2,1,5.1,1.7,5.1,3c0,1.4-1.4,2.3-3.6,2.3
				c-4.6,0-8.6-2.1-8.6-2.1l-1.9,4.4c0,0,3.6,2.3,10.3,2.3c5.4,0,9.2-2.6,9.2-7.3C187.6,22.1,184.8,20.4,179.7,19.1z"/>
			<polygon class="st1" points="211.3,14.6 213.3,9.8 192,9.8 189.8,14.6 198.5,14.6 198.5,33.1 204,33.1 204,14.6 			"/>
		</g>
	</g>
	<g>
		<path class="st1" d="M130.4,51.7h-14v-9.3h38.1v9.3h-14v36.6h-10.1V51.7z"/>
		<path class="st1" d="M160.1,42.4h21c5.8,0,10.4,1.6,13.4,4.7c2.6,2.6,3.9,6.2,3.9,10.6c0,7.4-4,12.1-9.8,14.2l11.2,16.4H188
			l-10-14.7h-7.8v14.7h-10.1V42.4z M180.4,64.7c4.9,0,7.7-2.6,7.7-6.6c0-4.3-3-6.6-7.9-6.6h-10v13.2H180.4z"/>
		<path class="st1" d="M221.9,42.1h9.3l19.7,46.3h-10.6L236.1,78h-19.4l-4.2,10.3h-10.3L221.9,42.1z M232.5,69.1l-6.1-14.9
			l-6.1,14.9H232.5z"/>
		<path class="st1" d="M254.2,42.4h17.9c14.4,0,24.4,9.9,24.4,23c0,12.9-10,23-24.4,23h-17.9V42.4z M272.1,79.2
			c8.3,0,13.8-5.6,13.8-13.8c0-8.1-5.6-13.8-13.8-13.8h-7.8v27.7H272.1z"/>
		<path class="st1" d="M302.2,42.4h34.6v9h-24.6v9.3h21.7v9h-21.7v9.6h24.9v9h-35V42.4z"/>
		<path class="st1" d="M344.2,42.4h18.8c11,0,17.6,6.5,17.6,16c0,10.6-8.3,16.1-18.6,16.1h-7.7v13.8h-10.1V42.4z M362.3,65.6
			c5.1,0,8-3,8-7.1c0-4.5-3.1-7-8.2-7h-7.8v14H362.3z"/>
		<path class="st1" d="M384.8,65.4c0-13.1,10.3-23.8,24.5-23.8c14.2,0,24.3,10.6,24.3,23.8c0,13.1-10.3,23.8-24.5,23.8
			S384.8,78.6,384.8,65.4z M423.1,65.4c0-7.9-5.8-14.4-13.9-14.4s-13.8,6.4-13.8,14.4c0,7.9,5.8,14.4,13.9,14.4
			S423.1,73.4,423.1,65.4z"/>
		<path class="st1" d="M437.9,42.4H448v45.9h-10.1V42.4z"/>
		<path class="st1" d="M455,42.4h9.3l21.5,28.3V42.4h10v45.9h-8.6L465,59.1v29.2h-10V42.4z"/>
		<path class="st1" d="M516.2,51.7h-14v-9.3h38.1v9.3h-14v36.6h-10.1V51.7z"/>
	</g>
</g>
</svg>
