<svg xmlns="http://www.w3.org/2000/svg" viewBox="0 0 64 64" preserveAspectRatio="none"><style type="text/css">.icon{fill:#2073ED;}</style><path class="icon" d="M54.6 9.4C48.4 3.1 40.2 0 32 0c-7.8 0-15.6 2.9-21.8 8.6l-4-4L4.5 6.2l4 4C-3.1 22.8-2.8 42.4 9.4 54.6 15.6 60.9 23.8 64 32 64c7.8 0 15.6-2.9 21.8-8.6l4 4 1.7-1.7 -4-4C67.1 41.2 66.8 21.6 54.6 9.4zM32 61.6c-7.9 0-15.4-3.1-21-8.7C-0.2 41.7-0.5 23.5 10.2 11.9l41.9 41.9C46.6 58.9 39.5 61.6 32 61.6zM42.8 32c0-6-4.9-10.8-10.8-10.8 -2.6 0-4.9 0.9-6.8 2.4l-3.4-3.4c3.1-1.6 6.5-2.6 10.1-2.6C43.8 17.6 54 29 56.4 32c-1.5 1.9-6 7-12.1 10.6l-3.9-3.9C41.9 36.9 42.8 34.6 42.8 32zM38.8 37.1L26.9 25.2c1.4-1.1 3.2-1.7 5.1-1.7 4.7 0 8.5 3.8 8.5 8.5C40.5 33.9 39.8 35.7 38.8 37.1zM53.8 52.1L46 44.4c7.5-4.6 12.5-11.2 12.8-11.7l0.5-0.7 -0.5-0.7C58.4 30.6 46.7 15.2 32 15.2c-4.3 0-8.3 1.3-11.9 3.2l-8.2-8.2C17.4 5.1 24.5 2.4 32 2.4c7.9 0 15.4 3.1 21 8.7C64.2 22.3 64.5 40.5 53.8 52.1zM21.2 32c0-1.4 0.3-2.8 0.8-4l1.9 1.9c-0.2 0.7-0.3 1.4-0.3 2.1 0 4.7 3.8 8.5 8.5 8.5 0.7 0 1.5-0.1 2.1-0.3l1.9 1.9c-1.2 0.5-2.6 0.8-4 0.8C26 42.8 21.2 38 21.2 32zM15.3 21.4l1.7 1.7c-4.7 3.4-8.2 7.3-9.4 8.9C10 35 20.2 46.4 32 46.4c2.4 0 4.8-0.5 7.1-1.3l1.8 1.8c-2.8 1.1-5.8 1.8-8.9 1.8 -14.7 0-26.4-15.4-26.8-16.1L4.6 32l0.5-0.7C5.4 30.9 9.3 25.8 15.3 21.4z"/></svg>
