<svg xmlns="http://www.w3.org/2000/svg" viewBox="0 0 64 64" preserveAspectRatio="none"><style type="text/css">.icon{fill:#2073ED;}</style><path class="icon" d="M32 2.4c7.9 0 15.4 3.1 21 8.7 5.6 5.6 8.7 13 8.7 21S58.6 47.4 53 53c-5.6 5.6-13 8.7-21 8.7S16.6 58.6 11 53C-0.5 41.4-0.5 22.6 11 11 16.6 5.4 24.1 2.4 32 2.4M32 0C23.8 0 15.6 3.1 9.4 9.4c-12.5 12.5-12.5 32.8 0 45.3C15.6 60.9 23.8 64 32 64s16.4-3.1 22.6-9.4c12.5-12.5 12.5-32.8 0-45.3C48.4 3.1 40.2 0 32 0L32 0zM14.7 45.7V18.3L33.1 32 14.7 45.7zM17.1 23v18l12.1-9L17.1 23zM44.2 32L27.7 19.7l-1.4 1.9 14 10.4 -14 10.4 1.4 1.9L44.2 32zM54.8 32L38.3 19.7l-1.4 1.9 14 10.4 -14 10.4 1.4 1.9L54.8 32z"/></svg>
