<svg id="Layer_1" xmlns="http://www.w3.org/2000/svg" viewBox="0 0 1440 1080"><style>.st0{fill:#cbd5de}.st1{fill:#26282a}.st2{fill:#fff}.st3{fill:#e6a144}.st4{fill:#c84c44}.st5{fill:#f3c848}.st6{fill:#000105}.st7{opacity:.2;fill:#fff}.st7,.st8,.st9{enable-background:new}.st8{fill:#fff;opacity:.94}.st9{opacity:.4}.st10{fill:#4c6eae}.st11{fill:#4c618d}.st12{enable-background:new}.st13{fill:#e4e8ee}.st14{fill:#fae7ab}.st15{opacity:.1;fill:#000105;enable-background:new}.st16{fill:#f2eee2}.st17{fill:#ded8c9}.st18{fill:#201600}.st19{fill:#deecd8}.st20{fill:#cad9c4}</style><path class="st0" d="M0 64h1440.4v1016.3H0z"/><path class="st1" d="M0 0h1440.4v64H0z"/><path class="st2" d="M80 20.9c-7.5 0-11.5 5.2-11.5 11.5S72.4 44 80 44c7.7 0 11.5-5.2 11.5-11.5s-4-11.6-11.5-11.6zm0 18.6c-4.1 0-6.3-3.1-6.3-7s2.1-7 6.3-7c4.2 0 6.3 3.1 6.3 7s-2.2 7-6.3 7zM65.3 28.9c0-5.6-3.1-7.6-10-7.6h-10v22.2h5.2v-6.8H55l5.2 6.8h6L60.3 36c3.3-1 5-3.3 5-7.1zm-10.9 3.4h-4.1V26h4.4c3 0 5.2-.1 5.2 3.1.2 3.2-2.5 3.2-5.5 3.2zM148.4 21.3h-4.2L135 43.6h5.2l1.7-4.2h8.9l1.7 4.2h5.2l-9.3-22.3zm-4.8 14l2.7-6.6 2.7 6.6h-5.4zM105.6 30.2c-4.1-1-5.2-1.5-5.2-3 0-1.1 1.1-2 3.1-2 4.4 0 7 1.4 7 1.4l2-4.1s-3-1.7-9-1.7c-4.9 0-8.4 2.7-8.4 6.8 0 4.5 3.1 5.8 7.9 6.9 3.9 1 4.8 1.5 4.8 2.8 0 1.4-1.3 2.3-3.5 2.3-4.4 0-8.2-2-8.2-2l-1.8 4.2s3.4 2.1 9.8 2.1c5.2 0 8.7-2.5 8.7-7 .4-3.9-2.4-5.4-7.2-6.7zM135.7 25.8l2-4.5h-20.2l-2.3 4.5h8.4v17.8h5.2V25.8z"/><path class="st3" d="M39.9 25.8v-4.5H28.7l-1 4.5z"/><path class="st2" d="M33.1 38.9l-1 4.7h7.8v-4.7z"/><path class="st4" d="M21.9 34.7h18v-4.5h-17z"/><path class="st2" d="M693.6 20.1v24.6h-5.1V25.1l-5.3 3.4L681 25l8.2-4.9h4.4zM714.1 22.9c1.5 2.3 2.3 5.3 2.3 9.6s-.7 7.3-2.3 9.6-3.8 3.4-6.8 3.4-5.2-1.1-6.8-3.4c-1.5-2.3-2.3-5.3-2.3-9.6s.7-7.3 2.3-9.6c1.5-2.3 3.8-3.2 6.8-3.2 3.1-.1 5.3 1.1 6.8 3.2zm-8.8 1.4c-.6.6-1 1.5-1.1 2.8-.3 1.3-.4 3.1-.4 5.2 0 2.3.1 3.9.4 5.2.3 1.3.7 2.3 1.1 2.8.6.6 1.3.8 2.1.8s1.5-.3 2.1-.8c.6-.6 1-1.5 1.3-2.8.3-1.3.4-3.1.4-5.3s-.1-4.1-.4-5.3-.7-2.3-1.3-2.8c-.6-.6-1.3-.8-2.1-.8-.8.1-1.6.4-2.1 1zM725.5 23.7c.6.6.8 1.4.8 2.3s-.3 1.5-.8 2.3c-.6.6-1.4 1-2.3 1s-1.5-.3-2.3-1c-.6-.6-.8-1.4-.8-2.3s.3-1.5.8-2.3c.6-.6 1.4-.8 2.3-.8.9 0 1.8.3 2.3.8zm0 12.8c.6.6.8 1.4.8 2.3 0 .8-.3 1.5-.8 2.3-.6.6-1.4 1-2.3 1s-1.5-.3-2.3-1c-.6-.6-.8-1.4-.8-2.3 0-.8.3-1.5.8-2.3.6-.6 1.4-.8 2.3-.8s1.8.3 2.3.8zM742.1 20.5c1.3.6 2.1 1.3 2.7 2.3.6 1 1 2 1 3.2 0 1.5-.4 2.7-1.3 3.7-.8 1-2 1.7-3.5 2.1 1.7.1 3 .7 4.1 1.8 1 1 1.5 2.4 1.5 4.2 0 1.4-.4 2.7-1.1 3.8-.7 1.1-1.8 2.1-3.1 2.7-1.4.7-3.1 1-4.9 1-3.5 0-6.2-1.3-8.2-3.7l2.8-2.7c.8.8 1.7 1.4 2.4 1.8.8.4 1.7.6 2.7.6 1.3 0 2.3-.3 3-1 .7-.7 1.1-1.7 1.1-2.8 0-1.3-.4-2.3-1.1-2.8-.7-.6-1.8-.8-3.2-.8h-2l.6-3.7h1.4c1.1 0 2.1-.3 2.7-.8.7-.6 1-1.4 1-2.5 0-1-.3-1.7-1-2.3-.6-.6-1.4-.8-2.5-.8-1 0-1.8.1-2.5.6-.8.3-1.5.8-2.3 1.5l-2.5-2.8c2.3-2.1 4.9-3.2 8-3.2 1.6-.3 3 0 4.2.6zM764.2 23.9h-9.1v5.6c1.1-.6 2.4-.8 3.7-.8 1.4 0 2.5.3 3.7 1 1.1.6 1.8 1.5 2.5 2.8.6 1.3.8 2.7.8 4.2 0 1.7-.4 3.2-1.1 4.5-.8 1.3-1.8 2.3-3.2 3.1-1.4.7-3.1 1.1-4.9 1.1-3.1 0-5.8-1.1-8-3.5l3-2.7c1.4 1.5 3 2.4 4.9 2.4 1.4 0 2.4-.4 3.1-1.3.7-.8 1.1-2 1.1-3.5 0-3-1.3-4.4-3.7-4.4-.6 0-1 0-1.5.1-.4.1-1 .4-1.5.7h-3.7v-13h14.6l-.7 3.7z"/><path class="st5" d="M1416.5 51.6h-97.6c-3 0-5.2-2.4-5.2-5.2V18.5c0-3 2.4-5.2 5.2-5.2h97.6c3 0 5.2 2.4 5.2 5.2v27.9c.1 2.9-2.3 5.2-5.2 5.2z"/><path class="st6" d="M1351.2 37.5v-5.2h-4.2v5.2h-2.3V25.8h2.3v4.6h4.2v-4.6h2.3v11.7h-2.3zM1362.9 35.8c.1.1.3.3.6.4l-.4 1.4c-.6 0-1-.1-1.3-.4-.3-.1-.6-.6-.7-1-.3.4-.7.8-1.1 1-.4.3-1 .3-1.5.3-.8 0-1.5-.3-2.1-.7-.6-.6-.8-1.1-.8-2 0-1 .3-1.7 1.1-2.3.7-.6 1.7-.7 3-.7h1.1v-.6c0-.6-.1-1-.4-1.3-.3-.3-.7-.3-1.3-.3-.7 0-1.4.1-2.4.4l-.6-1.4c1.1-.4 2.3-.7 3.2-.7 2.3 0 3.4 1 3.4 3.1v4c0 .4 0 .7.2.8zm-2.3-.8v-1.8h-.8c-1.4 0-2.1.6-2.1 1.5 0 .4.1.7.3 1 .1.3.6.4 1 .4.7 0 1.2-.3 1.6-1.1zM1370.3 28.9c.7.4 1 1 1 1.8 0 .6-.1 1-.4 1.3-.3.3-.8.6-1.4.7.8.1 1.4.4 1.8.7.4.3.6.8.6 1.4 0 1-.4 1.7-1.1 2.1-.7.4-1.7.7-2.8.7-1.4 0-2.5-.4-3.5-1.1l1.1-1.3c.4.3.8.4 1.1.6s.8.1 1.3.1c1.3 0 1.8-.4 1.8-1.3 0-.8-.7-1.3-2-1.3h-1.3l.1-1.5h1c.6 0 1-.1 1.3-.3.3-.1.4-.6.4-.8 0-.4-.1-.7-.4-.8-.3-.1-.6-.3-1.1-.3-.4 0-.8 0-1.1.1-.3.1-.7.3-1 .6l-1-1.3c.4-.3 1-.6 1.5-.8.6-.1 1.1-.3 1.8-.3.9.3 1.6.6 2.3 1zM1380.3 35.8c.1.1.3.3.6.4l-.4 1.4c-.6 0-1-.1-1.3-.4-.3-.1-.6-.6-.7-1-.3.4-.7.8-1.1 1-.4.3-1 .3-1.5.3-.8 0-1.5-.3-2.1-.7-.6-.6-.8-1.1-.8-2 0-1 .3-1.7 1.1-2.3.7-.6 1.7-.7 3-.7h1.1v-.6c0-.6-.1-1-.4-1.3-.3-.3-.7-.3-1.3-.3-.7 0-1.4.1-2.4.4l-.6-1.4c1.1-.4 2.3-.7 3.2-.7 2.3 0 3.4 1 3.4 3.1v4c.1.4.2.7.2.8zm-2.2-.8v-1.8h-.8c-1.4 0-2.1.6-2.1 1.5 0 .4.1.7.3 1 .1.3.6.4 1 .4.6 0 1.2-.3 1.6-1.1zM1390.6 35.8v4.4h-1.5l-.3-2.7h-5.3l-.3 2.7h-1.5v-4.4h.6c.3-.1.4-.3.6-.6.1-.3.3-.6.4-1.1s.3-1.4.3-2.4l.3-3.1h6V36h.8v-.2h-.1zm-3.1-5.8h-2l-.1 1.4c-.1 1-.1 1.7-.3 2.3-.1.6-.3 1-.4 1.3-.1.3-.4.6-.8.8h3.7V30z"/><circle class="st7" cx="1276.7" cy="32.4" r="18.8"/><path class="st8" d="M1276.7 36.9c3.7 0 6.5-3.5 6.5-7.9s-1-7.9-6.5-7.9-6.5 3.4-6.5 7.7c0 4.6 2.9 8.1 6.5 8.1zM1276.7 51.3c4.8 0 9-1.7 12.4-4.6-.3-6-1.8-6.5-8.7-7.7 0 0-1.1 1.4-3.5 1.4s-3.5-1.4-3.5-1.4c-7 1.3-8.4 1.8-8.7 7.9 3.1 2.7 7.3 4.4 12 4.4z"/><g class="st9"><path class="st2" d="M1172.1 19.1l-2.7 4.5 3 5.1h-1.5l-2.5-4.5h-1.3v4.5h-1.3v-9.6h1.3v4.1h1.3l2.4-4.1h1.3zM1178.9 27.7c.1.1.3.3.4.3l-.3.8c-.4 0-.7-.1-1-.3-.3-.1-.4-.4-.6-.8-.6.7-1.3 1.1-2.3 1.1-.7 0-1.3-.1-1.7-.6s-.6-1-.6-1.5c0-.8.3-1.4.8-1.8.6-.4 1.4-.6 2.4-.6h1.1v-.6c0-.6-.1-.8-.4-1.1-.3-.3-.7-.3-1.1-.3-.6 0-1.3.1-2 .4l-.3-1c1-.3 1.8-.6 2.5-.6.8 0 1.5.3 2 .7.4.4.7 1 .7 1.8V27c.3.4.4.5.4.7zm-1.4-.9v-1.7h-1c-1.4 0-2.1.6-2.1 1.5 0 .4.1.7.3 1 .3.3.6.3 1 .3.8 0 1.4-.4 1.8-1.1zM1185.4 21.3c.4.1.7.3 1 .6l-.6.8c-.3-.1-.6-.3-.7-.4-.3-.1-.6-.1-.8-.1-.6 0-1.1.3-1.4.7-.3.4-.6 1.1-.6 2.1s.1 1.7.4 2.1c.3.4.8.7 1.4.7.3 0 .6 0 .8-.1.3-.1.6-.3.8-.4l.6.8c-.7.6-1.4.8-2.3.8-1 0-1.8-.3-2.4-1-.6-.7-.8-1.5-.8-2.8 0-.8.1-1.4.4-2.1.3-.6.6-1 1.1-1.4.4-.3 1-.4 1.7-.4.5 0 .9.1 1.4.1zM1191.7 21.3c.4.1.7.3 1 .6l-.6.8c-.3-.1-.6-.3-.7-.4-.3-.1-.6-.1-.8-.1-.6 0-1.1.3-1.4.7-.3.4-.6 1.1-.6 2.1s.1 1.7.4 2.1c.3.4.8.7 1.4.7.3 0 .6 0 .8-.1.3-.1.6-.3.8-.4l.6.8c-.7.6-1.4.8-2.3.8-1 0-1.8-.3-2.4-1-.6-.7-.8-1.5-.8-2.8 0-.8.1-1.4.4-2.1.3-.6.6-1 1.1-1.4.4-.3 1-.4 1.7-.4s1.1.1 1.4.1zM1200.3 28.8h-1.3v-3.4-1.5c0-.6.1-.8.1-1l-3.1 5.9h-1.5v-7.3h1.3v4.7c0 .5 0 .8-.1 1l3.1-5.9h1.5v7.5zM1208.4 22.2c.4.7.7 1.7.7 2.8 0 1.1-.3 2.1-.7 2.8-.6.7-1.3 1.1-2.1 1.1s-1.4-.3-2-.8v3.5l-1.3.1V21.3h1.1l.1 1c.3-.4.6-.7 1-.8.4-.1.8-.3 1.3-.3.8 0 1.5.3 1.9 1zm-.7 2.8c0-1.8-.6-2.8-1.7-2.8-.4 0-.7.1-1 .3-.3.3-.6.4-.8.8V27c.1.3.4.6.7.7.3.1.6.3 1 .3 1.1-.2 1.8-1 1.8-3zM1221.8 28.8h-1.3v-4.6c0-1.1 0-2.3.1-3.5l-3.9 8.2h-1.7v-9.7h1.3v4.6c0 1.3 0 2.5-.1 3.5l3.9-8.2h1.7v9.7zM1230.2 26.5c0 .8-.3 1.4-.8 1.7-.6.4-1.3.6-2.3.6h-2.7v-7.3c.8-.1 1.7-.3 2.4-.3 1 0 1.7.1 2.1.6.6.3.8.8.8 1.5 0 .4-.1.7-.4 1s-.6.4-1.1.6c1.5-.1 2 .5 2 1.6zm-4.3-4.2v2.1h1.4c.4 0 .8-.1 1-.3.1-.1.4-.4.4-.8s-.1-.7-.4-.8c-.3-.1-.7-.3-1.3-.3-.4 0-.8 0-1.1.1zm2.7 5.2c.3-.1.4-.6.4-1s-.1-.7-.4-.8c-.3-.1-.7-.3-1.3-.3h-1.4v2.4h1.4c.4 0 .8-.1 1.3-.3zM1237.4 27.7c.1.1.3.3.4.3l-.3.8c-.4 0-.7-.1-1-.3-.3-.1-.4-.4-.6-.8-.6.7-1.3 1.1-2.3 1.1-.7 0-1.3-.1-1.7-.6-.4-.4-.6-1-.6-1.5 0-.8.3-1.4.8-1.8.6-.4 1.4-.6 2.4-.6h1.1v-.6c0-.6-.1-.8-.4-1.1-.3-.3-.7-.3-1.1-.3-.6 0-1.3.1-2 .4l-.3-1c1-.3 1.8-.6 2.5-.6.8 0 1.5.3 2 .7s.7 1 .7 1.8V27c.3.4.3.5.4.7zm-1.4-.9v-1.7h-1c-1.4 0-2.1.6-2.1 1.5 0 .4.1.7.3 1 .3.3.6.3 1 .3.8 0 1.4-.4 1.8-1.1zM1244.3 28.8v-3.2h-3.1v3.2h-1.3v-7.3h1.3v3.1h3.1v-3.1h1.3v7.3h-1.3zM1096.2 36c.4.1.8.4 1.3.7l-.7.8c-.6-.4-1.3-.7-1.8-.7-.8 0-1.4.3-2 1-.4.6-.7 1.5-.7 3 0 1.3.3 2.3.7 3 .4.7 1.1 1 2 1 .4 0 .7 0 1.1-.1.3-.1.7-.3 1-.6l.7.8c-.3.3-.7.6-1.1.7-.4.1-1 .3-1.5.3-.8 0-1.5-.1-2.1-.6-.6-.4-1.1-1-1.4-1.7-.3-.7-.6-1.7-.6-2.7s.1-2 .6-2.7.8-1.3 1.4-1.7c.6-.4 1.3-.6 2-.6.2-.2.7-.1 1.1.1zM1106.3 45.5h-1.3l-.3-3.5v-1.3-1.4l-1.7 5.3h-1.3l-1.5-5.3V42l-.3 3.5h-1.4l.7-7.3h1.7l1.4 5.3 1.5-5.3h1.7l.8 7.3zM1114.1 42.3h-4.6c0 .8.3 1.4.6 1.8.4.4.8.6 1.4.6.4 0 .7 0 1-.1.3-.1.6-.3 1-.4l.6.7c-.8.6-1.7 1-2.5 1-1 0-1.8-.3-2.4-1-.6-.7-.8-1.5-.8-2.8 0-.7.1-1.4.4-2 .3-.6.6-1.1 1.1-1.4.4-.3 1-.6 1.7-.6 1 0 1.7.3 2.3 1 .6.7.8 1.5.8 2.7-.6.1-.6.3-.6.5zm-1.3-1c0-.7-.1-1.3-.4-1.7-.3-.4-.7-.6-1.3-.6-1.1 0-1.7.8-1.7 2.4l3.4-.1zM1120.5 45.5v-3.2h-3.1v3.2h-1.3v-7.3h1.3v3.1h3.1v-3.1h1.3v7.3h-1.3zM1129.5 44.5c.1.1.3.3.4.3l-.3.8c-.4 0-.7-.1-1-.3s-.4-.4-.6-.8c-.6.7-1.3 1.1-2.3 1.1-.7 0-1.3-.1-1.7-.6-.4-.4-.6-1-.6-1.5 0-.8.3-1.4.8-1.8.6-.4 1.4-.6 2.4-.6h1.1v-.6c0-.6-.1-.8-.4-1.1s-.7-.3-1.1-.3c-.6 0-1.3.1-2 .4l-.3-1c1-.3 1.8-.6 2.5-.6.8 0 1.5.3 2 .7.4.4.7 1 .7 1.8V44c.3.1.4.4.4.5zm-1.4-.9v-1.7h-1c-1.4 0-2.1.6-2.1 1.5 0 .4.1.7.3 1 .3.3.6.3 1 .3.8.1 1.4-.3 1.8-1.1zM1133 38.9c.1.1.3.4.3.7 0 .3-.1.6-.3.7-.1.1-.4.3-.7.3s-.6-.1-.7-.3c-.1-.1-.3-.4-.3-.7 0-.3.1-.6.3-.7s.4-.3.7-.3.6.2.7.3zm0 5.2c.1.1.3.4.3.7 0 .3-.1.6-.3.7-.1.1-.4.3-.7.3s-.6-.1-.7-.3c-.1-.1-.3-.4-.3-.7 0-.3.1-.6.3-.7s.4-.3.7-.3.6 0 .7.3zM1142.5 36.4c.4.3.7.6 1 1 .3.4.3.8.3 1.3 0 .6-.1 1.1-.4 1.7-.3.6-.7 1.1-1.1 1.7-.6.6-1.4 1.4-2.4 2.5h4.2l-.1 1.1h-5.5v-1c1.3-1.3 2.1-2.3 2.7-2.8.6-.6.8-1.1 1.1-1.5.3-.4.3-1 .3-1.4s-.1-.8-.4-1.1c-.3-.3-.7-.4-1.1-.4s-.7.1-1 .3-.6.4-1 .8l-.8-.7c.4-.4.8-.8 1.3-1.1.4-.3 1-.3 1.5-.3.5-.4.9-.4 1.4-.1zM1155.6 45.5h-1.3v-3.4-1.5c0-.6.1-.8.1-1l-3.1 5.9h-1.5v-7.3h1.3v4.9c0 .5 0 .8-.1 1l3.1-5.9h1.5v7.3zM1165.5 38.5c.4.3.8.7 1.1 1.4.3.6.4 1.3.4 2s-.1 1.4-.4 2c-.3.6-.6 1-1.1 1.4-.4.3-1 .6-1.7.6-.8 0-1.5-.3-2.1-1-.6-.6-.8-1.4-1-2.5h-1.3v3.2h-1.3v-7.3h1.3v3.1h1.3c.1-1 .4-1.7 1-2.4s1.3-.8 2.1-.8c.8-.1 1.3 0 1.7.3zm-.2 5.5c.3-.4.4-1.1.4-2.1 0-.8-.1-1.5-.4-2.1-.3-.4-.7-.7-1.3-.7-1.1 0-1.8 1-1.8 2.8 0 .8.1 1.5.4 2.1.3.4.7.7 1.3.7.7 0 1.1-.3 1.4-.7zM1174.4 38.2v7.3h-1.3v-6.3h-2.3l-.1 2.5c-.1 1-.1 1.7-.3 2.3s-.3.8-.6 1.1c-.3.3-.7.4-1.3.7l-.3-1c.3-.1.6-.3.7-.4.1-.1.3-.4.3-.8s.1-1 .1-2l.3-3.4h4.8zM1182.1 38.2v7.3h-1.3v-2.8h-1.5l-1.5 2.8h-1.4l1.8-3.1c-.8-.4-1.3-1.1-1.3-2 0-.7.3-1.3.8-1.7.6-.4 1.3-.6 2.3-.6 0 .1 2.1.1 2.1.1zm-1.2 3.5v-2.5h-1.1c-.6 0-1 .1-1.3.3-.3.1-.4.6-.4 1s.1.8.4 1 .7.3 1.3.3l1.1-.1zM1191.8 36.4c.4.3.7.6 1 1 .3.4.3.8.3 1.3 0 .6-.1 1.1-.4 1.7-.3.6-.7 1.1-1.1 1.7-.6.6-1.4 1.4-2.4 2.5h4.2l-.1 1.1h-5.5v-1c1.3-1.3 2.1-2.3 2.7-2.8.6-.6.8-1.1 1.1-1.5.3-.4.3-1 .3-1.4s-.1-.8-.4-1.1-.7-.4-1.1-.4c-.4 0-.7.1-1 .3s-.6.4-1 .8l-.8-.7c.4-.4.8-.8 1.3-1.1.4-.3 1-.3 1.5-.3.6-.4 1-.4 1.4-.1zM1200.4 37.2c.6.8.8 2 .8 3.7 0 1.5-.3 2.8-.8 3.7-.6.8-1.3 1.3-2.4 1.3-1 0-1.8-.4-2.4-1.3-.6-.8-.8-2-.8-3.7 0-1.5.3-2.8.8-3.7.6-.8 1.3-1.3 2.4-1.3 1 .2 1.9.6 2.4 1.3zm-3.8.7c-.3.6-.4 1.5-.4 3 0 1.4.1 2.3.4 3 .3.6.7.8 1.4.8.6 0 1-.3 1.4-.8.3-.6.4-1.5.4-3 0-1.3-.1-2.3-.4-3-.3-.6-.7-.8-1.4-.8-.5 0-1 .3-1.4.8zM1206 36.2v9.4h-1.3v-8l-2.3 1.3-.6-.8 3-1.8h1.2zM1214.8 43c0 .6-.1 1-.4 1.4-.3.4-.7.7-1.1 1-.6.3-1 .3-1.7.3s-1.1-.1-1.7-.3c-.6-.1-.8-.6-1.1-1-.3-.4-.4-.8-.4-1.4s.1-1.1.4-1.4c.3-.4.7-.7 1.4-1-.6-.3-.8-.6-1.1-1-.3-.4-.4-.8-.4-1.3 0-.6.1-1 .4-1.3.3-.4.6-.7 1-.8s.8-.3 1.4-.3c.4 0 1 .1 1.4.3s.8.4 1.1.8c.3.4.4.8.4 1.3s-.1.8-.4 1.3c-.3.3-.7.7-1.3.8 1.4.6 2.1 1.5 2.1 2.6zm-1.9 1.3c.3-.3.6-.7.6-1.1 0-.3 0-.6-.1-.8-.1-.3-.3-.4-.6-.6s-.7-.3-1.3-.6l-.3-.1c-.4.3-.8.6-1 .8-.3.3-.3.7-.3 1.3s.1.8.6 1.3c.3.3.8.4 1.4.4.2-.2.6-.4 1-.6zm-2.5-6.9c-.3.3-.4.6-.4 1.1 0 .4.1.8.4 1 .3.3.7.4 1.3.7l.3.1c.4-.3.7-.6.8-.7.1-.3.3-.6.3-1s-.1-.8-.4-1c-.3-.3-.7-.4-1.1-.4-.6-.1-.9-.1-1.2.2zM1223.6 36.2v9.4h-1.3v-8l-2.3 1.3-.6-.8 3-1.8h1.2zM1229.5 36.2v9.4h-1.3v-8l-2.3 1.3-.6-.8 3-1.8h1.2zM1233.3 38.9c.1.1.3.4.3.7 0 .3-.1.6-.3.7-.1.1-.4.3-.7.3s-.6-.1-.7-.3c-.1-.1-.3-.4-.3-.7 0-.3.1-.6.3-.7.1-.1.4-.3.7-.3s.6.2.7.3zm0 5.2c.1.1.3.4.3.7 0 .3-.1.6-.3.7-.1.1-.4.3-.7.3s-.6-.1-.7-.3c-.1-.1-.3-.4-.3-.7 0-.3.1-.6.3-.7.1-.1.4-.3.7-.3s.6 0 .7.3zM1238.4 36.2v9.4h-1.3v-8l-2.3 1.3-.6-.8 3-1.8h1.2zM1245.7 37.2h-3.7V40c.4-.3 1-.4 1.5-.4.8 0 1.4.3 2 .8.4.6.7 1.3.7 2.1 0 .6-.1 1.1-.4 1.7-.3.4-.7.8-1.1 1.1-.4.3-1.1.4-1.7.4-.6 0-1.1-.1-1.5-.3-.4-.1-.8-.6-1.3-.8l.7-.7c.3.3.6.6 1 .7.3.1.7.3 1.1.3.6 0 1.1-.1 1.4-.6.3-.4.6-.8.6-1.5s-.1-1.1-.4-1.5c-.3-.3-.7-.4-1.3-.4-.3 0-.4 0-.7.1-.1 0-.4.1-.7.3h-1v-4.8h5.1l-.3.7z"/></g><g><path class="st5" d="M188.3 27.1c.8.6 1.3 1.5 1.3 2.8s-.4 2.3-1.3 3c-.8.7-2 1-3.4 1h-1.4V38h-2.1V26.1h3.4c1.6 0 2.7.3 3.5 1zm-1.6 4.5c.4-.3.6-.8.6-1.7 0-1.4-.8-2.1-2.4-2.1h-1.3V32h1.3c.8 0 1.3-.1 1.8-.4zM198.2 34h-5.6c0 .8.3 1.5.7 1.8.4.4.8.6 1.5.6.4 0 .7 0 1.1-.1.3-.1.7-.3 1.1-.6l.8 1.3c-1 .8-2.1 1.3-3.4 1.3-1.4 0-2.4-.4-3.1-1.3-.7-.8-1.1-2-1.1-3.4 0-.8.1-1.7.4-2.4s.7-1.3 1.4-1.7c.6-.4 1.3-.6 2.1-.6 1.3 0 2.3.4 3 1.1.7.7 1 2 1 3.4.1-.1.1.2.1.6zm-2.1-1.6c0-1.5-.6-2.4-1.7-2.4-.6 0-1 .1-1.3.6-.3.4-.4 1-.6 1.8h3.6zM210.7 28.9l-2.1 4.2 2.4 4.8h-2.3l-1.8-3.9h-1v3.9h-2V34h-1l-1.8 3.9h-2.3l2.4-4.8-2.1-4.2h2.1l1.7 3.5h1v-3.5h2v3.5h1l1.7-3.5h2.1zM219.9 37.8h-2.1v-3.5c0-.7 0-1.3.1-1.8s.1-1 .1-1.3l-3.4 6.8h-2.3v-9h2.1v3.5c0 .6 0 1.3-.1 1.8 0 .6-.1 1-.1 1.3l3.2-6.8h2.4l.1 9zM231.8 37.8h-2.1l-.3-3.7v-1.7-1.5l-1.7 6h-1.8l-1.7-6v3.3l-.3 3.7h-2.1l.8-8.9h2.7l1.4 6 1.5-6h2.7l.9 8.8zM243.2 37.8v-7.3h-3v7.3h-2.1v-8.9h7.3v8.9h-2.2zM255 29.8c.6.8.8 2 .8 3.5 0 1-.1 1.7-.4 2.4-.3.7-.7 1.3-1.3 1.7-.6.4-1.1.6-1.8.6-1 0-1.7-.3-2.3-1v4.2l-2.1.3V28.8h1.8l.1 1.1c.3-.4.7-.8 1.3-1 .4-.3 1-.3 1.4-.3 1.1 0 2 .5 2.5 1.2zm-1.4 3.5c0-1.1-.1-1.8-.4-2.4-.3-.4-.7-.7-1.3-.7-.4 0-.7.1-1 .3l-.8.8v4.1c.4.6 1 1 1.7 1 1.1 0 1.8-1 1.8-3.1zM264.7 29.9c.7.8 1.1 2 1.1 3.5 0 1-.1 1.7-.6 2.5-.3.7-.8 1.3-1.4 1.7s-1.4.6-2.3.6c-1.3 0-2.4-.4-3.1-1.3-.7-.8-1.1-2-1.1-3.5 0-1 .1-1.7.6-2.5.3-.7.8-1.3 1.4-1.7.7-.4 1.4-.6 2.3-.6 1.3 0 2.4.5 3.1 1.3zm-5 3.4c0 1.1.1 1.8.4 2.4.3.6.8.7 1.4.7s1.1-.3 1.4-.7c.3-.4.4-1.3.4-2.4 0-1-.1-1.8-.4-2.3-.3-.4-.8-.7-1.4-.7-1.1-.1-1.8 1-1.8 3zM275.4 36.1v4.4h-1.5l-.3-2.7h-5.3l-.3 2.7h-1.5v-4.4h.6c.3-.1.4-.3.6-.6s.3-.6.4-1.1c.1-.6.3-1.4.3-2.4l.3-3.1h6v7.3h.8v-.1zm-3.1-5.8h-2l-.1 1.4c-.1 1-.1 1.7-.3 2.3s-.3 1-.4 1.3c-.1.3-.4.6-.8.8h3.7v-5.8zM283.9 36.2c.1.1.3.3.6.4l-.4 1.4c-.6 0-1-.1-1.3-.4-.3-.3-.6-.6-.7-1-.3.4-.7.8-1.1 1-.4.3-1 .3-1.5.3-.8 0-1.5-.3-2.1-.7-.6-.6-.8-1.1-.8-2 0-1 .3-1.7 1.1-2.3.7-.6 1.7-.7 3-.7h1.1v-.6c0-.6-.1-1-.4-1.3-.3-.3-.7-.3-1.3-.3-.7 0-1.4.1-2.4.4l-.6-1.4c1.1-.4 2.3-.7 3.2-.7 2.3 0 3.4 1 3.4 3.1v3.8c-.1.6 0 .9.2 1zm-2.4-.8v-1.8h-.8c-1.4 0-2.1.6-2.1 1.5 0 .4.1.7.3 1s.6.4 1 .4c.6 0 1.1-.4 1.6-1.1zM296.9 28.9l-2.1 4.2 2.4 4.8H295l-1.8-3.9h-1v3.9h-2V34h-1l-1.8 3.9h-2.3l2.4-4.8-2.1-4.2h2.1l1.7 3.5h1v-3.5h2v3.5h1l1.7-3.5h2zM306.2 37.8h-2.1v-3.5c0-.7 0-1.3.1-1.8.1-.6.1-1 .1-1.3l-3.4 6.8h-2.3v-9h2.1v3.5c0 .6 0 1.3-.1 1.8 0 .6-.1 1-.1 1.3l3.2-6.6h2.4v8.8z"/></g><g><path class="st10" d="M1413.9 177.6h-241.4c-4.4 0-7.7-3.5-7.7-7.7v-49.8c0-4.4 3.5-7.7 7.7-7.7h241.4c4.4 0 7.7 3.5 7.7 7.7v49.7c.1 4.3-3.4 7.8-7.7 7.8zM1127.7 177.6H886.3c-4.4 0-7.7-3.5-7.7-7.7v-49.8c0-4.4 3.5-7.7 7.7-7.7h241.4c4.4 0 7.7 3.5 7.7 7.7v49.7c0 4.3-3.5 7.8-7.7 7.8zM840.9 177.6H599.5c-4.4 0-7.7-3.5-7.7-7.7v-49.8c0-4.4 3.5-7.7 7.7-7.7h241.4c4.4 0 7.7 3.5 7.7 7.7v49.7c0 4.3-3.4 7.8-7.7 7.8z"/><path class="st6" d="M35.7 79.8v15.6h-17V79.8h3V93h4.2V79.8h2.8V93h4.2V79.8h2.8zM48 83.5l-.4 2.3H44v9.7h-2.8v-9.7h-3.7v-2.3H48zM59.2 84.8c.7 1.1 1.1 2.7 1.1 4.6 0 1.3-.1 2.4-.6 3.2-.4 1-.8 1.7-1.7 2.3-.7.6-1.5.8-2.5.8-1.3 0-2.3-.4-3-1.3v5.6l-2.8.3V83.5h2.5l.1 1.4c.4-.6 1-1 1.5-1.4.6-.4 1.3-.4 1.8-.4 1.8 0 2.9.5 3.6 1.7zm-2 4.6c0-1.4-.1-2.5-.6-3.1-.4-.6-1-1-1.7-1-.4 0-1 .1-1.4.4-.4.3-.8.7-1.1 1.1v5.3c.6.8 1.3 1.3 2.3 1.3 1.7.1 2.5-1.3 2.5-4zM73 95.3h-2.8v-4.8c0-.8 0-1.7.1-2.5s.1-1.4.3-1.7l-4.5 9H63v-12h2.8v4.8c0 .8 0 1.7-.1 2.4-.1.8-.1 1.4-.3 1.7l4.4-9h3.1v12.1h.1zM82.1 89l3.9 6.3h-3.4l-2.4-4.8-2.4 4.8h-3.2l3.9-6.3-3.5-5.6h3.2l2 4.1 2-4.1h3.1L82.1 89zM97.6 83.5L94.2 89l3.7 6.3h-3.2l-3-5.3h-1.3v5.3h-2.8v-12h2.8V88h1.4l2.8-4.6h3v.1zM108.5 84.8c1 1.1 1.4 2.7 1.4 4.6 0 1.3-.3 2.4-.7 3.2-.4 1-1.1 1.7-2 2.3-.8.6-1.8.8-3 .8-1.7 0-3.1-.6-4.1-1.7-1-1.1-1.5-2.7-1.5-4.6 0-1.3.3-2.4.7-3.2.4-1 1.1-1.7 2-2.3.8-.6 1.8-.8 3-.8 1.9 0 3.2.5 4.2 1.7zm-6.7 4.6c0 1.4.3 2.4.7 3.1.4.7 1.1 1 2 1s1.5-.3 2-1c.3-.7.4-1.7.4-3.1 0-1.4-.3-2.4-.7-3.1-.4-.7-1.1-1-2-1-1.5 0-2.4 1.4-2.4 4.1zM122.7 93.2V99h-2.1l-.4-3.5h-7l-.4 3.5h-2.1v-5.8h.8c.3-.1.6-.4.7-.8.1-.3.4-.8.6-1.5s.3-1.8.4-3.2l.3-4.2h8v9.7h1.3zm-4-7.7H116l-.1 1.8c-.1 1.3-.3 2.3-.4 3.1-.1.7-.4 1.3-.6 1.7-.3.4-.6.7-1.1 1h4.9v-7.6zM316.8 79.8l-4.1 7.2 4.5 8.4h-3.4l-3.7-7h-1.8v7h-3V79.8h3v6.3h2l3.5-6.3h3zM328.3 83.5v12h-2.8v-9.7h-3l-.3 3.2c-.1 1.7-.3 3-.6 3.8-.1.8-.6 1.5-1 2-.4.4-1.3.8-2.3 1.1l-.7-2.1c.6-.1.8-.4 1.1-.7.3-.3.4-.7.4-1.3.1-.6.1-1.5.3-3l.4-5.2h8.3v-.1zM341.7 95.3h-2.8v-4.8c0-.8 0-1.7.1-2.5s.1-1.4.3-1.7l-4.5 9h-3.1v-12h2.8v4.8c0 .8 0 1.7-.1 2.4-.1.8-.1 1.4-.3 1.7l4.4-9h3.1v12.1h.1zM354.9 90.3h-7.5c.1 1.1.4 2 .8 2.5.6.6 1.1.7 2 .7.6 0 1-.1 1.5-.3.4-.1 1-.4 1.5-.8l1.1 1.7c-1.3 1.1-2.8 1.5-4.4 1.5-1.8 0-3.2-.6-4.2-1.7s-1.4-2.7-1.4-4.5c0-1.3.1-2.3.6-3.2.4-1 1-1.7 1.8-2.3s1.7-.8 2.8-.8c1.7 0 3 .6 3.9 1.5 1 1.1 1.4 2.5 1.4 4.4.1.3.1.7.1 1.3zm-2.8-2c0-2.1-.7-3.1-2.3-3.1-.7 0-1.3.3-1.7.8s-.7 1.4-.7 2.5l4.7-.2zM364.5 95.3v-4.9h-4.1v4.9h-2.8v-12h2.8v4.8h4.1v-4.8h2.8v12h-2.8zM379.5 83.5l-.4 2.3h-3.5v9.7h-2.8v-9.7h-3.7v-2.3h10.4zM601.1 86.7c1.1.8 1.5 2 1.5 3.7 0 1.7-.6 3-1.7 3.8-1.1.8-2.5 1.3-4.5 1.3h-4.8V79.8h9.1l-.3 2.3h-5.9v3.4h1.8c2.2 0 3.6.4 4.8 1.2zm-2.4 5.8c.6-.4.8-1.1.8-2.1s-.3-1.5-.8-2.1c-.6-.4-1.3-.7-2.4-.7h-1.7v5.5h1.7c1.1.1 1.9-.2 2.4-.6zM613.9 84.8c1 1.1 1.4 2.7 1.4 4.6 0 1.3-.3 2.4-.7 3.2-.4 1-1.1 1.7-2 2.3-.8.6-1.8.8-3 .8-1.7 0-3.1-.6-4.1-1.7-1-1.1-1.5-2.7-1.5-4.6 0-1.3.3-2.4.7-3.2.4-1 1.1-1.7 2-2.3.8-.6 1.8-.8 3-.8 1.8 0 3.2.5 4.2 1.7zm-6.8 4.6c0 1.4.3 2.4.7 3.1.4.7 1.1 1 2 1s1.5-.3 2-1 .7-1.7.7-3.1c0-1.4-.3-2.4-.7-3.1s-1.1-1-2-1c-1.9 0-2.7 1.4-2.7 4.1zM625 95.3v-4.9h-4.1v4.9h-2.8v-12h2.8v4.8h4.1v-4.8h2.8v12H625zM637.1 95.5c-.4 1.4-1.3 2.7-2.3 3.4-1 .8-2.3 1.3-3.9 1.4l-.3-2.1c.8-.1 1.4-.3 1.8-.6.4-.3.8-.6 1.1-.8.3-.3.6-.8.8-1.4h-1l-3.8-12h3.1l2.5 10 2.7-10h3l-3.7 12.1zM649.4 83.5c.6.3 1.3.6 1.8 1.1l-1.3 1.7c-.4-.3-.8-.6-1.1-.7-.4-.1-.8-.1-1.3-.1-1.8 0-2.7 1.4-2.7 4.1 0 1.4.3 2.4.7 3 .4.6 1.1.8 2 .8.4 0 .8 0 1.1-.1.4-.1.7-.4 1.3-.7l1.3 1.8c-1.1 1-2.4 1.4-3.8 1.4-1.1 0-2.1-.3-3-.7-.8-.6-1.5-1.3-2-2.1-.4-1-.7-2-.7-3.2 0-1.3.3-2.4.7-3.4.4-1 1.1-1.7 2-2.3.8-.6 1.8-.8 3-.8.6-.2 1.3-.1 2 .2zM661.1 88.3c.8.7 1.3 1.7 1.3 3.1 0 1.3-.4 2.4-1.4 3.1-1 .7-2.1 1-3.5 1h-4.4v-12h2.8v3.8h1c2.1-.1 3.4.3 4.2 1zm-1.7 2.9c0-.7-.1-1.3-.6-1.5-.4-.3-1-.6-1.8-.6h-1v4.2h1.1c1.6 0 2.3-.7 2.3-2.1zm4.4-7.7h2.8v12h-2.8v-12z"/><g><path class="st6" d="M887.4 79.8c.7.3 1.4.7 2.1 1.3l-1.5 1.7c-1-.7-1.8-1.1-2.8-1.1-1.1 0-2.1.4-2.8 1.4-.7 1-1 2.4-1 4.4s.3 3.4 1 4.4c.7 1 1.7 1.4 2.8 1.4.6 0 1.1-.1 1.7-.3.4-.3 1-.6 1.5-1l1.4 1.7c-.6.6-1.1 1-2 1.4-.8.4-1.7.6-2.7.6-1.4 0-2.5-.3-3.5-1-1-.6-1.8-1.5-2.4-2.8-.6-1.3-.8-2.7-.8-4.4 0-1.7.3-3.1.8-4.4.6-1.3 1.4-2.1 2.4-2.8 1-.6 2.3-1 3.5-1 .8.1 1.6.3 2.3.5zM901.4 83.5L898 89l3.7 6.3h-3.2l-3-5.3h-1.3v5.3h-2.8v-12h2.8V88h1.4l2.8-4.6h3v.1zM913.5 95.3h-2.8v-4.8c0-.8 0-1.7.1-2.5.1-.7.1-1.4.3-1.7l-4.5 9h-3.1v-12h2.8v4.8c0 .8 0 1.7-.1 2.4-.1.8-.1 1.4-.3 1.7l4.4-9h3.1v12.1h.1zM927.1 93.2V99H925l-.4-3.5h-7l-.4 3.5H915v-5.8h.8c.3-.1.6-.4.7-.8.1-.3.4-.8.6-1.5.1-.7.3-1.8.4-3.2l.3-4.2h8v9.7h1.3zm-3.9-7.7h-2.7l-.1 1.8c-.1 1.3-.3 2.3-.4 3.1-.1.7-.4 1.3-.6 1.7-.3.4-.6.7-1.1 1h4.9v-7.6zM939.2 83.5l-3.4 5.5 3.7 6.3h-3.2l-3-5.3H932v5.3h-2.8v-12h2.8V88h1.4l2.8-4.6h3v.1zM950.2 93.2c.1.3.4.4.7.6l-.6 2c-.7 0-1.3-.3-1.7-.6-.4-.3-.7-.7-1-1.3-.4.6-.8 1-1.5 1.4-.6.3-1.3.4-2 .4-1.1 0-2.1-.3-2.8-1-.7-.7-1-1.5-1-2.7 0-1.3.4-2.3 1.4-3s2.3-1 4.1-1h1.5v-.7c0-.7-.1-1.3-.6-1.5-.4-.3-1-.4-1.7-.4-.8 0-2 .1-3.1.6l-.7-2c1.5-.6 3-.8 4.4-.8 3.1 0 4.5 1.4 4.5 4.1v4.9c-.2.4-.2.9.1 1zm-3.1-1.1v-2.4H946c-1.8 0-2.8.7-2.8 2.1 0 .6.1 1 .4 1.3.3.3.7.4 1.3.4.8.1 1.6-.4 2.2-1.4z"/></g><g><path class="st6" d="M1176.2 79.8l-.3 2.4h-4.1v13.2h-3V82.2h-4.2v-2.4h11.6zM1187.3 95.3h-2.8v-4.8c0-.8 0-1.7.1-2.5.1-.7.1-1.4.3-1.7l-4.5 9h-3.1v-12h2.8v4.8c0 .8 0 1.7-.1 2.4-.1.8-.1 1.4-.3 1.7l4.4-9h3.1v12.1h.1zM1197.7 95.3v-9.7h-3.9v9.7h-2.8v-12h9.7v12h-3zM1218.6 83.5v12h-2.8v-4.6c-.4.4-1 .7-1.5.8s-1.3.3-1.8.3c-1.1 0-2-.3-2.5-1-.6-.6-.8-1.5-.8-2.7v-4.8h2.8V88c0 .7.1 1.1.4 1.4s.7.4 1.1.4c.4 0 .8-.1 1.4-.3.4-.1.8-.4 1.1-.7v-5.2h2.7v-.1zM1231.8 90.3h-7.5c.1 1.1.4 2 .8 2.5.4.6 1.1.7 2 .7.6 0 1-.1 1.5-.3.4-.1 1-.4 1.5-.8l1.1 1.7c-1.3 1.1-2.8 1.5-4.4 1.5-1.8 0-3.2-.6-4.2-1.7s-1.4-2.7-1.4-4.5c0-1.3.3-2.3.6-3.2.4-1 1-1.7 1.8-2.3.8-.6 1.7-.8 2.8-.8 1.7 0 3 .6 3.9 1.5 1 1.1 1.4 2.5 1.4 4.4.1.3.1.7.1 1.3zm-2.8-2c0-2.1-.7-3.1-2.3-3.1-.7 0-1.3.3-1.7.8-.4.6-.7 1.4-.7 2.5l4.7-.2zM1244.3 83.5l-3.4 5.5 3.7 6.3h-3.2l-3-5.3h-1.3v5.3h-2.8v-12h2.8V88h1.4l2.8-4.6h3v.1zM1255.1 93.2c.1.3.4.4.7.6l-.6 2c-.7 0-1.3-.3-1.7-.6-.4-.3-.7-.7-1-1.3-.4.6-.8 1-1.5 1.4-.7.4-1.3.4-2 .4-1.1 0-2.1-.3-2.8-1-.7-.7-1-1.5-1-2.7 0-1.3.4-2.3 1.4-3s2.3-1 4.1-1h1.5v-.7c0-.7-.1-1.3-.6-1.5-.3-.3-1-.4-1.7-.4-.8 0-2 .1-3.1.6l-.7-2c1.5-.6 3-.8 4.4-.8 3.1 0 4.5 1.4 4.5 4.1v4.9c-.1.4 0 .9.1 1zm-3.1-1v-2.4h-1.1c-1.8 0-2.8.7-2.8 2.1 0 .6.1 1 .4 1.3.3.3.7.4 1.3.4 1 0 1.7-.5 2.2-1.4z"/></g><path class="st10" d="M267.8 177.5H26.4c-4.4 0-7.7-3.5-7.7-7.7v-49.7c0-4.4 3.5-7.7 7.7-7.7h241.4c4.4 0 7.7 3.5 7.7 7.7v49.7c.2 4.3-3.3 7.7-7.7 7.7z"/><path class="st11" d="M268.1 112.2h-54.2v65.3h54.2c4.2 0 7.6-3.4 7.6-7.6v-50.1c0-4.1-3.4-7.6-7.6-7.6z"/><path class="st2" d="M254.7 143.7H246v-8.9h-2.4v8.9h-8.8v2.4h8.8v8.7h2.4v-8.7h8.7z"/><path class="st10" d="M554.4 177.5H313c-4.4 0-7.7-3.5-7.7-7.7v-49.7c0-4.4 3.5-7.7 7.7-7.7h241.4c4.4 0 7.7 3.5 7.7 7.7v49.7c.1 4.3-3.4 7.7-7.7 7.7z"/><path class="st11" d="M554.4 112.2h-54.2v65.3h54.2c4.2 0 7.6-3.4 7.6-7.6v-50.1c0-4.1-3.4-7.6-7.6-7.6z"/><path class="st2" d="M541 143.7h-8.7v-8.9h-2.4v8.9H521v2.4h8.9v8.7h2.4v-8.7h8.7z"/><g><path class="st2" d="M686.6 137.7c.7.4 1.3.8 1.7 1.5.4.7.6 1.4.6 2.1 0 .8-.1 1.7-.6 2.5-.4.8-1 1.7-1.8 2.7s-2.1 2.3-3.8 3.8h6.5l-.3 2.3h-9.4v-2.1c2-2 3.2-3.4 4.1-4.4.8-1 1.4-1.7 1.8-2.4.4-.7.6-1.4.6-2.1 0-.7-.1-1.3-.6-1.7-.4-.4-1-.6-1.5-.6s-1.1.1-1.5.4-.8.7-1.4 1.3l-1.7-1.4c1.3-1.7 3-2.5 4.9-2.5.7 0 1.7.3 2.4.6zM697.5 137.4v15.2h-2.8v-12.2l-3.4 2.1-1.3-2 4.9-3h2.5v-.1zM711.5 146.9v2.3h-1.8v3.5h-2.8v-3.5h-6.5v-2.1l4.4-10 2.4 1-3.9 8.9h3.5l.3-3.8h2.5v3.8h1.9zM723.9 146.9v2.3H722v3.5h-2.8v-3.5h-6.5v-2.1l4.4-10 2.4 1-3.9 8.9h3.5l.3-3.8h2.5v3.8h2z"/></g><g><path class="st2" d="M1001.1 138.4c1 1.4 1.4 3.2 1.4 5.8 0 2.5-.4 4.5-1.4 5.9-1 1.4-2.3 2-4.1 2-1.8 0-3.1-.7-4.1-2s-1.4-3.4-1.4-5.9.4-4.5 1.4-5.8 2.3-2 4.1-2c1.9 0 3.3.6 4.1 2zm-5.9 1.4c-.4.8-.6 2.4-.6 4.4 0 2.1.1 3.5.6 4.4.4.8 1 1.3 1.8 1.3s1.5-.4 1.8-1.3c.3-.8.6-2.4.6-4.4 0-2.1-.1-3.5-.6-4.4s-1-1.3-1.8-1.3c-.7 0-1.4.4-1.8 1.3zM1010.2 136.8c.6.3 1 .8 1.4 1.4.3.6.6 1.3.6 2.1s-.1 1.4-.6 2.1c-.3.6-.8 1.1-1.4 1.4-.6.3-1.3.4-2 .4s-1.4-.1-2-.4-1-.8-1.4-1.4c-.3-.6-.6-1.3-.6-2.1s.1-1.4.6-2.1c.4-.7.8-1.1 1.4-1.4s1.3-.4 2-.4c.8 0 1.3.1 2 .4zm-3.2 2c-.3.4-.4.8-.4 1.5 0 .6.1 1.1.4 1.5.3.4.7.6 1.3.6 1.1 0 1.7-.7 1.7-2.1s-.6-2.1-1.7-2.1c-.7-.1-1 .2-1.3.6zm10.4-3.1l1.8 1.1-10.4 15.8-1.8-1.1 10.4-15.8zm2.4 9c.6.3 1 .8 1.4 1.4.3.6.6 1.3.6 2.1s-.1 1.4-.6 2.1c-.3.6-.8 1.1-1.4 1.4-.6.3-1.3.4-2 .4s-1.4-.1-2-.4-1-.8-1.4-1.4c-.3-.6-.6-1.3-.6-2.1s.1-1.4.6-2.1c.3-.6.8-1.1 1.4-1.4.6-.3 1.3-.4 2-.4.9 0 1.4.1 2 .4zm-3.1 2c-.3.4-.4.8-.4 1.5 0 .6.1 1.1.4 1.5.3.4.7.6 1.3.6 1.1 0 1.7-.7 1.7-2.1s-.6-2.1-1.7-2.1c-.7-.1-1.1.1-1.3.6z"/></g><g><path class="st2" d="M1235 137.9c.7.3 1.3.6 2 1.1l-1.1 1.4c-1-.7-2-1.1-3-1.1-1.3 0-2.4.6-3.1 1.5-.8 1-1.1 2.5-1.1 4.8 0 2.1.4 3.7 1.1 4.8.8 1 1.8 1.5 3.1 1.5.7 0 1.3-.1 1.7-.3.6-.3 1-.6 1.5-1l1.1 1.4c-.4.6-1.1.8-1.8 1.3-.7.3-1.5.6-2.5.6-1.3 0-2.4-.3-3.4-1-1-.6-1.7-1.5-2.3-2.8-.6-1.3-.8-2.7-.8-4.4s.3-3.1.8-4.4c.6-1.3 1.4-2.1 2.3-2.7 1-.6 2.1-1 3.2-1 .9-.1 1.6.1 2.3.3z"/><path class="st2" d="M1246.6 141.5l-.3 1.7h-3.8v10.1h-2.1v-10.1h-3.9v-1.7h10.1zM1256 151.6c.1.3.4.4.7.6l-.4 1.4c-.6-.1-1.1-.3-1.5-.6-.4-.3-.7-.7-.8-1.3-.8 1.1-2 1.8-3.5 1.8-1.1 0-2.1-.3-2.8-1-.7-.7-1-1.5-1-2.5 0-1.3.4-2.3 1.4-3 .8-.7 2.3-1 3.8-1h1.8v-.8c0-.8-.1-1.4-.6-1.8-.4-.4-1-.6-1.8-.6s-2 .1-3.2.6l-.6-1.5c1.4-.6 2.8-.8 4.1-.8 1.4 0 2.4.3 3.1 1 .7.7 1 1.7 1 3v5.5c.1.4.1.8.3 1zm-2.3-1.4v-2.7h-1.5c-2.3 0-3.2.8-3.2 2.4 0 .7.1 1.3.6 1.5.3.4.8.6 1.5.6 1.1 0 1.9-.6 2.6-1.8zM1267.1 153.3v-5.2h-4.9v5.2h-2.1v-11.8h2.1v4.9h4.9v-4.9h2.1v11.8h-2.1zM1282.9 151.6v5.1h-1.7l-.3-3.4h-7.6l-.3 3.4h-1.7v-5.1h.8c.4-.3.7-.6.8-.8.1-.3.4-.8.6-1.5.1-.7.3-1.8.4-3.4l.3-4.4h7.5v10.1h1.2zm-3.3-8.5h-3.5l-.1 2.5c-.1 1.4-.3 2.5-.4 3.2-.1.7-.3 1.3-.6 1.7-.3.4-.6.7-1.1 1.1h5.6V143h.1zM1294.2 151.6c.1.3.4.4.7.6l-.4 1.4c-.6-.1-1.1-.3-1.5-.6-.4-.3-.7-.7-.8-1.3-.8 1.1-2 1.8-3.5 1.8-1.1 0-2.1-.3-2.8-1-.7-.7-1-1.5-1-2.5 0-1.3.4-2.3 1.4-3 .8-.7 2.3-1 3.8-1h1.8v-.8c0-.8-.1-1.4-.6-1.8-.4-.4-1-.6-1.8-.6s-2 .1-3.2.6l-.6-1.5c1.4-.6 2.8-.8 4.1-.8 1.4 0 2.4.3 3.1 1 .7.7 1 1.7 1 3v5.5c.1.4.1.8.3 1zm-2.3-1.4v-2.7h-1.5c-2.3 0-3.2.8-3.2 2.4 0 .7.1 1.3.6 1.5.3.4.8.6 1.5.6 1 0 1.8-.6 2.6-1.8zM1307 142.9c.7 1.1 1.1 2.7 1.1 4.5 0 1.8-.4 3.4-1.3 4.5-.8 1.1-2 1.7-3.4 1.7-1.3 0-2.4-.4-3.1-1.4v5.6l-2.1.3v-16.6h1.8l.1 1.5c.4-.6 1-1.1 1.5-1.4s1.3-.4 2-.4c1.6 0 2.7.5 3.4 1.7zm-1.2 4.5c0-3.1-.8-4.5-2.7-4.5-.6 0-1.1.1-1.5.6-.4.3-.8.8-1.3 1.3v5.8c.3.4.7.8 1.1 1.1s1 .4 1.5.4c1.9-.2 2.9-1.8 2.9-4.7zM1319 141.5l-.3 1.7h-3.8v10.1h-2.1v-10.1h-3.9v-1.7h10.1zM1328.1 153.3v-5.2h-4.9v5.2h-2.1v-11.8h2.1v4.9h4.9v-4.9h2.1v11.8h-2.1zM1341.8 146.4c.8.7 1.1 1.7 1.1 3s-.4 2.4-1.4 3.1c-1 .7-2 1-3.4 1h-3.8v-12h2.1v3.8h1.4c1.9 0 3.1.4 4 1.1zm-1.7 4.8c.4-.4.7-1 .7-1.8s-.3-1.4-.7-1.8-1.1-.6-2.3-.6h-1.3v4.8h1.5c1-.1 1.7-.4 2.1-.6zm4.6-9.7h2.1v11.8h-2.1v-11.8zM1360.2 153.3h-2.1V148c0-.8 0-1.7.1-2.5 0-.8.1-1.4.1-1.5l-4.9 9.6h-2.4v-12h2.1v5.3c0 .8 0 1.5-.1 2.5 0 .8-.1 1.4-.1 1.7l4.9-9.4h2.5v11.7h-.1zm-6.9-15.2c-.6-.4-1-1.1-1.1-2l1.4-.3c.1.4.4.8.7 1 .3.1.7.3 1.3.3.6 0 1-.1 1.3-.3.3-.3.6-.6.7-1l1.4.3c-.1.8-.4 1.4-1.1 2-.7.4-1.4.7-2.4.7-.8 0-1.6-.2-2.2-.7z"/></g><g><path class="st2" d="M361.2 136.2l-4.4 7.3 4.8 8.3h-2.5l-4.1-7.3h-2.1v7.3h-2.1v-15.5h2.1v6.5h2.1l3.8-6.5h2.4v-.1zM369.9 139.9c.6.1 1.1.6 1.7 1l-1 1.3c-.4-.3-.8-.6-1.3-.7-.4-.1-.8-.3-1.3-.3-1 0-1.7.4-2.3 1.1s-.8 1.8-.8 3.4c0 1.5.3 2.7.8 3.4.6.7 1.3 1.1 2.3 1.1.4 0 .8-.1 1.3-.3.4-.1.8-.4 1.3-.7l1 1.4c-1.1.8-2.3 1.3-3.7 1.3-1.5 0-2.8-.6-3.8-1.7s-1.4-2.5-1.4-4.5c0-1.3.1-2.4.6-3.4.4-1 1-1.7 1.8-2.3.7-.6 1.7-.8 2.8-.8.8.4 1.3.4 2 .7zM382.9 146.5h-7.6c.1 1.3.4 2.3 1 2.8.6.6 1.3 1 2.3 1 .6 0 1.1-.1 1.5-.3.4-.1 1-.4 1.5-.8l.8 1.3c-1.3 1-2.7 1.5-4.1 1.5-1.7 0-3-.6-3.8-1.7-.8-1.1-1.4-2.5-1.4-4.5 0-1.3.1-2.4.6-3.2.4-1 1-1.7 1.7-2.3.7-.6 1.5-.8 2.7-.8 1.5 0 2.8.6 3.7 1.5.8 1 1.3 2.5 1.3 4.4-.2.4-.2.7-.2 1.1zm-2-1.7c0-1.1-.3-2.1-.7-2.7s-1.1-1-2.1-1c-1.7 0-2.7 1.3-2.8 3.8l5.6-.1zM393.2 151.7v-5.2h-4.9v5.2h-2.1v-11.8h2.1v4.9h4.9v-4.9h2.1v11.8h-2.1zM408.8 151.7h-2.1v-5.3c0-.8 0-1.7.1-2.5 0-.8.1-1.4.1-1.5L402 152h-2.4v-12h2.1v5.3c0 .8 0 1.5-.1 2.5 0 .8-.1 1.4-.1 1.7l4.9-9.4h2.5v11.5h-.1zM421.1 139.9v11.8h-2v-4.5h-2.5l-2.5 4.5h-2.3l2.8-5.1c-1.4-.7-2.1-1.7-2.1-3.2 0-1.1.4-2.1 1.3-2.7s2-1 3.5-1h3.8v.2zm-1.9 5.6v-4.1h-2c-.8 0-1.5.1-2 .4-.4.3-.7.8-.7 1.5s.1 1.3.6 1.7c.4.3 1 .6 2 .6h2.1v-.1zM440.1 143.3c1 .8 1.5 2 1.5 3.5 0 1.7-.6 3-1.5 3.8-1.1.8-2.5 1.1-4.4 1.1h-4.1v-15.5h8.4l-.3 1.7h-6v4.1h2.1c1.8 0 3.2.4 4.3 1.3zm-1.7 6c.6-.4 1-1.3 1-2.5 0-1.1-.3-2-1-2.4-.6-.4-1.5-.7-2.7-.7h-2.1v6.3h2.1c1.2 0 2.2-.2 2.7-.7zM446.2 149.3c.3.3.4.7.4 1.1s-.1.8-.4 1.1c-.3.3-.7.4-1.1.4s-.8-.1-1.1-.4c-.3-.3-.4-.7-.4-1.1s.1-.8.4-1.1c.3-.3.7-.4 1.1-.4.4 0 .7.1 1.1.4z"/></g></g><path class="st2" d="M515.3 1055.9H34.5c-8.7 0-15.8-7-15.8-15.8V214.6c0-8.7 7-15.8 15.8-15.8h480.8c8.7 0 15.8 7 15.8 15.8V1040c-.1 8.9-7.1 15.9-15.8 15.9zM1405.9 1055.9H570.4c-8.7 0-15.8-7-15.8-15.8V214.6c0-8.7 7-15.8 15.8-15.8h835.4c8.7 0 15.8 7 15.8 15.8V1040c.1 8.9-6.9 15.9-15.7 15.9z"/><g class="st12"><path class="st6" d="M597.5 247.4h-3.8l-.5-8.5c-.2-3.1-.3-5.5-.3-7.3v-1.1l-3.7 14.7h-3.7l-4-14.7c0 1.3.1 2.3.1 3 0 1.8-.1 3.6-.2 5.5l-.5 8.4h-3.8l1.6-20.4h5l3.6 14.3 3.4-14.3h5.1l1.7 20.4zM613.9 240.7h-9.8c.1 1.5.5 2.6 1.2 3.2s1.6 1 2.7 1c.7 0 1.3-.1 1.9-.3.6-.2 1.3-.6 1.9-1l1.6 2.2c-1.7 1.4-3.7 2.1-5.8 2.1-2.4 0-4.2-.7-5.5-2.2-1.3-1.5-1.9-3.4-1.9-6 0-1.6.3-3 .8-4.3.6-1.3 1.3-2.3 2.4-3 1-.7 2.3-1.1 3.7-1.1 2.2 0 3.9.7 5.1 2.1s1.8 3.3 1.8 5.8c0 .2-.1.7-.1 1.5zm-3.7-2.6c0-2.7-1-4.1-3-4.1-.9 0-1.6.3-2.2 1-.5.7-.8 1.8-.9 3.3h6.1v-.2zM626.4 247.4v-6.5h-5.3v6.5h-3.8v-15.6h3.8v6.2h5.3v-6.2h3.8v15.6h-3.8zM651.4 232.3c1.1.7 1.9 1.6 2.4 2.9.6 1.2.9 2.7.9 4.4 0 1.6-.3 3-.8 4.3-.6 1.3-1.4 2.2-2.4 3-1.1.7-2.3 1.1-3.7 1.1-1.9 0-3.5-.6-4.7-1.9-1.2-1.3-1.9-3-2.1-5.1h-2.4v6.6h-3.8V232h3.8v6.3h2.4c.3-2 1-3.7 2.2-4.9s2.7-1.8 4.6-1.8c1.4-.3 2.6 0 3.6.7zm-1.3 11.3c.5-.9.7-2.2.7-4.1 0-3.6-1-5.3-3.1-5.3-1 0-1.8.4-2.3 1.3-.5.9-.8 2.2-.8 4 0 3.6 1 5.4 3 5.4 1.2 0 2-.4 2.5-1.3z"/></g><path class="st13" d="M531 281v-66.4c0-8.7-7-15.8-15.8-15.8H34.5c-8.7 0-15.8 7-15.8 15.8V281H531z"/><g class="st12"><path class="st6" d="M56.2 230.3c.9.4 1.8.9 2.7 1.6l-2 2.3c-1.2-1-2.5-1.4-3.8-1.4-1.5 0-2.7.6-3.6 1.8-.9 1.2-1.4 3.1-1.4 5.8 0 2.6.5 4.5 1.4 5.7.9 1.2 2.1 1.9 3.7 1.9.8 0 1.5-.1 2.2-.4.6-.3 1.3-.7 2-1.2l1.8 2.3c-.7.7-1.6 1.3-2.6 1.8-1.1.5-2.2.7-3.5.7-1.8 0-3.3-.4-4.7-1.2-1.4-.8-2.4-2-3.2-3.6-.7-1.6-1.1-3.5-1.1-5.8 0-2.2.4-4.1 1.2-5.7.8-1.6 1.8-2.8 3.2-3.6 1.3-.8 2.9-1.2 4.6-1.2 1.1-.3 2.2-.1 3.1.2zM72.2 235v15.6h-3.8v-6.1c-.6.5-1.3.9-2.1 1.2-.8.3-1.6.4-2.5.4-1.5 0-2.6-.4-3.4-1.2-.7-.8-1.1-2-1.1-3.5V235h3.8v5.8c0 .8.2 1.5.5 1.8.3.4.8.5 1.5.5.6 0 1.2-.1 1.8-.4.6-.2 1.1-.6 1.5-.9V235h3.8zM89.5 244h-9.8c.1 1.5.5 2.6 1.2 3.2s1.6 1 2.7 1c.7 0 1.3-.1 1.9-.3.6-.2 1.3-.6 1.9-1L89 249c-1.7 1.4-3.7 2.1-5.8 2.1-2.4 0-4.2-.7-5.5-2.2-1.3-1.5-1.9-3.4-1.9-6 0-1.6.3-3 .8-4.3.6-1.3 1.3-2.3 2.4-3 1-.7 2.3-1.1 3.7-1.1 2.2 0 3.9.7 5.1 2.1s1.8 3.3 1.8 5.8c0 .3 0 .8-.1 1.6zM81 228.1c.4.4.6.9.6 1.4 0 .6-.2 1.1-.6 1.4-.4.4-.9.6-1.4.6-.6 0-1.1-.2-1.5-.6-.4-.4-.6-.9-.6-1.4 0-.6.2-1.1.6-1.4.4-.4.9-.6 1.5-.6.5 0 1 .2 1.4.6zm4.9 13.3c0-2.7-1-4.1-3-4.1-.9 0-1.6.3-2.2 1-.5.7-.8 1.8-.9 3.3h6.1v-.2zm1.6-13.3c.4.4.6.9.6 1.4 0 .6-.2 1.1-.6 1.4-.4.4-.9.6-1.5.6s-1.1-.2-1.5-.6c-.4-.4-.6-.9-.6-1.4 0-.6.2-1.1.6-1.4.4-.4.9-.6 1.5-.6.7 0 1.1.2 1.5.6zM103.8 235l-.5 2.9h-4.6v12.7h-3.8v-12.7h-4.8V235h13.7z"/></g><path class="st10" d="M507.2 265.5H379.8c-3.9 0-7-3.1-7-7v-37c0-3.9 3.1-7 7-7h127.4c3.9 0 7 3.1 7 7v37c.1 3.9-3.2 7-7 7z"/><g><path class="st2" d="M415.2 245.3c0 1.1-.3 2.1-1 3-.6.8-1.4 1.5-2.5 2.1-1.1.6-2.4.7-3.9.7-1.4 0-2.7-.3-3.8-.7-1.1-.6-2-1.1-2.5-2.1-.6-.8-.8-1.8-.8-3 0-2.3 1.3-3.9 3.8-5.1-2-1.1-3-2.7-3-4.6 0-1 .3-2 .8-2.8.6-.8 1.4-1.4 2.4-1.8 1-.4 2.1-.7 3.2-.7 1.3 0 2.3.1 3.2.6 1 .4 1.8 1 2.4 1.7.6.7.8 1.7.8 2.8 0 1.8-1.1 3.4-3.2 4.5 2.7 1.3 4.1 3.1 4.1 5.4zm-4.7 2.2c.6-.6 1-1.3 1-2.1s-.3-1.7-.8-2.1c-.6-.6-1.4-1-2.8-1.5l-1-.3c-1.5.8-2.4 2.1-2.4 3.9 0 1 .3 1.7 1 2.3.6.6 1.4.8 2.5.8 1-.1 1.9-.4 2.5-1zm-4.7-13.8c-.6.4-.7 1.1-.7 2 0 .8.3 1.4.7 1.8.4.4 1.3.8 2.3 1.3l.6.1c.7-.4 1.3-1 1.7-1.5.3-.6.4-1.1.4-1.8 0-.8-.3-1.4-.7-2-.6-.4-1.1-.7-2.1-.7-.9.1-1.6.4-2.2.8zM431.8 243.2v3h-2.4v4.5h-3.7v-4.5h-8.4v-2.5l5.8-13.1 3.2 1.3-5.1 11.7h4.5l.4-4.9h3.2v4.9h2.4v-.4zM453.1 232.5c1.3 1.4 1.8 3.2 1.8 5.6 0 2.7-.4 4.9-1.3 6.6s-2.1 3.1-3.7 4.1c-1.7 1-3.9 1.8-6.6 2.5l-.8-2.7c2.5-.7 4.6-1.5 5.9-2.7 1.4-1.1 2.1-2.5 2.4-4.5-1.1 1.4-2.5 2.1-4.2 2.1-1 0-2-.3-2.8-.8-.8-.6-1.5-1.3-2-2.3-.6-1-.7-2.1-.7-3.4 0-1.4.3-2.5 1-3.5.6-1 1.4-1.8 2.5-2.4 1-.6 2.3-.8 3.5-.8 2 .1 3.7.8 5 2.2zm-2.1 6.3c0-2-.3-3.5-.7-4.4-.4-.8-1.3-1.3-2.4-1.3-1 0-1.7.3-2.3 1-.6.7-.8 1.7-.8 2.8 0 1.3.3 2.3.8 2.8.6.6 1.3 1 2.1 1 1.2.2 2.3-.5 3.3-1.9zM471.6 245.3c0 1.1-.3 2.1-1 3-.6.8-1.4 1.5-2.5 2.1-1.1.6-2.4.7-3.9.7-1.4 0-2.7-.3-3.8-.7-1.1-.6-2-1.1-2.5-2.1-.6-.8-.8-1.8-.8-3 0-2.3 1.3-3.9 3.8-5.1-2-1.1-3-2.7-3-4.6 0-1 .3-2 .8-2.8.6-.8 1.4-1.4 2.4-1.8 1-.4 2.1-.7 3.2-.7 1.3 0 2.3.1 3.2.6 1 .4 1.8 1 2.4 1.7.6.7.8 1.7.8 2.8 0 1.8-1.1 3.4-3.2 4.5 2.7 1.3 4.1 3.1 4.1 5.4zm-4.7 2.2c.6-.6 1-1.3 1-2.1s-.3-1.7-.8-2.1c-.6-.6-1.4-1-2.8-1.5l-1-.3c-1.5.8-2.4 2.1-2.4 3.9 0 1 .3 1.7 1 2.3.6.6 1.4.8 2.5.8 1.1-.1 1.9-.4 2.5-1zm-4.7-13.8c-.6.4-.7 1.1-.7 2 0 .8.3 1.4.7 1.8s1.3.8 2.3 1.3l.6.1c.7-.4 1.3-1 1.7-1.5.3-.6.4-1.1.4-1.8 0-.8-.3-1.4-.7-2-.6-.4-1.1-.7-2.1-.7-.9.1-1.6.4-2.2.8zM485.1 230.8v2.7l-7.3 17.6-3.5-1.1 6.9-16.2h-8.4v-3h12.3z"/></g><g><path class="st13" d="M1052 227.3l-2.4 17.4h-2.4l2.1-15.3h-7.2l-2.1 15.3h-2.4l2.4-17.4h12zM1055.7 243.4c-.8-1-1.3-2.4-1.3-4.1 0-1.3.3-2.5.7-3.8s1.3-2.4 2.3-3.2c1-.8 2.4-1.4 3.9-1.4 1.7 0 3 .4 3.8 1.4.8 1 1.3 2.4 1.3 4.1 0 1.3-.3 2.5-.7 3.8-.4 1.3-1.3 2.4-2.3 3.2-1 .8-2.4 1.4-3.9 1.4-1.7.2-3-.4-3.8-1.4zm6.4-1.4c.7-.7 1.1-1.7 1.4-2.7.3-1 .4-2.1.4-3.1 0-2.3-.8-3.4-2.7-3.4-1.1 0-2 .4-2.5 1.1-.6.7-1.1 1.7-1.4 2.7-.3 1-.4 2.1-.4 3.1 0 2.3 1 3.4 2.8 3.4.9-.1 1.7-.4 2.4-1.1zM1070.3 244c-.6-.6-.8-1.4-.8-2.4 0-.3 0-.6.1-.8l1.4-9.4h2.3l-1.3 9.4c0 .3-.1.6-.1.8 0 .6.1 1 .4 1.3.3.3.6.4 1.1.4.7 0 1.4-.3 2.1-.8.7-.6 1.3-1.3 2-2.3l1.3-8.7h2.3l-1.8 13.4h-2l.1-2.4c-.7.8-1.4 1.5-2 2.1-.7.4-1.5.7-2.4.7-1.3-.3-2.1-.6-2.7-1.3zM1094.2 232.5l-1.3 1.4c-.4-.4-.8-.6-1.3-.7-.4-.1-.8-.3-1.4-.3-1 0-1.8.3-2.5 1s-1.1 1.5-1.4 2.5c-.3 1-.4 2.1-.4 3.1 0 2.3.8 3.2 2.7 3.2.6 0 1.1-.1 1.5-.3.4-.1 1-.4 1.5-.8l1 1.7c-1.3 1-2.7 1.4-4.2 1.4s-2.8-.4-3.7-1.4c-.8-1-1.3-2.3-1.3-4.1 0-1.3.3-2.5.7-3.9.4-1.3 1.3-2.4 2.3-3.2s2.3-1.3 3.8-1.3c1.6.3 2.9.7 4 1.7zM1107 232.7c-.6.3-1.1.6-1.4.8-.3.3-.8 1-1.4 1.8l-1.7 2.3 3.2 6.9h-2.5l-2.7-6h-1.7l-.8 6h-2.3l1.8-13.4h2.3l-.7 5.5h1.7l2-2.7c.7-1 1.3-1.7 1.7-2.1.4-.4 1.1-.7 2-1l.5 1.9zM1108.8 244.4c-.3-.3-.4-.7-.4-1.1 0-.6.1-1 .6-1.4.4-.4.8-.6 1.3-.6.4 0 .8.1 1.1.4.3.3.4.7.4 1.1 0 .6-.1 1-.6 1.4s-.8.6-1.4.6c-.2.2-.7 0-1-.4zM1114.9 244.4c-.3-.3-.4-.7-.4-1.1 0-.6.1-1 .6-1.4s.8-.6 1.3-.6.8.1 1.1.4c.3.3.4.7.4 1.1 0 .6-.1 1-.6 1.4-.4.4-.8.6-1.4.6-.3.2-.7 0-1-.4zM1120.9 244.4c-.3-.3-.4-.7-.4-1.1 0-.6.1-1 .6-1.4s.8-.6 1.3-.6.8.1 1.1.4c.3.3.4.7.4 1.1 0 .6-.1 1-.6 1.4-.4.4-.8.6-1.4.6-.2.2-.7 0-1-.4z"/></g><path class="st10" d="M507.2 1034H45.4c-4.2 0-7.6-3.4-7.6-7.6v-43.5c0-4.2 3.4-7.6 7.6-7.6h461.8c4.2 0 7.6 3.4 7.6 7.6v43.3c0 4.2-3.3 7.8-7.6 7.8z"/><g><path class="st2" d="M233.1 996.9c1.1.7 2 1.7 2.7 3.1.6 1.4 1 3 1 4.9 0 2-.3 3.5-1 4.9-.6 1.4-1.5 2.4-2.7 3.1-1.1.7-2.5 1.1-4.1 1.1-1.5 0-3-.4-4.1-1.1-1.1-.7-2-1.7-2.7-3.1-.6-1.4-1-3-1-4.9 0-1.8.3-3.5 1-4.9.7-1.4 1.5-2.4 2.7-3.1 1.1-.7 2.5-1.1 4.1-1.1 1.5.1 2.8.4 4.1 1.1zm-7.2 3.1c-.7 1.1-1.1 2.7-1.1 5.1 0 4.4 1.4 6.6 4.2 6.6 1.4 0 2.4-.6 3.1-1.5.7-1 1-2.7 1-5.1 0-2.3-.3-3.9-1-4.9-.7-1-1.7-1.5-3.1-1.5-1.4-.3-2.4.3-3.1 1.3zM247.3 1013.7v-11h-4.5v11h-3.2v-13.4h11v13.4h-3.3zM265.2 1000.4v13.4H262v-11h-3.2l-.3 3.7c-.1 1.8-.4 3.4-.6 4.2-.3 1-.6 1.7-1.1 2.3-.6.6-1.4 1-2.5 1.3l-.8-2.4c.6-.3 1-.6 1.3-.8.3-.3.4-.7.6-1.4.1-.7.3-1.7.3-3.2l.4-5.8h9.3v-.3zM279.1 1011.4c.1.3.4.4.7.6l-.7 2.1c-.7 0-1.4-.3-1.8-.6s-.8-.7-1.1-1.4c-.4.7-1 1.1-1.7 1.5-.7.3-1.4.6-2.3.6-1.3 0-2.4-.4-3.1-1.1-.8-.7-1.1-1.7-1.1-3 0-1.4.6-2.5 1.5-3.4 1.1-.7 2.5-1.1 4.5-1.1h1.7v-.7c0-.8-.1-1.4-.6-1.8-.4-.3-1-.6-2-.6s-2.1.3-3.5.7l-.7-2.3c1.7-.7 3.2-1 4.9-1 3.4 0 5.2 1.5 5.2 4.6v5.6c-.1.5-.1 1 .1 1.3zm-3.4-1.3v-2.7h-1.4c-2.1 0-3.1.8-3.1 2.4 0 .7.1 1.1.4 1.5.3.4.8.6 1.4.6 1.2-.1 2-.7 2.7-1.8zM292.2 1000.4l-.4 2.5h-3.9v11h-3.2v-11h-4.2v-2.5h11.7zM305.2 1013.7h-3.1v-5.3c0-1 0-2 .1-2.8.1-.8.1-1.5.3-2l-4.9 10.1H294v-13.4h3.1v5.3c0 1 0 1.8-.1 2.8-.1 1-.1 1.5-.3 2l4.9-10.1h3.5v13.4h.1zM318.9 1000.4l-.4 2.5h-3.9v11h-3.2v-11h-4.2v-2.5h11.7zM330 1005.7c1 .8 1.4 2 1.4 3.4 0 1.5-.6 2.7-1.5 3.4-1 .8-2.4 1.1-3.9 1.1h-5.1v-13.4h3.2v4.2h1.3c2.1.2 3.6.5 4.6 1.3zm-2 3.4c0-.8-.1-1.4-.6-1.8-.4-.4-1.1-.6-2.1-.6H324v4.6h1.5c1.7.2 2.5-.7 2.5-2.2z"/></g><g><path class="st14" d="M576.2 301.7h152.5v152.5H576.2zM744 301.7h152.5v152.5H744zM911.6 301.7h152.5v152.5H911.6zM1079.5 301.7H1232v152.5h-152.5zM1247.1 301.7h152.5v152.5h-152.5zM576.2 469.5h152.5V622H576.2zM744 469.5h152.5V622H744zM911.6 469.5h152.5V622H911.6z"/><path class="st15" d="M715.4 370.9l13.2-13.2v96.4h-13.2zM883.2 370.9l13.2-13.2v96.4h-13.2zM1050.9 370.9l13.2-13.2v96.4h-13.2zM1218.7 370.9l13.2-13.2v96.4h-13.2zM1386.4 370.9l13.2-13.2v96.4h-13.2zM715.4 538.5l13.2-13.2V622h-13.2zM883.2 538.5l13.2-13.2V622h-13.2zM1050.9 538.5l13.2-13.2V622h-13.2z"/><g class="st12"><path class="st6" d="M605.8 316.9v14.7h-2v-13h-6.1v13h-2v-14.7h10.1zM618.4 326.7h-7.2c.1 1.2.4 2.2.9 2.7.5.6 1.2.9 2.1.9.5 0 1-.1 1.5-.2.5-.2.9-.4 1.4-.7l.9 1.2c-1.2.9-2.5 1.4-3.9 1.4-1.6 0-2.8-.5-3.7-1.5-.9-1-1.3-2.4-1.3-4.2 0-1.2.2-2.2.6-3.1.4-.9.9-1.6 1.6-2.1.7-.5 1.5-.8 2.5-.8 1.5 0 2.6.5 3.4 1.5s1.2 2.3 1.2 4.1v.8zm-1.9-1.6c0-1.1-.2-2-.7-2.5-.4-.6-1.1-.9-2-.9-1.6 0-2.5 1.2-2.6 3.5h5.3v-.1zM629.9 321.7c.7 1 1 2.5 1 4.3 0 1.8-.4 3.2-1.2 4.3-.8 1.1-1.9 1.6-3.3 1.6-1.3 0-2.2-.4-2.9-1.3v5.3l-2 .2v-15.8h1.7l.1 1.5c.4-.6.9-1 1.5-1.3.6-.3 1.2-.5 1.8-.5 1.6.1 2.6.6 3.3 1.7zm-1.1 4.3c0-2.9-.8-4.3-2.5-4.3-.6 0-1.1.2-1.5.5-.5.3-.9.7-1.2 1.3v5.5c.3.4.6.8 1.1 1s.9.4 1.4.4c1.8-.1 2.7-1.5 2.7-4.4zM643.1 328.2c0 1.2-.4 2.1-1.3 2.6-.9.6-2 .8-3.5.8h-4.1v-11.1c1.3-.3 2.6-.4 3.7-.4 1.4 0 2.5.3 3.3.8.8.5 1.2 1.3 1.2 2.3 0 .6-.2 1.2-.6 1.6-.4.4-1 .7-1.7.8 2 .1 3 1 3 2.6zm-6.9-6.4v3.2h2.1c.7 0 1.2-.1 1.6-.4.4-.3.6-.7.6-1.3 0-.6-.2-1-.6-1.2s-1-.4-1.9-.4c-.6-.1-1.2 0-1.8.1zm4.1 7.9c.5-.3.7-.8.7-1.5 0-.6-.2-1.1-.6-1.3-.4-.3-1.1-.4-2-.4h-2.1v3.7h2.1c.8-.1 1.4-.2 1.9-.5zM653.2 325c.8.7 1.1 1.6 1.1 2.8 0 1.3-.4 2.2-1.3 2.9-.8.6-1.9 1-3.2 1h-3.6v-11.3h2v3.6h1.3c1.7 0 3 .3 3.7 1zm-1.6 4.6c.4-.4.7-.9.7-1.8 0-.8-.2-1.4-.6-1.7-.4-.4-1.1-.6-2.1-.6h-1.3v4.6h1.5c.8 0 1.4-.2 1.8-.5zm4.4-9.2h2v11.3h-2v-11.3zM670.5 326.7h-7.2c.1 1.2.4 2.2.9 2.7.5.6 1.2.9 2.1.9.5 0 1-.1 1.5-.2.5-.2.9-.4 1.4-.7l.9 1.2c-1.2.9-2.5 1.4-3.9 1.4-1.6 0-2.8-.5-3.7-1.5-.9-1-1.3-2.4-1.3-4.2 0-1.2.2-2.2.6-3.1.4-.9.9-1.6 1.6-2.1.7-.5 1.5-.8 2.5-.8 1.5 0 2.6.5 3.4 1.5s1.2 2.3 1.2 4.1v.8zm-1.9-1.6c0-1.1-.2-2-.7-2.5-.4-.6-1.1-.9-2-.9-1.6 0-2.5 1.2-2.6 3.5h5.3v-.1z"/></g><g class="st12"><path class="st6" d="M603.5 348.1c.8.9 1.1 2.2 1.1 3.8 0 1.8-.4 3.2-1.3 4.1s-2.1 1.5-3.6 1.5-2.7-.5-3.6-1.6c-.9-1.1-1.4-2.7-1.4-4.9 0-1.6.1-3 .4-4 .2-1 .7-1.9 1.3-2.6.6-.7 1.5-1.2 2.6-1.6.8-.3 1.5-.5 2-.8.5-.2 1-.5 1.5-.9l.8 1.5-1.5.9c-.5.3-1.2.5-1.9.8-.7.2-1.3.5-1.7.8-.4.3-.7.7-1 1.3-.2.6-.4 1.4-.5 2.4.4-.7.9-1.2 1.5-1.5.6-.4 1.3-.6 2.1-.6 1.4 0 2.4.5 3.2 1.4zm-1.8 6.9c.5-.6.8-1.6.8-3.1 0-1.3-.2-2.2-.6-2.8-.4-.6-1-.9-1.8-.9-.7 0-1.3.2-1.8.5-.6.3-1 .9-1.4 1.6v1.4c0 1.3.3 2.3.8 3.1.5.7 1.2 1.1 2.1 1.1.7 0 1.4-.3 1.9-.9zM615.9 346v11.3h-2v-9.7h-3.5l-.3 3.8c-.1 1.5-.3 2.7-.5 3.4s-.5 1.3-.9 1.7c-.4.4-1 .7-1.8 1l-.5-1.6c.5-.2.8-.4 1-.7.2-.3.3-.7.4-1.2.1-.6.2-1.5.3-2.9l.4-5.1h7.4zM631.2 346.5c.7.5 1.3 1.2 1.7 2.1.4.9.6 1.9.6 3.1 0 1.1-.2 2.1-.6 3-.4.9-.9 1.6-1.7 2.1-.7.5-1.6.8-2.6.8-1.4 0-2.5-.5-3.3-1.4-.8-1-1.3-2.2-1.4-3.8h-2v5h-2V346h2v4.7h2c.2-1.5.7-2.7 1.5-3.6.8-.9 1.9-1.4 3.2-1.4 1 0 1.9.3 2.6.8zm-.5 8.3c.4-.7.6-1.8.6-3.2 0-1.4-.2-2.4-.7-3.2s-1.1-1.1-2-1.1c-1.8 0-2.7 1.4-2.7 4.3 0 1.4.2 2.4.7 3.2.5.7 1.1 1.1 2 1.1 1 0 1.7-.3 2.1-1.1zM645.6 355.7v4.8H644l-.3-3.2h-7.2l-.3 3.2h-1.6v-4.8h.8c.3-.2.6-.5.8-.8.2-.3.4-.8.5-1.5.2-.7.3-1.8.4-3.2l.3-4.2h7.1v9.7h1.1zm-3.2-8.2h-3.3l-.2 2.4c-.1 1.3-.2 2.3-.3 3.1-.1.7-.3 1.3-.5 1.6-.2.4-.6.7-1 1h5.4v-8.1zM656.3 355.6c.2.2.4.4.7.5l-.4 1.4c-.6-.1-1.1-.2-1.4-.5s-.6-.7-.8-1.2c-.8 1.1-1.9 1.7-3.4 1.7-1.1 0-2-.3-2.6-.9-.6-.6-1-1.4-1-2.5 0-1.2.4-2.1 1.3-2.8.9-.6 2.1-1 3.7-1h1.7v-.8c0-.8-.2-1.4-.6-1.7-.4-.3-1-.5-1.8-.5s-1.8.2-3 .6l-.5-1.4c1.4-.5 2.7-.8 3.9-.8 1.3 0 2.3.3 3 1 .7.6 1 1.6 1 2.8v5.1c-.1.5 0 .8.2 1zm-2.2-1.3v-2.6h-1.5c-2.1 0-3.1.8-3.1 2.3 0 .7.2 1.2.5 1.5.3.3.8.5 1.5.5 1 0 1.9-.6 2.6-1.7z"/></g><g class="st12"><path class="st6" d="M770.5 324.9c.6.5.9 1.4.9 2.5 0 2.8-1.9 4.2-5.8 4.2h-4.1v-14.7h3.5c1.9 0 3.3.3 4.3.9 1 .6 1.5 1.5 1.5 2.8 0 .9-.3 1.6-.8 2.1s-1.2.9-2 1.1c1.1.2 1.9.6 2.5 1.1zm-6.9-6.4v4.6h2.2c.9 0 1.6-.2 2.1-.6.5-.4.8-1 .8-1.8 0-.9-.3-1.4-.9-1.8-.6-.3-1.4-.5-2.6-.5h-1.6zm4.8 11c.6-.4 1-1 1-2s-.3-1.7-.9-2.1c-.6-.4-1.4-.6-2.4-.6h-2.4v5.3h2c1.1-.1 2.1-.3 2.7-.6zM781.8 320.4l-.2 1.6H778v9.7h-2V322h-3.7v-1.6h9.5zM791.2 321.7c.9 1.1 1.3 2.5 1.3 4.3 0 1.2-.2 2.2-.6 3.1s-1 1.6-1.7 2.1c-.8.5-1.7.7-2.7.7-1.6 0-2.8-.5-3.7-1.6s-1.3-2.5-1.3-4.3c0-1.2.2-2.2.6-3.1.4-.9 1-1.6 1.7-2.1.8-.5 1.7-.7 2.7-.7 1.6 0 2.8.6 3.7 1.6zm-6.6 4.3c0 2.9 1 4.3 2.9 4.3s2.9-1.4 2.9-4.3-1-4.3-2.9-4.3c-2 0-2.9 1.5-2.9 4.3zM804.1 321.7c.7 1 1 2.5 1 4.3 0 1.8-.4 3.2-1.2 4.3-.8 1.1-1.9 1.6-3.3 1.6-1.3 0-2.2-.4-2.9-1.3v5.3l-2 .2v-15.8h1.7l.1 1.5c.4-.6.9-1 1.5-1.3.6-.3 1.2-.5 1.8-.5 1.5.1 2.6.6 3.3 1.7zM803 326c0-2.9-.8-4.3-2.5-4.3-.6 0-1.1.2-1.5.5-.5.3-.9.7-1.2 1.3v5.5c.3.4.6.8 1.1 1s.9.4 1.4.4c1.7-.1 2.7-1.5 2.7-4.4zM815.3 325c.8.7 1.1 1.6 1.1 2.8 0 1.3-.4 2.2-1.3 2.9-.8.6-1.9 1-3.2 1h-3.6v-11.3h2v3.6h1.3c1.8 0 3 .3 3.7 1zm-1.6 4.6c.4-.4.7-.9.7-1.8 0-.8-.2-1.4-.6-1.7-.4-.4-1.1-.6-2.1-.6h-1.3v4.6h1.5c.8 0 1.4-.2 1.8-.5zm4.4-9.2h2v11.3h-2v-11.3zM832.6 326.7h-7.2c.1 1.2.4 2.2.9 2.7.5.6 1.2.9 2.1.9.5 0 1-.1 1.5-.2.5-.2.9-.4 1.4-.7l.9 1.2c-1.2.9-2.5 1.4-3.9 1.4-1.6 0-2.8-.5-3.7-1.5-.9-1-1.3-2.4-1.3-4.2 0-1.2.2-2.2.6-3.1.4-.9.9-1.6 1.6-2.1.7-.5 1.5-.8 2.5-.8 1.5 0 2.6.5 3.4 1.5s1.2 2.3 1.2 4.1v.8zm-1.9-1.6c0-1.1-.2-2-.7-2.5-.4-.6-1.1-.9-2-.9-1.6 0-2.5 1.2-2.6 3.5h5.3v-.1z"/></g><g class="st12"><path class="st6" d="M769.5 348.1c.8.9 1.1 2.2 1.1 3.8 0 1.8-.4 3.2-1.3 4.1s-2.1 1.5-3.6 1.5-2.7-.5-3.6-1.6c-.9-1.1-1.4-2.7-1.4-4.9 0-1.6.1-3 .4-4 .2-1 .7-1.9 1.3-2.6.6-.7 1.5-1.2 2.6-1.6.8-.3 1.5-.5 2-.8.5-.2 1-.5 1.5-.9l.8 1.5-1.5.9c-.5.3-1.2.5-1.9.8-.7.2-1.3.5-1.7.8-.4.3-.7.7-1 1.3-.2.6-.4 1.4-.5 2.4.4-.7.9-1.2 1.5-1.5.6-.4 1.3-.6 2.1-.6 1.4 0 2.4.5 3.2 1.4zm-1.8 6.9c.5-.6.8-1.6.8-3.1 0-1.3-.2-2.2-.6-2.8-.4-.6-1-.9-1.8-.9-.7 0-1.3.2-1.8.5-.6.3-1 .9-1.4 1.6v1.4c0 1.3.3 2.3.8 3.1.5.7 1.2 1.1 2.1 1.1.7 0 1.4-.3 1.9-.9zM781.9 346v11.3h-2v-9.7h-3.5l-.3 3.8c-.1 1.5-.3 2.7-.5 3.4s-.5 1.3-.9 1.7c-.4.4-1 .7-1.8 1l-.5-1.6c.5-.2.8-.4 1-.7.2-.3.3-.7.4-1.2.1-.6.2-1.5.3-2.9l.4-5.1h7.4zM797.2 346.5c.7.5 1.3 1.2 1.7 2.1.4.9.6 1.9.6 3.1 0 1.1-.2 2.1-.6 3-.4.9-.9 1.6-1.7 2.1-.7.5-1.6.8-2.6.8-1.4 0-2.5-.5-3.3-1.4-.8-1-1.3-2.2-1.4-3.8h-2v5h-2V346h2v4.7h2c.2-1.5.7-2.7 1.5-3.6.8-.9 1.9-1.4 3.2-1.4 1 0 1.9.3 2.6.8zm-.5 8.3c.4-.7.6-1.8.6-3.2 0-1.4-.2-2.4-.7-3.2s-1.1-1.1-2-1.1c-1.8 0-2.7 1.4-2.7 4.3 0 1.4.2 2.4.7 3.2.5.7 1.1 1.1 2 1.1 1 0 1.7-.3 2.1-1.1zM811.5 355.7v4.8h-1.6l-.3-3.2h-7.2l-.3 3.2h-1.6v-4.8h.8c.3-.2.6-.5.8-.8.2-.3.4-.8.5-1.5.2-.7.3-1.8.4-3.2l.3-4.2h7.1v9.7h1.1zm-3.1-8.2h-3.3l-.2 2.4c-.1 1.3-.2 2.3-.3 3.1-.1.7-.3 1.3-.5 1.6-.2.4-.6.7-1 1h5.4v-8.1zM822.3 355.6c.2.2.4.4.7.5l-.4 1.4c-.6-.1-1.1-.2-1.4-.5s-.6-.7-.8-1.2c-.8 1.1-1.9 1.7-3.4 1.7-1.1 0-2-.3-2.6-.9-.6-.6-1-1.4-1-2.5 0-1.2.4-2.1 1.3-2.8.9-.6 2.1-1 3.7-1h1.7v-.8c0-.8-.2-1.4-.6-1.7-.4-.3-1-.5-1.8-.5s-1.8.2-3 .6l-.5-1.4c1.4-.5 2.7-.8 3.9-.8 1.3 0 2.3.3 3 1 .7.6 1 1.6 1 2.8v5.1c-.1.5 0 .8.2 1zm-2.2-1.3v-2.6h-1.5c-2.1 0-3.1.8-3.1 2.3 0 .7.2 1.2.5 1.5.3.3.8.5 1.5.5 1 0 1.9-.6 2.6-1.7z"/></g><g class="st12"><path class="st6" d="M939.1 330v4.9h-1.6l-.3-3.2h-8.5l-.3 3.2h-1.6V330h1c.4-.4.7-.8.9-1.4s.4-1.3.5-2.3c.1-.9.4-2.6.7-5.1l.5-4.3h7.5V330h1.2zm-3.3-11.4h-3.7l-.3 2.7c-.3 2.2-.5 3.8-.6 4.8-.2 1-.4 1.8-.6 2.4-.3.6-.6 1.1-1.1 1.5h6.4v-11.4zM950.5 326.7h-7.2c.1 1.2.4 2.2.9 2.7.5.6 1.2.9 2.1.9.5 0 1-.1 1.5-.2.5-.2.9-.4 1.4-.7l.9 1.2c-1.2.9-2.5 1.4-3.9 1.4-1.6 0-2.8-.5-3.7-1.5-.9-1-1.3-2.4-1.3-4.2 0-1.2.2-2.2.6-3.1.4-.9.9-1.6 1.6-2.1.7-.5 1.5-.8 2.5-.8 1.5 0 2.6.5 3.4 1.5s1.2 2.3 1.2 4.1v.8zm-1.9-1.6c0-1.1-.2-2-.7-2.5-.4-.6-1.1-.9-2-.9-1.6 0-2.5 1.2-2.6 3.5h5.3v-.1zM959.6 320.4c.6.2 1.1.5 1.6.9l-.9 1.2c-.4-.3-.8-.5-1.2-.6s-.8-.2-1.2-.2c-.9 0-1.6.4-2.1 1.1-.5.7-.8 1.8-.8 3.2s.2 2.5.7 3.2c.5.7 1.2 1 2.1 1 .4 0 .8-.1 1.2-.2.4-.1.8-.4 1.2-.7l.9 1.3c-1 .8-2.2 1.2-3.4 1.2-1.5 0-2.7-.5-3.6-1.5-.9-1-1.3-2.4-1.3-4.3 0-1.2.2-2.2.6-3.1.4-.9 1-1.6 1.7-2.1s1.6-.7 2.6-.7c.7 0 1.4.1 1.9.3zM971.9 326.7h-7.2c.1 1.2.4 2.2.9 2.7.5.6 1.2.9 2.1.9.5 0 1-.1 1.5-.2s.9-.4 1.4-.7l.9 1.2c-1.2.9-2.5 1.4-3.9 1.4-1.6 0-2.8-.5-3.7-1.5-.9-1-1.3-2.4-1.3-4.2 0-1.2.2-2.2.6-3.1.4-.9.9-1.6 1.6-2.1.7-.5 1.5-.8 2.5-.8 1.5 0 2.6.5 3.4 1.5.8 1 1.2 2.3 1.2 4.1.1.1 0 .4 0 .8zm-1.9-1.6c0-1.1-.2-2-.7-2.5-.4-.6-1.1-.9-2-.9-1.6 0-2.5 1.2-2.6 3.5h5.3v-.1zM983.4 321.7c.7 1 1 2.5 1 4.3 0 1.8-.4 3.2-1.2 4.3-.8 1.1-1.9 1.6-3.3 1.6-1.3 0-2.2-.4-2.9-1.3v5.3l-2 .2v-15.8h1.7l.1 1.5c.4-.6.9-1 1.5-1.3.6-.3 1.2-.5 1.8-.5 1.6.1 2.7.6 3.3 1.7zm-1.1 4.3c0-2.9-.8-4.3-2.5-4.3-.6 0-1.1.2-1.5.5-.5.3-.9.7-1.2 1.3v5.5c.3.4.6.8 1.1 1 .4.2.9.4 1.4.4 1.8-.1 2.7-1.5 2.7-4.4zM994.9 320.4l-.2 1.6H991v9.7h-2V322h-3.7v-1.6h9.6zM1003.8 325c.8.7 1.1 1.6 1.1 2.8 0 1.3-.4 2.2-1.3 2.9-.8.6-1.9 1-3.2 1h-3.6v-11.3h2v3.6h1.3c1.7 0 2.9.3 3.7 1zm-1.6 4.6c.4-.4.7-.9.7-1.8 0-.8-.2-1.4-.6-1.7-.4-.4-1.1-.6-2.1-.6h-1.3v4.6h1.5c.7 0 1.4-.2 1.8-.5zm4.4-9.2h2v11.3h-2v-11.3z"/></g><g class="st12"><path class="st6" d="M1102.1 317c.6.2 1.2.6 1.8 1.1l-1.1 1.3c-.9-.7-1.8-1.1-2.8-1.1-1.2 0-2.2.5-3 1.4-.7.9-1.1 2.5-1.1 4.5s.4 3.5 1.1 4.5c.7 1 1.7 1.4 2.9 1.4.6 0 1.2-.1 1.6-.3.5-.2 1-.5 1.5-.9l1 1.3c-.5.5-1 .9-1.8 1.2-.7.3-1.5.5-2.5.5-1.2 0-2.3-.3-3.2-.9-.9-.6-1.7-1.5-2.2-2.6-.5-1.1-.8-2.5-.8-4.1s.3-3 .8-4.1c.5-1.1 1.3-2 2.2-2.6.9-.6 2-.9 3.1-.9s1.9.1 2.5.3zM1114.2 330c.2.2.4.4.7.5l-.4 1.4c-.6-.1-1.1-.2-1.4-.5s-.6-.7-.8-1.2c-.8 1.1-1.9 1.7-3.4 1.7-1.1 0-2-.3-2.6-.9-.6-.6-1-1.4-1-2.5 0-1.2.4-2.1 1.3-2.8.9-.6 2.1-1 3.7-1h1.7v-.7c0-.8-.2-1.4-.6-1.7-.4-.3-1-.5-1.8-.5s-1.8.2-3 .6l-.5-1.4c1.4-.5 2.7-.8 3.9-.8 1.3 0 2.3.3 3 1 .7.6 1 1.6 1 2.8v5.1c-.1.4 0 .7.2.9zm-2.2-1.3v-2.6h-1.5c-2.1 0-3.1.8-3.1 2.3 0 .7.2 1.2.5 1.5.3.3.8.5 1.5.5 1 0 1.9-.6 2.6-1.7zM1126.2 320.4v11.3h-2V322h-3.5l-.3 3.8c-.1 1.5-.3 2.7-.5 3.4s-.5 1.3-.9 1.7c-.4.4-1 .7-1.8 1l-.5-1.6c.5-.2.8-.4 1-.7.2-.3.3-.7.4-1.2s.2-1.5.3-2.9l.4-5.1h7.4zM1138.1 330c.2.2.4.4.7.5l-.4 1.4c-.6-.1-1.1-.2-1.4-.5s-.6-.7-.8-1.2c-.8 1.1-1.9 1.7-3.4 1.7-1.1 0-2-.3-2.6-.9-.6-.6-1-1.4-1-2.5 0-1.2.4-2.1 1.3-2.8.9-.6 2.1-1 3.7-1h1.7v-.7c0-.8-.2-1.4-.6-1.7-.4-.3-1-.5-1.8-.5s-1.8.2-3 .6l-.5-1.4c1.4-.5 2.7-.8 3.9-.8 1.3 0 2.3.3 3 1 .7.6 1 1.6 1 2.8v5.1c-.1.4 0 .7.2.9zm-2.2-1.3v-2.6h-1.5c-2.1 0-3.1.8-3.1 2.3 0 .7.2 1.2.5 1.5.3.3.8.5 1.5.5 1.1 0 1.9-.6 2.6-1.7zM1149.1 320.4l-.2 1.6h-3.6v9.7h-2V322h-3.7v-1.6h9.5zM1158 325c.8.7 1.1 1.6 1.1 2.8 0 1.3-.4 2.2-1.3 2.9-.8.6-1.9 1-3.2 1h-3.6v-11.3h2v3.6h1.3c1.7 0 2.9.3 3.7 1zm-1.6 4.6c.4-.4.7-.9.7-1.8 0-.8-.2-1.4-.6-1.7-.4-.4-1.1-.6-2.1-.6h-1.3v4.6h1.5c.7 0 1.4-.2 1.8-.5zm4.4-9.2h2v11.3h-2v-11.3z"/></g><g class="st12"><path class="st6" d="M1278.1 316.9v14.7h-15.5v-14.7h2V330h4.8v-13.1h1.9V330h4.8v-13.1h2zM1290 330c.2.2.4.4.7.5l-.4 1.4c-.6-.1-1.1-.2-1.4-.5s-.6-.7-.8-1.2c-.8 1.1-1.9 1.7-3.4 1.7-1.1 0-2-.3-2.6-.9-.6-.6-1-1.4-1-2.5 0-1.2.4-2.1 1.3-2.8.9-.6 2.1-1 3.7-1h1.7v-.7c0-.8-.2-1.4-.6-1.7-.4-.3-1-.5-1.8-.5s-1.8.2-3 .6l-.5-1.4c1.4-.5 2.7-.8 3.9-.8 1.3 0 2.3.3 3 1 .7.6 1 1.6 1 2.8v5.1c0 .4.1.7.2.9zm-2.2-1.3v-2.6h-1.5c-2.1 0-3.1.8-3.1 2.3 0 .7.2 1.2.5 1.5.3.3.8.5 1.5.5 1.1 0 2-.6 2.6-1.7zM1306.8 320.4v11.3h-12.9v-11.3h1.9v9.7h3.6v-9.7h1.9v9.7h3.6v-9.7h1.9zM1319.1 320.4v11.3h-2V322h-3.5l-.3 3.8c-.1 1.5-.3 2.7-.5 3.4s-.5 1.3-.9 1.7c-.4.4-1 .7-1.8 1l-.5-1.6c.5-.2.8-.4 1-.7.2-.3.3-.7.4-1.2s.2-1.5.3-2.9l.4-5.1h7.4zM1330.1 325c.8.7 1.1 1.6 1.1 2.8 0 1.3-.4 2.2-1.3 2.9-.8.6-1.9 1-3.2 1h-3.6v-11.3h2v3.6h1.3c1.7 0 2.9.3 3.7 1zm-1.6 4.6c.4-.4.7-.9.7-1.8 0-.8-.2-1.4-.6-1.7-.4-.4-1.1-.6-2.1-.6h-1.3v4.6h1.5c.7 0 1.3-.2 1.8-.5zm4.3-9.2h2v11.3h-2v-11.3zM1347.3 320.4l-3.4 5.2 3.8 6h-2.3l-3.1-5.2h-1.4v5.2h-2v-11.3h2v4.5h1.5l2.8-4.5h2.1z"/></g><g class="st12"><path class="st6" d="M603.7 493c1 .8 1.5 1.9 1.5 3.4 0 1.6-.5 2.8-1.5 3.6s-2.4 1.1-4.2 1.1h-3.9v-14.7h8l-.3 1.7h-5.7v3.9h1.9c1.9-.1 3.2.2 4.2 1zm-1.5 5.8c.6-.4.9-1.2.9-2.4 0-1.1-.3-1.8-.9-2.3s-1.4-.7-2.6-.7h-2v6h2c1.2 0 2-.2 2.6-.6zM615.7 499.4c.2.2.4.4.7.5l-.4 1.4c-.6-.1-1.1-.2-1.4-.5s-.6-.7-.8-1.2c-.8 1.1-1.9 1.7-3.4 1.7-1.1 0-2-.3-2.6-.9-.6-.6-1-1.4-1-2.5 0-1.2.4-2.1 1.3-2.8.9-.6 2.1-1 3.7-1h1.7v-.8c0-.8-.2-1.4-.6-1.7-.4-.3-1-.5-1.8-.5s-1.8.2-3 .6l-.5-1.4c1.4-.5 2.7-.8 3.9-.8 1.3 0 2.3.3 3 1 .7.6 1 1.6 1 2.8v5.1c0 .5 0 .8.2 1zm-2.2-1.3v-2.6H612c-2.1 0-3.1.8-3.1 2.3 0 .7.2 1.2.5 1.5.3.3.8.5 1.5.5 1.1 0 2-.5 2.6-1.7zM627.8 491.1c.7 1 1 2.5 1 4.3 0 1.8-.4 3.2-1.2 4.3-.8 1.1-1.9 1.6-3.3 1.6-1.3 0-2.2-.4-2.9-1.3v5.3l-2 .2v-15.8h1.7l.1 1.5c.4-.6.9-1 1.5-1.3.6-.3 1.2-.5 1.8-.5 1.6.1 2.7.7 3.3 1.7zm-1.1 4.3c0-2.9-.8-4.3-2.5-4.3-.6 0-1.1.2-1.5.5-.5.3-.9.7-1.2 1.3v5.5c.3.4.6.8 1.1 1s.9.4 1.4.4c1.8-.1 2.7-1.5 2.7-4.4z"/></g><g class="st12"><path class="st6" d="M770.1 486.3l-.3 1.8h-6.2v13h-2v-14.7h8.5zM780.7 491.1c.7 1 1 2.5 1 4.3 0 1.8-.4 3.2-1.2 4.3-.8 1.1-1.9 1.6-3.3 1.6-1.3 0-2.2-.4-2.9-1.3v5.3l-2 .2v-15.8h1.7l.1 1.5c.4-.6.9-1 1.5-1.3.6-.3 1.2-.5 1.8-.5 1.5.1 2.6.7 3.3 1.7zm-1.1 4.3c0-2.9-.8-4.3-2.5-4.3-.6 0-1.1.2-1.5.5-.5.3-.9.7-1.2 1.3v5.5c.3.4.6.8 1.1 1s.9.4 1.4.4c1.7-.1 2.7-1.5 2.7-4.4zM793.8 501.1h-1.9V496c0-.9 0-1.7.1-2.4.1-.8.1-1.3.1-1.5l-4.7 9H785v-11.3h1.9v5.1c0 .8 0 1.5-.1 2.3-.1.8-.1 1.3-.1 1.5l4.7-9h2.4v11.4zM806.1 489.8v11.3h-2v-9.7h-3.5l-.3 3.8c-.1 1.5-.3 2.7-.5 3.4s-.5 1.3-.9 1.7c-.4.4-1 .7-1.8 1l-.5-1.6c.5-.2.8-.4 1-.7.2-.3.3-.7.4-1.2.1-.6.2-1.5.3-2.9l.4-5.1h7.4zM817.3 494.4c.8.7 1.1 1.6 1.1 2.8 0 1.3-.4 2.2-1.3 2.9-.8.6-1.9 1-3.2 1h-3.8v-11.3h2v3.6h1.5c1.7 0 2.9.4 3.7 1zm-1.6 4.6c.4-.4.7-.9.7-1.8 0-.8-.2-1.4-.6-1.7-.4-.4-1.1-.6-2.1-.6h-1.5v4.6h1.7c.7 0 1.3-.2 1.8-.5z"/></g><g class="st12"><path class="st6" d="M936.9 501.1l-1.1-3.7h-5.6l-1.1 3.7H927l4.7-14.7h2.6l4.7 14.7h-2.1zm-6.2-5.4h4.6L933 488l-2.3 7.7zM949.7 489.8l-3.4 5.2 3.8 6h-2.3l-3.1-5.2h-1.4v5.2h-2v-11.3h2v4.5h1.5l2.8-4.5h2.1zM960.7 499.5h1.7v4.8h-1.6l-.3-3.2h-8.2v-11.3h2v9.7h4.5v-9.7h2v9.7zM973.6 501.1h-1.9V496c0-.9 0-1.7.1-2.4.1-.8.1-1.3.1-1.5l-4.7 9h-2.3v-11.3h1.9v5.1c0 .8 0 1.5-.1 2.3-.1.8-.1 1.3-.1 1.5l4.7-9h2.4v11.4zM986.4 501.1h-1.9V496c0-.9 0-1.7.1-2.4.1-.8.1-1.3.1-1.5l-4.7 9h-2.3v-11.3h1.9v5.1c0 .8 0 1.5-.1 2.3-.1.8-.1 1.3-.1 1.5l4.7-9h2.4v11.4z"/></g></g><path class="st13" d="M1379.9 228.7h-24.4c-1 0-2 .8-2 2V245c0 1 .8 2 2 2h24.4c1 0 2-.8 2-2v-14.4c-.1-1.1-.9-1.9-2-1.9zm-9 3.1c0-.2.1-.3.3-.3h2.3c.2 0 .3.1.3.3v2.3c0 .2-.1.3-.3.3h-2.3c-.2 0-.3-.1-.3-.3v-2.3zm0 4.7c0-.2.1-.3.3-.3h2.3c.2 0 .3.1.3.3v2.3c0 .2-.1.3-.3.3h-2.3c-.2 0-.3-.1-.3-.3v-2.3zm-4.7-4.7c0-.2.1-.3.3-.3h2.3c.2 0 .3.1.3.3v2.3c0 .2-.1.3-.3.3h-2.3c-.2 0-.3-.1-.3-.3v-2.3zm0 4.7c0-.2.1-.3.3-.3h2.3c.2 0 .3.1.3.3v2.3c0 .2-.1.3-.3.3h-2.3c-.2 0-.3-.1-.3-.3v-2.3zm-4.7-4.7c0-.2.1-.3.3-.3h2.3c.2 0 .3.1.3.3v2.3c0 .2-.1.3-.3.3h-2.3c-.2 0-.3-.1-.3-.3v-2.3zm0 4.7c0-.2.1-.3.3-.3h2.3c.2 0 .3.1.3.3v2.3c0 .2-.1.3-.3.3h-2.3c-.2 0-.3-.1-.3-.3v-2.3zm-4.8-4.7c0-.2.1-.3.3-.3h2.3c.2 0 .3.1.3.3v2.3c0 .2-.1.3-.3.3h-2.3c-.2 0-.3-.1-.3-.3v-2.3zm0 7v-2.3c0-.2.1-.3.3-.3h2.3c.2 0 .3.1.3.3v2.3c0 .2-.1.3-.3.3h-2.3c-.2.1-.3 0-.3-.3zm20.5 4.5c0 .3-.2.6-.6.6h-17.7c-.3 0-.6-.2-.6-.6v-1.8c0-.3.2-.6.6-.6h17.7c.3 0 .6.2.6.6v1.8zm1.5-4.5c0 .2-.1.3-.3.3h-2.3c-.2 0-.3-.1-.3-.3v-2.3c0-.2.1-.3.3-.3h2.3c.2 0 .3.1.3.3v2.3zm0-4.7c0 .2-.1.3-.3.3h-2.3c-.2 0-.3-.1-.3-.3v-2.3c0-.2.1-.3.3-.3h2.3c.2 0 .3.1.3.3v2.3z"/><path class="st13" d="M1392.2 260.9h-364.6c-4.9 0-8.9-4-8.9-8.9v-29.8c0-4.9 4-8.9 8.9-8.9h364.6c4.9 0 8.9 4 8.9 8.9V252c0 4.9-4 8.9-8.9 8.9zm-364.6-47.5c-4.8 0-8.7 3.9-8.7 8.7V252c0 4.8 3.9 8.7 8.7 8.7h364.6c4.8 0 8.7-3.9 8.7-8.7v-29.8c0-4.8-3.9-8.7-8.7-8.7h-364.6z"/><g><path class="st16" d="M505.3 302.2H45.8c-5.3 0-9.7 4.3-9.7 9.7V403H515v-91.1c0-5.3-4.4-9.7-9.7-9.7z"/><path class="st17" d="M36.2 403.1v38.2c0 5.3 4.3 9.7 9.7 9.7h459.5c5.3 0 9.7-4.3 9.7-9.7v-38.2H36.2z"/><path class="st18" d="M77.2 344.4h-3l-.4-6.7c-.1-2.4-.2-4.3-.2-5.7v-.8l-2.9 11.5h-2.9l-3.1-11.5v2.3c0 1.4 0 2.8-.1 4.3l-.4 6.6h-3l1.3-16h3.9l2.8 11.2 2.7-11.2h4l1.3 16zM89.3 342.2c.1.2.4.4.7.5l-.6 2c-.7-.1-1.3-.2-1.7-.5-.4-.3-.8-.7-1-1.3-.4.6-.9 1.1-1.6 1.4-.6.3-1.3.5-2.1.5-1.2 0-2.2-.3-2.9-1-.7-.7-1.1-1.6-1.1-2.7 0-1.3.5-2.3 1.4-3s2.3-1.1 4.1-1.1H86v-.7c0-.8-.2-1.3-.5-1.7-.4-.3-.9-.5-1.7-.5-.9 0-2 .2-3.2.6l-.7-2c1.5-.6 3-.9 4.4-.9 3.1 0 4.7 1.4 4.7 4.2v5.1c.1.5.2.9.3 1.1zm-3.1-1.1v-2.5H85c-1.9 0-2.9.7-2.9 2.1 0 .6.1 1 .4 1.4.3.3.7.5 1.3.5 1 0 1.8-.5 2.4-1.5zM102.9 344.4H100v-4.9c0-.9 0-1.7.1-2.5s.2-1.4.3-1.8l-4.6 9.2h-3.2v-12.2h2.9v4.9c0 .8 0 1.7-.1 2.5s-.2 1.4-.3 1.8l4.5-9.2h3.2v12.2zm-7.8-15.6c-.7-.6-1-1.3-1.1-2.3l1.7-.3c.2.5.4.8.7 1.1.3.2.8.3 1.3.3s1-.1 1.3-.3c.3-.2.6-.6.7-1.1l1.8.3c-.1 1-.5 1.7-1.2 2.3-.7.6-1.6.9-2.6.9-1-.1-1.9-.3-2.6-.9zM116.6 332.1l-3.4 5.7 3.8 6.6h-3.3l-3-5.4h-1.3v5.4h-3v-12.2h3v4.8h1.4l2.8-4.8h3zM127.7 342.2c.1.2.4.4.7.5l-.6 2c-.7-.1-1.3-.2-1.7-.5-.4-.3-.8-.7-1-1.3-.4.6-.9 1.1-1.6 1.4-.6.3-1.3.5-2.1.5-1.2 0-2.2-.3-2.9-1-.7-.7-1.1-1.6-1.1-2.7 0-1.3.5-2.3 1.4-3s2.3-1.1 4.1-1.1h1.5v-.7c0-.8-.2-1.3-.5-1.7-.4-.3-.9-.5-1.7-.5-.9 0-2 .2-3.2.6l-.7-2c1.5-.6 3-.9 4.4-.9 3.1 0 4.7 1.4 4.7 4.2v5.1c.1.5.2.9.3 1.1zm-3.1-1.1v-2.5h-1.2c-1.9 0-2.9.7-2.9 2.1 0 .6.1 1 .4 1.4.3.3.7.5 1.3.5 1 0 1.8-.5 2.4-1.5zM145.7 344.4v-7.1H140v7.1h-3.1v-16h3.1v6.4h5.7v-6.4h3.1v16h-3.1zM162.2 344.4h-2.6l-.2-1.7c-.4.7-1 1.2-1.6 1.5-.6.3-1.3.5-2.2.5-1.1 0-1.9-.3-2.5-1-.6-.7-.9-1.6-.9-2.8v-8.8h3v8.4c0 .7.1 1.2.4 1.5.2.3.6.4 1.1.4.9 0 1.8-.6 2.5-1.7v-8.6h3v12.3zM176.3 332.8c-.8.3-2 .4-3.5.4.8.3 1.3.8 1.7 1.3.4.5.5 1.1.5 1.9 0 .8-.2 1.5-.6 2.1s-1 1.1-1.7 1.5c-.7.4-1.6.5-2.6.5-.6 0-1-.1-1.5-.2-.3.2-.5.5-.5.9 0 .6.5.9 1.5.9h1.9c.9 0 1.7.1 2.3.4s1.2.7 1.6 1.2c.4.5.6 1.1.6 1.8 0 1.2-.5 2.2-1.6 2.9-1 .7-2.6 1-4.5 1-1.4 0-2.5-.1-3.3-.4-.8-.3-1.4-.7-1.7-1.3-.3-.6-.5-1.3-.5-2.1h2.7c0 .4.1.8.2 1 .2.2.5.4.9.6.4.1 1 .2 1.8.2 1.1 0 1.9-.1 2.4-.4s.7-.7.7-1.2-.2-.8-.5-1.1c-.4-.3-.9-.4-1.5-.4H169c-1.2 0-2-.2-2.6-.7-.6-.4-.9-1-.9-1.7 0-.4.1-.8.4-1.2.3-.4.6-.7 1.1-1-.7-.4-1.3-.9-1.6-1.4-.3-.6-.5-1.2-.5-2 0-.9.2-1.6.6-2.3s1-1.2 1.8-1.5c.8-.4 1.6-.5 2.6-.5 1.3 0 2.3-.1 3.1-.3.8-.2 1.7-.6 2.6-1.1l.7 2.2zm-7.9 1.6c-.4.4-.6 1-.6 1.7s.2 1.3.6 1.8c.4.4.9.6 1.6.6.7 0 1.2-.2 1.6-.6.4-.4.6-1 .6-1.8 0-1.5-.7-2.3-2.2-2.3-.7 0-1.2.2-1.6.6zM186.9 333.5c1 1.1 1.5 2.7 1.5 4.7 0 1.3-.2 2.4-.7 3.4-.5 1-1.1 1.7-2 2.3-.9.5-1.9.8-3.1.8-1.8 0-3.2-.6-4.2-1.7s-1.5-2.7-1.5-4.8c0-1.3.2-2.4.7-3.4.5-1 1.1-1.7 2-2.3.9-.5 1.9-.8 3.1-.8 1.8.1 3.2.7 4.2 1.8zm-6.9 4.7c0 1.4.2 2.5.7 3.2.4.7 1.1 1 2 1s1.5-.3 2-1c.4-.7.7-1.8.7-3.2 0-1.4-.2-2.5-.7-3.2-.4-.7-1.1-1-2-1-1.8 0-2.7 1.4-2.7 4.2zM203.5 335.7l4.7 8.6h-3.4l-3.2-6.5-3.2 6.5h-3.3l4.6-8.5-4.3-7.5h3.4l2.7 5.5 2.8-5.5h3.3l-4.1 7.4zM213.1 328.4v13.5h6.4l-.3 2.5h-9.1v-16h3z"/><g><path class="st18" d="M67.5 366.6c.5.2.9.5 1.4.9l-.9 1c-.7-.6-1.4-.8-2.2-.8-.9 0-1.7.4-2.3 1.1-.6.7-.9 1.9-.9 3.5s.3 2.7.9 3.4 1.3 1.1 2.3 1.1c.5 0 .9-.1 1.3-.2s.7-.4 1.2-.7l.8 1c-.4.4-.8.7-1.3.9s-1.2.4-1.9.4c-.9 0-1.7-.2-2.5-.7s-1.3-1.1-1.7-2-.6-1.9-.6-3.2c0-1.2.2-2.3.6-3.2.4-.9 1-1.5 1.7-2 .7-.4 1.5-.7 2.4-.7.7-.1 1.2 0 1.7.2zM77.2 369.2l-2.6 4 2.9 4.7h-1.8l-2.4-4h-1.1v4h-1.5v-8.7h1.5v3.5h1.1l2.2-3.5h1.7zM86 377.9h-1.5V374c0-.7 0-1.3.1-1.9s.1-1 .1-1.2l-3.6 7h-1.8v-8.7h1.5v3.9c0 .6 0 1.2-.1 1.8 0 .6-.1 1-.1 1.2l3.6-6.9H86v8.7zM96.1 376.7v3.7h-1.2l-.2-2.5H89l-.2 2.5h-1.2v-3.7h.6c.3-.2.5-.4.6-.6.2-.2.3-.6.4-1.2.1-.6.2-1.4.3-2.5l.2-3.2h5.4v7.5h1zm-2.4-6.3h-2.6l-.1 1.8c-.1 1-.2 1.8-.3 2.4s-.2 1-.4 1.3c-.2.3-.4.6-.8.8h4.1v-6.3zM104.8 369.2l-2.6 4 2.9 4.7h-1.8l-2.4-4h-1.1v4h-1.5v-8.7h1.5v3.5h1.1l2.2-3.5h1.7zM112.6 376.6c.1.2.3.3.5.4l-.3 1.1c-.5-.1-.8-.2-1.1-.4-.3-.2-.5-.5-.6-.9-.6.9-1.4 1.3-2.6 1.3-.9 0-1.5-.2-2-.7-.5-.5-.7-1.1-.7-1.9 0-.9.3-1.6 1-2.1s1.6-.7 2.8-.7h1.3v-.7c0-.6-.1-1.1-.4-1.3-.3-.3-.8-.4-1.4-.4-.6 0-1.4.2-2.3.5l-.4-1.1c1.1-.4 2.1-.6 3-.6 1 0 1.8.2 2.3.7.5.5.8 1.2.8 2.1v4c-.1.3 0 .6.1.7zm-1.7-1v-2h-1.1c-1.6 0-2.4.6-2.4 1.8 0 .5.1.9.4 1.2.3.3.6.4 1.1.4.8-.1 1.5-.5 2-1.4zM123.7 366.9v11h-1.5v-9.4l-2.6 1.6-.7-1.1 3.4-2.1h1.4zM132.8 368.2c.6 1 .9 2.4.9 4.2s-.3 3.3-.9 4.2c-.6 1-1.5 1.5-2.8 1.5-1.2 0-2.1-.5-2.8-1.5-.6-1-.9-2.4-.9-4.2s.3-3.2.9-4.2 1.5-1.5 2.8-1.5c1.3 0 2.2.5 2.8 1.5zm-4.3.8c-.3.7-.5 1.8-.5 3.4s.2 2.7.5 3.4c.3.7.9 1.1 1.6 1.1.7 0 1.2-.4 1.6-1.1s.5-1.9.5-3.4c0-1.6-.2-2.7-.5-3.4s-.9-1.1-1.6-1.1c-.8 0-1.3.4-1.6 1.1zM140 367.5c.5.5.7 1.2.7 2s-.2 1.5-.7 2c-.5.5-1.1.8-1.9.8-.8 0-1.4-.3-1.9-.8s-.7-1.2-.7-2 .2-1.5.7-2c.5-.5 1.1-.8 1.9-.8.7 0 1.4.3 1.9.8zm-3 .7c-.2.3-.3.8-.3 1.3s.1.9.3 1.3c.2.3.5.5 1 .5.9 0 1.3-.6 1.3-1.8 0-.5-.1-.9-.3-1.3-.2-.3-.5-.5-1-.5-.4 0-.8.2-1 .5zm7.7-2l1.1.7-7.6 11.5-1.1-.7 7.6-11.5zm2.1 7.1c.5.5.7 1.2.7 2s-.2 1.5-.7 2c-.5.5-1.1.8-1.9.8-.8 0-1.4-.3-1.9-.8s-.7-1.2-.7-2 .2-1.5.7-2 1.1-.8 1.9-.8c.7 0 1.4.3 1.9.8zm-3 .7c-.2.3-.3.7-.3 1.3 0 .5.1.9.3 1.3.2.3.5.5 1 .5.9 0 1.3-.6 1.3-1.8 0-.5-.1-.9-.3-1.3-.2-.3-.5-.5-1-.5-.4.1-.8.2-1 .5z"/></g><g><path class="st18" d="M68.6 419.9v15.6h-2.9v-12.6l-3.5 2.1-1.3-2 5.1-3.1h2.6zM93 423.2v12.2H78.3v-12.2h2.8v10h3.2v-10H87v10h3.2v-10H93zM105.5 423.2l-.4 2.3h-3.6v10h-3v-10h-3.8v-2.3h10.8z"/></g><g><path class="st18" d="M470.9 374v1.2h-1.4v2.7H468v-2.7h-4.7v-1.1l3.3-7.4 1.3.5-3 6.7h3.1l.1-3h1.3v3h1.5zM478 367.8c.6.8.9 1.8.9 3.1 0 1.5-.2 2.7-.6 3.6-.4.9-1 1.6-1.9 2.2-.8.5-2 1-3.4 1.4l-.3-1.1c1.5-.4 2.6-1 3.4-1.7.8-.7 1.2-1.7 1.3-2.8-.3.4-.6.7-1 1-.4.2-.9.4-1.4.4-.6 0-1.1-.1-1.5-.4-.5-.3-.8-.7-1.1-1.2-.3-.5-.4-1.2-.4-1.9s.2-1.4.5-1.9.7-1 1.3-1.3c.5-.3 1.1-.4 1.8-.4.9-.1 1.8.3 2.4 1zm-.6 3.5c0-1.2-.1-2.1-.5-2.6-.3-.5-.8-.8-1.5-.8-.6 0-1.1.2-1.5.6-.4.4-.5 1-.5 1.8s.2 1.3.5 1.7c.3.4.8.6 1.3.6.9.1 1.6-.4 2.2-1.3zM486.6 367.8c.6.8.9 1.8.9 3.1 0 1.5-.2 2.7-.6 3.6-.4.9-1 1.6-1.9 2.2-.8.5-2 1-3.4 1.4l-.3-1.1c1.5-.4 2.6-1 3.4-1.7.8-.7 1.2-1.7 1.3-2.8-.3.4-.6.7-1 1-.4.2-.9.4-1.4.4-.6 0-1.1-.1-1.5-.4-.5-.3-.8-.7-1.1-1.2-.3-.5-.4-1.2-.4-1.9s.2-1.4.5-1.9.7-1 1.3-1.3c.5-.3 1.1-.4 1.8-.4 1-.1 1.8.3 2.4 1zm-.6 3.5c0-1.2-.1-2.1-.5-2.6-.3-.5-.8-.8-1.5-.8-.6 0-1.1.2-1.5.6-.4.4-.5 1-.5 1.8s.2 1.3.5 1.7c.3.4.8.6 1.3.6.9.1 1.6-.4 2.2-1.3z"/></g><g><path class="st18" d="M446.7 429.6v2.3h-1.9v3.6h-2.9v-3.6h-6.6v-2l4.5-10.3 2.5.9-4 9.1h3.6l.3-3.9h2.6v3.9h1.9zM463.3 421.3c.9 1.1 1.4 2.6 1.4 4.4 0 2.1-.3 3.8-.9 5.2-.6 1.3-1.6 2.4-2.9 3.2-1.3.8-3 1.5-5.2 2l-.6-2.1c2-.5 3.6-1.2 4.6-2.1 1.1-.9 1.7-2 1.9-3.5-.8 1.1-2 1.6-3.3 1.6-.8 0-1.5-.2-2.2-.6-.7-.4-1.2-1-1.6-1.8-.4-.8-.6-1.7-.6-2.7 0-1.1.2-2 .7-2.8.5-.8 1.1-1.4 2-1.8.8-.4 1.7-.6 2.7-.6 1.7-.1 3.1.5 4 1.6zm-1.6 4.9c0-1.6-.2-2.7-.5-3.4-.4-.7-1-1-1.9-1-.8 0-1.4.3-1.8.8-.4.5-.6 1.3-.6 2.2 0 1 .2 1.8.6 2.2.4.5.9.7 1.6.7 1 .1 1.9-.4 2.6-1.5zM475.9 421.3c.9 1.1 1.4 2.6 1.4 4.4 0 2.1-.3 3.8-.9 5.2-.6 1.3-1.6 2.4-2.9 3.2-1.3.8-3 1.5-5.2 2l-.6-2.1c2-.5 3.6-1.2 4.6-2.1 1.1-.9 1.7-2 1.9-3.5-.8 1.1-2 1.6-3.3 1.6-.8 0-1.5-.2-2.2-.6-.7-.4-1.2-1-1.6-1.8-.4-.8-.6-1.7-.6-2.7 0-1.1.2-2 .7-2.8.5-.8 1.1-1.4 2-1.8.8-.4 1.7-.6 2.7-.6 1.7-.1 3 .5 4 1.6zm-1.6 4.9c0-1.6-.2-2.7-.5-3.4-.4-.7-1-1-1.9-1-.8 0-1.4.3-1.8.8-.4.5-.6 1.3-.6 2.2 0 1 .2 1.8.6 2.2.4.5.9.7 1.6.7.9.1 1.8-.4 2.6-1.5zM488.5 421.3c.9 1.1 1.4 2.6 1.4 4.4 0 2.1-.3 3.8-.9 5.2-.6 1.3-1.6 2.4-2.9 3.2-1.3.8-3 1.5-5.2 2l-.6-2.1c2-.5 3.6-1.2 4.6-2.1 1.1-.9 1.7-2 1.9-3.5-.8 1.1-2 1.6-3.3 1.6-.8 0-1.5-.2-2.2-.6-.7-.4-1.2-1-1.6-1.8-.4-.8-.6-1.7-.6-2.7 0-1.1.2-2 .7-2.8.5-.8 1.1-1.4 2-1.8.8-.4 1.7-.6 2.7-.6 1.7-.1 3 .5 4 1.6zm-1.7 4.9c0-1.6-.2-2.7-.5-3.4-.4-.7-1-1-1.9-1-.8 0-1.4.3-1.8.8-.4.5-.6 1.3-.6 2.2 0 1 .2 1.8.6 2.2.4.5.9.7 1.6.7 1 .1 1.9-.4 2.6-1.5z"/></g></g><g><path class="st19" d="M505.3 477.3H45.8c-5.3 0-9.7 4.3-9.7 9.7v57.6H515V487c0-5.4-4.4-9.7-9.7-9.7z"/><path class="st20" d="M36.2 544.6v38.2c0 5.3 4.3 9.7 9.7 9.7h459.5c5.3 0 9.7-4.3 9.7-9.7v-38.2H36.2z"/><path class="st18" d="M73.9 517v6.1h-2.2l-.4-3.7h-8.8l-.4 3.7h-2.2V517H61c.4-.4.7-.9.9-1.5.2-.6.4-1.4.6-2.5.2-1 .4-2.7.7-4.8l.6-4.8h8.8V517h1.3zm-4.4-11.2h-3.1l-.3 2.4c-.2 2-.4 3.6-.6 4.7-.2 1.1-.5 2-.8 2.6-.3.6-.7 1.2-1.2 1.6h6v-11.3zM91 507.2l-2.9 5.7 3.3 6.5h-3.1l-2.5-5.4h-1.3v5.4h-2.7V514h-1.3l-2.6 5.4h-3.1l3.3-6.5-2.9-5.7h2.9l2.3 4.9h1.4v-4.9h2.7v4.9h1.4l2.4-4.9H91zM103.6 519.4h-2.8v-4.9c0-.9 0-1.7.1-2.5s.2-1.4.3-1.8l-4.6 9.2h-3.2v-12.2h2.9v4.9c0 .8 0 1.7-.1 2.5s-.2 1.4-.3 1.8l4.5-9.2h3.2v12.2zM114.3 519.4v-5.1h-4.1v5.1h-3v-12.2h3v4.9h4.1v-4.9h3v12.2h-3zM127.9 507.2c.6.2 1.2.6 1.8 1.1l-1.3 1.8c-.4-.3-.8-.5-1.2-.7-.4-.1-.8-.2-1.3-.2-1.8 0-2.8 1.4-2.8 4.2 0 1.4.2 2.4.7 3.1.5.6 1.2.9 2 .9.4 0 .8-.1 1.2-.2.4-.1.8-.4 1.3-.7l1.3 1.9c-1.2.9-2.5 1.4-4 1.4-1.2 0-2.2-.3-3.1-.8-.9-.5-1.5-1.3-2-2.2-.5-1-.7-2.1-.7-3.4 0-1.3.2-2.4.7-3.4s1.1-1.8 2-2.3c.9-.5 1.9-.8 3-.8 1 0 1.8.1 2.4.3zM140 512.1c.9.7 1.3 1.8 1.3 3.1 0 1.4-.5 2.4-1.4 3.1-.9.7-2.1 1.1-3.6 1.1h-4.4v-12.2h3v3.9h1c1.8 0 3.2.3 4.1 1zm-1.8 3.1c0-.7-.2-1.3-.6-1.6-.4-.3-1-.5-1.9-.5h-.9v4.3h1.2c1.5 0 2.2-.8 2.2-2.2zm4.5-8h3v12.2h-3v-12.2zM158.1 503.5V517h6.4l-.3 2.5h-9.1v-16h3zM176 514.2h-7.7c.1 1.2.4 2 .9 2.5s1.2.8 2.1.8c.5 0 1-.1 1.5-.3.5-.2 1-.5 1.5-.8l1.2 1.7c-1.4 1.1-2.9 1.6-4.5 1.6-1.9 0-3.3-.6-4.3-1.7s-1.5-2.7-1.5-4.7c0-1.2.2-2.4.6-3.4.4-1 1.1-1.8 1.9-2.3.8-.6 1.8-.8 2.9-.8 1.7 0 3 .5 4 1.6.9 1.1 1.4 2.6 1.4 4.5.1.3.1.7 0 1.3zm-2.8-2c0-2.1-.8-3.2-2.4-3.2-.7 0-1.3.3-1.7.8s-.7 1.4-.7 2.6h4.8v-.2zM188.5 507.2l-4 12.2H181l-4-12.2h3.2l2.6 9.8 2.7-9.8h3zM193.1 501.5c.3.3.5.8.5 1.3s-.2.9-.5 1.3c-.3.3-.8.5-1.4.5-.5 0-1-.2-1.3-.5s-.5-.8-.5-1.3.2-.9.5-1.3.8-.5 1.3-.5c.6 0 1.1.2 1.4.5zm.1 5.7v12.2h-3v-12.2h3zM199 502.3c.3.3.5.7.5 1.2 0 .2 0 .5-.1.8-.1.3-.2.6-.4 1l-1.5 3.1h-1.7l.9-3.6c-.5-.3-.7-.8-.7-1.4 0-.5.2-.9.5-1.2.3-.3.8-.5 1.2-.5.6.2 1 .3 1.3.6zM210.2 508.3L209 510c-1-.7-2.1-1-3.1-1-.6 0-1 .1-1.4.3-.3.2-.5.5-.5.9 0 .3.1.5.2.7s.4.4.8.5c.4.2.9.3 1.6.5 1.3.4 2.3.8 2.9 1.4.6.6 1 1.4 1 2.5 0 1.2-.5 2.2-1.5 2.9s-2.2 1-3.7 1c-1 0-1.9-.2-2.7-.5-.8-.3-1.5-.7-2.1-1.3l1.5-1.7c1.1.8 2.2 1.2 3.3 1.2.7 0 1.2-.1 1.6-.4.4-.3.6-.6.6-1.1 0-.4-.1-.6-.2-.8s-.4-.4-.8-.6c-.4-.2-1-.4-1.8-.6-1.2-.3-2.2-.8-2.8-1.4-.6-.6-.9-1.4-.9-2.3 0-.7.2-1.3.6-1.8.4-.5.9-1 1.7-1.3.7-.3 1.5-.5 2.5-.5 1.7.3 3.2.7 4.4 1.7zM228.8 505.1c1.5 1.1 2.2 3.2 2.2 6.2s-.7 5-2.2 6.3c-1.5 1.2-3.3 1.8-5.6 1.8h-4.3v-16h3.9c2.5.1 4.5.6 6 1.7zm-6.8.6v11.4h1.5c1.4 0 2.4-.4 3.2-1.3.8-.8 1.2-2.3 1.2-4.5 0-1.5-.2-2.7-.6-3.5-.4-.8-.9-1.4-1.5-1.7-.6-.3-1.4-.4-2.3-.4H222zM243.8 514.2h-7.7c.1 1.2.4 2 .9 2.5s1.2.8 2.1.8c.5 0 1-.1 1.5-.3.5-.2 1-.5 1.5-.8l1.2 1.7c-1.4 1.1-2.9 1.6-4.5 1.6-1.9 0-3.3-.6-4.3-1.7s-1.5-2.7-1.5-4.7c0-1.2.2-2.4.6-3.4.4-1 1.1-1.8 1.9-2.3.8-.6 1.8-.8 2.9-.8 1.7 0 3 .5 4 1.6.9 1.1 1.4 2.6 1.4 4.5v1.3zm-2.9-2c0-2.1-.8-3.2-2.4-3.2-.7 0-1.3.3-1.7.8s-.7 1.4-.7 2.6h4.8v-.2zM255.6 507.8c.6.7.9 1.6.9 2.7v8.9h-3V511c0-.7-.1-1.2-.4-1.5-.3-.3-.6-.4-1.1-.4-.5 0-1 .2-1.4.5-.4.3-.8.8-1.2 1.4v8.5h-3v-12.2h2.6l.2 1.6c1-1.3 2.2-1.9 3.7-1.9 1.2-.1 2.1.2 2.7.8zM262.7 501.5c.3.3.5.8.5 1.3s-.2.9-.5 1.3c-.3.3-.8.5-1.4.5-.5 0-1-.2-1.3-.5s-.5-.8-.5-1.3.2-.9.5-1.3.8-.5 1.3-.5c.6 0 1.1.2 1.4.5zm.2 5.7v12.2h-3v-12.2h3zM281.8 507.9c.6.7.9 1.6.9 2.7v8.9h-3V511c0-1.3-.4-2-1.3-2-.5 0-.9.1-1.2.5-.3.3-.7.8-1.1 1.4v8.5h-3V511c0-1.3-.4-2-1.3-2-.5 0-.9.1-1.3.5-.3.3-.7.8-1.1 1.4v8.5h-3v-12.2h2.6l.2 1.6c.9-1.3 2.1-1.9 3.5-1.9.7 0 1.3.2 1.8.5.5.4.9.9 1.1 1.5.5-.7 1-1.2 1.6-1.5.6-.4 1.3-.5 2-.5 1.2 0 2 .3 2.6 1zM302.2 513.6v2.3h-1.9v3.6h-2.9v-3.6h-6.6v-2l4.5-10.3 2.5.9-4 9.1h3.6l.3-3.9h2.6v3.9h1.9zM310.5 504.1c.7.4 1.3.8 1.7 1.4.4.6.6 1.3.6 2 0 .9-.3 1.7-.8 2.3-.5.6-1.3 1.1-2.2 1.3 1 .1 1.9.5 2.5 1.1.7.6 1 1.5 1 2.7 0 .9-.2 1.7-.7 2.4-.5.7-1.1 1.3-2 1.7s-1.8.6-3 .6c-2.1 0-3.8-.7-5-2.2l1.6-1.6c.5.5 1 .9 1.5 1.1.5.2 1.1.4 1.7.4.8 0 1.5-.2 2-.7.5-.5.8-1.1.8-1.9 0-.9-.2-1.5-.7-1.9s-1.2-.6-2.1-.6h-1.2l.3-2.1h.8c.8 0 1.4-.2 1.8-.6s.7-1 .7-1.7c0-.6-.2-1.1-.6-1.5-.4-.4-1-.5-1.7-.5-.6 0-1.1.1-1.6.3-.5.2-1 .6-1.5 1l-1.5-1.6c1.4-1.3 3-2 4.9-2 1 .1 1.9.3 2.7.6z"/><g><path class="st18" d="M68.5 561.8c.8.4 1.3.9 1.7 1.6.4.7.6 1.4.6 2.2 0 .9-.2 1.7-.6 2.5-.4.8-1 1.7-1.9 2.7s-2.2 2.3-3.9 3.9h6.7l-.3 2.3h-9.7v-2.2c2-2 3.4-3.5 4.2-4.5.9-1 1.5-1.8 1.8-2.5.4-.7.5-1.4.5-2.1 0-.7-.2-1.3-.6-1.7-.4-.4-1-.6-1.6-.6-.6 0-1.1.1-1.6.4-.5.3-.9.7-1.4 1.3l-1.8-1.4c1.3-1.7 3-2.5 5-2.5 1.2 0 2.1.2 2.9.6zM94.3 564.8V577H79.7v-12.2h2.8v10h3.2v-10h2.6v10h3.2v-10h2.8zM106.9 564.8l-.4 2.3h-3.6v10h-3v-10h-3.8v-2.3h10.8z"/></g><g><path class="st18" d="M429 561.7c.7.4 1.3.8 1.7 1.4.4.6.6 1.3.6 2 0 .9-.3 1.7-.8 2.3s-1.3 1.1-2.2 1.3c1 .1 1.9.5 2.5 1.1.7.6 1 1.5 1 2.7 0 .9-.2 1.7-.7 2.4-.5.7-1.1 1.3-2 1.7s-1.8.6-3 .6c-2.1 0-3.8-.7-5-2.2l1.6-1.6c.5.5 1 .9 1.5 1.1.5.2 1.1.4 1.7.4.8 0 1.5-.2 2-.7.5-.5.8-1.1.8-1.9 0-.9-.2-1.5-.7-1.9-.5-.4-1.2-.6-2.1-.6h-1.2l.3-2.1h.8c.8 0 1.4-.2 1.8-.6.5-.4.7-1 .7-1.7 0-.6-.2-1.1-.6-1.5-.4-.4-1-.5-1.7-.5-.6 0-1.1.1-1.6.3-.5.2-1 .6-1.5 1l-1.5-1.6c1.4-1.3 3-2 4.9-2 1 .1 1.9.3 2.7.6zM444.8 571.2v2.3h-1.9v3.6H440v-3.6h-6.6v-2l4.5-10.3 2.5.9-4 9.1h3.6l.3-3.9h2.6v3.9h1.9zM463.4 572.8c0 .8-.2 1.6-.7 2.3s-1.2 1.2-2 1.6c-.9.4-1.9.6-3 .6s-2.1-.2-3-.6c-.8-.4-1.5-.9-2-1.6-.5-.7-.7-1.4-.7-2.3 0-1.8 1-3.1 3-3.9-1.6-.8-2.3-2.1-2.3-3.7 0-.8.2-1.5.7-2.2.5-.6 1.1-1.1 1.8-1.4.8-.3 1.6-.5 2.6-.5.9 0 1.8.2 2.6.5s1.4.8 1.8 1.4c.5.6.7 1.3.7 2.2 0 1.5-.9 2.6-2.6 3.5 2.1.9 3.1 2.3 3.1 4.1zm-3.7 1.7c.5-.4.7-1 .7-1.7s-.2-1.3-.6-1.7c-.4-.4-1.2-.8-2.2-1.2l-.7-.3c-1.2.7-1.9 1.7-1.9 3.1 0 .7.2 1.3.7 1.7.5.4 1.2.6 2 .6.9.2 1.5 0 2-.5zm-3.6-10.7c-.4.4-.6.9-.6 1.5s.2 1.1.6 1.5c.4.4 1 .7 1.8 1l.4.2c.6-.4 1-.8 1.3-1.2.3-.4.4-.9.4-1.5s-.2-1.1-.6-1.5-.9-.5-1.6-.5c-.8 0-1.3.1-1.7.5zM475 563.3c.9 1.4 1.4 3.4 1.4 6s-.5 4.6-1.4 6c-.9 1.4-2.3 2.1-4.1 2.1-1.8 0-3.2-.7-4.1-2.1-.9-1.4-1.4-3.4-1.4-6s.5-4.6 1.4-6c.9-1.4 2.3-2.1 4.1-2.1 1.8 0 3.2.7 4.1 2.1zm-6 1.5c-.4.9-.6 2.4-.6 4.5s.2 3.6.6 4.5 1 1.3 1.9 1.3 1.5-.4 1.9-1.3c.4-.9.6-2.4.6-4.5s-.2-3.6-.6-4.5c-.4-.9-1-1.3-1.9-1.3s-1.5.4-1.9 1.3zM488.3 563.3c.9 1.4 1.4 3.4 1.4 6s-.5 4.6-1.4 6c-.9 1.4-2.3 2.1-4.1 2.1-1.8 0-3.2-.7-4.1-2.1-.9-1.4-1.4-3.4-1.4-6s.5-4.6 1.4-6c.9-1.4 2.3-2.1 4.1-2.1 1.7 0 3.1.7 4.1 2.1zm-6.1 1.5c-.4.9-.6 2.4-.6 4.5s.2 3.6.6 4.5 1 1.3 1.9 1.3 1.5-.4 1.9-1.3c.4-.9.6-2.4.6-4.5s-.2-3.6-.6-4.5c-.4-.9-1-1.3-1.9-1.3s-1.5.4-1.9 1.3z"/></g><g><path class="st18" d="M137.5 561.5V577h-2.9v-12.6l-3.5 2.1-1.3-2 5.1-3.1h2.6zM149.8 561.5v2.1l-5.8 13.8-2.7-.9 5.4-12.7h-6.6v-2.3h9.7zM168.2 571.2v2.3h-1.9v3.6h-2.9v-3.6h-6.6v-2l4.5-10.3 2.5.9-4 9.1h3.6l.3-3.9h2.6v3.9h1.9zM179.6 563.3c.9 1.4 1.4 3.4 1.4 6s-.5 4.6-1.4 6c-.9 1.4-2.3 2.1-4.1 2.1-1.8 0-3.2-.7-4.1-2.1-.9-1.4-1.4-3.4-1.4-6s.5-4.6 1.4-6c.9-1.4 2.3-2.1 4.1-2.1 1.7 0 3.1.7 4.1 2.1zm-6.1 1.5c-.4.9-.6 2.4-.6 4.5s.2 3.6.6 4.5 1 1.3 1.9 1.3 1.5-.4 1.9-1.3c.4-.9.6-2.4.6-4.5s-.2-3.6-.6-4.5c-.4-.9-1-1.3-1.9-1.3s-1.5.4-1.9 1.3zM192.8 563.3c.9 1.4 1.4 3.4 1.4 6s-.5 4.6-1.4 6c-.9 1.4-2.3 2.1-4.1 2.1-1.8 0-3.2-.7-4.1-2.1-.9-1.4-1.4-3.4-1.4-6s.5-4.6 1.4-6c.9-1.4 2.3-2.1 4.1-2.1 1.8 0 3.2.7 4.1 2.1zm-6.1 1.5c-.4.9-.6 2.4-.6 4.5s.2 3.6.6 4.5 1 1.3 1.9 1.3 1.5-.4 1.9-1.3c.4-.9.6-2.4.6-4.5s-.2-3.6-.6-4.5c-.4-.9-1-1.3-1.9-1.3s-1.5.4-1.9 1.3z"/></g><g><path class="st18" d="M120.2 570.9l2.8 4.4h-2.3L119 572l-1.7 3.3h-2.2l2.8-4.4-2.5-3.9h2.3l1.4 2.8 1.4-2.8h2.2l-2.5 3.9z"/></g></g><g><path class="st19" d="M505.3 618.9H45.8c-5.3 0-9.7 4.3-9.7 9.7v57.6H515v-57.6c0-5.4-4.4-9.7-9.7-9.7z"/><path class="st20" d="M36.2 686.2v38.2c0 5.3 4.3 9.7 9.7 9.7h459.5c5.3 0 9.7-4.3 9.7-9.7v-38.2H36.2z"/><path class="st18" d="M73.8 645l-4.2 7.4 4.6 8.6h-3.4l-3.7-7.2h-1.9v7.2h-3.1v-16h3.1v6.5h2l3.6-6.5h3zM85.6 655.8h-7.7c.1 1.2.4 2 .9 2.5s1.2.8 2.1.8c.5 0 1-.1 1.5-.3.5-.2 1-.5 1.5-.8l1.2 1.7c-1.4 1.1-2.9 1.6-4.5 1.6-1.9 0-3.3-.6-4.3-1.7s-1.5-2.7-1.5-4.7c0-1.2.2-2.4.6-3.4.4-1 1.1-1.8 1.9-2.3.8-.6 1.8-.8 2.9-.8 1.7 0 3 .5 4 1.6.9 1.1 1.4 2.6 1.4 4.5.1.2.1.6 0 1.3zm-2.9-2.1c0-2.1-.8-3.2-2.4-3.2-.7 0-1.3.3-1.7.8-.4.5-.7 1.4-.7 2.6h4.8v-.2zM98.6 658.7v5.9h-2.1l-.4-3.7h-7.2l-.4 3.7h-2.1v-5.9h.8c.3-.2.6-.5.8-.8.2-.3.4-.9.5-1.6.2-.8.3-1.8.4-3.3l.3-4.3h8.2v10h1.2zm-4.1-7.9h-2.8l-.2 1.9c-.1 1.3-.2 2.4-.4 3.1-.2.8-.4 1.3-.6 1.8-.3.4-.6.8-1.1 1.1h5v-7.9zM109.1 653.7c.9.7 1.3 1.8 1.3 3.1 0 1.4-.5 2.4-1.4 3.1-.9.7-2.1 1.1-3.6 1.1H101v-12.2h3v3.9h1c1.8-.1 3.2.3 4.1 1zm-1.8 3.1c0-.7-.2-1.3-.6-1.6-.4-.3-1-.5-1.9-.5h-.9v4.3h1.2c1.5-.1 2.2-.8 2.2-2.2zm4.5-8h3V661h-3v-12.2zM134.6 653.7c.7.6 1 1.5 1 2.7 0 1.7-.6 2.8-1.8 3.5-1.2.7-2.8 1.1-4.9 1.1h-4.8v-16h4.2c4.4 0 6.6 1.4 6.6 4.1 0 .9-.3 1.7-.9 2.3-.6.6-1.3 1-2.1 1.1 1.2.2 2.1.6 2.7 1.2zm-7.4-6.4v4.3h1.9c.8 0 1.5-.2 2-.6s.7-.9.7-1.7c0-.8-.3-1.3-.8-1.6-.5-.3-1.3-.5-2.4-.5h-1.4zm4.4 10.9c.6-.3.9-1 .9-1.9 0-.9-.3-1.6-.8-2-.6-.4-1.3-.6-2.3-.6h-2.1v5h1.8c1 0 1.9-.2 2.5-.5zM148.2 655.8h-7.7c.1 1.2.4 2 .9 2.5s1.2.8 2.1.8c.5 0 1-.1 1.5-.3.5-.2 1-.5 1.5-.8l1.2 1.7c-1.4 1.1-2.9 1.6-4.5 1.6-1.9 0-3.3-.6-4.3-1.7s-1.5-2.7-1.5-4.7c0-1.2.2-2.4.6-3.4.4-1 1.1-1.8 1.9-2.3.8-.6 1.8-.8 2.9-.8 1.7 0 3 .5 4 1.6.9 1.1 1.4 2.6 1.4 4.5.1.2 0 .6 0 1.3zm-2.9-2.1c0-2.1-.8-3.2-2.4-3.2-.7 0-1.3.3-1.7.8-.4.5-.7 1.4-.7 2.6h4.8v-.2zM158.2 648.6l-.5 2.9c-.4-.1-.7-.1-1.1-.1-.7 0-1.3.3-1.7.8s-.7 1.3-1 2.4v6.5h-3v-12.2h2.6l.3 2.4c.3-.9.7-1.6 1.3-2 .6-.5 1.2-.7 1.9-.7.4-.2.8-.1 1.2 0zM167.9 649.9l-1.2 1.7c-1-.7-2.1-1-3.1-1-.6 0-1 .1-1.4.3s-.5.5-.5.9c0 .3.1.5.2.7.1.2.4.4.8.5s.9.3 1.6.5c1.3.4 2.3.8 2.9 1.4.6.6 1 1.4 1 2.5 0 1.2-.5 2.2-1.5 2.9s-2.2 1-3.7 1c-1 0-1.9-.2-2.7-.5-.8-.3-1.5-.7-2.1-1.3l1.5-1.7c1.1.8 2.2 1.2 3.3 1.2.7 0 1.2-.1 1.6-.4.4-.3.6-.6.6-1.1 0-.4-.1-.6-.2-.8s-.4-.4-.8-.6c-.4-.2-1-.4-1.8-.6-1.2-.3-2.2-.8-2.8-1.4-.6-.6-.9-1.4-.9-2.3 0-.7.2-1.3.6-1.8.4-.5.9-1 1.7-1.3.7-.3 1.5-.5 2.5-.5 1.7.2 3.2.7 4.4 1.7zM179.8 649.4c.6.7.9 1.6.9 2.7v8.9h-3v-8.4c0-.7-.1-1.2-.4-1.5-.3-.3-.6-.4-1.1-.4-.5 0-.9.2-1.4.5-.4.3-.8.8-1.2 1.4v8.5h-3V644l3-.3v6.6c1-1.2 2.2-1.8 3.6-1.8 1.1-.1 2 .2 2.6.9zM187.1 643.5V661h-3v-17.1l3-.4zm7.4 5.3l-4.1 5.4 4.5 6.8h-3.4l-4.2-6.7 4.1-5.5h3.1zM205.4 658.8c.1.2.4.4.7.5l-.6 2c-.7-.1-1.3-.2-1.7-.5-.4-.3-.8-.7-1-1.3-.4.6-.9 1.1-1.6 1.4-.6.3-1.3.5-2.1.5-1.2 0-2.2-.3-2.9-1s-1.1-1.6-1.1-2.7c0-1.3.5-2.3 1.4-3 1-.7 2.3-1.1 4.1-1.1h1.5v-.7c0-.8-.2-1.3-.5-1.7-.4-.3-.9-.5-1.7-.5-.9 0-2 .2-3.2.6l-.7-2c1.5-.6 3-.9 4.4-.9 3.1 0 4.7 1.4 4.7 4.2v5.1c.1.5.2.9.3 1.1zm-3.1-1.1v-2.5h-1.2c-1.9 0-2.9.7-2.9 2.1 0 .6.1 1 .4 1.4.3.3.7.5 1.3.5 1 0 1.8-.5 2.4-1.5zM221.1 652.4l4.7 8.6h-3.4l-3.2-6.5-3.2 6.5h-3.3l4.6-8.5-4.3-7.5h3.4l2.7 5.5 2.8-5.5h3.3l-4.1 7.4zM235 645.2c.8.3 1.6.8 2.3 1.5l-1.5 1.7c-.6-.5-1.1-.8-1.7-1-.6-.2-1.2-.3-1.9-.3s-1.3.2-1.8.5-.7.8-.7 1.4c0 .4.1.7.3 1s.5.5 1 .7c.5.2 1.1.5 2.1.8 1.6.5 2.8 1.1 3.5 1.8.8.7 1.2 1.8 1.2 3.2 0 1-.2 1.8-.7 2.5-.5.7-1.2 1.3-2.1 1.7-.9.4-2 .6-3.2.6-1.2 0-2.3-.2-3.3-.6-1-.4-1.8-.9-2.5-1.6l1.6-1.8c.6.5 1.3.9 1.9 1.2s1.4.4 2.2.4c.9 0 1.6-.2 2.1-.6s.8-1 .8-1.8c0-.5-.1-.8-.3-1.1s-.5-.6-.9-.8c-.4-.2-1.1-.5-1.9-.8-1.7-.5-2.9-1.2-3.7-1.9-.8-.7-1.1-1.7-1.1-2.9 0-.9.2-1.6.7-2.3.5-.7 1.1-1.2 1.9-1.5.8-.4 1.8-.6 2.8-.6 1 .1 2 .2 2.9.6zM247.3 660.4c-.4.3-.9.5-1.4.7-.5.2-1.1.2-1.6.2-1.2 0-2.1-.4-2.7-1-.6-.7-.9-1.7-.9-3v-6.5h-1.9v-2.1h1.9V646l3-.3v3.1h2.8l-.3 2.1h-2.5v6.4c0 .6.1 1 .3 1.3.2.3.5.4 1 .4.4 0 .9-.1 1.5-.4l.8 1.8zM254.7 661c-.5 1.5-1.2 2.7-2.2 3.5-1 .8-2.4 1.3-4.1 1.5l-.3-2.2c.8-.1 1.4-.3 1.9-.5s.9-.5 1.2-.9c.3-.4.6-.9.8-1.5h-1l-3.9-12.2h3.1l2.7 10.3 2.8-10.3h3.1l-4.1 12.3zM261.2 660.5c-.5-.5-.8-1.3-.8-2.3v-14.3l3-.3v14.6c0 .6.2.9.7.9.2 0 .5 0 .7-.1l.6 2.1c-.6.3-1.3.4-2 .4-.9-.2-1.7-.4-2.2-1zM277.2 655.8h-7.7c.1 1.2.4 2 .9 2.5s1.2.8 2.1.8c.5 0 1-.1 1.5-.3.5-.2 1-.5 1.5-.8l1.2 1.7c-1.4 1.1-2.9 1.6-4.5 1.6-1.9 0-3.3-.6-4.3-1.7s-1.5-2.7-1.5-4.7c0-1.2.2-2.4.6-3.4.4-1 1.1-1.8 1.9-2.3.8-.6 1.8-.8 2.9-.8 1.7 0 3 .5 4 1.6.9 1.1 1.4 2.6 1.4 4.5.1.2 0 .6 0 1.3zm-2.9-2.1c0-2.1-.8-3.2-2.4-3.2-.7 0-1.3.3-1.7.8-.4.5-.7 1.4-.7 2.6h4.8v-.2zM296.1 655.2v2.3h-1.9v3.6h-2.9v-3.6h-6.6v-2l4.5-10.3 2.5.9-4 9.1h3.6l.3-3.9h2.6v3.9h1.9zM304.3 645.7c.8.4 1.3.9 1.7 1.6.4.7.6 1.4.6 2.2 0 .9-.2 1.7-.6 2.5-.4.8-1 1.7-1.9 2.7s-2.2 2.3-3.9 3.9h6.7l-.3 2.3H297v-2.2c2-2 3.4-3.5 4.2-4.5.9-1 1.5-1.8 1.8-2.5.4-.7.5-1.4.5-2.1 0-.7-.2-1.3-.6-1.7-.4-.4-1-.6-1.6-.6-.6 0-1.1.1-1.6.4-.5.3-.9.7-1.4 1.3l-1.8-1.4c1.3-1.7 3-2.5 5-2.5 1.1.1 2 .2 2.8.6z"/><g><path class="st18" d="M68.6 703v15.6h-2.9V706l-3.5 2.1-1.3-2L66 703h2.6zM93 706.4v12.2H78.3v-12.2h2.8v10h3.2v-10H87v10h3.2v-10H93zM105.5 706.4l-.4 2.3h-3.6v10h-3v-10h-3.8v-2.3h10.8z"/></g><g><path class="st18" d="M429.9 703v15.6H427V706l-3.5 2.1-1.3-2 5.1-3.1h2.6zM444.4 714.4c0 .8-.2 1.6-.7 2.3s-1.2 1.2-2 1.6c-.9.4-1.9.6-3 .6s-2.1-.2-3-.6c-.8-.4-1.5-.9-2-1.6-.5-.7-.7-1.4-.7-2.3 0-1.8 1-3.1 3-3.9-1.6-.8-2.3-2.1-2.3-3.7 0-.8.2-1.5.7-2.2.5-.6 1.1-1.1 1.8-1.4.8-.3 1.6-.5 2.6-.5.9 0 1.8.2 2.6.5s1.4.8 1.8 1.4c.5.6.7 1.3.7 2.2 0 1.5-.9 2.6-2.6 3.5 2 .9 3.1 2.3 3.1 4.1zm-3.7 1.7c.5-.4.7-1 .7-1.7s-.2-1.3-.6-1.7c-.4-.4-1.2-.8-2.2-1.2l-.7-.3c-1.2.7-1.9 1.7-1.9 3.1 0 .7.2 1.3.7 1.7.5.4 1.2.6 2 .6.8.1 1.5-.1 2-.5zm-3.6-10.7c-.4.4-.6.9-.6 1.5s.2 1.1.6 1.5c.4.4 1 .7 1.8 1l.4.2c.6-.4 1-.8 1.3-1.2.3-.4.4-.9.4-1.5s-.2-1.1-.6-1.5-.9-.5-1.6-.5c-.8-.1-1.3.1-1.7.5zM461.8 704.8c.9 1.4 1.4 3.4 1.4 6s-.5 4.6-1.4 6c-.9 1.4-2.3 2.1-4.1 2.1-1.8 0-3.2-.7-4.1-2.1-.9-1.4-1.4-3.4-1.4-6s.5-4.6 1.4-6c.9-1.4 2.3-2.1 4.1-2.1 1.8.1 3.1.7 4.1 2.1zm-6.1 1.5c-.4.9-.6 2.4-.6 4.5s.2 3.6.6 4.5 1 1.3 1.9 1.3 1.5-.4 1.9-1.3c.4-.9.6-2.4.6-4.5s-.2-3.6-.6-4.5c-.4-.9-1-1.3-1.9-1.3s-1.5.4-1.9 1.3zM475 704.8c.9 1.4 1.4 3.4 1.4 6s-.5 4.6-1.4 6c-.9 1.4-2.3 2.1-4.1 2.1-1.8 0-3.2-.7-4.1-2.1-.9-1.4-1.4-3.4-1.4-6s.5-4.6 1.4-6c.9-1.4 2.3-2.1 4.1-2.1 1.8.1 3.2.7 4.1 2.1zm-6 1.5c-.4.9-.6 2.4-.6 4.5s.2 3.6.6 4.5 1 1.3 1.9 1.3 1.5-.4 1.9-1.3c.4-.9.6-2.4.6-4.5s-.2-3.6-.6-4.5c-.4-.9-1-1.3-1.9-1.3s-1.5.4-1.9 1.3zM488.3 704.8c.9 1.4 1.4 3.4 1.4 6s-.5 4.6-1.4 6c-.9 1.4-2.3 2.1-4.1 2.1-1.8 0-3.2-.7-4.1-2.1-.9-1.4-1.4-3.4-1.4-6s.5-4.6 1.4-6c.9-1.4 2.3-2.1 4.1-2.1 1.7.1 3.1.7 4.1 2.1zm-6.1 1.5c-.4.9-.6 2.4-.6 4.5s.2 3.6.6 4.5 1 1.3 1.9 1.3 1.5-.4 1.9-1.3c.4-.9.6-2.4.6-4.5s-.2-3.6-.6-4.5c-.4-.9-1-1.3-1.9-1.3s-1.5.4-1.9 1.3z"/></g></g></svg>