<svg id="Layer_1" xmlns="http://www.w3.org/2000/svg" viewBox="0 0 1440 1080"><style>.st0{fill:#cbd5de}.st1{fill:#26282a}.st2{fill:#fff}.st3{fill:#e6a144}.st4{fill:#c84c44}.st5{fill:#f3c848}.st6{fill:#000105}.st7{fill:#535456}.st8{opacity:.94;fill:#fff;enable-background:new}.st9{fill:#7e7f80}.st10{fill:#e4e8ee}.st11{fill:#4c6eae}.st12{fill:#bf4e45}.st13{fill:#55915d}.st14{fill:#b5c3d1}.st15{opacity:.2;enable-background:new}.st16{fill:#344261}.st17{enable-background:new}</style><path class="st0" d="M0 64h1440v1016H0z"/><path class="st1" d="M0 0h1440v64H0z"/><path class="st2" d="M80 20.5c-7.4 0-11.5 5.2-11.5 11.5S72.4 43.5 80 43.5c7.7 0 11.5-5.2 11.5-11.5s-4-11.5-11.5-11.5zM80 39c-4.1 0-6.3-3.1-6.3-7s2.1-7 6.3-7 6.3 3.1 6.3 7-2.2 7-6.3 7zM65.3 28.5c0-5.6-3.1-7.6-10-7.6h-10v22.2h5.2v-6.7H55l5.2 6.7h6l-5.9-7.4c3.3-1.2 5-3.4 5-7.2zm-10.8 3.4h-4.1v-6.3h4.4c2.9 0 5.2-.1 5.2 3.1.1 3.2-2.6 3.2-5.5 3.2zM148.3 20.9h-4.2L135 43.1h5.2l1.7-4.2h8.8l1.7 4.2h5.2l-9.3-22.2zm-4.8 13.9l2.7-6.6 2.7 6.6h-5.4zM105.6 29.7c-4.1-1-5.2-1.5-5.2-2.9 0-1.1 1.1-2 3.1-2 4.4 0 7 1.4 7 1.4l2-4.1s-2.9-1.7-9-1.7c-4.9 0-8.4 2.7-8.4 6.7 0 4.5 3.1 5.8 7.9 6.9 3.9 1 4.8 1.5 4.8 2.8 0 1.4-1.3 2.2-3.5 2.2-4.4 0-8.1-2-8.1-2l-1.8 4.2s3.4 2.1 9.8 2.1c5.2 0 8.7-2.5 8.7-7 .3-3.7-2.5-5.3-7.3-6.6zM135.6 25.4l2-4.5h-20.2l-2.3 4.5h8.5v17.7h5.2V25.4z"/><path class="st3" d="M40 25.4v-4.5H28.8l-1 4.5z"/><path class="st2" d="M33.1 38.5l-1 4.6H40v-4.6z"/><path class="st4" d="M22 34.2h18v-4.5H23z"/><g><path class="st2" d="M692.6 19.6v24.6h-5.1V24.6l-5.3 3.4-2.2-3.5 8.1-4.9h4.5zM713.1 22.4c1.5 2.2 2.2 5.3 2.2 9.5s-.7 7.3-2.2 9.5c-1.5 2.2-3.8 3.4-6.7 3.4-2.9 0-5.2-1.1-6.7-3.4-1.5-2.2-2.2-5.3-2.2-9.5s.7-7.3 2.2-9.5c1.5-2.2 3.8-3.2 6.7-3.2 2.9-.1 5.2 1.1 6.7 3.2zm-8.8 1.4c-.6.6-1 1.5-1.1 2.8-.3 1.3-.4 3.1-.4 5.2 0 2.2.1 3.9.4 5.2.3 1.3.7 2.2 1.1 2.8.6.6 1.3.8 2.1.8s1.5-.3 2.1-.8c.6-.6 1-1.5 1.3-2.8.3-1.3.4-3.1.4-5.3s-.1-4.1-.4-5.3c-.3-1.3-.7-2.2-1.3-2.8-.6-.6-1.3-.8-2.1-.8-.9.1-1.6.4-2.1 1zM724.5 23.2c.6.6.8 1.4.8 2.2 0 .8-.3 1.5-.8 2.2-.6.6-1.4 1-2.2 1s-1.5-.3-2.2-1c-.6-.6-.8-1.4-.8-2.2 0-.8.3-1.5.8-2.2.6-.6 1.4-.8 2.2-.8.8 0 1.6.3 2.2.8zm0 12.8c.6.6.8 1.4.8 2.2s-.3 1.5-.8 2.2c-.6.6-1.4 1-2.2 1s-1.5-.3-2.2-1c-.6-.6-.8-1.4-.8-2.2s.3-1.5.8-2.2c.6-.6 1.4-.8 2.2-.8s1.6.2 2.2.8zM741.1 20c1.3.6 2.1 1.3 2.7 2.2.6 1 1 2 1 3.2 0 1.5-.4 2.7-1.3 3.7-.8 1-2 1.7-3.5 2.1 1.7.1 2.9.7 4.1 1.8 1 1 1.5 2.4 1.5 4.2 0 1.4-.4 2.7-1.1 3.8-.7 1.1-1.8 2.1-3.1 2.7-1.4.7-3.1 1-4.9 1-3.5 0-6.2-1.3-8.1-3.7l2.8-2.7c.8.8 1.7 1.4 2.4 1.8.8.4 1.7.6 2.7.6 1.3 0 2.2-.3 2.9-1 .7-.7 1.1-1.7 1.1-2.8 0-1.3-.4-2.2-1.1-2.8-.7-.6-1.8-.8-3.2-.8h-2l.6-3.7h1.4c1.1 0 2.1-.3 2.7-.8.7-.6 1-1.4 1-2.5 0-1-.3-1.7-1-2.2-.6-.6-1.4-.8-2.5-.8-1 0-1.8.1-2.5.6-.8.3-1.5.8-2.2 1.5l-2.5-2.8c2.2-2.1 4.9-3.2 8-3.2 1.4-.3 2.8 0 4.1.6zM763.1 23.4H754V29c1.1-.6 2.4-.8 3.7-.8 1.4 0 2.5.3 3.7 1 1.1.6 1.8 1.5 2.5 2.8.6 1.3.8 2.7.8 4.2 0 1.7-.4 3.2-1.1 4.5-.8 1.3-1.8 2.2-3.2 3.1-1.4.7-3.1 1.1-4.9 1.1-3.1 0-5.8-1.1-8-3.5l2.9-2.7c1.4 1.5 2.9 2.4 4.9 2.4 1.4 0 2.4-.4 3.1-1.3s1.1-2 1.1-3.5c0-2.9-1.3-4.4-3.7-4.4-.6 0-1 0-1.5.1-.4.1-1 .4-1.5.7h-3.7v-13h14.6l-.6 3.7z"/></g><g><path class="st5" d="M1414.3 51.1h-97.5c-2.9 0-5.2-2.4-5.2-5.2V18.1c0-2.9 2.4-5.2 5.2-5.2h97.5c2.9 0 5.2 2.4 5.2 5.2v27.8c.2 2.9-2.2 5.2-5.2 5.2z"/><path class="st6" d="M1349.2 37v-5.2h-4.2V37h-2.2V25.4h2.2V30h4.2v-4.6h2.2V37h-2.2zM1360.8 35.4c.1.1.3.3.6.4l-.4 1.4c-.6 0-1-.1-1.3-.4-.3-.1-.6-.6-.7-1-.3.4-.7.8-1.1 1-.4.3-1 .3-1.5.3-.8 0-1.5-.3-2.1-.7-.6-.6-.8-1.1-.8-2 0-1 .3-1.7 1.1-2.2.7-.6 1.7-.7 2.9-.7h1.1v-.6c0-.6-.1-1-.4-1.3-.3-.3-.7-.3-1.3-.3-.7 0-1.4.1-2.4.4l-.6-1.4c1.1-.4 2.2-.7 3.2-.7 2.2 0 3.4 1 3.4 3.1v3.8c.2.4.2.7.3.9zm-2.2-.9v-1.8h-.8c-1.4 0-2.1.6-2.1 1.5 0 .4.1.7.3 1 .1.3.6.4 1 .4.6 0 1.2-.2 1.6-1.1zM1368.3 28.5c.7.4 1 1 1 1.8 0 .6-.1 1-.4 1.3s-.8.6-1.4.7c.8.1 1.4.4 1.8.7.4.3.6.8.6 1.4 0 1-.4 1.7-1.1 2.1-.7.4-1.7.7-2.8.7-1.4 0-2.5-.4-3.5-1.1l1.1-1.3c.4.3.8.4 1.1.6s.8.1 1.3.1c1.3 0 1.8-.4 1.8-1.3s-.7-1.3-2-1.3h-1.3l.1-1.5h1c.6 0 1-.1 1.3-.3s.4-.6.4-.8c0-.4-.1-.7-.4-.8s-.6-.3-1.1-.3c-.4 0-.8 0-1.1.1s-.7.3-1 .6l-1-1.3c.4-.3 1-.6 1.5-.8.6-.1 1.1-.3 1.8-.3.9.3 1.6.6 2.3 1zM1378.2 35.4c.1.1.3.3.6.4l-.4 1.4c-.6 0-1-.1-1.3-.4-.3-.1-.6-.6-.7-1-.3.4-.7.8-1.1 1-.4.3-1 .3-1.5.3-.8 0-1.5-.3-2.1-.7-.6-.6-.8-1.1-.8-2 0-1 .3-1.7 1.1-2.2.7-.6 1.7-.7 2.9-.7h1.1v-.6c0-.6-.1-1-.4-1.3-.3-.3-.7-.3-1.3-.3-.7 0-1.4.1-2.4.4l-.6-1.4c1.1-.4 2.2-.7 3.2-.7 2.2 0 3.4 1 3.4 3.1v3.8c.2.4.3.7.3.9zm-2.2-.9v-1.8h-.8c-1.4 0-2.1.6-2.1 1.5 0 .4.1.7.3 1 .1.3.6.4 1 .4.6 0 1.2-.2 1.6-1.1zM1388.5 35.4v4.4h-1.5l-.3-2.7h-5.3l-.3 2.7h-1.5v-4.4h.6c.3-.1.4-.3.6-.6.1-.3.3-.6.4-1.1s.3-1.4.3-2.4l.3-3.1h6v7.3h.8l-.1-.1zm-3.1-5.8h-2l-.1 1.4c-.1 1-.1 1.7-.3 2.2-.1.6-.3 1-.4 1.3s-.4.6-.8.8h3.7v-5.7z"/></g><g><circle class="st7" cx="1274.7" cy="32" r="18.8"/><path class="st8" d="M1274.7 36.5c3.7 0 6.5-3.5 6.5-7.9s-1-7.9-6.5-7.9-6.5 3.4-6.5 7.7c.1 4.6 3 8.1 6.5 8.1zM1274.7 50.8c4.8 0 9-1.7 12.4-4.6-.3-6-1.8-6.5-8.7-7.7 0 0-1.1 1.4-3.5 1.4s-3.5-1.4-3.5-1.4c-7 1.3-8.4 1.8-8.7 7.9 3.2 2.7 7.4 4.4 12 4.4z"/></g><g><path class="st9" d="M1220 36.8h-1.3v-4.6c0-1.1 0-2.2.1-3.5l-3.9 8.1h-1.7v-9.7h1.3v4.6c0 1.3 0 2.5-.1 3.5l3.9-8.1h1.7v9.7zM1228.4 34.6c0 .8-.3 1.4-.8 1.7-.6.4-1.3.6-2.2.6h-2.7v-7.3c.8-.1 1.7-.3 2.4-.3 1 0 1.7.1 2.1.6.6.3.8.8.8 1.5 0 .4-.1.7-.4 1-.3.3-.6.4-1.1.6 1.3-.1 1.9.5 1.9 1.6zm-4.4-4.2v2.1h1.4c.4 0 .8-.1 1-.3s.4-.4.4-.8-.1-.7-.4-.8-.7-.3-1.3-.3c-.4-.1-.8-.1-1.1.1zm2.7 5.2c.3-.1.4-.6.4-1s-.1-.7-.4-.8c-.3-.1-.7-.3-1.3-.3h-1.4v2.4h1.4c.5 0 .9-.2 1.3-.3zM1235.5 35.7c.1.1.3.3.4.3l-.3.8c-.4 0-.7-.1-1-.3s-.4-.4-.6-.8c-.6.7-1.3 1.1-2.2 1.1-.7 0-1.3-.1-1.7-.6-.4-.4-.6-1-.6-1.5 0-.8.3-1.4.8-1.8.6-.4 1.4-.6 2.4-.6h1.1v-.6c0-.6-.1-.8-.4-1.1-.3-.3-.7-.3-1.1-.3-.6 0-1.3.1-2 .4l-.3-1c1-.3 1.8-.6 2.5-.6.8 0 1.5.3 2 .7.4.4.7 1 .7 1.8V35c.2.4.2.6.3.7zm-1.4-.8v-1.7h-1c-1.4 0-2.1.6-2.1 1.5 0 .4.1.7.3 1 .3.3.6.3 1 .3.9 0 1.4-.4 1.8-1.1zM1242.4 36.8v-3.2h-3.1v3.2h-1.3v-7.3h1.3v3.1h3.1v-3.1h1.3v7.3h-1.3z"/></g><g><path class="st5" d="M188.2 25.8c.8.6 1.3 1.5 1.3 2.8 0 1.3-.4 2.2-1.3 2.9-.8.7-2 1-3.4 1h-1.4v4.1h-2.1V24.9h3.4c1.5-.1 2.6.2 3.5.9zm-1.7 4.5c.4-.3.6-.8.6-1.7 0-1.4-.8-2.1-2.4-2.1h-1.3v4.2h1.3c.8 0 1.4-.2 1.8-.4zM198 32.6h-5.6c0 .8.3 1.5.7 1.8.4.4.8.6 1.5.6.4 0 .7 0 1.1-.1.3-.1.7-.3 1.1-.6l.8 1.3c-1 .8-2.1 1.3-3.4 1.3-1.4 0-2.4-.4-3.1-1.3s-1.1-2-1.1-3.4c0-.8.1-1.7.4-2.4s.7-1.3 1.4-1.7c.6-.4 1.3-.6 2.1-.6 1.3 0 2.2.4 2.9 1.1.7.8 1 2 1 3.4.2-.1.2.2.2.6zm-2.1-1.5c0-1.5-.6-2.4-1.7-2.4-.6 0-1 .1-1.3.6s-.4 1-.6 1.8h3.6zM210.5 27.4l-2.1 4.2 2.4 4.8h-2.2l-1.8-3.9h-1v3.9h-2v-3.9h-1l-1.8 3.9h-2.2l2.4-4.8-2.1-4.2h2.1l1.7 3.5h1v-3.5h2V31h1l1.7-3.5h1.9zM219.6 36.4h-2.1v-3.5c0-.7 0-1.3.1-1.8s.1-1 .1-1.3l-3.4 6.7h-2.2v-8.8h2.1v3.5c0 .6 0 1.3-.1 1.8-.1.6-.1 1-.1 1.3l3.2-6.7h2.4v8.8zM231.6 36.4h-2.1l-.3-3.7V31v-1.5l-1.7 6h-1.8l-1.7-6v3.3l-.3 3.7h-2.1l.8-8.8h2.7l1.4 6 1.5-6h2.7l.9 8.7zM242.9 27.4c.4.1.8.4 1.3.8l-1 1.3c-.3-.3-.6-.4-.8-.4-.3-.1-.6-.1-1-.1-1.4 0-2 1-2 3.1 0 1 .1 1.8.6 2.2.3.4.8.7 1.5.7.3 0 .6 0 .8-.1.3-.1.6-.3 1-.4l1 1.4c-.8.7-1.8 1-2.9 1-.8 0-1.5-.1-2.2-.6-.6-.4-1.1-.8-1.4-1.5-.3-.7-.6-1.5-.6-2.5s.1-1.8.6-2.5c.3-.7.8-1.3 1.4-1.7.6-.4 1.4-.6 2.2-.6.5-.2 1.1-.2 1.5-.1zM253.2 27.4l-2.5 4.1 2.8 4.8h-2.4l-2.1-3.9h-1v3.9h-2.1v-8.8h2.1V31h1l2.1-3.5h2.1zM261.9 27.4v8.8h-2.1V29h-2.1l-.3 2.4c-.1 1.3-.3 2.2-.4 2.8-.1.6-.4 1.1-.8 1.4-.4.3-1 .6-1.7.8l-.6-1.5c.4-.1.7-.3.8-.6.1-.1.3-.6.4-1 .1-.4.1-1.1.3-2.1l.3-3.9h6.2v.1zM271.2 34.9c.1.1.3.3.6.4l-.4 1.4c-.6 0-1-.1-1.3-.4-.3-.1-.6-.6-.7-1-.3.4-.7.8-1.1 1-.4.3-1 .3-1.5.3-.8 0-1.5-.3-2.1-.7-.6-.6-.8-1.1-.8-2 0-1 .3-1.7 1.1-2.2.7-.6 1.7-.7 2.9-.7h1.1v-.6c0-.6-.1-1-.4-1.3-.3-.3-.7-.3-1.3-.3-.7 0-1.4.1-2.4.4l-.6-1.4c1.1-.4 2.2-.7 3.2-.7 2.2 0 3.4 1 3.4 3.1V34c.1.5.3.6.3.9zm-2.3-.9v-1.8h-.8c-1.4 0-2.1.6-2.1 1.5 0 .4.1.7.3 1 .1.3.6.4 1 .4.6.1 1.2-.4 1.6-1.1zM281.4 34.7v4.4h-1.5l-.3-2.7h-5.3l-.3 2.7h-1.5v-4.4h.6c.3-.1.4-.3.6-.6.1-.3.3-.6.4-1.1.1-.6.3-1.4.3-2.4l.3-3.1h6v7.3h.8v-.1zm-3.1-5.7h-2l-.1 1.4c-.1 1-.1 1.7-.3 2.2s-.3 1-.4 1.3-.4.6-.8.8h3.7V29zM289.8 34.9c.1.1.3.3.6.4l-.4 1.4c-.6 0-1-.1-1.3-.4-.3-.1-.6-.6-.7-1-.3.4-.7.8-1.1 1-.4.3-1 .3-1.5.3-.8 0-1.5-.3-2.1-.7-.6-.6-.8-1.1-.8-2 0-1 .3-1.7 1.1-2.2.7-.6 1.7-.7 2.9-.7h1.1v-.6c0-.6-.1-1-.4-1.3-.3-.3-.7-.3-1.3-.3-.7 0-1.4.1-2.4.4l-.6-1.4c1.1-.4 2.2-.7 3.2-.7 2.2 0 3.4 1 3.4 3.1V34c.2.5.2.6.3.9zm-2.3-.9v-1.8h-.8c-1.4 0-2.1.6-2.1 1.5 0 .4.1.7.3 1 .1.3.6.4 1 .4.6.1 1.3-.4 1.6-1.1z"/></g><g><path class="st2" d="M1406.7 358.1H33.5c-6.7 0-12.2-5.5-12.2-12.2V220.6c0-6.7 5.5-12.2 12.2-12.2h1373.1c6.7 0 12.2 5.5 12.2 12.2v125.3c-.1 6.7-5.4 12.2-12.1 12.2z"/><path class="st10" d="M521.1 328.6H60c-4.2 0-7.6-3.4-7.6-7.6v-43.4c0-4.2 3.4-7.6 7.6-7.6h461.1c4.2 0 7.6 3.4 7.6 7.6v43.3c0 4.2-3.4 7.7-7.6 7.7z"/><path class="st6" d="M66.9 236.8v17.4h-2.4v-15.4h-7.2v15.4H55v-17.4h11.9zM81.2 242.4c1 1.3 1.5 2.9 1.5 5.1 0 1.4-.3 2.7-.7 3.7-.4 1.1-1.1 1.8-2.1 2.4-.8.6-2 .8-3.2.8-1.8 0-3.4-.6-4.4-1.8-1-1.3-1.5-2.9-1.5-5.1 0-1.4.3-2.7.7-3.7.4-1 1.1-1.8 2.1-2.4.8-.6 2-.8 3.2-.8 2 0 3.4.5 4.4 1.8zm-7.7 5.1c0 3.4 1.1 5.1 3.4 5.1 2.2 0 3.4-1.7 3.4-5.1 0-3.4-1.1-5.1-3.4-5.1s-3.4 1.7-3.4 5.1zM93.7 240.9c.7.3 1.3.6 2 1.1l-1.1 1.4c-.4-.3-1-.6-1.4-.7-.4-.1-1-.3-1.5-.3-1.1 0-2 .4-2.5 1.3-.6.8-.8 2.1-.8 3.8s.3 2.9.8 3.8c.6.8 1.4 1.3 2.5 1.3.6 0 1-.1 1.4-.3.4-.1 1-.4 1.4-.7l1.1 1.5c-1.3 1-2.5 1.4-4.1 1.4-1.8 0-3.2-.6-4.2-1.8-1-1.3-1.5-2.9-1.5-5.1 0-1.4.3-2.7.7-3.7.4-1.1 1.1-1.8 2-2.5.8-.6 2-.8 3.1-.8.7 0 1.4.1 2.1.3zM107.8 240.9l-.3 2h-4.2v11.4h-2.4v-11.4h-4.4v-2h11.3zM118.4 252.2c.1.3.4.4.8.6l-.6 1.7c-.7-.1-1.3-.3-1.7-.6-.4-.3-.7-.8-1-1.4-.8 1.3-2.2 2-3.9 2-1.3 0-2.4-.4-3.1-1.1-.7-.7-1.1-1.7-1.1-2.9 0-1.4.6-2.5 1.5-3.2 1-.7 2.5-1.1 4.4-1.1h2v-1c0-1-.3-1.7-.7-2s-1.1-.6-2.1-.6-2.1.3-3.7.7l-.6-1.7c1.7-.6 3.2-.8 4.6-.8 1.5 0 2.8.4 3.5 1.1.8.7 1.1 1.8 1.1 3.2v6c.4.4.4.8.6 1.1zm-2.6-1.5v-3.1h-1.7c-2.5 0-3.7.8-3.7 2.7 0 .8.1 1.4.6 1.8.4.4 1 .6 1.7.6 1.2-.1 2.4-.6 3.1-2zM133.3 250.1c0 1.4-.6 2.4-1.5 3.1s-2.4 1-4.1 1h-4.8V241c1.5-.3 3.1-.4 4.4-.4 1.7 0 2.9.3 3.9 1 1 .6 1.4 1.5 1.4 2.7 0 .7-.3 1.4-.7 1.8-.4.4-1.1.8-2 1 2.3.1 3.4 1.1 3.4 3zm-8.1-7.6v3.8h2.5c.8 0 1.4-.1 1.8-.4.4-.3.7-.8.7-1.5s-.3-1.1-.7-1.4c-.4-.3-1.3-.4-2.2-.4-.7-.3-1.4-.2-2.1-.1zm4.7 9.3c.6-.3.8-1 .8-1.8 0-.7-.3-1.3-.7-1.5-.4-.3-1.3-.4-2.4-.4h-2.5v4.4h2.5c1.1-.1 1.8-.3 2.3-.7zM152.4 252.2h2v5.6h-1.8l-.4-3.8h-15v-13.3h2.2v11.5h4.2v-11.5h2.2v11.5h4.2v-11.5h2.2v11.5h.2zM167.6 254.2h-2.2v-6c0-1 0-2 .1-2.9 0-.8.1-1.5.1-1.8l-5.6 10.7h-2.8v-13.3h2.2v6c0 .8 0 1.8-.1 2.8 0 1-.1 1.5-.1 1.8l5.5-10.7h2.8v13.5h.1zM182.5 240.9l-4.1 6.2 4.5 7.2h-2.8l-3.7-6.2h-1.7v6.2h-2.4V241h2.4v5.3h1.7l3.4-5.3h2.7zM589.6 236.8l-4.8 8.1 5.3 9.3h-2.8l-4.5-8.1h-2.4v8.1H578v-17.4h2.4v7.3h2.4l4.4-7.3h2.4zM601.8 242.4c1 1.3 1.5 2.9 1.5 5.1 0 1.4-.3 2.7-.7 3.7-.4 1.1-1.1 1.8-2.1 2.4-.8.6-2 .8-3.2.8-1.8 0-3.4-.6-4.4-1.8-1-1.3-1.5-2.9-1.5-5.1 0-1.4.3-2.7.7-3.7.4-1 1.1-1.8 2.1-2.4.8-.6 2-.8 3.2-.8 1.9 0 3.3.5 4.4 1.8zm-7.8 5.1c0 3.4 1.1 5.1 3.4 5.1s3.4-1.7 3.4-5.1c0-3.4-1.1-5.1-3.4-5.1s-3.4 1.7-3.4 5.1zM620.2 254.2H618l-.6-6.3c0-.7-.1-1.4-.1-2.2v-2.5l-3.1 9.5H612l-2.8-9.5c0 2.2 0 3.8-.1 4.8l-.4 6.3h-2.2l1.1-13.3h2.9l2.7 9.5 2.8-9.5h3.1l1.1 13.2zM637.2 254.2H635l-.6-6.3c0-.7-.1-1.4-.1-2.2v-2.5l-3.1 9.5H629l-2.8-9.5c0 2.2 0 3.8-.1 4.8l-.4 6.3h-2.2l1.1-13.3h2.9l2.7 9.5 2.8-9.5h3.1l1.1 13.2zM651.1 248.3h-8.4c.1 1.4.4 2.5 1.1 3.2.7.7 1.4 1 2.5 1 .7 0 1.3-.1 1.8-.3.6-.1 1.1-.4 1.7-.8l1 1.4c-1.4 1.1-2.9 1.7-4.6 1.7-1.8 0-3.2-.6-4.4-1.8-1.1-1.3-1.5-2.9-1.5-5.1 0-1.4.3-2.7.7-3.7.4-1.1 1.1-2 2-2.5.8-.6 1.8-.8 2.9-.8 1.8 0 3.1.6 4.1 1.7 1 1.1 1.4 2.8 1.4 4.8-.3.4-.3.8-.3 1.2zm-2.2-1.8c0-1.3-.3-2.4-.8-2.9-.6-.7-1.3-1-2.4-1-2 0-2.9 1.4-3.1 4.2h6.2v-.3h.1zM662.8 254.2v-5.9h-5.5v5.9h-2.4v-13.3h2.4v5.6h5.5v-5.6h2.4v13.3h-2.4zM678.9 240.9l-.3 2h-4.2v11.4H672v-11.4h-4.4v-2h11.3zM689.5 252.2c.1.3.4.4.8.6l-.6 1.7c-.7-.1-1.3-.3-1.7-.6-.4-.3-.7-.8-1-1.4-.8 1.3-2.2 2-3.9 2-1.3 0-2.4-.4-3.1-1.1-.7-.7-1.1-1.7-1.1-2.9 0-1.4.6-2.5 1.5-3.2 1-.7 2.5-1.1 4.4-1.1h2.1v-1c0-1-.3-1.7-.7-2-.4-.3-1.1-.6-2.1-.6s-2.1.3-3.7.7l-.6-1.7c1.7-.6 3.2-.8 4.6-.8 1.5 0 2.8.4 3.5 1.1.8.7 1.1 1.8 1.1 3.2v6c.2.4.3.8.5 1.1zm-2.6-1.5v-3.1h-1.7c-2.5 0-3.7.8-3.7 2.7 0 .8.1 1.4.6 1.8.4.4 1 .6 1.7.6 1.3-.1 2.3-.6 3.1-2zM703.9 242.4c.8 1.3 1.1 2.9 1.1 5.2 0 2.1-.4 3.8-1.4 5.1-.8 1.3-2.2 2-3.9 2-1.5 0-2.7-.6-3.5-1.5v6.3l-2.4.3V241h2l.1 1.8c.4-.7 1.1-1.1 1.8-1.5.7-.4 1.4-.6 2.1-.6 2-.1 3.3.4 4.1 1.7zm-1.4 5.1c0-3.4-1-5.1-2.9-5.1-.7 0-1.3.1-1.8.6-.6.4-1 .8-1.4 1.5v6.5c.3.6.7 1 1.3 1.3.6.3 1.1.4 1.7.4 2-.2 3.1-1.9 3.1-5.2zM719.4 254.2h-2.2v-6c0-1 0-2 .1-2.9 0-.8.1-1.5.1-1.8l-5.6 10.7H709v-13.3h2.2v6c0 .8 0 1.8-.1 2.8 0 1-.1 1.5-.1 1.8l5.5-10.7h2.8v13.5h.1zM734.5 254.2h-2.2v-6c0-1 0-2 .1-2.9 0-.8.1-1.5.1-1.8l-5.6 10.7h-2.8v-13.3h2.2v6c0 .8 0 1.8-.1 2.8 0 1-.1 1.5-.1 1.8l5.5-10.7h2.8v13.5h.1zM499.4 296.3l5.8 10.1c.6 1.1 2.1 1.1 2.8 0l5.8-10.1c.3-.6-.1-1.3-.7-1.3h-12.6c-.9.1-1.3.8-1.1 1.3zM88.8 289.9l-.4 2.7h-4.5v14.7h-3.4v-14.7h-4.6v-2.7h12.9zM100.9 290.4c1.1.7 2 1.7 2.7 3.1.6 1.4 1 2.9 1 4.9s-.3 3.5-1 4.9c-.6 1.4-1.5 2.4-2.7 3.1-1.1.7-2.5 1.1-4.1 1.1s-2.9-.4-4.1-1.1c-1.1-.7-2-1.7-2.7-3.1-.6-1.4-1-2.9-1-4.9 0-1.8.3-3.5 1-4.9.6-1.4 1.5-2.4 2.7-3.1s2.5-1.1 4.1-1.1c1.6.1 3 .4 4.1 1.1zm-7.2 3.1c-.7 1.1-1.1 2.7-1.1 5.1 0 4.4 1.4 6.6 4.2 6.6 1.4 0 2.4-.6 3.1-1.5.7-1 1-2.7 1-5.1 0-2.2-.3-3.9-1-4.9-.7-1-1.7-1.5-3.1-1.5s-2.4.3-3.1 1.3zM118.3 290.4c1.1.7 2 1.7 2.7 3.1.6 1.4 1 2.9 1 4.9s-.3 3.5-1 4.9c-.6 1.4-1.5 2.4-2.7 3.1-1.1.7-2.5 1.1-4.1 1.1-1.5 0-2.9-.4-4.1-1.1-1.1-.7-2-1.7-2.7-3.1-.6-1.4-1-2.9-1-4.9 0-1.8.3-3.5 1-4.9.6-1.4 1.5-2.4 2.7-3.1 1.1-.7 2.5-1.1 4.1-1.1 1.6.1 3 .4 4.1 1.1zm-7.2 3.1c-.7 1.1-1.1 2.7-1.1 5.1 0 4.4 1.4 6.6 4.2 6.6 1.4 0 2.4-.6 3.1-1.5.7-1 1-2.7 1-5.1 0-2.2-.3-3.9-1-4.9-.7-1-1.7-1.5-3.1-1.5s-2.4.3-3.1 1.3zM135 293.4l2 1.4-3.4 5.2 3.4 5.3-2 1.3-4.6-5.5V299l4.6-5.6zm6.5 0l2 1.4-3.4 5.2 3.4 5.3-2 1.3-4.6-5.5V299l4.6-5.6zM159.4 289.9v17.4H156v-14.7h-6.2v14.7h-3.4v-17.4h13zM174 295.3c.8 1.3 1.3 2.9 1.3 5.2 0 1.4-.1 2.7-.6 3.7-.4 1.1-1 2-1.8 2.5-.8.6-1.7.8-2.8.8-1.4 0-2.5-.4-3.4-1.4v6.2l-3.2.4v-18.8h2.8l.1 1.7c.6-.7 1.1-1.1 1.8-1.5.7-.3 1.4-.6 2.1-.6 1.8 0 2.9.6 3.7 1.8zm-2.1 5.2c0-1.7-.1-2.8-.6-3.5-.4-.7-1.1-1.1-2-1.1-.6 0-1 .1-1.5.6-.6.4-.8.7-1.3 1.3v6c.6 1 1.4 1.4 2.4 1.4 2.1 0 3-1.6 3-4.7zM189.6 307.3h-3.1V302c0-1 0-2 .1-2.8.1-.8.1-1.5.3-2l-4.9 10.1h-3.5V294h3.1v5.3c0 1 0 1.8-.1 2.8-.1.8-.1 1.5-.3 2l4.9-10.1h3.5v13.3zM207.5 307.3h-3.1l-.4-5.5c0-.8-.1-1.7-.1-2.7v-2.4l-2.5 9h-2.8l-2.4-9c0 1 .1 1.8.1 2.7v2.2l-.4 5.5h-3.1l1.1-13.3h3.9l2.1 9 2.4-9h3.9l1.3 13.5zM223.5 304.6v6.6h-2.4l-.4-3.9h-9.5l-.4 3.9h-2.4v-6.6h1.3c.4-.4.7-1 1-1.5s.4-1.5.7-2.7c.1-1.1.4-2.9.7-5.2l.7-5.3h9.5v14.9h1.3v-.2zm-4.8-12.2h-3.4l-.3 2.7c-.3 2.2-.4 3.9-.7 5.1-.3 1.3-.6 2.1-.8 2.8-.3.7-.7 1.3-1.3 1.7h6.6v-12.2h-.1zM237.4 307.3h-3.1V302c0-1 0-2 .1-2.8.1-.8.1-1.5.3-2l-4.9 10.1h-3.5V294h3.1v5.3c0 1 0 1.8-.1 2.8-.1.8-.1 1.5-.3 2l4.9-10.1h3.5v13.3zM249 293.9c.7.3 1.4.7 2 1.1l-1.4 2c-.4-.3-.8-.6-1.3-.7-.4-.1-.8-.3-1.4-.3-2 0-2.9 1.5-2.9 4.6 0 1.5.3 2.7.8 3.4.6.7 1.3 1 2.2 1 .4 0 .8-.1 1.3-.3.4-.1.8-.4 1.4-.7l1.4 2.1c-1.3 1-2.7 1.5-4.4 1.5-1.3 0-2.4-.3-3.4-.8-1-.6-1.7-1.4-2.1-2.4-.6-1-.7-2.2-.7-3.7 0-1.4.3-2.7.7-3.8.6-1.1 1.3-2 2.1-2.5 1-.6 2.1-.8 3.4-.8.8-.1 1.6.1 2.3.3zM263.1 293.9l-.4 2.5h-3.9v11h-3.2v-11.1h-4.2v-2.5h11.8v.1zM275.7 295.3c.8 1.3 1.3 2.9 1.3 5.2 0 1.4-.1 2.7-.6 3.7-.4 1.1-1 2-1.8 2.5-.8.6-1.7.8-2.8.8-1.4 0-2.5-.4-3.4-1.4v6.2l-3.2.4v-18.8h2.8l.1 1.7c.6-.7 1.1-1.1 1.8-1.5.7-.3 1.4-.6 2.1-.6 1.6 0 2.9.6 3.7 1.8zm-2.2 5.2c0-1.7-.1-2.8-.6-3.5-.4-.7-1.1-1.1-2-1.1-.6 0-1 .1-1.5.6s-.8.7-1.3 1.3v6c.6 1 1.4 1.4 2.4 1.4 2.1 0 3-1.6 3-4.7zM291.2 307.3h-3.1V302c0-1 0-2 .1-2.8.1-.8.1-1.5.3-2l-4.9 10.1h-3.5V294h3.1v5.3c0 1 0 1.8-.1 2.8-.1.8-.1 1.5-.3 2l4.9-10.1h3.5v13.3zM304.2 295.5c.7.4 1.4 1.3 1.8 2.1.4 1 .7 2.1.7 3.4 0 1.4-.3 2.5-.7 3.5-.4 1-1.3 1.8-2.1 2.2-.8.4-2 .8-3.2.8-2 0-3.4-.7-4.5-2s-1.7-3.2-1.7-5.9c0-2 .1-3.5.4-4.8.3-1.3.8-2.2 1.7-3.1.8-.8 1.8-1.4 3.2-1.8 1-.3 1.8-.7 2.4-.8.6-.3 1.3-.6 2-1l1.3 2.1c-.6.4-1.3.7-1.8 1-.7.3-1.4.6-2.4.8-.8.3-1.4.6-1.8.8-.4.3-.8.8-1.1 1.4-.3.6-.4 1.4-.6 2.5 1-1.5 2.4-2.2 4.2-2.2.5.3 1.5.6 2.2 1zm-1.7 8.8c.6-.6.7-1.7.7-3.2 0-1.4-.1-2.4-.6-2.9-.4-.6-1-.8-1.8-.8-.6 0-1.3.1-1.8.6-.6.3-1 .8-1.4 1.5v1.7c0 1.4.3 2.4.7 3.1.4.7 1.1 1.1 2.1 1.1.9-.2 1.6-.5 2.1-1.1zM318.8 299.3c1 .8 1.4 2 1.4 3.4 0 1.5-.6 2.7-1.5 3.4-1 .8-2.4 1.1-3.9 1.1h-5.1v-13.3h3.2v4.2h1.3c2.1 0 3.7.5 4.6 1.2zm-1.9 3.3c0-.8-.1-1.4-.6-1.8-.4-.4-1.1-.6-2.1-.6h-1.3v4.6h1.5c1.6.2 2.5-.6 2.5-2.2zM337.1 294.4c.8.6 1.5 1.4 2.1 2.4.4 1.1.7 2.4.7 3.8s-.3 2.5-.7 3.7-1.1 2-2.1 2.5c-.8.6-2 .8-3.2.8-1.7 0-2.9-.6-4.1-1.7-1-1.1-1.7-2.5-1.8-4.4h-2v5.6h-3.2v-13.3h3.2v5.3h2.1c.3-1.7.8-3.1 1.8-4.2s2.4-1.5 3.9-1.5c1.3.1 2.3.4 3.3 1zM336 304c.4-.7.6-2 .6-3.5 0-3.1-.8-4.6-2.7-4.6-.8 0-1.5.4-2 1.1-.4.7-.7 2-.7 3.5 0 3.1.8 4.6 2.7 4.6.9.1 1.7-.3 2.1-1.1zM359 293.9v13.3h-16v-13.3h3.1v11h3.5v-11h2.9v11h3.5v-11h3zM370.7 307.3v-5.6h-4.5v5.6H363V294h3.2v5.3h4.5V294h3.2v13.3h-3.2zM378.9 293.4l4.6 5.6v2.1l-4.6 5.5-2-1.3 3.4-5.3-3.4-5.2 2-1.4zm6.2 0l4.6 5.6v2.1l-4.6 5.5-2-1.3 3.4-5.3-3.4-5.2 2-1.4z"/><path class="st10" d="M1352.7 288.5H1323c-1.3 0-2.4 1-2.4 2.4v17.4c0 1.3 1 2.4 2.4 2.4h29.8c1.3 0 2.4-1 2.4-2.4v-17.6c-.1-1.3-1.1-2.2-2.5-2.2zm-10.9 3.8c0-.3.1-.4.4-.4h2.8c.3 0 .4.1.4.4v2.8c0 .3-.1.4-.4.4h-2.8c-.3 0-.4-.1-.4-.4v-2.8zm0 5.7c0-.3.1-.4.4-.4h2.8c.3 0 .4.1.4.4v2.8c0 .3-.1.4-.4.4h-2.8c-.3 0-.4-.1-.4-.4V298zm-5.8-5.7c0-.3.1-.4.4-.4h2.8c.3 0 .4.1.4.4v2.8c0 .3-.1.4-.4.4h-2.8c-.3 0-.4-.1-.4-.4v-2.8zm0 5.7c0-.3.1-.4.4-.4h2.8c.3 0 .4.1.4.4v2.8c0 .3-.1.4-.4.4h-2.8c-.3 0-.4-.1-.4-.4V298zm-5.7-5.7c0-.3.1-.4.4-.4h2.8c.3 0 .4.1.4.4v2.8c0 .3-.1.4-.4.4h-2.8c-.3 0-.4-.1-.4-.4v-2.8zm0 5.7c0-.3.1-.4.4-.4h2.8c.3 0 .4.1.4.4v2.8c0 .3-.1.4-.4.4h-2.8c-.3 0-.4-.1-.4-.4V298zm-5.8-5.7c0-.3.1-.4.4-.4h2.8c.3 0 .4.1.4.4v2.8c0 .3-.1.4-.4.4h-2.8c-.3 0-.4-.1-.4-.4v-2.8zm0 8.5V298c0-.3.1-.4.4-.4h2.8c.3 0 .4.1.4.4v2.8c0 .3-.1.4-.4.4h-2.8c-.2 0-.4-.1-.4-.4zm25 5.5c0 .4-.3.7-.7.7h-21.6c-.4 0-.7-.3-.7-.7V304c0-.4.3-.7.7-.7h21.6c.4 0 .7.3.7.7v2.3zm1.8-5.5c0 .3-.1.4-.4.4h-2.8c-.3 0-.4-.1-.4-.4V298c0-.3.1-.4.4-.4h2.8c.3 0 .4.1.4.4v2.8zm0-5.7c0 .3-.1.4-.4.4h-2.8c-.3 0-.4-.1-.4-.4v-2.8c0-.3.1-.4.4-.4h2.8c.3 0 .4.1.4.4v2.8z"/><path class="st10" d="M1366.4 329.3H586c-6.2 0-11.2-5.1-11.2-11.2v-37.6c0-6.2 5.1-11.2 11.2-11.2h780.4c6.2 0 11.2 5.1 11.2 11.2v37.6c0 6.3-5.1 11.2-11.2 11.2zM586 270.8c-5.3 0-9.8 4.4-9.8 9.8v37.6c0 5.3 4.4 9.8 9.8 9.8h780.4c5.3 0 9.8-4.4 9.8-9.8v-37.6c0-5.3-4.4-9.8-9.8-9.8H586z"/><g><path class="st6" d="M30.9 103.9V96h-6.2v7.9h-3.4V86.5h3.4v7h6.2v-7h3.4v17.4h-3.4zM48.2 92c1.1 1.3 1.7 2.9 1.7 5.2 0 1.4-.3 2.7-.7 3.7-.6 1.1-1.3 2-2.1 2.5-1 .6-2.1.8-3.4.8-2 0-3.5-.6-4.6-1.8-1.1-1.3-1.7-2.9-1.7-5.2 0-1.4.3-2.7.7-3.7.6-1.1 1.3-1.8 2.2-2.5 1-.6 2.1-.8 3.4-.8 2 0 3.5.5 4.5 1.8zm-7.4 5.2c0 1.5.3 2.8.7 3.5.4.7 1.3 1.1 2.1 1.1 1 0 1.7-.4 2.1-1.1.4-.7.7-2 .7-3.5s-.3-2.7-.7-3.5c-.4-.7-1.1-1.1-2.1-1.1-1.8-.1-2.8 1.5-2.8 4.6zM66.9 103.9h-3.1l-.4-5.5c0-.8-.1-1.7-.1-2.7v-2.4l-2.5 9.1H58l-2.4-9c0 1 .1 1.8.1 2.7v2.2l-.4 5.5h-3.1l1.1-13.3h3.9l2.1 9 2.4-9h3.9l1.3 13.4zM80.8 98.2h-8.4c.1 1.3.4 2.2 1 2.8.6.6 1.3.8 2.2.8.6 0 1.1-.1 1.7-.3.6-.1 1.1-.6 1.7-.8l1.4 1.8c-1.5 1.3-3.1 1.8-4.9 1.8-2.1 0-3.7-.6-4.8-1.8s-1.7-2.9-1.7-5c0-1.4.3-2.5.7-3.7.4-1.1 1.1-2 2.1-2.5.8-.6 2-1 3.2-1 1.8 0 3.4.6 4.4 1.8 1 1.1 1.5 2.8 1.5 4.9 0 0 0 .5-.1 1.2zm-3.1-2.3c0-2.4-.8-3.5-2.7-3.5-.8 0-1.4.3-1.8.8-.4.6-.7 1.5-.8 2.8h5.2v-.1h.1zM94.4 92c.8 1.3 1.3 2.9 1.3 5.2 0 1.4-.1 2.7-.6 3.7-.4 1.1-1 2-1.8 2.5-.8.6-1.7.8-2.8.8-1.4 0-2.5-.4-3.4-1.4v6.2l-3.2.4V90.6h2.8l.1 1.7c.6-.7 1.1-1.1 1.8-1.5.7-.3 1.4-.6 2.1-.6 1.8 0 3 .5 3.7 1.8zm-2.1 5.2c0-1.7-.1-2.8-.6-3.5-.4-.7-1.1-1.1-2-1.1-.6 0-1 .1-1.5.6-.6.4-.8.7-1.3 1.3v6c.6 1 1.4 1.4 2.4 1.4 2-.1 3-1.6 3-4.7zM116.7 101.4v6.5h-2.4l-.4-3.9H106l-.4 3.9h-2.4v-6.5h.8c.4-.3.7-.6.8-.8s.4-1 .6-1.8c.1-.8.3-2 .4-3.5l.4-4.8h9v11l1.5-.1zm-4.4-8.6h-3.1l-.1 2.1c-.1 1.4-.3 2.5-.4 3.4-.1.8-.4 1.4-.7 2-.3.6-.7.8-1.1 1.1h5.5v-8.6zM129.2 92c1.1 1.3 1.7 2.9 1.7 5.2 0 1.4-.3 2.7-.7 3.7-.6 1.1-1.3 2-2.1 2.5-1 .6-2.1.8-3.4.8-2 0-3.5-.6-4.6-1.8-1.1-1.3-1.7-2.9-1.7-5.2 0-1.4.3-2.7.7-3.7.6-1.1 1.3-1.8 2.2-2.5 1-.6 2.1-.8 3.4-.8 1.9 0 3.4.5 4.5 1.8zm-7.5 5.2c0 1.5.3 2.8.7 3.5.4.7 1.3 1.1 2.1 1.1 1 0 1.7-.4 2.1-1.1.4-.7.7-2 .7-3.5s-.3-2.7-.7-3.5c-.4-.7-1.1-1.1-2.1-1.1-1.9-.1-2.8 1.5-2.8 4.6zM145 90.6l-3.8 6.2 4.2 7.2h-3.5l-3.2-5.9h-1.4v5.9H134V90.6h3.2v5.3h1.5l3.1-5.3h3.2zM154 103.9c-.6 1.7-1.4 2.9-2.4 3.8-1.1 1-2.5 1.4-4.5 1.5l-.3-2.4c.8-.1 1.5-.3 2.1-.6.6-.3 1-.6 1.3-1 .3-.4.6-1 .8-1.7h-1.1l-4.2-13.3h3.4l2.9 11.2 3.1-11.2h3.4l-4.5 13.7zM174 103.9h-3l-.4-5.5c0-.8-.1-1.7-.1-2.7v-2.4l-2.5 9h-2.8l-2.4-9c0 1 .1 1.8.1 2.7v2.2l-.4 5.5h-3.1l1.1-13.3h3.9l2.1 9 2.4-9h3.9l1.2 13.5zM188 98.2h-8.4c.1 1.3.4 2.2 1 2.8.6.6 1.3.8 2.2.8.6 0 1.1-.1 1.7-.3s1.1-.6 1.7-.8l1.4 1.8c-1.5 1.3-3.1 1.8-4.9 1.8-2.1 0-3.7-.6-4.8-1.8-1.1-1.3-1.7-2.9-1.7-5.1 0-1.4.3-2.5.7-3.7.4-1.1 1.1-2 2.1-2.5.8-.6 2-1 3.2-1 1.8 0 3.4.6 4.4 1.8 1 1.1 1.5 2.8 1.5 4.9 0 .1-.1.6-.1 1.3zm-3.1-2.3c0-2.4-.8-3.5-2.7-3.5-.8 0-1.4.3-1.8.8-.4.6-.7 1.5-.8 2.8h5.2v-.1h.1zM198.8 103.9v-5.6h-4.5v5.6H191V90.6h3.2v5.3h4.5v-5.3h3.2v13.3h-3.1zM215.6 90.6l-.4 2.5h-3.9v10.8H208V93h-4.2v-2.5h11.8v.1zM226.7 101.5c.1.3.4.4.7.6l-.7 2.1c-.7 0-1.4-.3-1.8-.6-.4-.3-.8-.7-1.1-1.4-.4.7-1 1.1-1.7 1.5-.7.4-1.4.6-2.2.6-1.3 0-2.4-.4-3.1-1.1-.7-.7-1.1-1.7-1.1-2.9 0-1.4.6-2.5 1.5-3.4 1.1-.7 2.5-1.1 4.5-1.1h1.7v-.7c0-.8-.1-1.4-.6-1.8-.4-.3-1-.6-2-.6s-2.1.3-3.5.7l-.7-2.2c1.7-.7 3.2-1 4.9-1 3.4 0 5.2 1.5 5.2 4.6v5.6c-.3.4-.3.9 0 1.1zm-3.5-1.2v-2.7h-1.4c-2.1 0-3.1.8-3.1 2.4 0 .7.1 1.1.4 1.5.3.4.8.6 1.4.6 1.3-.1 2.1-.7 2.7-1.8z"/><g><path class="st6" d="M519.4 101.3v6.6H517l-.4-3.9H507l-.4 3.9h-2.4v-6.6h1.3c.4-.4.7-1 1-1.5.3-.7.4-1.5.7-2.7.1-1.1.4-2.9.7-5.2l.7-5.3h9.5v14.9h1.3v-.2zM514.6 89h-3.4l-.3 2.7c-.3 2.2-.4 3.9-.7 5.1-.3 1.3-.6 2.1-.8 2.8-.3.7-.7 1.3-1.3 1.7h6.6V89h-.1zM532.2 101.5c.1.3.4.4.7.6l-.7 2.1c-.7 0-1.4-.3-1.8-.6-.4-.3-.8-.7-1.1-1.4-.4.7-1 1.1-1.7 1.5-.7.4-1.4.6-2.2.6-1.3 0-2.4-.4-3.1-1.1-.7-.7-1.1-1.7-1.1-2.9 0-1.4.6-2.5 1.5-3.4 1.1-.7 2.5-1.1 4.5-1.1h1.7v-.7c0-.8-.1-1.4-.6-1.8-.4-.3-1-.6-2-.6s-2.1.3-3.5.7l-.7-2.2c1.7-.7 3.2-1 4.9-1 3.4 0 5.2 1.5 5.2 4.6v5.6c-.3.4-.2.9 0 1.1zm-3.5-1.2v-2.7h-1.4c-2.1 0-3.1.8-3.1 2.4 0 .7.1 1.1.4 1.5.3.4.8.6 1.4.6 1.2-.1 2.1-.7 2.7-1.8zM545.1 90.6l-.4 2.5h-3.9v10.8h-3.2V93h-4.2v-2.5h11.8v.1zM556.2 101.5c.1.3.4.4.7.6l-.7 2.1c-.7 0-1.4-.3-1.8-.6-.4-.3-.8-.7-1.1-1.4-.4.7-1 1.1-1.7 1.5-.7.4-1.4.6-2.2.6-1.3 0-2.4-.4-3.1-1.1-.7-.7-1.1-1.7-1.1-2.9 0-1.4.6-2.5 1.5-3.4 1.1-.7 2.5-1.1 4.5-1.1h1.7v-.7c0-.8-.1-1.4-.6-1.8-.4-.3-1-.6-2-.6s-2.1.3-3.5.7l-.7-2.2c1.7-.7 3.2-1 4.9-1 3.4 0 5.2 1.5 5.2 4.6v5.6c-.3.4-.3.9 0 1.1zm-3.5-1.2v-2.7h-1.4c-2.1 0-3.1.8-3.1 2.4 0 .7.1 1.1.4 1.5.3.4.8.6 1.4.6 1.3-.1 2.1-.7 2.7-1.8zM577.2 103.9h-3.1v-5.3c0-1 0-2 .1-2.8.1-.8.1-1.5.3-2l-4.9 10.1h-3.5V90.6h3.1v5.3c0 1 0 1.8-.1 2.8-.1.8-.1 1.5-.3 2l4.9-10.1h3.5v13.3zM598.6 99.9c0 1.4-.6 2.4-1.5 3.1-1.1.7-2.5 1-4.2 1h-5.3V90.7c1.8-.4 3.4-.6 4.9-.6 1.7 0 3.1.3 4.1 1 1 .6 1.5 1.5 1.5 2.7 0 .7-.3 1.4-.7 1.8-.4.4-1.1.8-2.1 1 2.2.3 3.3 1.3 3.3 3.3zm-7.9-7.4v3.4h2c1.4 0 2.1-.6 2.1-1.8 0-1.1-.8-1.7-2.4-1.7-.5 0-1.1 0-1.7.1zm4.5 7.1c0-.6-.1-1.1-.6-1.4-.4-.3-1-.4-2-.4h-2v3.9h2c1.8 0 2.6-.7 2.6-2.1zM612.4 92c.8 1.3 1.3 2.9 1.3 5.2 0 1.4-.1 2.7-.6 3.7-.4 1.1-1 2-1.8 2.5-.8.6-1.7.8-2.8.8-1.4 0-2.5-.4-3.4-1.4v6.2l-3.2.4V90.6h2.8l.1 1.7c.6-.7 1.1-1.1 1.8-1.5.7-.3 1.4-.6 2.1-.6 1.5 0 2.8.5 3.7 1.8zm-2.3 5.2c0-1.7-.1-2.8-.6-3.5-.4-.7-1.1-1.1-2-1.1-.6 0-1 .1-1.5.6-.6.4-.8.7-1.3 1.3v6c.6 1 1.4 1.4 2.4 1.4 2.2-.1 3-1.6 3-4.7zM627.7 98.2h-8.4c.1 1.3.4 2.2 1 2.8.6.6 1.3.8 2.2.8.6 0 1.1-.1 1.7-.3s1.1-.6 1.7-.8l1.4 1.8c-1.5 1.3-3.1 1.8-4.9 1.8-2.1 0-3.7-.6-4.8-1.8-1.1-1.3-1.7-2.9-1.7-5.1 0-1.4.3-2.5.7-3.7.4-1.1 1.1-2 2.1-2.5.8-.6 2-1 3.2-1 1.8 0 3.4.6 4.4 1.8 1 1.1 1.5 2.8 1.5 4.9-.1.1-.1.6-.1 1.3zm-3.3-2.3c0-2.4-.8-3.5-2.7-3.5-.8 0-1.4.3-1.8.8-.4.6-.7 1.5-.8 2.8h5.2v-.1h.1zM644.5 103.9h-3.1l-.4-5.5c0-.8-.1-1.7-.1-2.7v-2.4l-2.5 9h-2.8l-2.4-9c0 1 .1 1.8.1 2.7v2.2l-.4 5.5h-3.1l1.1-13.3h3.9l2.1 9 2.4-9h3.9l1.3 13.5zM657.7 90.6v13.3h-3.2V99h-2.2l-2.7 4.9h-3.5l3.1-5.6c-.7-.4-1.3-.8-1.7-1.4s-.6-1.3-.6-2.1c0-1.4.6-2.4 1.5-3.1 1-.7 2.5-1.1 4.4-1.1h4.9zm-3.2 6.3v-4.2h-1.7c-1.7 0-2.5.7-2.5 2.1 0 .7.1 1.3.6 1.7.4.4 1 .6 1.8.6h1.8v-.2z"/></g><g><path class="st6" d="M999.7 86.5l-.4 2.7h-4.5v14.7h-3.4V89h-4.6v-2.7h12.9v.2zM1010.5 92c1.1 1.3 1.7 2.9 1.7 5.2 0 1.4-.3 2.7-.7 3.7-.6 1.1-1.3 2-2.1 2.5-1 .6-2.1.8-3.4.8-2 0-3.5-.6-4.6-1.8-1.1-1.3-1.7-2.9-1.7-5.2 0-1.4.3-2.7.7-3.7.6-1.1 1.3-1.8 2.2-2.5 1-.6 2.1-.8 3.4-.8 1.8 0 3.4.5 4.5 1.8zm-7.6 5.2c0 1.5.3 2.8.7 3.5.4.7 1.3 1.1 2.1 1.1 1 0 1.7-.4 2.1-1.1.4-.7.7-2 .7-3.5s-.3-2.7-.7-3.5c-.4-.7-1.1-1.1-2.1-1.1-1.8-.1-2.8 1.5-2.8 4.6zM1025.8 92c.8 1.3 1.3 2.9 1.3 5.2 0 1.4-.1 2.7-.6 3.7-.4 1.1-1 2-1.8 2.5-.8.6-1.7.8-2.8.8-1.4 0-2.5-.4-3.4-1.4v6.2l-3.2.4V90.6h2.8l.1 1.7c.6-.7 1.1-1.1 1.8-1.5.7-.3 1.4-.6 2.1-.6 1.7 0 3 .5 3.7 1.8zm-2.1 5.2c0-1.7-.1-2.8-.6-3.5-.4-.7-1.1-1.1-2-1.1-.6 0-1 .1-1.5.6s-.8.7-1.3 1.3v6c.6 1 1.4 1.4 2.4 1.4 2-.1 3-1.6 3-4.7zM1033.5 103.9h-3.2V90.6h9l-.4 2.5h-5.3l-.1 10.8zM1050.5 92c1.1 1.3 1.7 2.9 1.7 5.2 0 1.4-.3 2.7-.7 3.7-.6 1.1-1.3 2-2.1 2.5-1 .6-2.1.8-3.4.8-2 0-3.5-.6-4.6-1.8-1.1-1.3-1.7-2.9-1.7-5.2 0-1.4.3-2.7.7-3.7.6-1.1 1.3-1.8 2.2-2.5 1-.6 2.1-.8 3.4-.8 2 0 3.5.5 4.5 1.8zm-7.4 5.2c0 1.5.3 2.8.7 3.5.4.7 1.3 1.1 2.1 1.1 1 0 1.7-.4 2.1-1.1.4-.7.7-2 .7-3.5s-.3-2.7-.7-3.5c-.4-.7-1.1-1.1-2.1-1.1-1.8-.1-2.8 1.5-2.8 4.6zM1066.4 99.9c0 1.4-.6 2.4-1.5 3.1-1.1.7-2.5 1-4.2 1h-5.3V90.7c1.8-.4 3.4-.6 4.9-.6 1.7 0 3.1.3 4.1 1 1 .6 1.5 1.5 1.5 2.7 0 .7-.3 1.4-.7 1.8-.4.4-1.1.8-2.1 1 2.2.3 3.3 1.3 3.3 3.3zm-7.9-7.4v3.4h2c1.4 0 2.1-.6 2.1-1.8 0-1.1-.8-1.7-2.4-1.7-.6 0-1.1 0-1.7.1zm4.5 7.1c0-.6-.1-1.1-.6-1.4-.4-.3-1-.4-2-.4h-2v3.9h2c1.8 0 2.6-.7 2.6-2.1zM1079.3 101.5c.1.3.4.4.7.6l-.7 2.1c-.7 0-1.4-.3-1.8-.6-.4-.3-.8-.7-1.1-1.4-.4.7-1 1.1-1.7 1.5-.7.4-1.4.6-2.2.6-1.3 0-2.4-.4-3.1-1.1-.7-.7-1.1-1.7-1.1-2.9 0-1.4.6-2.5 1.5-3.4 1.1-.7 2.5-1.1 4.5-1.1h1.7v-.7c0-.8-.1-1.4-.6-1.8-.4-.3-1-.6-2-.6s-2.1.3-3.5.7l-.7-2.2c1.7-.7 3.2-1 4.9-1 3.4 0 5.2 1.5 5.2 4.6v5.6c-.3.4-.1.9 0 1.1zm-3.5-1.2v-2.7h-1.4c-2.1 0-3.1.8-3.1 2.4 0 .7.1 1.1.4 1.5.3.4.8.6 1.4.6 1.3-.1 2.1-.7 2.7-1.8zM1093.1 90.6v13.3h-3.2V99h-2.2l-2.7 4.9h-3.5l3.1-5.6c-.7-.4-1.3-.8-1.7-1.4-.4-.6-.6-1.3-.6-2.1 0-1.4.6-2.4 1.5-3.1 1-.7 2.5-1.1 4.4-1.1h4.9zm-3.3 6.3v-4.2h-1.7c-1.7 0-2.5.7-2.5 2.1 0 .7.1 1.3.6 1.7.4.4 1 .6 1.8.6h1.8v-.2zM1113.2 90.6l-.4 2.5h-3.9v10.8h-3.2V93h-4.2v-2.5h11.8v.1zM1124.4 92c1.1 1.3 1.7 2.9 1.7 5.2 0 1.4-.3 2.7-.7 3.7-.6 1.1-1.3 2-2.1 2.5-1 .6-2.1.8-3.4.8-2 0-3.5-.6-4.6-1.8s-1.7-2.9-1.7-5.2c0-1.4.3-2.7.7-3.7.6-1.1 1.3-1.8 2.2-2.5 1-.6 2.1-.8 3.4-.8 2 0 3.4.5 4.5 1.8zm-7.5 5.2c0 1.5.3 2.8.7 3.5.4.7 1.3 1.1 2.1 1.1 1 0 1.7-.4 2.1-1.1.4-.7.7-2 .7-3.5s-.3-2.7-.7-3.5c-.4-.7-1.1-1.1-2.1-1.1-1.8-.1-2.8 1.5-2.8 4.6zM1139.1 90.6v13.3h-3.2v-5.2c-.4.4-1.1.7-1.8 1-.7.3-1.4.4-2.1.4-1.3 0-2.2-.4-2.9-1.1-.7-.7-1-1.7-1-2.9v-5.5h3.2v4.9c0 .7.1 1.3.4 1.5.3.3.7.4 1.3.4.4 0 1-.1 1.5-.3.6-.1 1-.4 1.3-.8v-5.9h3.4v.2zM1154.2 90.6l-3.8 6.2 4.2 7.2h-3.5l-3.2-5.9h-1.4v5.9h-3.2V90.6h3.2v5.3h1.5l3.1-5.3h3.1zM1166.4 101.5c.1.3.4.4.7.6l-.7 2.1c-.7 0-1.4-.3-1.8-.6-.4-.3-.8-.7-1.1-1.4-.4.7-1 1.1-1.7 1.5-.7.4-1.4.6-2.2.6-1.3 0-2.4-.4-3.1-1.1-.7-.7-1.1-1.7-1.1-2.9 0-1.4.6-2.5 1.5-3.4 1.1-.7 2.5-1.1 4.5-1.1h1.7v-.7c0-.8-.1-1.4-.6-1.8-.4-.3-1-.6-2-.6s-2.1.3-3.5.7l-.7-2.2c1.7-.7 3.2-1 4.9-1 3.4 0 5.2 1.5 5.2 4.6v5.6c-.3.4-.3.9 0 1.1zm-3.5-1.2v-2.7h-1.4c-2.1 0-3.1.8-3.1 2.4 0 .7.1 1.1.4 1.5.3.4.8.6 1.4.6 1.3-.1 2.1-.7 2.7-1.8z"/></g><path class="st11" d="M446.1 187.2H28.7c-4.1 0-7.3-3.2-7.3-7.3v-49c0-4.1 3.2-7.3 7.3-7.3h417.4c4.1 0 7.3 3.2 7.3 7.3v49c0 4.1-3.3 7.3-7.3 7.3zM928.8 187.2H511.4c-4.1 0-7.3-3.2-7.3-7.3v-49c0-4.1 3.2-7.3 7.3-7.3h417.4c4.1 0 7.3 3.2 7.3 7.3v49c0 4.1-3.3 7.3-7.3 7.3zM1411.4 187.2H994.1c-4.1 0-7.3-3.2-7.3-7.3v-49c0-4.1 3.2-7.3 7.3-7.3h417.4c4.1 0 7.3 3.2 7.3 7.3v49c-.1 4.1-3.3 7.3-7.4 7.3z"/><g><path class="st2" d="M143.9 148v15.6H141v-13.2h-5.5v13.2h-2.9V148h11.3zM156.4 153.1c1 1.1 1.4 2.7 1.4 4.6 0 1.3-.3 2.4-.7 3.2-.4 1-1.1 1.7-2 2.2-.8.6-1.8.8-2.9.8-1.7 0-3.1-.6-4.1-1.7-1-1.1-1.5-2.7-1.5-4.6 0-1.3.3-2.4.7-3.2.4-1 1.1-1.7 2-2.2.8-.6 1.8-.8 2.9-.8 1.9 0 3.2.6 4.2 1.7zm-6.6 4.5c0 1.4.3 2.4.7 3.1.4.7 1.1 1 2 1 .8 0 1.5-.3 2-1 .4-.7.7-1.7.7-3.1 0-1.4-.3-2.4-.7-3.1-.4-.7-1.1-1-2-1-1.9 0-2.7 1.4-2.7 4.1zM167.4 151.7c.6.3 1.3.6 1.8 1.1l-1.3 1.7c-.4-.3-.8-.6-1.1-.7-.4-.1-.8-.1-1.3-.1-1.8 0-2.7 1.4-2.7 4.1 0 1.4.3 2.4.7 2.9.4.6 1.1.8 2 .8.4 0 .8 0 1.1-.1.4-.1.7-.4 1.3-.7l1.3 1.8c-1.1 1-2.4 1.4-3.8 1.4-1.1 0-2.1-.3-2.9-.7-.8-.6-1.5-1.3-2-2.1-.4-1-.7-2-.7-3.2s.3-2.4.7-3.4c.4-1 1.1-1.7 2-2.2.8-.6 1.8-.8 2.9-.8.8-.1 1.5 0 2 .2zM180.1 151.7l-.4 2.2h-3.5v9.7h-2.8v-9.7h-3.7v-2.2h10.4z"/><path class="st2" d="M187.4 163.6c-.4 1.4-1.3 2.7-2.2 3.4-1 .8-2.2 1.3-3.9 1.4l-.3-2.1c.8-.1 1.4-.3 1.8-.6.4-.3.8-.6 1.1-.8.3-.4.6-.8.8-1.4h-1l-3.8-11.9h3.1l2.5 10 2.7-10h2.9l-3.7 12zM199.9 163.6v-9.7H196v9.7h-2.8v-11.9h9.7v11.9h-3zM215.6 151.7v11.9h-2.8v-9.7h-2.9l-.3 3.2c-.1 1.7-.3 2.9-.6 3.8-.3.8-.6 1.5-1 2-.4.4-1.3.8-2.2 1.1l-.7-2.1c.6-.1.8-.4 1.1-.7.3-.3.4-.7.4-1.3.1-.6.1-1.5.3-2.9l.4-5.2h8.3v-.1zM228.8 158.6h-7.4c.1 1.1.4 2 .8 2.5.6.6 1.1.7 2 .7.6 0 1-.1 1.5-.3.4-.1 1-.4 1.5-.8l1.1 1.7c-1.3 1.1-2.8 1.5-4.4 1.5-1.8 0-3.2-.6-4.2-1.7s-1.4-2.7-1.4-4.5c0-1.3.1-2.2.6-3.2.4-1 1-1.7 1.8-2.2s1.7-.8 2.8-.8c1.7 0 2.9.6 3.9 1.5 1 1.1 1.4 2.5 1.4 4.4v1.2zm-2.8-2c0-2.1-.7-3.1-2.2-3.1-.7 0-1.3.3-1.7.8-.4.6-.7 1.4-.7 2.5l4.6-.2zM238.4 163.6v-4.9h-4.1v4.9h-2.8v-11.9h2.8v4.8h4.1v-4.8h2.8v11.9h-2.8zM254.7 163.6h-2.8v-4.8c0-.8 0-1.7.1-2.5.1-.7.1-1.4.3-1.7l-4.5 9h-3.1v-11.9h2.8v4.8c0 .8 0 1.7-.1 2.4-.1.8-.1 1.4-.3 1.7l4.4-9h3.1v12.1h.1zM267.7 158.6h-7.4c.1 1.1.4 2 .8 2.5.6.6 1.1.7 2 .7.6 0 1-.1 1.5-.3.4-.1 1-.4 1.5-.8l1.1 1.7c-1.3 1.1-2.8 1.5-4.4 1.5-1.8 0-3.2-.6-4.2-1.7s-1.4-2.7-1.4-4.5c0-1.3.1-2.2.6-3.2.4-1 1-1.7 1.8-2.2.8-.6 1.7-.8 2.8-.8 1.7 0 2.9.6 3.9 1.5 1 1.1 1.4 2.5 1.4 4.4.2.2 0 .5 0 1.2zm-2.8-2c0-2.1-.7-3.1-2.2-3.1-.7 0-1.3.3-1.7.8-.4.6-.7 1.4-.7 2.5l4.6-.2zM287.5 163.6h-3.8l-5.3-12.5c.1 1.1.3 2.1.3 2.9 0 .8.1 2 .1 3.2v6.3h-2.7V148h3.8l5.5 12.6c-.1-.6-.1-1.4-.3-2.4-.1-1-.1-2-.1-2.9V148h2.7v15.6h-.2zm9.9-14.3c.8.8 1.3 2 1.3 3.5 0 1.4-.4 2.5-1.3 3.5-.8.8-2 1.3-3.4 1.3s-2.5-.4-3.4-1.3-1.3-2-1.3-3.5c0-1.4.4-2.5 1.3-3.5.8-.8 2-1.3 3.4-1.3s2.5.4 3.4 1.3zm-7.9 14.3v-2.2h9v2.2h-9zm3.1-12.9c-.3.4-.4 1.1-.4 2.1s.1 1.7.4 2.1c.3.4.7.7 1.4.7.6 0 1.1-.3 1.4-.7.3-.4.4-1.1.4-2.1s-.1-1.7-.4-2.1c-.3-.4-.7-.7-1.4-.7-.6 0-1 .3-1.4.7zM310.1 150.3c1 1.4 1.4 3.2 1.4 5.8 0 2.5-.4 4.5-1.4 5.9-1 1.4-2.2 2-4.1 2-1.8 0-3.1-.7-4.1-2s-1.4-3.4-1.4-5.9c0-2.5.4-4.5 1.4-5.8s2.2-2 4.1-2c1.9 0 3.1.6 4.1 2zm-5.9 1.4c-.4.8-.6 2.4-.6 4.4 0 2.1.1 3.5.6 4.4.4.8 1 1.3 1.8 1.3s1.5-.4 1.8-1.3.6-2.4.6-4.4c0-2.1-.1-3.5-.6-4.4s-1-1.3-1.8-1.3-1.5.4-1.8 1.3zM320.1 148.7c.7.4 1.3.8 1.7 1.5.4.7.6 1.4.6 2.1 0 .8-.1 1.7-.6 2.5s-1 1.7-1.8 2.7c-.8 1-2.1 2.2-3.8 3.8h6.5l-.3 2.2H313v-2.1c2-2 3.2-3.4 4.1-4.4s1.4-1.7 1.8-2.4c.3-.7.6-1.4.6-2.1s-.1-1.3-.6-1.7-1-.6-1.5-.6c-.6 0-1.1.1-1.5.4-.4.3-.8.7-1.4 1.3l-1.7-1.4c1.3-1.7 2.9-2.5 4.9-2.5.9.2 1.7.4 2.4.7zM334.8 158v2.2H333v3.5h-2.8V160h-6.5v-2l4.4-10 2.4 1-3.9 8.8h3.5l.3-3.8h2.5v3.8h1.9zM341.9 148.4v15.2h-2.8v-12.2l-3.4 2.1-1.3-2 4.9-2.9h2.5v-.2z"/></g><g><path class="st2" d="M672.2 148.4v15.2h-2.8v-12.2l-3.4 2.1-1.3-2 4.9-2.9h2.5v-.2zM684.3 149.8c1 1.1 1.4 2.5 1.4 4.2 0 2.1-.3 3.8-1 5.1-.7 1.3-1.5 2.4-2.8 3.1-1.3.8-2.9 1.4-5.1 2l-.6-2.1c2-.6 3.5-1.3 4.5-2 1-.8 1.7-2 1.8-3.4-.8 1-2 1.5-3.2 1.5-.8 0-1.5-.1-2.1-.6-.6-.4-1.1-1-1.5-1.7-.4-.7-.6-1.7-.6-2.7 0-1 .3-2 .7-2.7.4-.7 1.1-1.4 2-1.8.8-.4 1.7-.6 2.7-.6 1.5.1 2.9.6 3.8 1.7zm-1.6 4.8c0-1.5-.1-2.7-.6-3.2-.4-.7-1-1-1.8-1-.7 0-1.3.3-1.7.7-.4.6-.6 1.3-.6 2.2s.1 1.7.6 2.2c.4.4 1 .7 1.5.7 1.1 0 1.9-.6 2.6-1.6zM692.8 145.4l2.5.6-5.2 20.1-2.5-.6 5.2-20.1zM707.6 150.3c1 1.4 1.4 3.2 1.4 5.8 0 2.5-.4 4.5-1.4 5.9-1 1.4-2.2 2-4.1 2s-3.1-.7-4.1-2c-1-1.3-1.4-3.4-1.4-5.9 0-2.5.4-4.5 1.4-5.8 1-1.3 2.2-2 4.1-2s3.1.6 4.1 2zm-5.9 1.4c-.4.8-.6 2.4-.6 4.4 0 2.1.1 3.5.6 4.4.4.8 1 1.3 1.8 1.3s1.5-.4 1.8-1.3c.3-.8.6-2.4.6-4.4 0-2.1-.1-3.5-.6-4.4-.4-.8-1-1.3-1.8-1.3s-1.4.4-1.8 1.3zM719.6 149.8c1 1.1 1.4 2.5 1.4 4.2 0 2.1-.3 3.8-1 5.1-.7 1.3-1.5 2.4-2.8 3.1-1.3.8-2.9 1.4-5.1 2l-.6-2.1c2-.6 3.5-1.3 4.5-2 1-.8 1.7-2 1.8-3.4-.8 1-2 1.5-3.2 1.5-.8 0-1.5-.1-2.1-.6-.6-.4-1.1-1-1.5-1.7-.4-.7-.6-1.7-.6-2.7 0-1 .3-2 .7-2.7.4-.7 1.1-1.4 2-1.8.8-.4 1.7-.6 2.7-.6 1.7.1 3 .6 3.8 1.7zm-1.5 4.8c0-1.5-.1-2.7-.6-3.2-.4-.7-1-1-1.8-1-.7 0-1.3.3-1.7.7-.4.6-.6 1.3-.6 2.2s.1 1.7.6 2.2c.4.4 1 .7 1.5.7 1.1 0 1.9-.6 2.6-1.6zM728.2 145.4l2.5.6-5.2 20.1-2.5-.6 5.2-20.1zM739.7 148.7c.7.4 1.3.8 1.7 1.5.4.7.6 1.4.6 2.1 0 .8-.1 1.7-.6 2.5s-1 1.7-1.8 2.7c-.8 1-2.1 2.2-3.8 3.8h6.5l-.3 2.2h-9.4v-2.1c2-2 3.2-3.4 4.1-4.4.8-1 1.4-1.7 1.8-2.4.3-.7.6-1.4.6-2.1s-.1-1.3-.6-1.7c-.4-.4-1-.6-1.5-.6-.6 0-1.1.1-1.5.4-.4.3-.8.7-1.4 1.3l-1.7-1.4c1.3-1.7 2.9-2.5 4.9-2.5.7.2 1.7.4 2.4.7zM753.6 150.3c1 1.4 1.4 3.2 1.4 5.8 0 2.5-.4 4.5-1.4 5.9-1 1.4-2.2 2-4.1 2-1.8 0-3.1-.7-4.1-2-1-1.3-1.4-3.4-1.4-5.9 0-2.5.4-4.5 1.4-5.8 1-1.3 2.2-2 4.1-2 1.9 0 3.3.6 4.1 2zm-5.9 1.4c-.4.8-.6 2.4-.6 4.4 0 2.1.1 3.5.6 4.4.4.8 1 1.3 1.8 1.3s1.5-.4 1.8-1.3.6-2.4.6-4.4c0-2.1-.1-3.5-.6-4.4s-1-1.3-1.8-1.3c-.6 0-1.3.4-1.8 1.3zM763.6 148.4v15.2h-2.8v-12.2l-3.4 2.1-1.3-2 4.9-2.9h2.5v-.2zM775.4 148.4v2l-5.6 13.3-2.7-.8 5.2-12.4H766v-2.2h9.4v.1z"/></g><g><path class="st2" d="M1121.3 148v15.6h-2.9V148h2.9zm8.7 0l-5.3 7 5.8 8.4h-3.5l-5.5-8.3 5.3-7.3h3.2v.2zM1140.8 161.5c.1.3.4.4.7.6l-.6 2c-.7 0-1.3-.3-1.7-.6-.4-.3-.7-.7-1-1.3-.4.6-.8 1-1.5 1.4-.6.3-1.3.4-2 .4-1.1 0-2.1-.3-2.8-1-.7-.7-1-1.5-1-2.7 0-1.3.4-2.2 1.4-2.9 1-.7 2.2-1 4.1-1h1.5v-.7c0-.7-.1-1.3-.6-1.5-.3-.3-1-.4-1.7-.4-.8 0-2 .1-3.1.6l-.7-2c1.5-.6 2.9-.8 4.4-.8 3.1 0 4.5 1.4 4.5 4.1v5.1c0 .1 0 .4.1.7zm-2.9-1.1V158h-1.1c-1.8 0-2.8.7-2.8 2.1 0 .6.1 1 .4 1.3.3.3.7.4 1.3.4.8 0 1.6-.4 2.2-1.4zM1151.9 152.8l-1.1 1.7c-1-.7-2-1-2.9-1-.6 0-1 .1-1.3.3-.3.3-.4.6-.4.8 0 .3 0 .6.1.7.1.1.4.3.7.6.3.1.8.3 1.5.6 1.3.3 2.2.8 2.8 1.4s1 1.4 1 2.4c0 1.1-.4 2.1-1.4 2.8-1 .7-2.1 1-3.5 1-1 0-1.8-.1-2.7-.4-.8-.3-1.5-.7-2.1-1.3l1.4-1.7c1 .8 2.1 1.1 3.2 1.1.7 0 1.1-.1 1.5-.4.4-.3.6-.6.6-1.1 0-.3-.1-.6-.3-.8-.1-.3-.4-.4-.7-.6-.3-.1-1-.3-1.7-.6-1.3-.3-2.1-.8-2.7-1.4-.6-.6-.8-1.3-.8-2.2 0-.7.1-1.3.6-1.8.4-.6 1-1 1.7-1.3s1.5-.4 2.4-.4c1.4.2 2.9.6 4.1 1.6zM1169.5 152.4c.6.7.8 1.5.8 2.7v8.6h-2.8v-8.1c0-1.3-.4-2-1.3-2-.4 0-.8.1-1.3.4s-.7.7-1 1.4v8.3h-2.8v-8.1c0-1.3-.4-2-1.3-2-.4 0-.8.1-1.3.4-.3.3-.7.7-1 1.4v8.3h-2.8v-11.9h2.5l.3 1.5c.8-1.3 2.1-1.8 3.4-1.8.7 0 1.3.1 1.8.6.6.4.8.8 1.1 1.4.4-.7 1-1.1 1.5-1.5.6-.3 1.3-.6 2-.6.9 0 1.6.3 2.2 1zM1176.5 146.2c.3.3.6.7.6 1.3s-.1.8-.6 1.3c-.3.3-.8.6-1.3.6-.6 0-1-.1-1.3-.6-.3-.3-.6-.7-.6-1.3s.1-.8.6-1.3c.3-.3.7-.6 1.3-.6.5 0 .9.3 1.3.6zm.1 5.5v11.9h-2.8v-11.9h2.8zM1187.2 151.5l-.6 2.8c-.4-.1-.7-.1-1.1-.1-.7 0-1.3.3-1.7.7-.4.4-.7 1.3-1 2.2v6.3h-2.8v-11.8h2.5l.3 2.4c.3-.8.7-1.5 1.3-2 .6-.4 1.1-.7 1.8-.7.4.1.8.1 1.3.2zM1199.5 145.6c-1.1 1.5-2 3.1-2.4 4.6-.4 1.5-.7 3.2-.7 5.5 0 2.1.3 3.9.7 5.5.6 1.5 1.3 3.1 2.4 4.6l-1.8 1.3c-1-1.4-1.7-2.5-2.2-3.5-.6-1-1-2.1-1.4-3.4s-.6-2.8-.6-4.5c0-1.7.1-3.1.6-4.5.4-1.3.8-2.4 1.4-3.4.6-1 1.3-2.1 2.2-3.5l1.8 1.3zM1208.7 163.6v-4.9h-4.1v4.9h-2.8v-11.9h2.8v4.8h4.1v-4.8h2.8v11.9h-2.8zM1224.1 161.5c.1.3.4.4.7.6l-.6 2c-.7 0-1.3-.3-1.7-.6-.4-.3-.7-.7-1-1.3-.4.6-.8 1-1.5 1.4-.6.3-1.3.4-2 .4-1.1 0-2.1-.3-2.8-1-.7-.7-1-1.5-1-2.7 0-1.3.4-2.2 1.4-2.9 1-.7 2.2-1 4.1-1h1.5v-.7c0-.7-.1-1.3-.6-1.5-.3-.3-1-.4-1.7-.4-.8 0-2 .1-3.1.6l-.7-2c1.5-.6 2.9-.8 4.4-.8 3.1 0 4.5 1.4 4.5 4.1v5.1c-.2.1 0 .4.1.7zm-3.1-1.1V158h-1.1c-1.8 0-2.8.7-2.8 2.1 0 .6.1 1 .4 1.3.3.3.7.4 1.3.4.9 0 1.7-.4 2.2-1.4zM1241.2 163.6l-1-3.7h-5.2l-1 3.7h-3.1l4.8-15.6h3.7l4.8 15.6h-3zm-5.4-5.9h3.9l-2-7.4-1.9 7.4zM1254.2 153.1c.7.4 1.3 1.1 1.5 2 .4.8.6 1.8.6 2.9 0 1.3-.3 2.2-.7 3.2-.4.8-1.1 1.5-2 2.1-.8.6-1.8.7-2.8.7-1.7 0-3.1-.6-4.1-1.7-1-1.1-1.5-2.9-1.5-5.2 0-1.7.1-3.1.4-4.2.3-1.1.7-2 1.4-2.7.7-.7 1.7-1.3 2.9-1.7 1-.3 1.7-.6 2.1-.8.6-.3 1.1-.6 1.7-.8l1.1 2c-.6.3-1.1.7-1.7.8-.6.3-1.3.6-2.1.8-.7.3-1.3.4-1.7.8-.4.3-.7.7-1 1.3-.3.6-.4 1.3-.6 2.2.8-1.4 2.1-2.1 3.8-2.1 1.3-.2 2 0 2.7.4zm-1.6 7.8c.4-.6.7-1.5.7-2.8s-.1-2.1-.6-2.7c-.4-.6-.8-.8-1.7-.8-.6 0-1.1.1-1.5.4-.4.3-.8.7-1.3 1.4v1.5c0 1.3.3 2.1.7 2.8.4.7 1 1 1.8 1 .8.1 1.5-.2 1.9-.8zM1267.8 161.5c.1.3.4.4.7.6l-.6 2c-.7 0-1.3-.3-1.7-.6-.4-.3-.7-.7-1-1.3-.4.6-.8 1-1.5 1.4-.6.3-1.3.4-2 .4-1.1 0-2.1-.3-2.8-1s-1-1.5-1-2.7c0-1.3.4-2.2 1.4-2.9 1-.7 2.2-1 4.1-1h1.5v-.7c0-.7-.1-1.3-.6-1.5-.3-.3-1-.4-1.7-.4-.8 0-2 .1-3.1.6l-.7-2c1.5-.6 2.9-.8 4.4-.8 3.1 0 4.5 1.4 4.5 4.1v5.1c-.2.1-.1.4.1.7zm-3.1-1.1V158h-1.1c-1.8 0-2.8.7-2.8 2.1 0 .6.1 1 .4 1.3.3.3.7.4 1.3.4.9 0 1.6-.4 2.2-1.4zM1280 151.7v11.9h-2.8v-4.4h-2l-2.2 4.4h-3.1l2.8-5.1c-.6-.3-1.1-.7-1.4-1.3s-.6-1.1-.6-1.8c0-1.3.4-2.1 1.4-2.8.8-.7 2.2-1 3.9-1h4zm-2.8 5.7v-3.8h-1.4c-1.4 0-2.2.6-2.2 1.8 0 .7.1 1.1.6 1.4.3.3.8.4 1.7.4h1.4v.2zM1286.5 147.9c.6 1 1 2.1 1.4 3.4s.6 2.8.6 4.5-.1 3.2-.6 4.5c-.4 1.3-.8 2.4-1.4 3.4-.6 1-1.3 2.1-2.2 3.5l-1.8-1.3c1.1-1.5 1.8-3.1 2.4-4.6.6-1.5.7-3.4.7-5.5s-.3-3.9-.7-5.3c-.6-1.5-1.3-3.1-2.4-4.6l1.8-1.3c.8 1.2 1.6 2.3 2.2 3.3z"/></g></g><path class="st2" d="M1406.7 1064.1H33.5c-6.7 0-12.2-5.5-12.2-12.2V391.4c0-6.7 5.5-12.2 12.2-12.2h1373.1c6.7 0 12.2 5.5 12.2 12.2v660.5c-.1 6.7-5.4 12.2-12.1 12.2z"/><path class="st12" d="M702.1 1041.8H397.3c-5.5 0-10-4.5-10-10v-53.5c0-5.5 4.5-10 10-10h304.8c5.5 0 10 4.5 10 10v53.5c.1 5.5-4.4 10-10 10z"/><path class="st11" d="M1042.7 1041.8H737.9c-5.5 0-10-4.5-10-10v-53.5c0-5.5 4.5-10 10-10h304.8c5.5 0 10 4.5 10 10v53.5c-.1 5.5-4.6 10-10 10z"/><path class="st13" d="M1383.2 1041.8h-304.8c-5.5 0-10-4.5-10-10v-53.5c0-5.5 4.5-10 10-10h304.8c5.5 0 10 4.5 10 10v53.5c0 5.5-4.5 10-10 10z"/><g><path class="st2" d="M510.4 1008.3c-.4 1.1-.8 2-1.4 2.7-.6.7-1.1 1.1-1.8 1.4-.7.3-1.7.6-2.8.7l-.4-2.1c1-.1 1.8-.4 2.2-.7.6-.3 1-.8 1.3-1.7h-1l-4.9-11.4h3.1l3.7 9.5 3.2-9.5h3.1l-4.3 11.1zM525.3 1010.6v5.8h-2.1l-.4-3.5h-7l-.4 3.5h-2.1v-5.8h.8c.3-.1.6-.4.7-.8.1-.3.4-.8.6-1.5.1-.7.3-1.8.4-3.2l.3-4.2h8v9.7h1.3zm-4.1-7.7h-2.7l-.1 1.8c-.1 1.3-.3 2.2-.4 3.1-.1.7-.4 1.3-.6 1.7-.3.4-.6.7-1.1 1h4.9v-7.6zM536.5 1010.7c.1.3.4.4.7.6l-.6 2c-.7 0-1.3-.3-1.7-.6-.4-.3-.7-.7-1-1.3-.4.6-.8 1-1.5 1.4-.6.3-1.3.4-2 .4-1.1 0-2.1-.3-2.8-1-.7-.7-1-1.5-1-2.7 0-1.3.4-2.2 1.4-2.9 1-.7 2.2-1 4.1-1h1.5v-.7c0-.7-.1-1.3-.6-1.5-.3-.3-1-.4-1.7-.4-.8 0-2 .1-3.1.6l-.7-2c1.5-.6 2.9-.8 4.4-.8 3.1 0 4.5 1.4 4.5 4.1v5.1c-.2.2 0 .5.1.7zm-3.1-1.1v-2.4h-1.1c-1.8 0-2.8.7-2.8 2.1 0 .6.1 1 .4 1.3.3.3.7.4 1.3.4 1 0 1.7-.4 2.2-1.4zM549.2 1000.9v11.9h-2.8v-9.7h-2.9l-.3 3.2c-.1 1.7-.3 2.9-.6 3.8-.3.8-.6 1.5-1 2-.4.4-1.3.8-2.2 1.1l-.7-2.1c.6-.1.8-.4 1.1-.7.3-.3.4-.7.4-1.3.1-.6.1-1.5.3-2.9l.4-5.2h8.3v-.1zM562.6 1012.8h-2.8v-4.8c0-.8 0-1.7.1-2.5.1-.7.1-1.4.3-1.7l-4.5 9h-3.1v-11.9h2.8v4.8c0 .8 0 1.7-.1 2.4s-.1 1.4-.3 1.7l4.4-9h3.1v12.1h.1zM574.7 1000.9l-.4 2.2h-3.5v9.7H568v-9.7h-3.7v-2.2h10.4zM584.5 1005.7c.8.7 1.3 1.7 1.3 3.1 0 1.4-.4 2.4-1.4 3.1-1 .7-2.1 1-3.5 1h-4.5V1001h2.8v3.8h1.1c2-.1 3.4.2 4.2.9zm-1.6 2.9c0-.7-.1-1.3-.6-1.5-.4-.3-1-.6-1.8-.6h-1.1v4.2h1.4c1.4 0 2.1-.7 2.1-2.1z"/></g><g><path class="st2" d="M853.6 1010.5v5.9h-2.1l-.4-3.5h-8.6l-.4 3.5H840v-5.9h1.1c.4-.4.7-.8.8-1.4.1-.6.4-1.4.6-2.4.1-1 .4-2.5.7-4.6l.6-4.6h8.6v13.2h1.3v-.2zm-4.2-11h-3.1l-.3 2.2c-.1 2-.4 3.5-.6 4.5-.1 1.1-.4 2-.7 2.5s-.7 1.1-1.1 1.5h5.9v-10.8h-.1zM865 1002.3c1 1.1 1.4 2.7 1.4 4.6 0 1.3-.3 2.4-.7 3.2-.4 1-1.1 1.7-2 2.2-.8.6-1.8.8-2.9.8-1.7 0-3.1-.6-4.1-1.7-1-1.1-1.5-2.7-1.5-4.6 0-1.3.3-2.4.7-3.2.4-.8 1.1-1.7 2-2.2.8-.6 1.8-.8 2.9-.8 1.8 0 3.2.6 4.2 1.7zm-6.7 4.5c0 1.4.3 2.4.7 3.1.4.7 1.1 1 2 1 .8 0 1.5-.3 2-1 .4-.7.7-1.7.7-3.1s-.3-2.4-.7-3.1c-.4-.7-1.1-1-2-1-1.9 0-2.7 1.4-2.7 4.1zM877.2 1002.3c.7.4 1.3 1.1 1.5 2 .4.8.6 1.8.6 2.9 0 1.3-.3 2.2-.7 3.2-.4 1-1.1 1.5-2 2.1-.8.6-1.8.7-2.8.7-1.7 0-3.1-.6-4.1-1.7-1-1.1-1.5-2.9-1.5-5.2 0-1.7.1-3.1.4-4.2s.7-2 1.4-2.7c.7-.7 1.7-1.3 2.9-1.7 1-.3 1.7-.6 2.1-.8.6-.3 1.1-.6 1.7-.8l1.1 2c-.6.3-1.1.7-1.7.8-.6.1-1.3.6-2.1.8-.7.3-1.3.4-1.7.8-.4.3-.7.7-1 1.3-.3.6-.4 1.3-.6 2.2.8-1.4 2.1-2.1 3.8-2.1 1.3-.2 2 0 2.7.4zm-1.5 7.9c.4-.6.7-1.5.7-2.8s-.1-2.1-.6-2.7c-.4-.6-.8-.8-1.7-.8-.6 0-1.1.1-1.5.4-.4.3-.8.7-1.3 1.4v1.5c0 1.3.3 2.1.7 2.8.4.7 1 1 1.8 1s1.5-.3 1.9-.8zM890.8 1010.7c.1.3.4.4.7.6l-.6 2c-.7 0-1.3-.3-1.7-.6-.4-.3-.7-.7-1-1.3-.4.6-.8 1-1.5 1.4-.6.3-1.3.4-2 .4-1.1 0-2.1-.3-2.8-1-.7-.7-1-1.5-1-2.7 0-1.3.4-2.2 1.4-2.9 1-.7 2.2-1 4.1-1h1.5v-.7c0-.7-.1-1.3-.6-1.5-.3-.3-1-.4-1.7-.4-.8 0-2 .1-3.1.6l-.7-2c1.5-.6 2.9-.8 4.4-.8 3.1 0 4.5 1.4 4.5 4.1v5.1c-.1.2 0 .5.1.7zm-3-1.1v-2.4h-1.1c-1.8 0-2.8.7-2.8 2.1 0 .6.1 1 .4 1.3.3.3.7.4 1.3.4.9 0 1.6-.4 2.2-1.4zM904 1009.2c0 1.3-.4 2.1-1.4 2.8-1 .6-2.2.8-3.8.8h-4.6V1001c1.5-.3 3.1-.4 4.4-.4 1.5 0 2.8.3 3.7.8.8.6 1.3 1.4 1.3 2.4 0 .7-.3 1.3-.6 1.7-.4.4-1 .7-1.8.8 1.7.2 2.8 1.2 2.8 2.9zm-7-6.6v2.9h1.7c1.3 0 1.8-.6 1.8-1.5s-.7-1.5-2.1-1.5c-.4.1-.8.1-1.4.1zm4 6.3c0-.6-.1-1-.6-1.3-.3-.3-1-.4-1.7-.4h-1.8v3.4h1.7c1.7.1 2.4-.4 2.4-1.7zM916.5 1012.8h-2.8v-4.8c0-.8 0-1.7.1-2.5.1-.7.1-1.4.3-1.7l-4.5 9h-3.1v-11.9h2.8v4.8c0 .8 0 1.7-.1 2.4s-.1 1.4-.3 1.7l4.4-9h3.1v12.1h.1zM928.8 1000.9l-.4 2.2h-3.5v9.7H922v-9.7h-3.7v-2.2h10.5zM938.6 1005.7c.8.7 1.3 1.7 1.3 3.1 0 1.4-.4 2.4-1.4 3.1-1 .7-2.1 1-3.5 1h-4.5V1001h2.8v3.8h1.1c1.9-.1 3.3.2 4.2.9zm-1.7 2.9c0-.7-.1-1.3-.6-1.5s-1-.6-1.8-.6h-1.1v4.2h1.4c1.3 0 2.1-.7 2.1-2.1z"/></g><g><path class="st2" d="M1185.8 997.4c.7.3 1.4.7 2.1 1.3l-1.5 1.7c-1-.7-1.8-1.1-2.8-1.1-1.1 0-2.1.4-2.8 1.4-.7 1-1 2.4-1 4.4 0 2 .3 3.4 1 4.4.7 1 1.7 1.4 2.8 1.4.6 0 1.1-.1 1.7-.3.4-.3 1-.6 1.5-1l1.4 1.7c-.6.6-1.1 1-2 1.4-.8.4-1.7.6-2.7.6-1.4 0-2.5-.3-3.5-1-1-.6-1.8-1.5-2.4-2.8-.6-1.3-.8-2.7-.8-4.4 0-1.7.3-3.1.8-4.4.6-1.3 1.4-2.1 2.4-2.8 1-.7 2.2-1 3.5-1 .7.1 1.6.2 2.3.5zM1198.5 1002.3c1 1.1 1.4 2.7 1.4 4.6 0 1.3-.3 2.4-.7 3.2-.4 1-1.1 1.7-2 2.2-.8.6-1.8.8-2.9.8-1.7 0-3.1-.6-4.1-1.7-1-1.1-1.5-2.7-1.5-4.6 0-1.3.3-2.4.7-3.2s1.1-1.7 2-2.2c.8-.6 1.8-.8 2.9-.8 1.9 0 3.3.6 4.2 1.7zm-6.6 4.5c0 1.4.3 2.4.7 3.1.4.7 1.1 1 2 1s1.5-.3 2-1 .7-1.7.7-3.1-.3-2.4-.7-3.1c-.4-.7-1.1-1-2-1-1.8 0-2.7 1.4-2.7 4.1zM1208.1 1006.4l3.9 6.3h-3.4l-2.4-4.8-2.4 4.8h-3.2l3.9-6.3-3.5-5.6h3.2l2 4.1 2-4.1h3.1l-3.2 5.6zM1223.3 1002.2c.7 1.1 1.1 2.7 1.1 4.6 0 1.3-.1 2.4-.6 3.2-.4 1-.8 1.7-1.7 2.2-.8.6-1.5.8-2.5.8-1.3 0-2.2-.4-2.9-1.3v5.6l-2.8.3v-16.9h2.5l.1 1.4c.4-.6 1-1 1.5-1.4.6-.3 1.3-.4 1.8-.4 1.6.3 2.6.9 3.5 1.9zm-2 4.6c0-1.4-.1-2.5-.6-3.1-.4-.7-1-1-1.7-1-.4 0-1 .1-1.4.4s-.8.7-1.1 1.1v5.3c.6.8 1.3 1.3 2.2 1.3 1.8.1 2.6-1.2 2.6-4zM1235.9 1010.7c.1.3.4.4.7.6l-.6 2c-.7 0-1.3-.3-1.7-.6s-.7-.7-1-1.3c-.4.6-.8 1-1.5 1.4-.6.3-1.3.4-2 .4-1.1 0-2.1-.3-2.8-1-.7-.7-1-1.5-1-2.7 0-1.3.4-2.2 1.4-2.9 1-.7 2.2-1 4.1-1h1.5v-.7c0-.7-.1-1.3-.6-1.5-.3-.3-1-.4-1.7-.4-.8 0-2 .1-3.1.6l-.7-2c1.5-.6 2.9-.8 4.4-.8 3.1 0 4.5 1.4 4.5 4.1v5.1c-.2.2 0 .5.1.7zm-3.1-1.1v-2.4h-1.1c-1.8 0-2.8.7-2.8 2.1 0 .6.1 1 .4 1.3.3.3.7.4 1.3.4.9 0 1.6-.4 2.2-1.4zM1246 1012.8v-4.9h-3.9v4.9h-2.8v-11.9h2.8v4.8h4.1v-4.8h2.8v11.9h-3zM1262.3 1012.8h-2.8v-4.8c0-.8 0-1.7.1-2.5.1-.7.1-1.4.3-1.7l-4.5 9h-3.1v-11.9h2.8v4.8c0 .8 0 1.7-.1 2.4s-.1 1.4-.3 1.7l4.4-9h3.1v12.1h.1zM1274.5 1000.9l-.4 2.2h-3.5v9.7h-2.8v-9.7h-3.7v-2.2h10.4zM1284.2 1005.7c.8.7 1.3 1.7 1.3 3.1 0 1.4-.4 2.4-1.4 3.1-1 .7-2.1 1-3.5 1h-4.5V1001h2.8v3.8h1.1c2.1-.1 3.4.2 4.2.9zm-1.7 2.9c0-.7-.1-1.3-.6-1.5s-1-.6-1.8-.6h-1.1v4.2h1.4c1.4 0 2.1-.7 2.1-2.1z"/></g><path class="st10" d="M185 1041.8H56.9c-5.5 0-10-4.5-10-10v-53.5c0-5.5 4.5-10 10-10h127.9c5.5 0 10 4.5 10 10v53.5c.2 5.5-4.3 10-9.8 10zM349.2 1041.8h-128c-5.5 0-10-4.5-10-10v-53.5c0-5.5 4.5-10 10-10h127.9c5.5 0 10 4.5 10 10v53.5c.2 5.5-4.3 10-9.9 10z"/><path class="st14" d="M135.6 1009.2l-11.8-10.8c-1.1-1.1-2.9-1.1-4.1 0l-11.7 10.8c-1.1 1.1-.4 2.9 1.1 2.9h25.1c1.8.2 2.5-1.8 1.4-2.9zM270.1 1000.6l11.8 10.8c1.1 1.1 2.9 1.1 4.1 0l11.7-10.8c1.1-1.1.4-2.9-1.1-2.9h-25.1c-1.8 0-2.7 1.9-1.4 2.9z"/><g><path class="st10" d="M72.9 412l-.3 2.4h-4.1v13.2h-2.9v-13.2h-4.2V412h11.5zM82.5 417.1c1 1.1 1.4 2.7 1.4 4.6 0 1.3-.3 2.4-.7 3.2-.4 1-1.1 1.7-2 2.2-.8.6-1.8.8-2.9.8-1.7 0-3.1-.6-4.1-1.7-1-1.1-1.5-2.7-1.5-4.6 0-1.3.3-2.4.7-3.2.4-1 1.1-1.7 2-2.2.8-.6 1.8-.8 2.9-.8 1.9 0 3.2.6 4.2 1.7zm-6.6 4.5c0 1.4.3 2.4.7 3.1.4.7 1.1 1 2 1s1.5-.3 2-1c.4-.7.7-1.7.7-3.1s-.3-2.4-.7-3.1c-.4-.7-1.1-1-2-1-1.9 0-2.7 1.4-2.7 4.1zM96.7 424c0 1.3-.4 2.1-1.4 2.8-1 .6-2.2.8-3.8.8h-4.6v-11.8c1.5-.3 3.1-.4 4.4-.4 1.5 0 2.8.3 3.7.8.8.6 1.3 1.4 1.3 2.4 0 .7-.1 1.3-.6 1.7-.4.4-1 .7-1.8.8 1.6.2 2.8 1.2 2.8 2.9zm-7.1-6.6v2.9h1.7c1.3 0 1.8-.6 1.8-1.5 0-1-.7-1.5-2.1-1.5-.4.1-.8.1-1.4.1zm4 6.4c0-.6-.1-1-.6-1.3s-1-.4-1.7-.4h-1.8v3.4h1.7c1.7.2 2.4-.5 2.4-1.7zM108 425.5c.1.3.4.4.7.6l-.6 2c-.7 0-1.3-.3-1.7-.6-.4-.3-.7-.7-1-1.3-.4.6-.8 1-1.5 1.4-.6.3-1.3.4-2 .4-1.1 0-2.1-.3-2.8-1-.7-.7-1-1.5-1-2.7 0-1.3.4-2.2 1.4-2.9 1-.7 2.2-1 4.1-1h1.5v-.7c0-.7-.1-1.3-.6-1.5-.4-.3-1-.4-1.7-.4-.8 0-2 .1-3.1.6l-.7-2c1.5-.6 2.9-.8 4.4-.8 3.1 0 4.5 1.4 4.5 4.1v5.1c0 .2 0 .4.1.7zm-2.9-1.1V422H104c-1.8 0-2.8.7-2.8 2.1 0 .6.1 1 .4 1.3s.7.4 1.3.4c.8 0 1.6-.4 2.2-1.4zM120.8 417c.7 1.1 1.1 2.7 1.1 4.6 0 1.3-.1 2.4-.6 3.2-.4 1-.8 1.7-1.7 2.2-.7.6-1.5.8-2.5.8-1.3 0-2.2-.4-2.9-1.3v5.6l-2.8.3v-16.9h2.5l.1 1.4c.4-.6 1-1 1.5-1.4.6-.4 1.3-.4 1.8-.4 1.7.3 2.8.9 3.5 1.9zm-1.9 4.6c0-1.4-.1-2.5-.6-3.1-.4-.6-1-1-1.7-1-.4 0-1 .1-1.4.4-.4.3-.8.7-1.1 1.1v5.3c.6.8 1.3 1.3 2.2 1.3 1.7.1 2.6-1.2 2.6-4zM367.3 412l-.3 2.2h-5.8v4.4h5.1v2.2h-5.1v4.5h6.2v2.2h-9.1V412h9zM380.4 425.4v5.8h-2.1l-.4-3.5h-7l-.4 3.5h-2.1v-5.8h.8c.3-.1.6-.4.7-.8.1-.3.4-.8.6-1.5.1-.7.3-1.8.4-3.2l.3-4.2h8v9.7h1.3zm-4.1-7.6h-2.7l-.1 1.8c-.1 1.3-.3 2.2-.4 3.1-.1.7-.4 1.3-.6 1.7-.3.4-.6.7-1.1 1h4.9v-7.6zM385.1 424.8c.4.4.6.8.6 1.3 0 .6-.1 1-.6 1.3s-.8.6-1.3.6c-.6 0-1-.1-1.3-.6-.4-.4-.6-.8-.6-1.3 0-.6.1-1 .6-1.3.3-.4.7-.6 1.3-.6s.9.2 1.3.6zM402 427.6h-2.8v-4.8c0-.8 0-1.7.1-2.5s.1-1.4.3-1.7l-4.5 9H392v-11.9h2.8v4.8c0 .8 0 1.7-.1 2.4-.1.8-.1 1.4-.3 1.7l4.4-9h3.1v12.1h.1zM411.9 416.3c.8.6 1.3 1.4 1.3 2.4 0 .7-.1 1.3-.6 1.7-.4.4-1 .7-2 1 1 .1 1.8.4 2.4 1 .6.4.8 1.1.8 2 0 1.3-.4 2.1-1.4 2.8-1 .7-2.2 1-3.8 1-1.8 0-3.4-.4-4.8-1.4l1.4-1.7c.6.3 1 .6 1.5.7.6.1 1.1.3 1.7.3 1.5 0 2.4-.6 2.4-1.8 0-1.1-.8-1.5-2.5-1.5h-1.7l.1-2h1.3c.7 0 1.3-.1 1.7-.4.4-.3.6-.7.6-1.3 0-.6-.1-.8-.6-1.1-.4-.3-.8-.3-1.4-.3-.6 0-1.1.1-1.5.3-.4.1-.8.4-1.3.7l-1.3-1.5c.6-.4 1.3-.8 2.1-1 .7-.3 1.5-.3 2.5-.3 1.3-.5 2.3-.2 3.1.4zM428.9 427.6h-2.8l-.4-4.9c0-.7-.1-1.5-.1-2.4v-2.1l-2.2 8h-2.5l-2.2-8v4.4l-.3 4.9h-2.8l1-11.9h3.5l2 8 2.1-8h3.5l1.2 12zM441.4 422.6H434c.1 1.1.4 2 .8 2.5.6.6 1.1.7 2 .7.6 0 1-.1 1.5-.3.4-.1 1-.4 1.5-.8l1.1 1.7c-1.3 1.1-2.8 1.5-4.4 1.5-1.8 0-3.2-.6-4.2-1.7s-1.4-2.7-1.4-4.5c0-1.3.1-2.2.6-3.2.4-1 1-1.7 1.8-2.2.8-.6 1.7-.8 2.8-.8 1.7 0 2.9.6 3.9 1.5 1 1.1 1.4 2.5 1.4 4.4v1.2zm-2.8-2c0-2.1-.7-3.1-2.2-3.1-.7 0-1.3.3-1.7.8-.4.6-.7 1.4-.7 2.5l4.6-.2zM453.5 417c.7 1.1 1.1 2.7 1.1 4.6 0 1.3-.1 2.4-.6 3.2-.4 1-.8 1.7-1.7 2.2-.7.6-1.5.8-2.5.8-1.3 0-2.2-.4-2.9-1.3v5.6l-2.8.3v-16.9h2.5l.1 1.4c.4-.6 1-1 1.5-1.4.6-.4 1.3-.4 1.8-.4 1.7.3 2.8.9 3.5 1.9zm-1.9 4.6c0-1.4-.1-2.5-.6-3.1-.4-.6-1-1-1.7-1-.4 0-1 .1-1.4.4-.4.3-.8.7-1.1 1.1v5.3c.6.8 1.3 1.3 2.2 1.3 1.7.1 2.6-1.2 2.6-4zM467.1 422.6h-7.4c.1 1.1.4 2 .8 2.5.6.6 1.1.7 2 .7.6 0 1-.1 1.5-.3.4-.1 1-.4 1.5-.8l1.1 1.7c-1.3 1.1-2.8 1.5-4.4 1.5-1.8 0-3.2-.6-4.2-1.7s-1.4-2.7-1.4-4.5c0-1.3.1-2.2.6-3.2.4-1 1-1.7 1.8-2.2.8-.6 1.7-.8 2.8-.8 1.7 0 2.9.6 3.9 1.5 1 1.1 1.4 2.5 1.4 4.4v1.2zm-2.8-2c0-2.1-.7-3.1-2.2-3.1-.7 0-1.3.3-1.7.8-.4.6-.7 1.4-.7 2.5l4.6-.2zM476.7 427.6v-4.9h-4.1v4.9h-2.8v-11.9h2.8v4.8h4.1v-4.8h2.8v11.9h-2.8zM493 427.6h-2.8v-4.8c0-.8 0-1.7.1-2.5s.1-1.4.3-1.7l-4.5 9H483v-11.9h2.8v4.8c0 .8 0 1.7-.1 2.4-.1.8-.1 1.4-.3 1.7l4.4-9h3.1v12.1h.1zM505.3 415.7v11.9h-2.8v-4.4h-2l-2.2 4.4h-3.1l2.8-5.1c-.6-.3-1.1-.7-1.4-1.3-.3-.6-.6-1.1-.6-1.8 0-1.3.4-2.1 1.4-2.8.8-.7 2.2-1 3.9-1h4zm-2.8 5.8v-3.8h-1.4c-1.4 0-2.2.6-2.2 1.8 0 .7.1 1.1.6 1.4s.8.4 1.7.4h1.4v.2zM614.7 412l-4.1 7.2 4.5 8.4h-3.4l-3.7-7h-1.8v7h-2.9V412h2.9v6.3h2l3.5-6.3h3zM625.6 417.1c1 1.1 1.4 2.7 1.4 4.6 0 1.3-.3 2.4-.7 3.2-.4 1-1.1 1.7-2 2.2-.8.6-1.8.8-2.9.8-1.7 0-3.1-.6-4.1-1.7-1-1.1-1.5-2.7-1.5-4.6 0-1.3.3-2.4.7-3.2.4-1 1.1-1.7 2-2.2.8-.6 1.8-.8 2.9-.8 1.8 0 3.2.6 4.2 1.7zm-6.8 4.5c0 1.4.3 2.4.7 3.1.4.7 1.1 1 2 1 .8 0 1.5-.3 2-1 .4-.7.7-1.7.7-3.1s-.3-2.4-.7-3.1c-.4-.7-1.1-1-2-1-1.8 0-2.7 1.4-2.7 4.1zM638.9 415.7v11.9h-2.8v-9.7h-2.9l-.3 3.2c-.1 1.7-.3 2.9-.6 3.8-.1.8-.6 1.5-1 2-.4.4-1.3.8-2.2 1.1l-.7-2.1c.6-.1.8-.4 1.1-.7.3-.3.4-.7.4-1.3.1-.6.1-1.5.3-2.9l.4-5.2h8.3v-.1zM641.8 421.7v-2.2h6.7v2.2h-6.7zM661.4 424c0 1.3-.4 2.1-1.4 2.8-1 .6-2.2.8-3.8.8h-4.6v-11.8c1.5-.3 3.1-.4 4.4-.4 1.5 0 2.8.3 3.7.8.8.6 1.3 1.4 1.3 2.4 0 .7-.1 1.3-.6 1.7-.4.4-1 .7-1.8.8 1.8.2 2.8 1.2 2.8 2.9zm-7.1-6.6v2.9h1.7c1.3 0 1.8-.6 1.8-1.5 0-1-.7-1.5-2.1-1.5-.4.1-.8.1-1.4.1zm4.1 6.4c0-.6-.1-1-.6-1.3s-1-.4-1.7-.4h-1.8v3.4h1.7c1.6.2 2.4-.5 2.4-1.7zM672.9 417.1c1 1.1 1.4 2.7 1.4 4.6 0 1.3-.3 2.4-.7 3.2-.4 1-1.1 1.7-2 2.2-.8.6-1.8.8-2.9.8-1.7 0-3.1-.6-4.1-1.7-1-1.1-1.5-2.7-1.5-4.6 0-1.3.3-2.4.7-3.2.4-1 1.1-1.7 2-2.2.8-.6 1.8-.8 2.9-.8 1.8 0 3.2.6 4.2 1.7zm-6.8 4.5c0 1.4.3 2.4.7 3.1.4.7 1.1 1 2 1s1.5-.3 2-1c.4-.7.7-1.7.7-3.1s-.3-2.4-.7-3.1c-.4-.7-1.1-1-2-1-1.8 0-2.7 1.4-2.7 4.1zM693.9 424c0 1.3-.4 2.1-1.4 2.8-1 .6-2.2.8-3.8.8h-4.6v-11.8c1.5-.3 3.1-.4 4.4-.4 1.5 0 2.8.3 3.7.8.8.6 1.3 1.4 1.3 2.4 0 .7-.1 1.3-.6 1.7-.4.4-1 .7-1.8.8 1.9.2 2.8 1.2 2.8 2.9zm-7-6.6v2.9h1.7c1.3 0 1.8-.6 1.8-1.5 0-1-.7-1.5-2.1-1.5-.4.1-.8.1-1.4.1zm4.1 6.4c0-.6-.1-1-.6-1.3-.4-.3-1-.4-1.7-.4h-1.8v3.4h1.7c1.6.2 2.4-.5 2.4-1.7zM710.4 417.1c.7.4 1.3 1.1 1.5 2 .4.8.6 1.8.6 2.9 0 1.3-.3 2.2-.7 3.2-.4.8-1.1 1.5-2 2.1-.8.6-1.8.7-2.8.7-1.7 0-3.1-.6-4.1-1.7s-1.5-2.9-1.5-5.2c0-1.7.1-3.1.4-4.2.3-1.1.7-2 1.4-2.7.7-.7 1.7-1.3 2.9-1.7 1-.3 1.7-.6 2.1-.8.6-.3 1.1-.6 1.7-.8l1.1 2c-.6.3-1.1.7-1.7.8-.6.3-1.3.6-2.1.8-.7.3-1.3.4-1.7.8-.4.3-.7.7-1 1.3-.3.6-.4 1.3-.6 2.2.8-1.4 2.1-2.1 3.8-2.1 1.3-.2 2 0 2.7.4zm-1.6 7.9c.4-.6.7-1.5.7-2.8 0-1.3-.1-2.1-.6-2.7-.4-.6-.8-.8-1.7-.8-.6 0-1.1.1-1.5.4-.4.3-.8.7-1.3 1.4v1.5c0 1.3.3 2.1.7 2.8.4.7 1 1 1.8 1s1.5-.3 1.9-.8zM724 425.5c.1.3.4.4.7.6l-.6 2c-.7 0-1.3-.3-1.7-.6-.4-.3-.7-.7-1-1.3-.4.6-.8 1-1.5 1.4-.6.3-1.3.4-2 .4-1.1 0-2.1-.3-2.8-1-.7-.7-1-1.5-1-2.7 0-1.3.4-2.2 1.4-2.9 1-.7 2.2-1 4.1-1h1.5v-.7c0-.7-.1-1.3-.6-1.5-.4-.3-1-.4-1.7-.4-.8 0-2 .1-3.1.6l-.7-2c1.5-.6 2.9-.8 4.4-.8 3.1 0 4.5 1.4 4.5 4.1v5.1c-.2.2 0 .4.1.7zm-3.1-1.1V422h-1.1c-1.8 0-2.8.7-2.8 2.1 0 .6.1 1 .4 1.3s.7.4 1.3.4c.9 0 1.7-.4 2.2-1.4zM733.8 416.3c.8.6 1.3 1.4 1.3 2.4 0 .7-.1 1.3-.6 1.7-.4.4-1 .7-2 1 1 .1 1.8.4 2.4 1 .6.4.8 1.1.8 2 0 1.3-.4 2.1-1.4 2.8s-2.2 1-3.8 1c-1.8 0-3.4-.4-4.8-1.4l1.4-1.7c.6.3 1 .6 1.5.7.6.1 1.1.3 1.7.3 1.5 0 2.4-.6 2.4-1.8 0-1.1-.8-1.5-2.5-1.5h-1.7l.1-2h1.3c.7 0 1.3-.1 1.7-.4.4-.3.6-.7.6-1.3 0-.6-.1-.8-.6-1.1-.4-.3-.8-.3-1.4-.3-.6 0-1.1.1-1.5.3-.4.1-.8.4-1.3.7l-1.3-1.5c.6-.4 1.3-.8 2.1-1 .7-.3 1.5-.3 2.5-.3 1.2-.5 2.3-.2 3.1.4zM747.3 417.1c1 1.1 1.4 2.7 1.4 4.6 0 1.3-.3 2.4-.7 3.2-.4 1-1.1 1.7-2 2.2-.8.6-1.8.8-2.9.8-1.7 0-3.1-.6-4.1-1.7-1-1.1-1.5-2.7-1.5-4.6 0-1.3.3-2.4.7-3.2.4-1 1.1-1.7 2-2.2.8-.6 1.8-.8 2.9-.8 1.8 0 3.2.6 4.2 1.7zm-6.7 4.5c0 1.4.3 2.4.7 3.1.4.7 1.1 1 2 1 .8 0 1.5-.3 2-1 .4-.7.7-1.7.7-3.1s-.3-2.4-.7-3.1c-.4-.7-1.1-1-2-1-1.9 0-2.7 1.4-2.7 4.1zM761.4 424c0 1.3-.4 2.1-1.4 2.8-1 .6-2.2.8-3.8.8h-4.6v-11.8c1.5-.3 3.1-.4 4.4-.4 1.5 0 2.8.3 3.7.8.8.6 1.3 1.4 1.3 2.4 0 .7-.3 1.3-.6 1.7-.4.4-1 .7-1.8.8 1.8.2 2.8 1.2 2.8 2.9zm-7.1-6.6v2.9h1.7c1.3 0 1.8-.6 1.8-1.5 0-1-.7-1.5-2.1-1.5-.4.1-.8.1-1.4.1zm4.1 6.4c0-.6-.1-1-.6-1.3-.3-.3-1-.4-1.7-.4h-1.8v3.4h1.7c1.6.2 2.4-.5 2.4-1.7zM771.9 420.5c.8.7 1.3 1.7 1.3 3.1 0 1.3-.4 2.4-1.4 3.1-1 .7-2.1 1-3.5 1h-4.4v-11.9h2.8v3.8h1c1.9-.1 3.3.2 4.2.9zm-1.7 2.9c0-.7-.1-1.3-.6-1.5-.4-.3-1-.6-1.8-.6h-1v4.2h1.1c1.6.2 2.3-.7 2.3-2.1zm4.4-7.7h2.8v11.9h-2.8v-11.9zM786.5 421.2l3.9 6.3H787l-2.4-4.8-2.4 4.8H779l3.9-6.3-3.5-5.6h3.2l2 4.1 2-4.1h3.1l-3.2 5.6zM807.1 422.6h-7.4c.1 1.1.4 2 .8 2.5.6.6 1.1.7 2 .7.6 0 1-.1 1.5-.3.4-.1 1-.4 1.5-.8l1.1 1.7c-1.3 1.1-2.8 1.5-4.4 1.5-1.8 0-3.2-.6-4.2-1.7s-1.4-2.7-1.4-4.5c0-1.3.1-2.2.6-3.2.4-1 1-1.7 1.8-2.2.8-.6 1.7-.8 2.8-.8 1.7 0 2.9.6 3.9 1.5 1 1.1 1.4 2.5 1.4 4.4.2.1 0 .5 0 1.2zm-2.8-2c0-2.1-.7-3.1-2.2-3.1-.7 0-1.3.3-1.7.8-.4.6-.7 1.4-.7 2.5l4.6-.2zM819.8 425.4v5.8h-2.1l-.4-3.5h-7l-.4 3.5h-2.1v-5.8h.8c.3-.1.6-.4.7-.8.1-.3.4-.8.6-1.5.1-.7.3-1.8.4-3.2l.3-4.2h8v9.7h1.3zm-4-7.6h-2.7l-.1 1.8c-.1 1.3-.3 2.2-.4 3.1-.1.7-.4 1.3-.6 1.7-.3.4-.6.7-1.1 1h4.9v-7.6zM824.6 424.8c.4.4.6.8.6 1.3 0 .6-.1 1-.6 1.3s-.8.6-1.3.6c-.6 0-1-.1-1.3-.6s-.6-.8-.6-1.3c0-.6.1-1 .6-1.3.3-.4.7-.6 1.3-.6s1 .2 1.3.6zM954.7 425.2h1.8v5.9h-2.1l-.4-3.5h-10.5V412h2.9v13.2h5.2V412h2.9v13.2h.2zM968.4 422.6H961c.1 1.1.4 2 .8 2.5.6.6 1.1.7 2 .7.6 0 1-.1 1.5-.3.4-.1 1-.4 1.5-.8l1.1 1.7c-1.3 1.1-2.8 1.5-4.4 1.5-1.8 0-3.2-.6-4.2-1.7s-1.4-2.7-1.4-4.5c0-1.3.1-2.2.6-3.2.4-1 1-1.7 1.8-2.2.8-.6 1.7-.8 2.8-.8 1.7 0 2.9.6 3.9 1.5 1 1.1 1.4 2.5 1.4 4.4v1.2zm-2.8-2c0-2.1-.7-3.1-2.2-3.1-.7 0-1.3.3-1.7.8-.4.6-.7 1.4-.7 2.5l4.6-.2zM977.9 427.6v-4.9h-4.1v4.9H971v-11.9h2.8v4.8h4.1v-4.8h2.8v11.9h-2.8zM993.2 425.5c.1.3.4.4.7.6l-.6 2c-.7 0-1.3-.3-1.7-.6-.4-.3-.7-.7-1-1.3-.4.6-.8 1-1.5 1.4-.6.3-1.3.4-2 .4-1.1 0-2.1-.3-2.8-1-.7-.7-1-1.5-1-2.7 0-1.3.4-2.2 1.4-2.9 1-.7 2.2-1 4.1-1h1.5v-.7c0-.7-.1-1.3-.6-1.5-.3-.3-1-.4-1.7-.4-.8 0-2 .1-3.1.6l-.7-2c1.5-.6 2.9-.8 4.4-.8 3.1 0 4.5 1.4 4.5 4.1v5.1c-.2.2 0 .4.1.7zm-3.1-1.1V422H989c-1.8 0-2.8.7-2.8 2.1 0 .6.1 1 .4 1.3.3.3.7.4 1.3.4 1 0 1.7-.4 2.2-1.4zM1010.1 416.3c.8.6 1.3 1.4 1.3 2.4 0 .7-.1 1.3-.6 1.7-.4.4-1 .7-2 1 1 .1 1.8.4 2.4 1 .6.4.8 1.1.8 2 0 1.3-.4 2.1-1.4 2.8-1 .7-2.2 1-3.8 1-1.8 0-3.4-.4-4.8-1.4l1.4-1.7c.6.3 1 .6 1.5.7.6.1 1.1.3 1.7.3 1.5 0 2.4-.6 2.4-1.8 0-1.1-.8-1.5-2.5-1.5h-1.8l.1-2h1.3c.7 0 1.3-.1 1.7-.4.4-.3.6-.7.6-1.3 0-.6-.1-.8-.6-1.1-.3-.3-.8-.3-1.4-.3s-1.1.1-1.5.3c-.4.1-.8.4-1.3.7l-1.3-1.5c.6-.4 1.3-.8 2.1-1 .7-.3 1.5-.3 2.5-.3 1.2-.5 2.3-.2 3.2.4zM1023.4 425.5c.1.3.4.4.7.6l-.6 2c-.7 0-1.3-.3-1.7-.6-.4-.3-.7-.7-1-1.3-.4.6-.8 1-1.5 1.4-.6.3-1.3.4-2 .4-1.1 0-2.1-.3-2.8-1-.7-.7-1-1.5-1-2.7 0-1.3.4-2.2 1.4-2.9 1-.7 2.2-1 4.1-1h1.5v-.7c0-.7-.1-1.3-.6-1.5-.3-.3-1-.4-1.7-.4-.8 0-2 .1-3.1.6l-.7-2c1.5-.6 2.9-.8 4.4-.8 3.1 0 4.5 1.4 4.5 4.1v5.1c0 .2 0 .4.1.7zm-2.9-1.1V422h-1.1c-1.8 0-2.8.7-2.8 2.1 0 .6.1 1 .4 1.3.3.3.7.4 1.3.4.8 0 1.6-.4 2.2-1.4zM1042.1 422.6h-7.4c.1 1.1.4 2 .8 2.5.6.6 1.1.7 2 .7.6 0 1-.1 1.5-.3.4-.1 1-.4 1.5-.8l1.1 1.7c-1.3 1.1-2.8 1.5-4.4 1.5-1.8 0-3.2-.6-4.2-1.7s-1.4-2.7-1.4-4.5c0-1.3.1-2.2.6-3.2.4-1 1-1.7 1.8-2.2.8-.6 1.7-.8 2.8-.8 1.7 0 2.9.6 3.9 1.5 1 1.1 1.4 2.5 1.4 4.4v1.2zm-2.8-2c0-2.1-.7-3.1-2.2-3.1-.7 0-1.3.3-1.7.8s-.7 1.4-.7 2.5l4.6-.2zM1054.7 425.4v5.8h-2.1l-.4-3.5h-7l-.4 3.5h-2.1v-5.8h.8c.3-.1.6-.4.7-.8.1-.3.4-.8.6-1.5.1-.7.3-1.8.4-3.2l.3-4.2h8v9.7h1.3zm-4-7.6h-2.7l-.1 1.8c-.1 1.3-.3 2.2-.4 3.1-.1.7-.4 1.3-.6 1.7-.3.4-.6.7-1.1 1h4.9v-7.6zM1059.5 424.8c.4.4.6.8.6 1.3 0 .6-.1 1-.6 1.3s-.8.6-1.3.6c-.6 0-1-.1-1.3-.6s-.6-.8-.6-1.3c0-.6.1-1 .6-1.3.3-.4.7-.6 1.3-.6.5.1.9.2 1.3.6zM1074.3 415.7l-.4 2.2h-3.5v9.7h-2.8v-9.7h-3.7v-2.2h10.4zM1083.9 425.5c.1.3.4.4.7.6l-.6 2c-.7 0-1.3-.3-1.7-.6-.4-.3-.7-.7-1-1.3-.4.6-.8 1-1.5 1.4-.6.3-1.3.4-2 .4-1.1 0-2.1-.3-2.8-1-.7-.7-1-1.5-1-2.7 0-1.3.4-2.2 1.4-2.9 1-.7 2.2-1 4.1-1h1.5v-.7c0-.7-.1-1.3-.6-1.5-.3-.3-1-.4-1.7-.4-.8 0-2 .1-3.1.6l-.7-2c1.5-.6 2.9-.8 4.4-.8 3.1 0 4.5 1.4 4.5 4.1v5.1c0 .2 0 .4.1.7zm-2.9-1.1V422h-1.1c-1.8 0-2.8.7-2.8 2.1 0 .6.1 1 .4 1.3.3.3.7.4 1.3.4.8 0 1.6-.4 2.2-1.4zM1096.7 417c.7 1.1 1.1 2.7 1.1 4.6 0 1.3-.1 2.4-.6 3.2-.4 1-.8 1.7-1.7 2.2-.7.6-1.5.8-2.5.8-1.3 0-2.2-.4-2.9-1.3v5.6l-2.8.3v-16.9h2.5l.1 1.4c.4-.6 1-1 1.5-1.4.6-.3 1.3-.4 1.8-.4 1.7.3 2.8.9 3.5 1.9zm-1.8 4.6c0-1.4-.1-2.5-.6-3.1-.4-.6-1-1-1.7-1-.4 0-1 .1-1.4.4-.4.3-.8.7-1.1 1.1v5.3c.6.8 1.3 1.3 2.2 1.3 1.8.1 2.6-1.2 2.6-4zM1108.5 420.5c.8.7 1.3 1.7 1.3 3.1 0 1.3-.4 2.4-1.4 3.1-1 .7-2.1 1-3.5 1h-4.4v-11.9h2.8v3.8h1c2.1-.1 3.4.2 4.2.9zm-1.7 2.9c0-.7-.1-1.3-.6-1.5s-1-.6-1.8-.6h-1v4.2h1.1c1.6.2 2.3-.7 2.3-2.1zm4.4-7.7h2.8v11.9h-2.8v-11.9zM1266.5 412.2c.7.3 1.4.7 2.1 1.3l-1.5 1.7c-1-.7-1.8-1.1-2.8-1.1-1.1 0-2.1.4-2.8 1.4-.7 1-1 2.4-1 4.4s.3 3.4 1 4.4c.7 1 1.7 1.4 2.8 1.4.6 0 1.1-.1 1.7-.3.4-.3 1-.6 1.5-1l1.4 1.7c-.6.6-1.1 1-2 1.4-.8.4-1.7.6-2.7.6-1.4 0-2.5-.3-3.5-1-1-.6-1.8-1.5-2.4-2.8-.6-1.3-.8-2.7-.8-4.4s.3-3.1.8-4.4c.6-1.3 1.4-2.1 2.4-2.8 1-.6 2.2-1 3.5-1 .8.1 1.5.2 2.3.5z"/><path class="st10" d="M1275.4 427.6c-.4 1.4-1.3 2.7-2.2 3.4-1 .8-2.2 1.3-3.9 1.4l-.3-2.1c.8-.1 1.4-.3 1.8-.6.4-.3.8-.6 1.1-.8.3-.4.6-.8.8-1.4h-1l-3.8-11.9h3.1l2.5 10 2.7-10h2.9l-3.7 12zM1293.2 427.6h-2.8l-.4-4.9c0-.7-.1-1.5-.1-2.4v-2.1l-2.2 8h-2.5l-2.2-8v4.4l-.3 4.9h-2.8l1-11.9h3.5l2 8 2.1-8h3.5l1.2 12zM1308.2 427.6h-2.8l-.4-4.9c0-.7-.1-1.5-.1-2.4v-2.1l-2.2 8h-2.5l-2.2-8v4.4l-.3 4.9h-2.8l1-11.9h3.5l2 8 2.1-8h3.5l1.2 12zM1320 425.5c.1.3.4.4.7.6l-.6 2c-.7 0-1.3-.3-1.7-.6-.4-.3-.7-.7-1-1.3-.4.6-.8 1-1.5 1.4-.6.3-1.3.4-2 .4-1.1 0-2.1-.3-2.8-1-.7-.7-1-1.5-1-2.7 0-1.3.4-2.2 1.4-2.9 1-.7 2.2-1 4.1-1h1.5v-.7c0-.7-.1-1.3-.6-1.5-.3-.3-1-.4-1.7-.4-.8 0-2 .1-3.1.6l-.7-2c1.5-.6 2.9-.8 4.4-.8 3.1 0 4.5 1.4 4.5 4.1v5.1c-.2.2 0 .4.1.7zm-3.1-1.1V422h-1.1c-1.8 0-2.8.7-2.8 2.1 0 .6.1 1 .4 1.3.3.3.7.4 1.3.4 1 0 1.7-.4 2.2-1.4z"/></g><g><path class="st6" d="M68.7 478.2c.7.3 1.3.6 2 1.1l-1.1 1.4c-1-.7-2-1.1-2.9-1.1-1.3 0-2.4.6-3.1 1.5-.7 1-1.1 2.5-1.1 4.8 0 2.1.4 3.7 1.1 4.8.8 1 1.8 1.5 3.1 1.5.7 0 1.3-.1 1.7-.3.6-.3 1-.6 1.5-1l1.1 1.4c-.4.6-1.1.8-1.8 1.3-.7.3-1.5.6-2.5.6-1.3 0-2.4-.3-3.4-1-1-.6-1.7-1.5-2.2-2.8-.6-1.3-.8-2.7-.8-4.4s.3-3.1.8-4.4c.6-1.3 1.4-2.1 2.2-2.7 1-.6 2.1-1 3.2-1 .8 0 1.7 0 2.2.3zM81.4 483.1c1 1.1 1.4 2.7 1.4 4.5 0 1.3-.1 2.2-.6 3.2-.4 1-1 1.7-1.8 2.2-.8.6-1.7.8-2.8.8-1.7 0-2.9-.6-3.9-1.7s-1.4-2.7-1.4-4.5c0-1.3.1-2.2.6-3.2.4-1 1-1.7 1.8-2.2.8-.6 1.7-.8 2.8-.8 1.6.2 2.9.6 3.9 1.7zm-7.1 4.6c0 2.9 1 4.5 3.1 4.5s3.1-1.5 3.1-4.5-1-4.5-3.1-4.5c-2.1-.1-3.1 1.5-3.1 4.5zM92.3 481.8c.6.1 1.1.6 1.7 1l-1 1.3c-.4-.3-.8-.6-1.3-.7s-.8-.3-1.3-.3c-1 0-1.7.4-2.2 1.1-.6.7-.8 1.8-.8 3.4s.3 2.7.8 3.4c.6.7 1.3 1.1 2.2 1.1.4 0 .8-.1 1.3-.3.4-.1.8-.4 1.3-.7l1 1.4c-1.1.8-2.2 1.3-3.7 1.3s-2.8-.6-3.8-1.7-1.4-2.5-1.4-4.5c0-1.3.1-2.4.6-3.4.4-1 1-1.7 1.8-2.2.7-.6 1.7-.8 2.8-.8.9.4 1.5.4 2 .6zM104.8 492c.1.3.4.4.7.6l-.4 1.4c-.6-.1-1.1-.3-1.5-.6-.4-.3-.7-.7-.8-1.3-.8 1.1-2 1.8-3.5 1.8-1.1 0-2.1-.3-2.8-1-.7-.7-1-1.5-1-2.5 0-1.3.4-2.2 1.4-2.9.8-.7 2.2-1 3.8-1h1.8v-.8c0-.8-.1-1.4-.6-1.8-.4-.4-1-.6-1.8-.6s-2 .1-3.2.6l-.6-1.5c1.4-.6 2.8-.8 4.1-.8 1.4 0 2.4.3 3.1 1 .7.7 1 1.7 1 2.9v5.5c.2.3.2.7.3 1zm-2.2-1.4v-2.7H101c-2.2 0-3.2.8-3.2 2.4 0 .7.1 1.3.6 1.5.3.4.8.6 1.5.6 1 0 2-.7 2.7-1.8zM107.9 487.5v-1.7h6.3v1.7h-6.3zM125.6 478.2c.7.3 1.3.6 2 1.1l-1.1 1.4c-1-.7-2-1.1-2.9-1.1-1.3 0-2.4.6-3.1 1.5-.7 1-1.1 2.5-1.1 4.8 0 2.1.4 3.7 1.1 4.8.8 1 1.8 1.5 3.1 1.5.7 0 1.3-.1 1.7-.3.6-.3 1-.6 1.5-1l1.1 1.4c-.4.6-1.1.8-1.8 1.3-.7.3-1.5.6-2.5.6-1.3 0-2.4-.3-3.4-1-1-.6-1.7-1.5-2.2-2.8-.6-1.3-.8-2.7-.8-4.4s.3-3.1.8-4.4c.6-1.3 1.4-2.1 2.2-2.7 1-.6 2.1-1 3.2-1 .8 0 1.5 0 2.2.3zM138.1 483.1c1 1.1 1.4 2.7 1.4 4.5 0 1.3-.1 2.2-.6 3.2-.4 1-1 1.7-1.8 2.2-.8.6-1.7.8-2.8.8-1.7 0-2.9-.6-3.9-1.7s-1.4-2.7-1.4-4.5c0-1.3.1-2.2.6-3.2.4-1 1-1.7 1.8-2.2.8-.6 1.7-.8 2.8-.8 1.8.2 3.1.6 3.9 1.7zm-6.9 4.6c0 2.9 1 4.5 3.1 4.5s3.1-1.5 3.1-4.5-1-4.5-3.1-4.5c-2.1-.1-3.1 1.5-3.1 4.5zM143.4 493.2c-.4-.4-.7-1.1-.7-2v-14.3l2.1-.3v14.5c0 .3 0 .6.1.7.1.1.3.3.6.3s.6 0 .7-.1l.6 1.4c-.6.3-1 .4-1.7.4-.5.1-1.1-.2-1.7-.6zM157.6 492c.1.3.4.4.7.6l-.4 1.4c-.6-.1-1.1-.3-1.5-.6-.4-.3-.7-.7-.8-1.3-.8 1.1-2 1.8-3.5 1.8-1.1 0-2.1-.3-2.8-1-.7-.7-1-1.5-1-2.5 0-1.3.4-2.2 1.4-2.9.8-.7 2.2-1 3.8-1h1.8v-.8c0-.8-.1-1.4-.6-1.8-.4-.4-1-.6-1.8-.6s-2 .1-3.2.6l-.6-1.5c1.4-.6 2.8-.8 4.1-.8 1.4 0 2.4.3 3.1 1 .7.7 1 1.7 1 2.9v5.5c0 .3.2.7.3 1zm-2.2-1.4v-2.7h-1.5c-2.2 0-3.2.8-3.2 2.4 0 .7.1 1.3.6 1.5.3.4.8.6 1.5.6.9 0 1.9-.7 2.6-1.8zM63.1 558.2v13.6h6.3l-.3 1.8H61v-15.4h2.1zM80.1 572c.1.3.4.4.7.6l-.4 1.4c-.6-.1-1.1-.3-1.5-.6-.4-.3-.7-.7-.8-1.3-.8 1.1-2 1.8-3.5 1.8-1.1 0-2.1-.3-2.8-1-.7-.7-1-1.5-1-2.5 0-1.3.4-2.2 1.4-2.9.8-.7 2.2-1 3.8-1h1.8v-.8c0-.8-.1-1.4-.6-1.8-.4-.4-1-.6-1.8-.6s-2 .1-3.2.6l-.6-1.5c1.4-.6 2.8-.8 4.1-.8 1.4 0 2.4.3 3.1 1 .7.7 1 1.7 1 2.9v5.5c0 .3 0 .7.3 1zm-2.4-1.4v-2.7h-1.5c-2.2 0-3.2.8-3.2 2.4 0 .7.1 1.3.6 1.5.3.4.8.6 1.5.6 1.1 0 1.9-.7 2.6-1.8zM88.5 573.7c-.4 1.4-1.1 2.5-2 3.2-.8.8-2 1.3-3.5 1.4l-.3-1.7c.8-.1 1.4-.3 1.8-.6.4-.3.8-.6 1.1-1s.6-1 .8-1.5h-.7l-3.9-11.8H84l3.2 10.4 3.1-10.4h2.1l-3.9 12zM96.4 557.1c.3.3.4.6.4 1 0 .1 0 .4-.1.6 0 .1-.1.4-.3.7l-1.5 3.2h-1.4l.8-3.4c-.4-.3-.6-.7-.6-1.1 0-.4.1-.7.4-1s.7-.4 1-.4c.6 0 1 .1 1.3.4zM105.1 561.9c.7.3 1.3.6 1.8 1l-.8 1.3c-.6-.3-1-.6-1.5-.7-.4-.1-1-.3-1.5-.3-.7 0-1.3.1-1.5.4-.4.3-.6.7-.6 1.1 0 .4.1.8.6 1.1.4.3 1 .6 2 .8 1.3.3 2.2.8 2.9 1.4.7.6 1 1.4 1 2.4 0 1.1-.4 2.1-1.4 2.7-1 .6-2 1-3.4 1-1.8 0-3.2-.6-4.5-1.5l1.1-1.3c1 .7 2.1 1.1 3.4 1.1.8 0 1.4-.1 1.8-.4.4-.3.7-.7.7-1.3 0-.4-.1-.7-.3-1-.1-.3-.4-.4-.8-.7-.4-.1-1-.4-1.8-.6-1.3-.3-2.1-.7-2.7-1.3-.6-.6-.8-1.3-.8-2.1 0-.6.1-1.1.6-1.7.4-.6.8-.8 1.5-1.1.7-.3 1.4-.4 2.2-.4.6-.2 1.3-.2 2 .1zM68.7 638.3c.7.3 1.3.6 2 1.1l-1.1 1.4c-1-.7-2-1.1-2.9-1.1-1.3 0-2.4.6-3.1 1.5-.7 1-1.1 2.5-1.1 4.8 0 2.1.4 3.7 1.1 4.8.8 1 1.8 1.5 3.1 1.5.7 0 1.3-.1 1.7-.3s1-.6 1.5-1l1.1 1.4c-.4.6-1.1.8-1.8 1.3-.7.3-1.5.6-2.5.6-1.3 0-2.4-.3-3.4-1-1-.6-1.7-1.5-2.2-2.8-.6-1.3-.8-2.7-.8-4.4 0-1.7.3-3.1.8-4.4s1.4-2.1 2.2-2.7c1-.6 2.1-1 3.2-1 .8 0 1.7 0 2.2.3zM81.4 643.2c1 1.1 1.4 2.7 1.4 4.5 0 1.3-.1 2.2-.6 3.2-.4 1-1 1.7-1.8 2.2-.8.6-1.7.8-2.8.8-1.7 0-2.9-.6-3.9-1.7s-1.4-2.7-1.4-4.5c0-1.3.1-2.2.6-3.2.4-1 1-1.7 1.8-2.2.8-.6 1.7-.8 2.8-.8 1.6.2 2.9.6 3.9 1.7zm-7.1 4.6c0 2.9 1 4.5 3.1 4.5s3.1-1.5 3.1-4.5-1-4.5-3.1-4.5c-2.1-.1-3.1 1.5-3.1 4.5zM92.5 641.7l-.4 2c-.4-.1-.7-.1-1-.1-.7 0-1.3.3-1.8.8-.4.6-.8 1.4-1.1 2.5v6.7H86v-11.8h1.8l.1 2.4c.3-.8.7-1.5 1.3-2 .6-.4 1.1-.7 1.8-.7.6.2 1 .2 1.5.2zM102.4 643.2c1 1.1 1.4 2.7 1.4 4.5 0 1.3-.1 2.2-.6 3.2-.4 1-1 1.7-1.8 2.2-.8.6-1.7.8-2.8.8-1.7 0-2.9-.6-3.9-1.7s-1.4-2.7-1.4-4.5c0-1.3.1-2.2.6-3.2.4-1 1-1.7 1.8-2.2.8-.6 1.7-.8 2.8-.8 1.7.2 3.1.6 3.9 1.7zm-6.9 4.6c0 2.9 1 4.5 3.1 4.5s3.1-1.5 3.1-4.5-1-4.5-3.1-4.5c-2.1-.1-3.1 1.5-3.1 4.5zM115.3 642.5c.6.7.8 1.5.8 2.7v8.4H114v-8.1c0-.8-.1-1.4-.4-1.8-.3-.3-.8-.6-1.4-.6s-1.1.1-1.7.6c-.4.4-1 .8-1.4 1.5v8.4H107v-11.8h1.8l.1 1.7c.4-.6 1-1.1 1.5-1.5.6-.4 1.3-.6 2.1-.6 1.4.3 2.3.5 2.8 1.1zM128.7 652.1c.1.3.4.4.7.6l-.4 1.3c-.6-.1-1.1-.3-1.5-.6-.4-.3-.7-.7-.8-1.3-.8 1.1-2 1.8-3.5 1.8-1.1 0-2.1-.3-2.8-1-.7-.7-1-1.5-1-2.5 0-1.3.4-2.2 1.4-2.9.8-.7 2.2-1 3.8-1h1.8v-.8c0-.8-.1-1.4-.6-1.8-.4-.4-1-.6-1.8-.6s-2 .1-3.2.6l-.6-1.5c1.4-.6 2.8-.8 4.1-.8 1.4 0 2.4.3 3.1 1 .7.7 1 1.7 1 2.9v5.5c0 .4 0 .8.3 1.1zm-2.4-1.5V648h-1.5c-2.2 0-3.2.8-3.2 2.4 0 .7.1 1.3.6 1.5.3.4.8.6 1.5.6 1.1 0 1.9-.7 2.6-1.9zM147.1 638.3l-.3 1.7h-6v5.1h5.2v1.7h-5.2v5.3h6.5v1.7h-8.6v-15.4l8.4-.1zM155.1 647.4l4.1 6.3h-2.5l-2.9-5.1-2.9 5.1h-2.4l4.1-6.2-3.7-5.6h2.4l2.5 4.4 2.5-4.4h2.4l-3.6 5.5zM167.4 653.2c-.8.6-1.7.8-2.7.8-1 0-1.8-.3-2.4-.8-.6-.6-.8-1.4-.8-2.5v-7.2h-2.1v-1.7h2.1v-2.7l2.1-.3v2.9h2.8l-.3 1.5h-2.5v7c0 .6.1 1.1.3 1.4.3.3.6.4 1.1.4.4 0 1-.1 1.5-.4l.9 1.6zM175.9 641.7l-.4 2c-.4-.1-.7-.1-1-.1-.7 0-1.3.3-1.8.8-.4.6-.8 1.4-1.1 2.5v6.7h-2.1v-11.8h1.8l.1 2.4c.3-.8.7-1.5 1.3-2 .6-.4 1.1-.7 1.8-.7.7.2 1.1.2 1.4.2zM185.7 652.1c.1.3.4.4.7.6l-.4 1.3c-.6-.1-1.1-.3-1.5-.6-.4-.3-.7-.7-.8-1.3-.8 1.1-2 1.8-3.5 1.8-1.1 0-2.1-.3-2.8-1-.7-.7-1-1.5-1-2.5 0-1.3.4-2.2 1.4-2.9.8-.7 2.2-1 3.8-1h1.8v-.8c0-.8-.1-1.4-.6-1.8-.4-.4-1-.6-1.8-.6s-2 .1-3.2.6l-.6-1.5c1.4-.6 2.8-.8 4.1-.8 1.4 0 2.4.3 3.1 1 .7.7 1 1.7 1 2.9v5.5c0 .4.2.8.3 1.1zm-2.2-1.5V648H182c-2.2 0-3.2.8-3.2 2.4 0 .7.1 1.3.6 1.5.3.4.8.6 1.5.6.9 0 1.9-.7 2.6-1.9zM70 718.3l-.3 1.8h-6.5v13.6H61v-15.4h9zM78.4 723.3c1 1.1 1.4 2.7 1.4 4.5 0 1.3-.1 2.2-.6 3.2-.4 1-1 1.7-1.8 2.2-.8.6-1.7.8-2.8.8-1.7 0-2.9-.6-3.9-1.7s-1.4-2.7-1.4-4.5c0-1.3.1-2.2.6-3.2.4-1 1-1.7 1.8-2.2.8-.6 1.7-.8 2.8-.8 1.7.1 2.9.5 3.9 1.7zm-7 4.6c0 2.9 1 4.5 3.1 4.5s3.1-1.5 3.1-4.5c0-2.9-1-4.5-3.1-4.5-2.1-.1-3.1 1.4-3.1 4.5zM92.5 730.1c0 1.3-.4 2.1-1.4 2.8-.8.6-2.1.8-3.7.8h-4.2V722c1.4-.3 2.7-.4 3.9-.4 1.4 0 2.7.3 3.5.8.8.6 1.3 1.4 1.3 2.4 0 .7-.1 1.3-.6 1.7-.4.4-1 .7-1.8.8 2 .2 3 1.2 3 2.8zm-7.4-6.7v3.4h2.2c.7 0 1.3-.1 1.7-.4.4-.3.6-.7.6-1.4 0-.6-.3-1-.7-1.3-.4-.3-1.1-.4-2-.4-.5 0-1 0-1.8.1zm4.4 8.3c.6-.3.7-.8.7-1.7 0-.7-.1-1.1-.6-1.4-.4-.3-1.1-.4-2.1-.4h-2.2v3.9h2.2c.7 0 1.4-.1 2-.4zM103.8 721.9v11.8h-2.1v-4.5h-2.5l-2.5 4.5h-2.2l2.8-5.1c-1.4-.7-2.1-1.7-2.1-3.2 0-1.1.4-2.1 1.3-2.7.8-.6 2-1 3.5-1h3.9v.2zm-1.9 5.7v-4.1h-2c-.8 0-1.5.1-2 .4s-.7.8-.7 1.5.1 1.3.6 1.7c.4.4 1 .6 2 .6h2.1v-.1zM117.7 732.1v5.1H116l-.3-3.4h-7.6l-.3 3.4h-1.7v-5.1h.8c.4-.3.7-.6.8-.8.1-.3.4-.8.6-1.5.1-.7.3-1.8.4-3.4l.3-4.4h7.4v10.1h1.3zm-3.3-8.6h-3.5l-.1 2.5c-.1 1.4-.3 2.5-.4 3.2-.1.7-.3 1.3-.6 1.7-.3.4-.6.7-1.1 1.1h5.6v-8.6h.1zM129.9 733.8h-2.1v-5.3c0-.8 0-1.7.1-2.5 0-.8.1-1.4.1-1.5l-4.9 9.5h-2.4v-12.1h2v5.3c0 .8 0 1.5-.1 2.5 0 .8-.1 1.4-.1 1.7l4.9-9.4h2.5v11.8zM141.2 733.8v-5.2h-4.9v5.2h-2.1v-11.9h2.1v4.9h4.9v-4.9h2.1v11.8h-2.1v.1zM155.8 732.1c.1.3.4.4.7.6l-.4 1.4c-.6-.1-1.1-.3-1.5-.6-.4-.3-.7-.7-.8-1.3-.8 1.1-2 1.8-3.5 1.8-1.1 0-2.1-.3-2.8-1-.7-.7-1-1.5-1-2.5 0-1.3.4-2.2 1.4-2.9.8-.7 2.2-1 3.8-1h1.8v-.8c0-.8-.1-1.4-.6-1.8-.4-.4-1-.6-1.8-.6s-2 .1-3.2.6l-.6-1.5c1.4-.6 2.8-.8 4.1-.8 1.4 0 2.4.3 3.1 1 .7.7 1 1.7 1 2.9v5.5c0 .3 0 .7.3 1zm-2.4-1.4V728h-1.5c-2.2 0-3.2.8-3.2 2.4 0 .7.1 1.3.6 1.5.3.4.8.6 1.5.6 1.1 0 1.9-.7 2.6-1.8zM71.7 798.4v15.4h-2.1v-13.6h-6.5v13.6H61v-15.4h10.7zM84.3 803.3c1 1.1 1.4 2.7 1.4 4.5 0 1.3-.1 2.2-.6 3.2s-1 1.7-1.8 2.2c-.8.6-1.7.8-2.8.8-1.7 0-2.9-.6-3.9-1.7s-1.4-2.7-1.4-4.5c0-1.3.1-2.2.6-3.2.4-1 1-1.7 1.8-2.2.8-.6 1.7-.8 2.8-.8 1.8.2 3.1.6 3.9 1.7zm-6.9 4.6c0 2.9 1 4.5 3.1 4.5s3.1-1.5 3.1-4.5c0-2.9-1-4.5-3.1-4.5-2.1-.1-3.1 1.5-3.1 4.5zM100.7 813.8h-2l-.6-5.6c0-.6-.1-1.3-.1-2V804l-2.7 8.6h-2l-2.5-8.6c0 2 0 3.4-.1 4.2l-.4 5.6h-2l1.1-11.8h2.7l2.2 8.4 2.5-8.4h2.7l1.2 11.8zM113.4 813.8h-2.1v-5.3c0-.8 0-1.7.1-2.5 0-.8.1-1.4.1-1.5l-4.9 9.5h-2.4v-12.1h2.1v5.3c0 .8 0 1.5-.1 2.5 0 .8-.1 1.4-.1 1.7l4.9-9.4h2.5v11.8h-.1zM127.3 812.2v5.1h-1.7l-.3-3.4h-7.6l-.3 3.4h-1.7v-5.1h.8c.4-.3.7-.6.8-.8.1-.3.4-.8.6-1.5.1-.7.3-1.8.4-3.4l.1-4.5h7.4v10h1.3v.2zm-3.4-8.6h-3.5l-.1 2.5c-.1 1.4-.3 2.5-.4 3.2-.1.7-.3 1.3-.6 1.7-.3.4-.6.7-1.1 1.1h5.6v-8.6h.1zM138.5 803.3c1 1.1 1.4 2.7 1.4 4.5 0 1.3-.1 2.2-.6 3.2-.4 1-1 1.7-1.8 2.2-.8.6-1.7.8-2.8.8-1.7 0-2.9-.6-3.9-1.7s-1.4-2.7-1.4-4.5c0-1.3.1-2.2.6-3.2.4-1 1-1.7 1.8-2.2s1.7-.8 2.8-.8c1.7.2 3.1.6 3.9 1.7zm-6.9 4.6c0 2.9 1 4.5 3.1 4.5s3.1-1.5 3.1-4.5c0-2.9-1-4.5-3.1-4.5-2.1-.1-3.1 1.5-3.1 4.5zM152.1 803.3c.7 1.1 1.1 2.7 1.1 4.5s-.4 3.4-1.3 4.5c-.8 1.1-2 1.7-3.4 1.7-1.3 0-2.4-.4-3.1-1.4v5.6l-2.1.3v-16.6h1.8l.1 1.5c.4-.6 1-1.1 1.5-1.4.6-.3 1.3-.4 2-.4 1.6.2 2.7.6 3.4 1.7zm-1.2 4.6c0-3.1-.8-4.5-2.7-4.5-.6 0-1.1.1-1.5.6-.4.3-.8.8-1.3 1.3v5.8c.3.4.7.8 1.1 1.1.4.3 1 .4 1.5.4 1.9-.2 2.9-1.7 2.9-4.7zM163.9 806.8c.8.7 1.1 1.7 1.1 2.9 0 1.3-.4 2.4-1.4 3.1-.8.7-2 1-3.4 1h-3.8v-11.9h2.1v3.8h1.4c1.9.1 3.2.4 4 1.1zm-1.6 4.8c.4-.4.7-1 .7-1.8s-.3-1.4-.7-1.8c-.4-.4-1.1-.6-2.2-.6h-1.3v4.8h1.5c.8 0 1.5-.2 2-.6zm4.6-9.7h2.1v11.8h-2.1v-11.8z"/></g><g><path class="st6" d="M404.2 485.1c1 .8 1.5 2 1.5 3.5 0 1.7-.6 2.9-1.5 3.8-1.1.8-2.5 1.1-4.4 1.1h-4.1v-15.4h8.4l-.3 1.7h-6v4.1h2.1c1.8 0 3.2.5 4.3 1.2zm-1.7 6.2c.6-.4 1-1.3 1-2.5 0-1.1-.3-2-1-2.4-.6-.4-1.5-.7-2.7-.7h-2.1v6.3h2.1c1.3 0 2.2-.3 2.7-.7zM417.1 481.7v11.8H415v-10.1h-3.7l-.3 3.9c-.1 1.5-.3 2.8-.6 3.7-.3.8-.6 1.4-1 1.8-.4.4-1.1.8-2 1l-.6-1.7c.6-.1.8-.4 1.1-.7.1-.3.4-.7.4-1.3s.3-1.5.3-3.1l.4-5.5h7.9v.2zM429.6 483.1c1 1.1 1.4 2.7 1.4 4.5 0 1.3-.1 2.2-.6 3.2-.4 1-1 1.7-1.8 2.2-.8.6-1.7.8-2.8.8-1.7 0-2.9-.6-3.9-1.7s-1.4-2.7-1.4-4.5c0-1.3.1-2.2.6-3.2.4-1 1-1.7 1.8-2.2.8-.6 1.7-.8 2.8-.8 1.7.2 3.1.6 3.9 1.7zm-6.8 4.6c0 2.9 1 4.5 3.1 4.5s3.1-1.5 3.1-4.5-1-4.5-3.1-4.5c-2.2-.1-3.1 1.5-3.1 4.5zM443.4 481.7l-3.7 5.5 4.1 6.3h-2.4l-3.2-5.5h-1.5v5.5h-2.1v-11.8h2.1v4.8h1.5l2.9-4.8h2.3zM409.1 561.8v11.8h-13.6v-11.8h2v10.1h3.8v-10.1h2v10.1h3.8v-10.1h2zM421.5 561.8l-.3 1.7h-3.8v10.1h-2.1v-10.1h-3.9v-1.7h10.1zM423.9 571.3c.3.3.4.7.4 1.1 0 .4-.1.8-.4 1.1-.3.3-.7.4-1.1.4-.4 0-.8-.1-1.1-.4-.3-.3-.4-.7-.4-1.1 0-.4.1-.8.4-1.1.3-.3.7-.4 1.1-.4.4-.2.8.1 1.1.4zM409.1 641.8v11.8h-13.6v-11.8h2v10.1h3.8v-10.1h2v10.1h3.8v-10.1h2zM421.5 641.8l-.3 1.7h-3.8v10.1h-2.1v-10.1h-3.9v-1.7h10.1zM423.9 651.4c.3.3.4.7.4 1.1 0 .4-.1.8-.4 1.1-.3.3-.7.4-1.1.4-.4 0-.8-.1-1.1-.4-.3-.3-.4-.7-.4-1.1 0-.4.1-.8.4-1.1.3-.3.7-.4 1.1-.4.4-.2.8.1 1.1.4zM404.4 721.9l-3.7 5.5 4.1 6.3h-2.4l-3.2-5.5h-1.5v5.5h-2.1v-11.8h2.1v4.8h1.5l2.9-4.8h2.3zM409.3 733.8h-2.1v-11.9h7.4l-.3 1.7h-5.1v10.2zM404.4 801.9l-3.7 5.5 4.1 6.3h-2.4l-3.2-5.5h-1.5v5.5h-2.1v-11.8h2.1v4.8h1.5l2.9-4.8h2.3zM409.3 813.8h-2.1v-11.9h7.4l-.3 1.7h-5.1v10.2z"/></g><g><path class="st6" d="M812.2 478.6v15h-2.1v-12.8l-3.5 2.1-.8-1.4 4.6-2.8h1.8v-.1zM822.2 478.9c.7.4 1.3.8 1.5 1.4.4.6.6 1.3.6 2.1 0 1-.1 1.8-.6 2.7-.4.8-1 1.7-2 2.7s-2.1 2.4-3.9 4.1h6.7l-.3 1.7h-8.8v-1.7c2-2.1 3.4-3.7 4.2-4.6s1.4-1.8 1.8-2.5c.4-.7.6-1.5.6-2.2 0-.8-.3-1.4-.7-1.8-.4-.4-1-.7-1.8-.7-.6 0-1.1.1-1.7.4-.4.3-1 .7-1.5 1.3l-1.4-1.1c.6-.7 1.3-1.3 2.1-1.7.7-.4 1.5-.6 2.5-.6 1.3-.1 2.1.1 2.7.5zM798.3 558.7v15h-2.1v-12.8l-3.5 2.1-.8-1.4 4.6-2.8h1.8v-.1zM810.8 560.3c.8 1.3 1.3 3.2 1.3 5.8 0 2.5-.4 4.5-1.3 5.8s-2.1 2-3.8 2c-1.7 0-2.9-.7-3.8-2-.8-1.3-1.3-3.2-1.3-5.8 0-2.5.4-4.5 1.3-5.8.8-1.3 2.1-2 3.8-2 1.7.1 3 .8 3.8 2zm-5.9 1.2c-.4 1-.7 2.5-.7 4.6s.3 3.7.7 4.6c.4 1 1.3 1.4 2.1 1.4 1 0 1.7-.4 2.1-1.4.4-1 .7-2.5.7-4.6s-.3-3.7-.7-4.6c-.4-1-1.3-1.4-2.1-1.4-1 0-1.7.4-2.1 1.4zM823.3 560.3c.8 1.3 1.3 3.2 1.3 5.8 0 2.5-.4 4.5-1.3 5.8s-2.1 2-3.8 2c-1.7 0-2.9-.7-3.8-2-.8-1.3-1.3-3.2-1.3-5.8 0-2.5.4-4.5 1.3-5.8.8-1.3 2.1-2 3.8-2 1.7.1 2.9.8 3.8 2zm-5.9 1.2c-.4 1-.7 2.5-.7 4.6s.3 3.7.7 4.6c.4 1 1.3 1.4 2.1 1.4 1 0 1.7-.4 2.1-1.4.4-1 .7-2.5.7-4.6s-.3-3.7-.7-4.6c-.4-1-1.3-1.4-2.1-1.4s-1.5.4-2.1 1.4zM809.7 639c.7.4 1.3.8 1.5 1.4.4.6.6 1.3.6 2.1 0 1-.1 1.8-.6 2.7-.4.8-1 1.7-2 2.7s-2.1 2.4-3.9 4.1h6.7l-.3 1.7h-8.8V652c2-2.1 3.4-3.7 4.2-4.6.8-1 1.4-1.8 1.8-2.5.4-.7.6-1.5.6-2.2 0-.8-.3-1.4-.7-1.8-.4-.4-1-.7-1.8-.7-.6 0-1.1.1-1.7.4-.4.3-1 .7-1.5 1.3l-1.4-1.1c.6-.7 1.3-1.3 2.1-1.7.7-.4 1.5-.6 2.5-.6 1.3-.1 2 .1 2.7.5zM823.3 640.4c.8 1.3 1.3 3.2 1.3 5.8s-.4 4.5-1.3 5.8c-.8 1.4-2.1 2-3.8 2-1.7 0-2.9-.7-3.8-2-.8-1.3-1.3-3.2-1.3-5.8 0-2.5.4-4.5 1.3-5.8.8-1.3 2.1-2 3.8-2 1.7 0 2.9.7 3.8 2zm-5.9 1.1c-.4 1-.7 2.5-.7 4.6s.3 3.7.7 4.6c.4 1 1.3 1.4 2.1 1.4 1 0 1.7-.4 2.1-1.4.4-1 .7-2.5.7-4.6s-.3-3.7-.7-4.6c-.4-1-1.3-1.4-2.1-1.4s-1.5.4-2.1 1.4zM809.5 719c.7.3 1.1.8 1.5 1.4.3.6.6 1.3.6 2 0 1-.3 1.7-.8 2.2-.6.6-1.3 1-2.1 1.3 1 .1 1.8.4 2.4 1.1.6.6 1 1.5 1 2.5 0 .8-.1 1.7-.6 2.4-.4.7-1 1.3-1.8 1.7-.8.4-1.7.6-2.7.6s-1.7-.1-2.5-.6-1.4-.8-2-1.5l1.3-1.1c.6.6 1 .8 1.5 1.1.6.3 1.1.4 1.7.4 1 0 1.7-.3 2.2-.8.6-.6.8-1.3.8-2.1 0-1-.3-1.7-.7-2.1-.6-.4-1.3-.6-2.2-.6H806l.3-1.5h.7c.8 0 1.4-.3 2-.7.6-.4.8-1.1.8-2 0-.7-.3-1.3-.7-1.7-.4-.4-1.1-.6-1.8-.6-.6 0-1.1.1-1.5.3-.4.1-1 .6-1.5 1l-1.1-1.3c1.3-1.1 2.7-1.8 4.4-1.8.5-.1 1.2 0 1.9.4zM823.3 720.4c.8 1.3 1.3 3.2 1.3 5.8 0 2.5-.4 4.5-1.3 5.8-.8 1.4-2.1 2-3.8 2-1.7 0-2.9-.7-3.8-2-.8-1.3-1.3-3.2-1.3-5.8 0-2.5.4-4.5 1.3-5.8.8-1.3 2.1-2 3.8-2 1.7.1 2.9.8 3.8 2zm-5.9 1.2c-.4 1-.7 2.5-.7 4.6s.3 3.7.7 4.6c.4 1 1.3 1.4 2.1 1.4 1 0 1.7-.4 2.1-1.4.4-1 .7-2.5.7-4.6s-.3-3.7-.7-4.6c-.4-1-1.3-1.4-2.1-1.4s-1.5.4-2.1 1.4zM797.2 799.1c.7.4 1.3.8 1.5 1.4.3.6.6 1.3.6 2.1 0 1-.1 1.8-.6 2.7-.4.8-1 1.7-2 2.7-1 1-2.1 2.4-3.9 4.1h6.7l-.3 1.7h-8.8V812c2-2.1 3.4-3.7 4.2-4.6.8-1 1.4-1.8 1.8-2.5.4-.7.6-1.5.6-2.2 0-.8-.3-1.4-.7-1.8-.4-.4-1-.7-1.8-.7-.6 0-1.1.1-1.7.4-.6.3-1 .7-1.5 1.3l-1.4-1.1c.6-.7 1.3-1.3 2.1-1.7.7-.4 1.5-.6 2.5-.6 1.1 0 2 .2 2.7.6zM810.8 800.5c.8 1.3 1.3 3.2 1.3 5.8 0 2.5-.4 4.5-1.3 5.8-.8 1.4-2.1 2-3.8 2-1.7 0-2.9-.7-3.8-2-.8-1.3-1.3-3.2-1.3-5.8 0-2.5.4-4.5 1.3-5.8.8-1.3 2.1-2 3.8-2 1.7 0 3 .7 3.8 2zm-5.9 1.1c-.4 1-.7 2.5-.7 4.6 0 2.1.3 3.7.7 4.6.4 1 1.3 1.4 2.1 1.4 1 0 1.7-.4 2.1-1.4s.7-2.5.7-4.6c0-2.1-.3-3.7-.7-4.6s-1.3-1.4-2.1-1.4c-1 0-1.7.4-2.1 1.4zM823.3 800.5c.8 1.3 1.3 3.2 1.3 5.8 0 2.5-.4 4.5-1.3 5.8-.8 1.4-2.1 2-3.8 2-1.7 0-2.9-.7-3.8-2-.8-1.3-1.3-3.2-1.3-5.8 0-2.5.4-4.5 1.3-5.8.8-1.3 2.1-2 3.8-2 1.7 0 2.9.7 3.8 2zm-5.9 1.1c-.4 1-.7 2.5-.7 4.6 0 2.1.3 3.7.7 4.6.4 1 1.3 1.4 2.1 1.4 1 0 1.7-.4 2.1-1.4.4-1 .7-2.5.7-4.6 0-2.1-.3-3.7-.7-4.6-.4-1-1.3-1.4-2.1-1.4s-1.5.4-2.1 1.4z"/></g><g><path class="st6" d="M1089.7 478.6v15h-2.1v-12.8l-3.5 2.1-.8-1.4 4.6-2.8h1.8v-.1zM1102.2 480.3c.8 1.3 1.3 3.2 1.3 5.8s-.4 4.5-1.3 5.8c-.8 1.3-2.1 2-3.8 2-1.7 0-2.9-.7-3.8-2-.8-1.3-1.3-3.2-1.3-5.8 0-2.5.4-4.5 1.3-5.8.8-1.3 2.1-2 3.8-2 1.7 0 3 .7 3.8 2zm-5.9 1.1c-.4 1-.7 2.5-.7 4.6s.3 3.7.7 4.6c.4 1 1.3 1.4 2.1 1.4 1 0 1.7-.4 2.1-1.4.4-1 .7-2.5.7-4.6s-.3-3.7-.7-4.6c-.4-1-1.3-1.4-2.1-1.4-1 0-1.7.4-2.1 1.4zM1114.7 480.3c.8 1.3 1.3 3.2 1.3 5.8s-.4 4.5-1.3 5.8c-.8 1.3-2.1 2-3.8 2s-2.9-.7-3.8-2c-.8-1.3-1.3-3.2-1.3-5.8 0-2.5.4-4.5 1.3-5.8.8-1.3 2.1-2 3.8-2s3 .7 3.8 2zm-5.9 1.1c-.4 1-.7 2.5-.7 4.6s.3 3.7.7 4.6c.4 1 1.3 1.4 2.1 1.4 1 0 1.7-.4 2.1-1.4.4-1 .7-2.5.7-4.6s-.3-3.7-.7-4.6c-.4-1-1.3-1.4-2.1-1.4s-1.7.4-2.1 1.4zM1089.1 558.9c.7.4 1.3.8 1.5 1.4.3.6.6 1.3.6 2.1 0 1-.1 1.8-.6 2.7-.4.8-1 1.7-2 2.7-.8 1-2.1 2.4-3.9 4.1h6.7l-.3 1.7h-8.8v-1.7c2-2.1 3.4-3.7 4.2-4.6.8-1 1.4-1.8 1.8-2.5.4-.7.6-1.5.6-2.2 0-.8-.3-1.4-.7-1.8-.4-.4-1-.7-1.8-.7-.6 0-1.1.1-1.7.4-.4.3-1 .7-1.5 1.3l-1.4-1.1c.6-.7 1.3-1.3 2.1-1.7.8-.4 1.5-.6 2.5-.6 1.2 0 2 .1 2.7.5zM1101.8 564.3c.6.4 1.1.8 1.5 1.7.4.8.6 1.5.6 2.7s-.3 2-.7 2.8-1 1.4-1.7 1.8c-.7.4-1.5.7-2.4.7-1.7 0-3.1-.7-3.8-2-.8-1.3-1.3-3.1-1.3-5.3 0-1.7.3-3.1.7-4.4.4-1.3 1.1-2.2 2-2.8.8-.7 1.8-1 3.1-1 1.1 0 2.1.3 3.1 1l-.8 1.4c-.7-.4-1.5-.7-2.2-.7-1.1 0-2 .6-2.5 1.5-.6 1-1 2.4-1 4.2 1-1.3 2.1-2 3.7-2 .3-.2 1 .1 1.7.4zm-.7 7c.4-.7.7-1.5.7-2.7 0-2.1-.8-3.2-2.4-3.2-.7 0-1.3.1-1.8.6-.6.4-1 .8-1.4 1.5 0 1.7.3 2.8.8 3.7.6.8 1.3 1.1 2.2 1.1.8 0 1.3-.3 1.9-1zM1114.7 560.3c.8 1.3 1.3 3.2 1.3 5.8 0 2.5-.4 4.5-1.3 5.8s-2.1 2-3.8 2-2.9-.7-3.8-2-1.3-3.2-1.3-5.8c0-2.5.4-4.5 1.3-5.8s2.1-2 3.8-2 3 .8 3.8 2zm-5.9 1.2c-.4 1-.7 2.5-.7 4.6s.3 3.7.7 4.6c.4 1 1.3 1.4 2.1 1.4 1 0 1.7-.4 2.1-1.4.4-1 .7-2.5.7-4.6s-.3-3.7-.7-4.6c-.4-1-1.3-1.4-2.1-1.4s-1.7.4-2.1 1.4zM1088.4 639c.7.3 1.1.8 1.5 1.4.3.6.6 1.3.6 2 0 1-.3 1.7-.8 2.2-.6.6-1.3 1-2.1 1.3 1 .1 1.8.4 2.4 1.1.6.6 1 1.5 1 2.5 0 .8-.1 1.7-.6 2.4-.4.7-1 1.3-1.8 1.7-.8.4-1.7.6-2.7.6-1 0-1.7-.1-2.5-.6-.8-.4-1.4-.8-2-1.5l1.3-1.1c.6.6 1 .8 1.5 1.1.6.3 1.1.4 1.7.4 1 0 1.7-.3 2.2-.8.6-.6.8-1.3.8-2.1 0-1-.3-1.7-.7-2.1-.6-.4-1.3-.6-2.2-.6h-1.1l.3-1.5h.7c.8 0 1.4-.3 2-.7.6-.4.8-1.1.8-2 0-.7-.3-1.3-.7-1.7s-1.1-.6-1.8-.6c-.6 0-1.1.1-1.5.3s-1 .6-1.5 1l-1.1-1.3c1.3-1.1 2.7-1.8 4.4-1.8.4-.2 1.2 0 1.9.4zM1102.2 640.4c.8 1.3 1.3 3.2 1.3 5.8s-.4 4.5-1.3 5.8c-.8 1.4-2.1 2-3.8 2-1.7 0-2.9-.7-3.8-2s-1.3-3.2-1.3-5.8c0-2.5.4-4.5 1.3-5.8.8-1.3 2.1-2 3.8-2 1.7 0 3 .7 3.8 2zm-5.9 1.1c-.4 1-.7 2.5-.7 4.6s.3 3.7.7 4.6c.4 1 1.3 1.4 2.1 1.4 1 0 1.7-.4 2.1-1.4.4-1 .7-2.5.7-4.6s-.3-3.7-.7-4.6c-.4-1-1.3-1.4-2.1-1.4-1 0-1.7.4-2.1 1.4zM1114.7 640.4c.8 1.3 1.3 3.2 1.3 5.8s-.4 4.5-1.3 5.8c-.8 1.4-2.1 2-3.8 2s-2.9-.7-3.8-2c-.8-1.3-1.3-3.2-1.3-5.8 0-2.5.4-4.5 1.3-5.8s2.1-2 3.8-2 3 .7 3.8 2zm-5.9 1.1c-.4 1-.7 2.5-.7 4.6s.3 3.7.7 4.6c.4 1 1.3 1.4 2.1 1.4 1 0 1.7-.4 2.1-1.4.4-1 .7-2.5.7-4.6s-.3-3.7-.7-4.6c-.4-1-1.3-1.4-2.1-1.4s-1.7.4-2.1 1.4zM1070.6 719c.7.4 1.3.8 1.5 1.4.3.6.6 1.3.6 2.1 0 1-.1 1.8-.6 2.7-.4.8-1 1.7-2 2.7-.8 1-2.1 2.4-3.9 4.1h6.7l-.3 1.7h-8.8V732c2-2.1 3.4-3.7 4.2-4.6.8-1 1.4-1.8 1.8-2.5s.6-1.5.6-2.2c0-.8-.3-1.4-.7-1.8-.4-.4-1-.7-1.8-.7-.6 0-1.1.1-1.7.4-.4.3-1 .7-1.5 1.3l-1.4-1.1c.6-.7 1.3-1.3 2.1-1.7.8-.4 1.5-.6 2.5-.6 1.3 0 2 .1 2.7.5zM1091.5 728.5v1.7h-2v3.7h-2v-3.7h-6.5v-1.5l4.5-10.1 1.7.7-4.1 9.1h4.2l.1-4.1h1.8v4.1h2.1v.1zM1102.2 720.4c.8 1.3 1.3 3.2 1.3 5.8 0 2.5-.4 4.5-1.3 5.8-.8 1.4-2.1 2-3.8 2-1.7 0-2.9-.7-3.8-2s-1.3-3.2-1.3-5.8c0-2.5.4-4.5 1.3-5.8.8-1.3 2.1-2 3.8-2 1.7.1 3 .8 3.8 2zm-5.9 1.2c-.4 1-.7 2.5-.7 4.6s.3 3.7.7 4.6c.4 1 1.3 1.4 2.1 1.4 1 0 1.7-.4 2.1-1.4.4-1 .7-2.5.7-4.6s-.3-3.7-.7-4.6c-.4-1-1.3-1.4-2.1-1.4-1 0-1.7.4-2.1 1.4zM1114.7 720.4c.8 1.3 1.3 3.2 1.3 5.8 0 2.5-.4 4.5-1.3 5.8-.8 1.4-2.1 2-3.8 2s-2.9-.7-3.8-2c-.8-1.3-1.3-3.2-1.3-5.8 0-2.5.4-4.5 1.3-5.8.8-1.3 2.1-2 3.8-2s3 .8 3.8 2zm-5.9 1.2c-.4 1-.7 2.5-.7 4.6s.3 3.7.7 4.6 1.3 1.4 2.1 1.4c1 0 1.7-.4 2.1-1.4s.7-2.5.7-4.6-.3-3.7-.7-4.6-1.3-1.4-2.1-1.4-1.7.4-2.1 1.4zM1090.4 800.4h-5.9v4.5c.7-.4 1.5-.6 2.4-.6 1.3 0 2.4.4 3.1 1.3.7.8 1.1 2 1.1 3.5 0 1-.3 1.8-.7 2.7-.4.7-1 1.4-1.8 1.8-.8.4-1.7.7-2.7.7-1 0-1.7-.1-2.4-.4-.7-.3-1.4-.8-2-1.4l1.3-1.1c.4.4 1 .8 1.5 1.1.6.3 1.1.3 1.7.3 1 0 1.7-.3 2.2-.8.6-.6.8-1.4.8-2.5s-.3-1.8-.7-2.4c-.6-.6-1.1-.7-2-.7-.4 0-.7 0-1.1.1-.3.1-.7.3-1.1.4h-1.7v-7.6h8.1l-.1 1.1zM1102.2 800.5c.8 1.3 1.3 3.2 1.3 5.8 0 2.5-.4 4.5-1.3 5.8-.8 1.4-2.1 2-3.8 2-1.7 0-2.9-.7-3.8-2s-1.3-3.2-1.3-5.8c0-2.5.4-4.5 1.3-5.8.8-1.3 2.1-2 3.8-2 1.7 0 3 .7 3.8 2zm-5.9 1.1c-.4 1-.7 2.5-.7 4.6 0 2.1.3 3.7.7 4.6.4 1 1.3 1.4 2.1 1.4 1 0 1.7-.4 2.1-1.4.4-1 .7-2.5.7-4.6 0-2.1-.3-3.7-.7-4.6-.4-1-1.3-1.4-2.1-1.4-1 0-1.7.4-2.1 1.4zM1114.7 800.5c.8 1.3 1.3 3.2 1.3 5.8 0 2.5-.4 4.5-1.3 5.8-.8 1.4-2.1 2-3.8 2s-2.9-.7-3.8-2c-.8-1.3-1.3-3.2-1.3-5.8 0-2.5.4-4.5 1.3-5.8.8-1.3 2.1-2 3.8-2s3 .7 3.8 2zm-5.9 1.1c-.4 1-.7 2.5-.7 4.6 0 2.1.3 3.7.7 4.6s1.3 1.4 2.1 1.4c1 0 1.7-.4 2.1-1.4s.7-2.5.7-4.6c0-2.1-.3-3.7-.7-4.6s-1.3-1.4-2.1-1.4-1.7.4-2.1 1.4z"/></g><g><path class="st6" d="M1315.2 478.5v15.2h-3.5v-11.8l-3.2 2-1.5-2.4 5.1-3.1h3.2v.1zM1330.6 478.8c.8.4 1.4 1 1.8 1.5.4.6.6 1.4.6 2.2 0 .8-.1 1.5-.6 2.2-.3.7-1 1.5-1.7 2.5s-2.1 2.1-3.7 3.7h6.2l-.4 2.7h-9.8v-2.5l4.1-4.1c.8-1 1.4-1.7 1.8-2.2.3-.6.6-1.3.6-1.8s-.1-1.1-.6-1.4c-.4-.4-.8-.6-1.4-.6s-1 .1-1.4.4c-.4.3-.8.7-1.3 1.3l-2.1-1.7c.6-.8 1.4-1.4 2.2-2 .8-.4 1.8-.7 2.9-.7 1.2 0 2.1 0 2.8.5zM1344.9 480.2c1 1.4 1.4 3.4 1.4 5.9s-.4 4.5-1.4 5.9c-1 1.4-2.4 2.1-4.2 2.1-1.8 0-3.2-.7-4.2-2.1-1-1.4-1.4-3.4-1.4-5.9 0-2.5.4-4.5 1.4-5.9 1-1.4 2.4-2.1 4.2-2.1 1.8 0 3.2.7 4.2 2.1zm-5.5 1.1c-.3.3-.6.8-.7 1.7-.1.8-.3 1.8-.3 3.2 0 1.4 0 2.4.3 3.2s.4 1.3.7 1.7c.3.3.7.6 1.3.6.6 0 1-.1 1.3-.4s.6-.8.7-1.7c.1-.8.3-1.8.3-3.2 0-1.4-.1-2.4-.3-3.2s-.4-1.3-.7-1.7c-.3-.4-.7-.4-1.3-.4-.6-.4-1-.2-1.3.2zM1358.1 480.2c1 1.4 1.4 3.4 1.4 5.9s-.4 4.5-1.4 5.9c-1 1.4-2.4 2.1-4.2 2.1s-3.2-.7-4.2-2.1c-1-1.4-1.4-3.4-1.4-5.9 0-2.5.4-4.5 1.4-5.9s2.4-2.1 4.2-2.1 3.2.7 4.2 2.1zm-5.5 1.1c-.3.3-.6.8-.7 1.7-.1.7-.3 1.8-.3 3.2 0 1.4 0 2.4.3 3.2.1.7.4 1.3.7 1.7.3.3.7.6 1.3.6s1-.1 1.3-.4c.3-.3.6-.8.7-1.7.1-.8.3-1.8.3-3.2 0-1.4 0-2.4-.3-3.2s-.4-1.3-.7-1.7c-.3-.3-.7-.4-1.3-.4s-1-.2-1.3.2zM1312.6 558.8c.8.4 1.4 1 1.8 1.5.4.7.6 1.4.6 2.2s-.1 1.5-.6 2.2c-.4.7-1 1.5-1.7 2.5-.8 1-2.1 2.1-3.7 3.7h6.2l-.4 2.7h-9.8v-2.5l4.1-4.1c.8-.8 1.4-1.7 1.8-2.2.4-.6.6-1.3.6-1.8 0-.6-.1-1.1-.6-1.4-.4-.4-.8-.6-1.4-.6s-1 .1-1.4.4c-.4.3-.8.7-1.3 1.3l-2.1-1.7c.6-.8 1.4-1.4 2.2-2 .8-.4 1.8-.7 2.9-.7 1.1-.2 1.9.1 2.8.5zM1331.4 564c.7.4 1.1 1 1.5 1.7s.6 1.7.6 2.7c0 1-.3 2-.7 2.8-.4.8-1.1 1.5-2 2-.8.6-1.8.7-2.9.7-2 0-3.4-.7-4.4-2s-1.4-3.1-1.4-5.3c0-1.7.3-3.2.8-4.5.6-1.3 1.3-2.2 2.2-2.9 1-.7 2.1-1.1 3.5-1.1 1.3 0 2.4.3 3.5 1l-1.3 2.1c-.7-.4-1.4-.6-2.1-.6-.8 0-1.5.4-2.1 1.1s-.8 1.7-1 3.1c1-1 2-1.4 3.2-1.4 1.2 0 1.9.2 2.6.6zm-2 6.7c.3-.6.4-1.3.4-2.2s-.1-1.7-.4-2c-.3-.3-.7-.6-1.4-.6-.8 0-1.5.4-2.2 1.1 0 1.5.1 2.8.6 3.4.3.7.8 1 1.5 1s1.2-.1 1.5-.7zM1344.9 560.2c1 1.4 1.4 3.4 1.4 5.9 0 2.5-.4 4.5-1.4 5.9-1 1.4-2.4 2.1-4.2 2.1-1.8 0-3.2-.7-4.2-2.1-1-1.4-1.4-3.4-1.4-5.9s.4-4.5 1.4-5.9c1-1.4 2.4-2.1 4.2-2.1 1.8 0 3.2.7 4.2 2.1zm-5.5 1.1c-.3.3-.6.8-.7 1.7-.1.8-.3 1.8-.3 3.2 0 1.4 0 2.4.3 3.2.1.7.4 1.3.7 1.7.3.3.7.6 1.3.6.6 0 1-.1 1.3-.4.3-.3.6-.8.7-1.7.1-.7.3-1.8.3-3.2 0-1.4-.1-2.4-.3-3.2-.1-.7-.4-1.3-.7-1.7-.3-.3-.7-.4-1.3-.4-.6-.3-1-.2-1.3.2zM1358.1 560.2c1 1.4 1.4 3.4 1.4 5.9 0 2.5-.4 4.5-1.4 5.9-1 1.4-2.4 2.1-4.2 2.1s-3.2-.7-4.2-2.1c-1-1.4-1.4-3.4-1.4-5.9s.4-4.5 1.4-5.9 2.4-2.1 4.2-2.1 3.2.7 4.2 2.1zm-5.5 1.1c-.3.3-.6.8-.7 1.7-.1.7-.3 1.8-.3 3.2 0 1.4 0 2.4.3 3.2.1.7.4 1.3.7 1.7.3.3.7.6 1.3.6s1-.1 1.3-.4c.3-.3.6-.8.7-1.7.1-.7.3-1.8.3-3.2 0-1.4 0-2.4-.3-3.2-.1-.7-.4-1.3-.7-1.7-.3-.3-.7-.4-1.3-.4s-1-.2-1.3.2zM1312.9 644c.7.4 1.1 1 1.5 1.7s.6 1.7.6 2.7c0 1-.3 2-.7 2.8-.4.8-1.1 1.5-2 2-.8.6-1.8.7-2.9.7-2 0-3.4-.7-4.4-2s-1.4-3.1-1.4-5.3c0-1.7.3-3.2.8-4.5.6-1.3 1.3-2.2 2.2-2.9 1-.7 2.1-1.1 3.5-1.1 1.3 0 2.4.3 3.5 1l-1.3 2.1c-.7-.4-1.4-.6-2.1-.6-.8 0-1.5.4-2.1 1.1s-.8 1.7-1 3.1c1-1 2-1.4 3.2-1.4 1.2.1 2 .2 2.6.6zm-1.9 6.8c.3-.6.4-1.3.4-2.2s-.1-1.7-.4-2c-.3-.4-.7-.6-1.4-.6-.8 0-1.5.4-2.2 1.1 0 1.5.1 2.8.6 3.4.3.7.8 1 1.5 1s1.1-.1 1.5-.7zM1331.7 640.3c1 1.4 1.4 3.4 1.4 5.9s-.4 4.5-1.4 5.9c-1 1.4-2.4 2.1-4.2 2.1s-3.2-.7-4.2-2.1c-1-1.4-1.4-3.4-1.4-5.9 0-2.5.4-4.5 1.4-5.9 1-1.4 2.4-2.1 4.2-2.1s3.2.7 4.2 2.1zm-5.5 1.1c-.3.3-.6.8-.7 1.7-.1.8-.3 1.8-.3 3.2 0 1.4.1 2.4.3 3.2s.4 1.3.7 1.7c.3.3.7.6 1.3.6s1-.1 1.3-.4.6-.8.7-1.7c.1-.7.3-1.8.3-3.2 0-1.4-.1-2.4-.3-3.2-.1-.7-.4-1.3-.7-1.7-.3-.3-.7-.4-1.3-.4-.6-.4-.9-.2-1.3.2zM1344.9 640.3c1 1.4 1.4 3.4 1.4 5.9s-.4 4.5-1.4 5.9c-1 1.4-2.4 2.1-4.2 2.1-1.8 0-3.2-.7-4.2-2.1-1-1.4-1.4-3.4-1.4-5.9 0-2.5.4-4.5 1.4-5.9 1-1.4 2.4-2.1 4.2-2.1 1.8 0 3.2.7 4.2 2.1zm-5.5 1.1c-.3.3-.6.8-.7 1.7-.1.8-.3 1.8-.3 3.2 0 1.4 0 2.4.3 3.2s.4 1.3.7 1.7c.3.3.7.6 1.3.6.6 0 1-.1 1.3-.4s.6-.8.7-1.7c.1-.7.3-1.8.3-3.2 0-1.4-.1-2.4-.3-3.2-.1-.7-.4-1.3-.7-1.7-.3-.3-.7-.4-1.3-.4-.6-.4-1-.2-1.3.2zM1358.1 640.3c1 1.4 1.4 3.4 1.4 5.9s-.4 4.5-1.4 5.9c-1 1.4-2.4 2.1-4.2 2.1s-3.2-.7-4.2-2.1-1.4-3.4-1.4-5.9c0-2.5.4-4.5 1.4-5.9 1-1.4 2.4-2.1 4.2-2.1s3.2.7 4.2 2.1zm-5.5 1.1c-.3.3-.6.8-.7 1.7-.1.7-.3 1.8-.3 3.2 0 1.4 0 2.4.3 3.2.1.7.4 1.3.7 1.7.3.3.7.6 1.3.6s1-.1 1.3-.4.6-.8.7-1.7c.1-.7.3-1.8.3-3.2 0-1.4 0-2.4-.3-3.2-.1-.7-.4-1.3-.7-1.7-.3-.3-.7-.4-1.3-.4s-1-.2-1.3.2zM1303.7 718.6v2.4l-5.6 13.2-3.2-1.1 5.1-11.8h-6.2v-2.7h9.9zM1312.2 718.9c.8.4 1.4 1 1.8 1.5.4.6.6 1.4.6 2.2s-.1 1.5-.6 2.2c-.4.7-1 1.5-1.7 2.5s-2.1 2.1-3.7 3.7h6.2l-.4 2.7h-9.8v-2.5l4.1-4.1c.8-1 1.4-1.7 1.8-2.2.4-.6.6-1.3.6-1.8 0-.6-.1-1.1-.6-1.4-.4-.4-.8-.6-1.4-.6s-1 .1-1.4.4c-.4.3-.8.7-1.3 1.3l-2.1-1.7c.6-.8 1.4-1.4 2.2-2 .8-.4 1.8-.7 2.9-.7 1.2.1 1.9.1 2.8.5zM1331.7 720.3c1 1.4 1.4 3.4 1.4 5.9s-.4 4.5-1.4 5.9c-1 1.4-2.4 2.1-4.2 2.1s-3.2-.7-4.2-2.1c-1-1.4-1.4-3.4-1.4-5.9s.4-4.5 1.4-5.9c1-1.4 2.4-2.1 4.2-2.1s3.2.7 4.2 2.1zm-5.5 1.1c-.3.3-.6.8-.7 1.7-.1.7-.3 1.8-.3 3.2 0 1.4.1 2.4.3 3.2s.4 1.3.7 1.7c.3.3.7.6 1.3.6s1-.1 1.3-.4.6-.8.7-1.7c.1-.7.3-1.8.3-3.2 0-1.4-.1-2.4-.3-3.2s-.4-1.3-.7-1.7c-.3-.3-.7-.4-1.3-.4-.6-.3-.9-.2-1.3.2zM1344.9 720.3c1 1.4 1.4 3.4 1.4 5.9s-.4 4.5-1.4 5.9c-1 1.4-2.4 2.1-4.2 2.1-1.8 0-3.2-.7-4.2-2.1-1-1.4-1.4-3.4-1.4-5.9s.4-4.5 1.4-5.9c1-1.4 2.4-2.1 4.2-2.1 1.8 0 3.2.7 4.2 2.1zm-5.5 1.1c-.3.3-.6.8-.7 1.7-.1.7-.3 1.8-.3 3.2 0 1.4.1 2.4.3 3.2s.4 1.3.7 1.7c.3.3.7.6 1.3.6.6 0 1-.1 1.3-.4s.6-.8.7-1.7c.1-.7.3-1.8.3-3.2 0-1.4-.1-2.4-.3-3.2s-.4-1.3-.7-1.7c-.3-.3-.7-.4-1.3-.4-.6-.3-1-.2-1.3.2zM1358.1 720.3c1 1.4 1.4 3.4 1.4 5.9s-.4 4.5-1.4 5.9c-1 1.4-2.4 2.1-4.2 2.1s-3.2-.7-4.2-2.1c-1-1.4-1.4-3.4-1.4-5.9s.4-4.5 1.4-5.9c1-1.4 2.4-2.1 4.2-2.1s3.2.7 4.2 2.1zm-5.5 1.1c-.3.3-.6.8-.7 1.7-.1.7-.3 1.8-.3 3.2 0 1.4 0 2.4.3 3.2.1.7.4 1.3.7 1.7.3.3.7.6 1.3.6s1-.1 1.3-.4.6-.8.7-1.7c.1-.7.3-1.8.3-3.2 0-1.4 0-2.4-.3-3.2s-.4-1.3-.7-1.7c-.3-.3-.7-.4-1.3-.4s-1-.2-1.3.2zM1300.6 798.7v15.2h-3.5V802l-3.2 2-1.5-2.4 5.1-3.1h3.2v.2zM1313.3 800.4c1 1.4 1.4 3.4 1.4 5.9 0 2.5-.4 4.5-1.4 5.9-1 1.4-2.4 2.1-4.2 2.1s-3.2-.7-4.2-2.1c-1-1.4-1.4-3.4-1.4-5.9 0-2.5.4-4.5 1.4-5.9 1-1.4 2.4-2.1 4.2-2.1s3.2.7 4.2 2.1zm-5.5 1.1c-.3.3-.6.8-.7 1.7-.1.7-.3 1.8-.3 3.2 0 1.4 0 2.4.3 3.2.3.8.4 1.3.7 1.7.3.3.7.6 1.3.6s1-.1 1.3-.4.6-.8.7-1.7c.1-.7.3-1.8.3-3.2s-.1-2.4-.3-3.2-.4-1.3-.7-1.7c-.3-.4-.7-.4-1.3-.4-.6-.4-1-.2-1.3.2zM1331.7 800.4c1 1.4 1.4 3.4 1.4 5.9 0 2.5-.4 4.5-1.4 5.9-1 1.4-2.4 2.1-4.2 2.1s-3.2-.7-4.2-2.1c-1-1.4-1.4-3.4-1.4-5.9 0-2.5.4-4.5 1.4-5.9 1-1.4 2.4-2.1 4.2-2.1s3.2.7 4.2 2.1zm-5.5 1.1c-.3.3-.6.8-.7 1.7-.1.7-.3 1.8-.3 3.2 0 1.4.1 2.4.3 3.2.1.8.4 1.3.7 1.7.3.3.7.6 1.3.6s1-.1 1.3-.4.6-.8.7-1.7c.1-.7.3-1.8.3-3.2s-.1-2.4-.3-3.2-.4-1.3-.7-1.7c-.3-.3-.7-.4-1.3-.4-.6-.4-.9-.2-1.3.2zM1344.9 800.4c1 1.4 1.4 3.4 1.4 5.9 0 2.5-.4 4.5-1.4 5.9-1 1.4-2.4 2.1-4.2 2.1-1.8 0-3.2-.7-4.2-2.1-1-1.4-1.4-3.4-1.4-5.9 0-2.5.4-4.5 1.4-5.9 1-1.4 2.4-2.1 4.2-2.1 1.8-.1 3.2.7 4.2 2.1zm-5.5 1.1c-.3.3-.6.8-.7 1.7-.1.7-.3 1.8-.3 3.2 0 1.4 0 2.4.3 3.2.3.8.4 1.3.7 1.7.3.3.7.6 1.3.6.6 0 1-.1 1.3-.4s.6-.8.7-1.7c.1-.7.3-1.8.3-3.2s-.1-2.4-.3-3.2-.4-1.3-.7-1.7c-.3-.4-.7-.4-1.3-.4-.6-.4-1-.2-1.3.2zM1358.1 800.4c1 1.4 1.4 3.4 1.4 5.9 0 2.5-.4 4.5-1.4 5.9-1 1.4-2.4 2.1-4.2 2.1s-3.2-.7-4.2-2.1c-1-1.4-1.4-3.4-1.4-5.9 0-2.5.4-4.5 1.4-5.9 1-1.4 2.4-2.1 4.2-2.1s3.2.7 4.2 2.1zm-5.5 1.1c-.3.3-.6.8-.7 1.7-.1.7-.3 1.8-.3 3.2 0 1.4 0 2.4.3 3.2.1.7.4 1.3.7 1.7.3.3.7.6 1.3.6s1-.1 1.3-.4.6-.8.7-1.7c.1-.7.3-1.8.3-3.2s0-2.4-.3-3.2-.4-1.3-.7-1.7c-.3-.3-.7-.4-1.3-.4s-1-.2-1.3.2z"/></g><path class="st10" d="M47.9 527.5h1346.2v1.4H47.9zM47.9 605.6h1346.2v1.4H47.9zM47.9 683.8h1346.2v1.4H47.9zM47.9 761.9h1346.2v1.4H47.9zM1384.2 928H57.8c-5.5 0-10-4.5-10-10v-53.5c0-5.5 4.5-10 10-10h1326.4c5.5 0 10 4.5 10 10V918c0 5.5-4.5 10-10 10z"/><g class="st15"><path class="st16" d="M83.6 898.8h-2.1v-7.6c0-1.7.1-3.7.3-5.6l-6.3 13.1h-2.8v-15.4h2.1v7.6c0 2.1-.1 3.9-.3 5.6l6.3-13.2h2.7v15.6h.1zM96 887l-.3 1.7h-3.8v10.1h-2.1v-10.1h-3.9V887H96zM105.8 888.4c1 1.1 1.4 2.7 1.4 4.5 0 1.3-.1 2.2-.6 3.2s-1 1.7-1.8 2.2c-.8.6-1.7.8-2.8.8-1.7 0-2.9-.6-3.9-1.7s-1.4-2.7-1.4-4.5c0-1.3.1-2.2.6-3.2.4-1 1-1.7 1.8-2.2s1.7-.8 2.8-.8c1.8 0 3.1.6 3.9 1.7zm-6.9 4.5c0 2.9 1 4.5 3.1 4.5s3.1-1.5 3.1-4.5c0-2.9-1-4.5-3.1-4.5s-3.1 1.4-3.1 4.5zM112.7 898.8h-2.1V887h7.4l-.3 1.7h-5.1l.1 10.1zM128 888.4c1 1.1 1.4 2.7 1.4 4.5 0 1.3-.1 2.2-.6 3.2-.4 1-1 1.7-1.8 2.2-.8.6-1.7.8-2.8.8-1.7 0-2.9-.6-3.9-1.7s-1.4-2.7-1.4-4.5c0-1.3.1-2.2.6-3.2.4-1 1-1.7 1.8-2.2s1.7-.8 2.8-.8c1.8 0 3 .6 3.9 1.7zm-6.9 4.5c0 2.9 1 4.5 3.1 4.5s3.1-1.5 3.1-4.5c0-2.9-1-4.5-3.1-4.5s-3.1 1.4-3.1 4.5zM134.4 888.1c.3.3.4.7.4 1.1 0 .4-.1.8-.4 1.1-.3.3-.7.4-1.1.4-.4 0-.8-.1-1.1-.4-.3-.3-.4-.7-.4-1.1 0-.4.1-.8.4-1.1.3-.3.7-.4 1.1-.4.6 0 .9.1 1.1.4zm0 8.3c.3.3.4.7.4 1.1 0 .4-.1.8-.4 1.1-.3.3-.7.4-1.1.4-.4 0-.8-.1-1.1-.4-.3-.3-.4-.7-.4-1.1 0-.4.1-.8.4-1.1.3-.3.7-.4 1.1-.4.6 0 .9.1 1.1.4z"/></g><g class="st17"><path class="st6" d="M797.9 883.8c.7.3 1.3.8 1.7 1.4.4.6.6 1.3.6 2 0 1-.3 1.7-.8 2.2-.6.6-1.3 1.1-2.2 1.3 1 .1 1.8.4 2.5 1.1.7.6 1 1.5 1 2.7 0 .8-.3 1.7-.7 2.4-.4.7-1.1 1.3-2 1.7-.8.4-2 .6-3.1.6-2.2 0-3.9-.7-5.2-2.2l2-1.8c.6.6 1 .8 1.5 1.1.4.3 1 .3 1.5.3.7 0 1.3-.1 1.7-.6.4-.4.7-1 .7-1.7 0-.8-.1-1.4-.6-1.7-.4-.3-1-.6-1.8-.6h-1.3l.4-2.4h.8c.7 0 1.3-.1 1.5-.6s.6-.8.6-1.4c0-.6-.1-1-.6-1.3-.4-.3-.8-.4-1.5-.4-1.1 0-2.1.4-2.9 1.3l-1.7-2c1.4-1.4 3.1-2.1 5.1-2.1 1.1.3 2.1.4 2.8.7zM811.5 889.1c.7.4 1.1 1 1.5 1.7.4.7.6 1.7.6 2.7s-.3 2-.7 2.8c-.4.8-1.1 1.5-2 2-.8.6-1.8.7-2.9.7-2 0-3.4-.7-4.4-2-1-1.3-1.4-3.1-1.4-5.3 0-1.7.3-3.2.8-4.5.6-1.3 1.3-2.2 2.2-2.9 1-.7 2.1-1.1 3.5-1.1 1.3 0 2.4.3 3.5 1l-1.3 2.1c-.7-.4-1.4-.6-2.1-.6-.8 0-1.5.4-2.1 1.1-.6.7-.8 1.7-1 3.1 1-1 2-1.4 3.2-1.4 1.2.1 1.9.3 2.6.6zm-2 6.8c.3-.6.4-1.3.4-2.2 0-1-.1-1.7-.4-2-.3-.4-.7-.6-1.4-.6-.8 0-1.5.4-2.2 1.1 0 1.5.1 2.8.6 3.4.3.7.8 1 1.5 1 .7.1 1.2-.2 1.5-.7zM822 883.9c.8.4 1.4 1 1.8 1.5.4.6.6 1.4.6 2.2s-.1 1.5-.6 2.2-1 1.5-1.7 2.5-2.1 2.1-3.7 3.7h6.2l-.4 2.7h-9.8v-2.5l4.1-4.1c.8-1 1.4-1.7 1.8-2.2.4-.6.6-1.3.6-1.8 0-.6-.1-1.1-.6-1.4-.4-.4-.8-.6-1.4-.6s-1 .1-1.4.4c-.4.3-.8.7-1.3 1.3l-2.1-1.7c.6-.8 1.4-1.4 2.2-2 .8-.4 1.8-.7 2.9-.7s2 .1 2.8.5z"/></g><g class="st17"><path class="st6" d="M1075.4 883.8c.7.3 1.3.8 1.7 1.4.4.6.6 1.3.6 2 0 1-.3 1.7-.8 2.2-.6.6-1.3 1.1-2.2 1.3 1 .1 1.8.4 2.5 1.1.7.6 1 1.5 1 2.7 0 .8-.3 1.7-.7 2.4s-1.1 1.3-2 1.7c-.8.4-2 .6-3.1.6-2.2 0-3.9-.7-5.2-2.2l2-1.8c.6.6 1 .8 1.5 1.1.4.3 1 .3 1.5.3.7 0 1.3-.1 1.7-.6.4-.4.7-1 .7-1.7 0-.8-.1-1.4-.6-1.7-.4-.3-1-.6-1.8-.6h-1.3l.4-2.4h.8c.7 0 1.3-.1 1.5-.6.3-.4.6-.8.6-1.4 0-.6-.1-1-.6-1.3-.4-.3-.8-.4-1.5-.4-1.1 0-2.1.4-2.9 1.3l-1.7-2c1.4-1.4 3.1-2.1 5.1-2.1 1.1.3 2.1.4 2.8.7zM1089.1 886.2h-5.5v3.2c.7-.3 1.4-.6 2.2-.6.8 0 1.5.1 2.2.6.7.4 1.1 1 1.5 1.7.4.7.6 1.7.6 2.7 0 1.1-.3 2-.7 2.8s-1.1 1.4-2.1 2c-.8.4-2 .7-3.1.7-2.1 0-3.8-.7-5.1-2.2l2-1.8c.8 1 1.8 1.4 2.9 1.4.8 0 1.4-.3 1.8-.7.4-.4.7-1.1.7-2 0-1.7-.7-2.5-2.1-2.5-.3 0-.6 0-.8.1-.3.1-.6.3-1 .4h-2.4v-8.1h9.3l-.4 2.3zM1101.1 889.1c.7.4 1.1 1 1.5 1.7.4.7.6 1.7.6 2.7s-.3 2-.7 2.8-1.1 1.5-2 2c-.8.6-1.8.7-2.9.7-2 0-3.4-.7-4.4-2-1-1.3-1.4-3.1-1.4-5.3 0-1.7.3-3.2.8-4.5.6-1.3 1.3-2.2 2.2-2.9 1-.7 2.1-1.1 3.5-1.1 1.3 0 2.4.3 3.5 1l-1.3 2.1c-.7-.4-1.4-.6-2.1-.6-.8 0-1.5.4-2.1 1.1-.6.7-.8 1.7-1 3.1 1-1 2-1.4 3.2-1.4 1.2.1 1.9.3 2.6.6zm-2 6.8c.3-.6.4-1.3.4-2.2 0-1-.1-1.7-.4-2-.3-.4-.7-.6-1.4-.6-.8 0-1.5.4-2.2 1.1 0 1.5.1 2.8.6 3.4.3.7.8 1 1.5 1 .7.1 1.2-.2 1.5-.7zM1114.6 885.3c1 1.4 1.4 3.4 1.4 5.9 0 2.5-.4 4.5-1.4 5.9-1 1.4-2.4 2.1-4.2 2.1-1.8 0-3.2-.7-4.2-2.1-1-1.4-1.4-3.4-1.4-5.9 0-2.5.4-4.5 1.4-5.9 1-1.4 2.4-2.1 4.2-2.1 1.8.2 3.2.7 4.2 2.1zm-5.5 1.1c-.3.3-.6.8-.7 1.7-.1.7-.3 1.8-.3 3.2s.1 2.4.3 3.2c.1.7.4 1.3.7 1.7.3.3.7.6 1.3.6.6 0 1-.1 1.3-.4.3-.3.6-.8.7-1.7.1-.7.3-1.8.3-3.2 0-1.4 0-2.4-.3-3.2s-.4-1.3-.7-1.7c-.3-.3-.7-.4-1.3-.4-.6-.3-1-.2-1.3.2z"/></g><g class="st17"><path class="st6" d="M1308.8 884.9c1 1.1 1.4 2.5 1.4 4.2 0 2.1-.3 3.8-1 5.1-.7 1.3-1.7 2.4-3.1 3.2-1.4.8-3.2 1.4-5.3 2l-.7-2.5c2-.4 3.4-1.1 4.5-1.8s1.7-1.7 2-3.1c-.8 1-1.8 1.4-3.1 1.4-.8 0-1.5-.1-2.2-.6-.7-.4-1.1-1-1.5-1.7-.4-.7-.6-1.7-.6-2.7s.3-2 .7-2.8c.6-.8 1.1-1.4 2-1.8.8-.4 1.8-.7 2.8-.7 1.8.3 3.2.7 4.1 1.8zm-3.1 5.8c.4-.3.7-.6 1-1 0-1.4-.1-2.4-.4-2.9-.3-.6-.8-.8-1.5-.8s-1.1.3-1.5.7c-.4.4-.6 1.1-.6 2 0 1 .1 1.5.6 2 .3.4.8.6 1.4.6.2-.2.6-.4 1-.6zM1319.2 883.6v15.2h-3.5V887l-3.2 2-1.5-2.4 5.1-3.1h3.2v.1zM1332.7 892.3c.6.7.7 1.4.7 2.2s-.3 1.5-.7 2.2c-.4.7-1.1 1.3-2.1 1.7-.8.4-2 .6-3.2.6-1.1 0-2.2-.1-3.1-.6-.8-.4-1.5-1-2-1.5-.4-.7-.7-1.4-.7-2.2 0-1.7 1-2.9 2.8-3.8-1.5-.8-2.2-2.1-2.2-3.7 0-.8.3-1.5.7-2.1.4-.6 1.1-1.1 1.8-1.4.8-.3 1.7-.6 2.7-.6 1.5 0 2.8.3 3.8 1s1.4 1.7 1.4 2.8c0 .7-.1 1.3-.6 2-.4.6-1 1.1-1.8 1.5 1.2.7 1.9 1.4 2.5 1.9zm-3.6 3.8c.4-.4.6-.8.6-1.4 0-.6-.1-1.1-.6-1.4-.3-.4-1-.7-1.8-1l-.7-.3c-1 .6-1.5 1.4-1.5 2.7 0 .6.1 1.1.6 1.5.4.4 1 .6 1.7.6.6 0 1.5-.4 1.7-.7zm-2.9-9.9c-.3.3-.6.7-.6 1.3s.1 1 .4 1.3c.3.3.7.6 1.4.8l.4.1c.6-.3.8-.7 1.1-1 .1-.4.3-.8.3-1.3 0-.4-.1-1-.4-1.3-.3-.3-.7-.4-1.4-.4-.4 0-.9.2-1.2.5zM1344.9 885.3c1 1.4 1.4 3.4 1.4 5.9 0 2.5-.4 4.5-1.4 5.9-1 1.4-2.4 2.1-4.2 2.1-1.8 0-3.2-.7-4.2-2.1-1-1.4-1.4-3.4-1.4-5.9 0-2.5.4-4.5 1.4-5.9 1-1.4 2.4-2.1 4.2-2.1 1.8 0 3.2.7 4.2 2.1zm-5.5 1.1c-.3.3-.6.8-.7 1.7-.1.7-.3 1.8-.3 3.2s0 2.4.3 3.2c.1.7.4 1.3.7 1.7.3.3.7.6 1.3.6.6 0 1-.1 1.3-.4.3-.3.6-.8.7-1.7.1-.7.3-1.8.3-3.2 0-1.4 0-2.4-.3-3.2s-.4-1.3-.7-1.7c-.3-.3-.7-.4-1.3-.4-.6 0-1-.2-1.3.2zM1358.1 885.3c1 1.4 1.4 3.4 1.4 5.9 0 2.5-.4 4.5-1.4 5.9-1 1.4-2.4 2.1-4.2 2.1s-3.2-.7-4.2-2.1c-1-1.4-1.4-3.4-1.4-5.9 0-2.5.4-4.5 1.4-5.9s2.4-2.1 4.2-2.1c1.8.2 3.2.7 4.2 2.1zm-5.5 1.1c-.3.3-.6.8-.7 1.7-.1.7-.3 1.8-.3 3.2s.1 2.4.3 3.2c.1.7.4 1.3.7 1.7.3.3.7.6 1.3.6s1-.1 1.3-.4c.3-.3.6-.8.7-1.7.1-.7.3-1.8.3-3.2 0-1.4 0-2.4-.3-3.2s-.4-1.3-.7-1.7c-.3-.4-.7-.4-1.3-.4-.6-.3-1-.2-1.3.2z"/></g></g></svg>